<svg version="1.1" viewBox="0.0 0.0 1152.0 864.0" fill="none" stroke="none" stroke-linecap="square" stroke-miterlimit="10" xmlns:xlink="http://www.w3.org/1999/xlink" xmlns="http://www.w3.org/2000/svg"><clipPath id="p.0"><path d="m0 0l1152.0 0l0 864.0l-1152.0 0l0 -864.0z" clip-rule="nonzero"/></clipPath><g clip-path="url(#p.0)"><path fill="#ffffff" d="m0 0l1152.0 0l0 864.0l-1152.0 0z" fill-rule="evenodd"/><path fill="#cfe2f3" d="m242.95801 171.01837l145.22833 0l0 137.88977l-145.22833 0z" fill-rule="evenodd"/><path stroke="#000000" stroke-width="1.0" stroke-linejoin="round" stroke-linecap="butt" d="m242.95801 171.01837l145.22833 0l0 137.88977l-145.22833 0z" fill-rule="evenodd"/><path fill="#000000" d="m266.92072 185.94826l-1.796875 0l0 11.375l1.40625 0l0 -4.546875l-0.109375 -4.578125l1.921875 5.953125l0.828125 0l2.109375 -6.125l-0.125 4.75l0 4.546875l1.40625 0l0 -11.375l-1.796875 0l-2.0 5.6875l-1.84375 -5.6875zm9.4453125 6.75l0 0.078125q0 1.125 0.171875 2.109375q0.171875 0.984375 0.46875 1.8125q0.296875 0.859375 0.671875 1.546875q0.390625 0.6875 0.828125 1.234375q0.421875 0.546875 0.84375 0.921875q0.4375 0.375 0.828125 0.59375l0.3125 -0.875q-0.328125 -0.265625 -0.640625 -0.625q-0.3125 -0.359375 -0.609375 -0.828125q-0.296875 -0.5 -0.5625 -1.125q-0.265625 -0.625 -0.46875 -1.34375q-0.1875 -0.71875 -0.296875 -1.5625q-0.109375 -0.859375 -0.109375 -1.84375l0 -0.109375q0 -1.015625 0.109375 -1.890625q0.125 -0.890625 0.34375 -1.625q0.21875 -0.8125 0.546875 -1.484375q0.328125 -0.6875 0.6875 -1.203125q0.234375 -0.328125 0.484375 -0.59375q0.265625 -0.265625 0.515625 -0.453125l-0.3125 -0.953125q-0.390625 0.21875 -0.828125 0.609375q-0.421875 0.375 -0.84375 0.921875q-0.421875 0.53125 -0.8125 1.234375q-0.390625 0.6875 -0.6875 1.53125q-0.296875 0.84375 -0.46875 1.828125q-0.171875 0.984375 -0.171875 2.09375zm11.5859375 -5.875l-1.453125 0l0 2.046875l-2.21875 0l0 1.109375l2.21875 0l0 4.59375q0 0.78125 0.203125 1.34375q0.21875 0.546875 0.578125 0.890625q0.359375 0.34375 0.84375 0.515625q0.484375 0.15625 1.046875 0.15625q0.34375 0 0.671875 -0.03125q0.34375 -0.03125 0.65625 -0.09375q0.296875 -0.0625 0.546875 -0.140625q0.265625 -0.078125 0.453125 -0.1875l-0.203125 -1.03125q-0.140625 0.03125 -0.34375 0.078125q-0.203125 0.046875 -0.4375 0.078125q-0.25 0.046875 -0.5 0.078125q-0.25 0.015625 -0.484375 0.015625q-0.3125 0 -0.609375 -0.078125q-0.28125 -0.078125 -0.5 -0.265625q-0.21875 -0.1875 -0.34375 -0.5q-0.125 -0.328125 -0.125 -0.828125l0 -4.59375l3.21875 0l0 -1.109375l-3.21875 0l0 -2.046875zm9.8515625 10.15625l0 -1.375l-1.578125 0l0 1.40625q0 0.671875 -0.15625 1.28125q-0.15625 0.625 -0.53125 1.171875l0.90625 0.484375q0.625 -0.546875 0.984375 -1.359375q0.375 -0.8125 0.375 -1.609375zm10.6171875 0.34375l0 -11.375l-0.109375 0l-4.3125 1.65625l0 1.3125l2.984375 -1.125l0 9.53125l1.4375 0zm10.1953125 -4.546875l0 -0.078125q0 -1.1875 -0.1875 -2.140625q-0.1875 -0.96875 -0.46875 -1.78125q-0.28125 -0.859375 -0.671875 -1.53125q-0.375 -0.6875 -0.8125 -1.234375q-0.421875 -0.546875 -0.859375 -0.921875q-0.4375 -0.390625 -0.828125 -0.609375l-0.3125 0.890625q0.265625 0.203125 0.53125 0.515625q0.28125 0.296875 0.53125 0.6875q0.34375 0.515625 0.65625 1.203125q0.328125 0.671875 0.546875 1.53125q0.15625 0.609375 0.28125 1.46875q0.140625 0.859375 0.140625 1.90625l0 0.109375q0 0.9375 -0.109375 1.75q-0.09375 0.8125 -0.265625 1.515625q-0.171875 0.765625 -0.453125 1.40625q-0.265625 0.640625 -0.546875 1.140625q-0.3125 0.5 -0.65625 0.875q-0.328125 0.390625 -0.65625 0.640625l0.3125 0.875q0.390625 -0.21875 0.8125 -0.59375q0.4375 -0.375 0.875 -0.921875q0.421875 -0.546875 0.796875 -1.234375q0.390625 -0.6875 0.6875 -1.546875q0.296875 -0.828125 0.46875 -1.8125q0.1875 -0.984375 0.1875 -2.109375zm7.1171875 4.546875l1.25 0l3.59375 -11.375l-1.546875 0l-2.515625 8.46875l-0.171875 0.578125l-0.15625 -0.5625l-2.5 -8.484375l-1.546875 0l3.59375 11.375zm8.2421875 -4.625l0 0.078125q0 1.125 0.171875 2.109375q0.171875 0.984375 0.46875 1.8125q0.296875 0.859375 0.671875 1.546875q0.390625 0.6875 0.828125 1.234375q0.421875 0.546875 0.84375 0.921875q0.4375 0.375 0.828125 0.59375l0.3125 -0.875q-0.328125 -0.265625 -0.640625 -0.625q-0.3125 -0.359375 -0.609375 -0.828125q-0.296875 -0.5 -0.5625 -1.125q-0.265625 -0.625 -0.46875 -1.34375q-0.1875 -0.71875 -0.296875 -1.5625q-0.109375 -0.859375 -0.109375 -1.84375l0 -0.109375q0 -1.015625 0.109375 -1.890625q0.125 -0.890625 0.34375 -1.625q0.21875 -0.8125 0.546875 -1.484375q0.328125 -0.6875 0.6875 -1.203125q0.234375 -0.328125 0.484375 -0.59375q0.265625 -0.265625 0.515625 -0.453125l-0.3125 -0.953125q-0.390625 0.21875 -0.828125 0.609375q-0.421875 0.375 -0.84375 0.921875q-0.421875 0.53125 -0.8125 1.234375q-0.390625 0.6875 -0.6875 1.53125q-0.296875 0.84375 -0.46875 1.828125q-0.171875 0.984375 -0.171875 2.09375zm12.8515625 4.625l0 -11.375l-0.109375 0l-4.3125 1.65625l0 1.3125l2.984375 -1.125l0 9.53125l1.4375 0zm8.5859375 -0.34375l0 -1.375l-1.578125 0l0 1.40625q0 0.671875 -0.15625 1.28125q-0.15625 0.625 -0.53125 1.171875l0.90625 0.484375q0.625 -0.546875 0.984375 -1.359375q0.375 -0.8125 0.375 -1.609375zm10.6171875 0.34375l0 -11.375l-0.109375 0l-4.3125 1.65625l0 1.3125l2.984375 -1.125l0 9.53125l1.4375 0zm10.1953125 -4.546875l0 -0.078125q0 -1.1875 -0.1875 -2.140625q-0.1875 -0.96875 -0.46875 -1.78125q-0.28125 -0.859375 -0.671875 -1.53125q-0.375 -0.6875 -0.8125 -1.234375q-0.421875 -0.546875 -0.859375 -0.921875q-0.4375 -0.390625 -0.828125 -0.609375l-0.3125 0.890625q0.265625 0.203125 0.53125 0.515625q0.28125 0.296875 0.53125 0.6875q0.34375 0.515625 0.65625 1.203125q0.328125 0.671875 0.546875 1.53125q0.15625 0.609375 0.28125 1.46875q0.140625 0.859375 0.140625 1.90625l0 0.109375q0 0.9375 -0.109375 1.75q-0.09375 0.8125 -0.265625 1.515625q-0.171875 0.765625 -0.453125 1.40625q-0.265625 0.640625 -0.546875 1.140625q-0.3125 0.5 -0.65625 0.875q-0.328125 0.390625 -0.65625 0.640625l0.3125 0.875q0.390625 -0.21875 0.8125 -0.59375q0.4375 -0.375 0.875 -0.921875q0.421875 -0.546875 0.796875 -1.234375q0.390625 -0.6875 0.6875 -1.546875q0.296875 -0.828125 0.46875 -1.8125q0.1875 -0.984375 0.1875 -2.109375z" fill-rule="nonzero"/><path fill="#000000" d="m259.9129 220.21388l0 -3.3125l-1.4375 0l0 3.3125l-3.1718597 0l0 1.4375l3.1718597 0l0 3.53125l1.4375 0l0 -3.53125l3.1875 0l0 -1.4375l-3.1875 0zm7.0078125 -5.265625l-1.796875 0l0 11.375l1.40625 0l0 -4.546875l-0.109375 -4.578125l1.921875 5.953125l0.828125 0l2.109375 -6.125l-0.125 4.75l0 4.546875l1.40625 0l0 -11.375l-1.796875 0l-2.0 5.6875l-1.84375 -5.6875zm9.4453125 6.75l0 0.078125q0 1.125 0.171875 2.109375q0.171875 0.984375 0.46875 1.8125q0.296875 0.859375 0.671875 1.546875q0.390625 0.6875 0.828125 1.234375q0.421875 0.546875 0.84375 0.921875q0.4375 0.375 0.828125 0.59375l0.3125 -0.875q-0.328125 -0.265625 -0.640625 -0.625q-0.3125 -0.359375 -0.609375 -0.828125q-0.296875 -0.5 -0.5625 -1.125q-0.265625 -0.625 -0.46875 -1.34375q-0.1875 -0.71875 -0.296875 -1.5625q-0.109375 -0.859375 -0.109375 -1.84375l0 -0.109375q0 -1.015625 0.109375 -1.890625q0.125 -0.890625 0.34375 -1.625q0.21875 -0.8125 0.546875 -1.484375q0.328125 -0.6875 0.6875 -1.203125q0.234375 -0.328125 0.484375 -0.59375q0.265625 -0.265625 0.515625 -0.453125l-0.3125 -0.953125q-0.390625 0.21875 -0.828125 0.609375q-0.421875 0.375 -0.84375 0.921875q-0.421875 0.53125 -0.8125 1.234375q-0.390625 0.6875 -0.6875 1.53125q-0.296875 0.84375 -0.46875 1.828125q-0.171875 0.984375 -0.171875 2.09375zm11.5859375 -5.875l-1.453125 0l0 2.046875l-2.21875 0l0 1.109375l2.21875 0l0 4.59375q0 0.78125 0.203125 1.34375q0.21875 0.546875 0.578125 0.890625q0.359375 0.34375 0.84375 0.515625q0.484375 0.15625 1.046875 0.15625q0.34375 0 0.671875 -0.03125q0.34375 -0.03125 0.65625 -0.09375q0.296875 -0.0625 0.546875 -0.140625q0.265625 -0.078125 0.453125 -0.1875l-0.203125 -1.03125q-0.140625 0.03125 -0.34375 0.078125q-0.203125 0.046875 -0.4375 0.078125q-0.25 0.046875 -0.5 0.078125q-0.25 0.015625 -0.484375 0.015625q-0.3125 0 -0.609375 -0.078125q-0.28125 -0.078125 -0.5 -0.265625q-0.21875 -0.1875 -0.34375 -0.5q-0.125 -0.328125 -0.125 -0.828125l0 -4.59375l3.21875 0l0 -1.109375l-3.21875 0l0 -2.046875zm9.8515625 10.15625l0 -1.375l-1.578125 0l0 1.40625q0 0.671875 -0.15625 1.28125q-0.15625 0.625 -0.53125 1.171875l0.90625 0.484375q0.625 -0.546875 0.984375 -1.359375q0.375 -0.8125 0.375 -1.609375zm12.9140625 0.34375l0 -1.1875l-5.71875 0l3.0625 -3.3125q0.421875 -0.46875 0.8125 -0.9375q0.390625 -0.46875 0.6875 -0.953125q0.28125 -0.484375 0.453125 -0.984375q0.171875 -0.5 0.171875 -1.0q0 -0.6875 -0.234375 -1.265625q-0.234375 -0.578125 -0.6875 -1.0q-0.4375 -0.421875 -1.09375 -0.65625q-0.640625 -0.234375 -1.4375 -0.234375q-0.875 0 -1.5625 0.28125q-0.6875 0.28125 -1.15625 0.75q-0.46875 0.484375 -0.71875 1.125q-0.25 0.625 -0.25 1.34375l1.453125 0q0 -0.53125 0.125 -0.953125q0.140625 -0.4375 0.421875 -0.734375q0.28125 -0.296875 0.6875 -0.453125q0.421875 -0.171875 1.0 -0.171875q0.46875 0 0.828125 0.15625q0.375 0.15625 0.640625 0.4375q0.265625 0.265625 0.390625 0.640625q0.140625 0.375 0.140625 0.796875q0 0.34375 -0.09375 0.671875q-0.078125 0.3125 -0.28125 0.671875q-0.203125 0.375 -0.546875 0.8125q-0.328125 0.421875 -0.828125 0.96875l-3.71875 4.140625l0 1.046875l7.453125 0zm7.8984375 -4.546875l0 -0.078125q0 -1.1875 -0.1875 -2.140625q-0.1875 -0.96875 -0.46875 -1.78125q-0.28125 -0.859375 -0.671875 -1.53125q-0.375 -0.6875 -0.8125 -1.234375q-0.421875 -0.546875 -0.859375 -0.921875q-0.4375 -0.390625 -0.828125 -0.609375l-0.3125 0.890625q0.265625 0.203125 0.53125 0.515625q0.28125 0.296875 0.53125 0.6875q0.34375 0.515625 0.65625 1.203125q0.328125 0.671875 0.546875 1.53125q0.15625 0.609375 0.28125 1.46875q0.140625 0.859375 0.140625 1.90625l0 0.109375q0 0.9375 -0.109375 1.75q-0.09375 0.8125 -0.265625 1.515625q-0.171875 0.765625 -0.453125 1.40625q-0.265625 0.640625 -0.546875 1.140625q-0.3125 0.5 -0.65625 0.875q-0.328125 0.390625 -0.65625 0.640625l0.3125 0.875q0.390625 -0.21875 0.8125 -0.59375q0.4375 -0.375 0.875 -0.921875q0.421875 -0.546875 0.796875 -1.234375q0.390625 -0.6875 0.6875 -1.546875q0.296875 -0.828125 0.46875 -1.8125q0.1875 -0.984375 0.1875 -2.109375zm7.1171875 4.546875l1.25 0l3.59375 -11.375l-1.546875 0l-2.515625 8.46875l-0.171875 0.578125l-0.15625 -0.5625l-2.5 -8.484375l-1.546875 0l3.59375 11.375zm8.2421875 -4.625l0 0.078125q0 1.125 0.171875 2.109375q0.171875 0.984375 0.46875 1.8125q0.296875 0.859375 0.671875 1.546875q0.390625 0.6875 0.828125 1.234375q0.421875 0.546875 0.84375 0.921875q0.4375 0.375 0.828125 0.59375l0.3125 -0.875q-0.328125 -0.265625 -0.640625 -0.625q-0.3125 -0.359375 -0.609375 -0.828125q-0.296875 -0.5 -0.5625 -1.125q-0.265625 -0.625 -0.46875 -1.34375q-0.1875 -0.71875 -0.296875 -1.5625q-0.109375 -0.859375 -0.109375 -1.84375l0 -0.109375q0 -1.015625 0.109375 -1.890625q0.125 -0.890625 0.34375 -1.625q0.21875 -0.8125 0.546875 -1.484375q0.328125 -0.6875 0.6875 -1.203125q0.234375 -0.328125 0.484375 -0.59375q0.265625 -0.265625 0.515625 -0.453125l-0.3125 -0.953125q-0.390625 0.21875 -0.828125 0.609375q-0.421875 0.375 -0.84375 0.921875q-0.421875 0.53125 -0.8125 1.234375q-0.390625 0.6875 -0.6875 1.53125q-0.296875 0.84375 -0.46875 1.828125q-0.171875 0.984375 -0.171875 2.09375zm15.1484375 4.625l0 -1.1875l-5.71875 0l3.0625 -3.3125q0.421875 -0.46875 0.8125 -0.9375q0.390625 -0.46875 0.6875 -0.953125q0.28125 -0.484375 0.453125 -0.984375q0.171875 -0.5 0.171875 -1.0q0 -0.6875 -0.234375 -1.265625q-0.234375 -0.578125 -0.6875 -1.0q-0.4375 -0.421875 -1.09375 -0.65625q-0.640625 -0.234375 -1.4375 -0.234375q-0.875 0 -1.5625 0.28125q-0.6875 0.28125 -1.15625 0.75q-0.46875 0.484375 -0.71875 1.125q-0.25 0.625 -0.25 1.34375l1.453125 0q0 -0.53125 0.125 -0.953125q0.140625 -0.4375 0.421875 -0.734375q0.28125 -0.296875 0.6875 -0.453125q0.421875 -0.171875 1.0 -0.171875q0.46875 0 0.828125 0.15625q0.375 0.15625 0.640625 0.4375q0.265625 0.265625 0.390625 0.640625q0.140625 0.375 0.140625 0.796875q0 0.34375 -0.09375 0.671875q-0.078125 0.3125 -0.28125 0.671875q-0.203125 0.375 -0.546875 0.8125q-0.328125 0.421875 -0.828125 0.96875l-3.71875 4.140625l0 1.046875l7.453125 0zm6.2890625 -0.34375l0 -1.375l-1.578125 0l0 1.40625q0 0.671875 -0.15625 1.28125q-0.15625 0.625 -0.53125 1.171875l0.90625 0.484375q0.625 -0.546875 0.984375 -1.359375q0.375 -0.8125 0.375 -1.609375zm10.6171875 0.34375l0 -11.375l-0.109375 0l-4.3125 1.65625l0 1.3125l2.984375 -1.125l0 9.53125l1.4375 0zm10.1953125 -4.546875l0 -0.078125q0 -1.1875 -0.1875 -2.140625q-0.1875 -0.96875 -0.46875 -1.78125q-0.28125 -0.859375 -0.671875 -1.53125q-0.375 -0.6875 -0.8125 -1.234375q-0.421875 -0.546875 -0.859375 -0.921875q-0.4375 -0.390625 -0.828125 -0.609375l-0.3125 0.890625q0.265625 0.203125 0.53125 0.515625q0.28125 0.296875 0.53125 0.6875q0.34375 0.515625 0.65625 1.203125q0.328125 0.671875 0.546875 1.53125q0.15625 0.609375 0.28125 1.46875q0.140625 0.859375 0.140625 1.90625l0 0.109375q0 0.9375 -0.109375 1.75q-0.09375 0.8125 -0.265625 1.515625q-0.171875 0.765625 -0.453125 1.40625q-0.265625 0.640625 -0.546875 1.140625q-0.3125 0.5 -0.65625 0.875q-0.328125 0.390625 -0.65625 0.640625l0.3125 0.875q0.390625 -0.21875 0.8125 -0.59375q0.4375 -0.375 0.875 -0.921875q0.421875 -0.546875 0.796875 -1.234375q0.390625 -0.6875 0.6875 -1.546875q0.296875 -0.828125 0.46875 -1.8125q0.1875 -0.984375 0.1875 -2.109375z" fill-rule="nonzero"/><path fill="#000000" d="m257.50488 249.21388l0 -3.3125l-1.4375 0l0 3.3125l-3.171875 0l0 1.4375l3.171875 0l0 3.53125l1.4375 0l0 -3.53125l3.1875 0l0 -1.4375l-3.1875 0zm46.335938 5.171875q0 0.453125 0.28125 0.78125q0.296875 0.3125 0.859375 0.3125q0.546875 0 0.84375 -0.3125q0.296875 -0.328125 0.296875 -0.78125q0 -0.46875 -0.296875 -0.796875q-0.28125 -0.328125 -0.84375 -0.328125q-0.578125 0 -0.859375 0.328125q-0.28125 0.328125 -0.28125 0.796875zm9.6015625 0q0 0.453125 0.28125 0.78125q0.296875 0.3125 0.859375 0.3125q0.546875 0 0.84375 -0.3125q0.296875 -0.328125 0.296875 -0.78125q0 -0.46875 -0.296875 -0.796875q-0.28125 -0.328125 -0.84375 -0.328125q-0.578125 0 -0.859375 0.328125q-0.28125 0.328125 -0.28125 0.796875zm9.6015625 0q0 0.453125 0.28125 0.78125q0.296875 0.3125 0.859375 0.3125q0.546875 0 0.84375 -0.3125q0.296875 -0.328125 0.296875 -0.78125q0 -0.46875 -0.296875 -0.796875q-0.28125 -0.328125 -0.84375 -0.328125q-0.578125 0 -0.859375 0.328125q-0.28125 0.328125 -0.28125 0.796875zm9.6015625 0q0 0.453125 0.28125 0.78125q0.296875 0.3125 0.859375 0.3125q0.546875 0 0.84375 -0.3125q0.296875 -0.328125 0.296875 -0.78125q0 -0.46875 -0.296875 -0.796875q-0.28125 -0.328125 -0.84375 -0.328125q-0.578125 0 -0.859375 0.328125q-0.28125 0.328125 -0.28125 0.796875zm9.6015625 0q0 0.453125 0.28125 0.78125q0.296875 0.3125 0.859375 0.3125q0.546875 0 0.84375 -0.3125q0.296875 -0.328125 0.296875 -0.78125q0 -0.46875 -0.296875 -0.796875q-0.28125 -0.328125 -0.84375 -0.328125q-0.578125 0 -0.859375 0.328125q-0.28125 0.328125 -0.28125 0.796875zm9.6015625 0q0 0.453125 0.28125 0.78125q0.296875 0.3125 0.859375 0.3125q0.546875 0 0.84375 -0.3125q0.296875 -0.328125 0.296875 -0.78125q0 -0.46875 -0.296875 -0.796875q-0.28125 -0.328125 -0.84375 -0.328125q-0.578125 0 -0.859375 0.328125q-0.28125 0.328125 -0.28125 0.796875zm9.6015625 0q0 0.453125 0.28125 0.78125q0.296875 0.3125 0.859375 0.3125q0.546875 0 0.84375 -0.3125q0.296875 -0.328125 0.296875 -0.78125q0 -0.46875 -0.296875 -0.796875q-0.28125 -0.328125 -0.84375 -0.328125q-0.578125 0 -0.859375 0.328125q-0.28125 0.328125 -0.28125 0.796875zm9.6015625 0q0 0.453125 0.28125 0.78125q0.296875 0.3125 0.859375 0.3125q0.546875 0 0.84375 -0.3125q0.296875 -0.328125 0.296875 -0.78125q0 -0.46875 -0.296875 -0.796875q-0.28125 -0.328125 -0.84375 -0.328125q-0.578125 0 -0.859375 0.328125q-0.28125 0.328125 -0.28125 0.796875z" fill-rule="nonzero"/><path fill="#000000" d="m259.9129 278.2139l0 -3.3125l-1.4375 0l0 3.3125l-3.1718597 0l0 1.4375l3.1718597 0l0 3.53125l1.4375 0l0 -3.53125l3.1875 0l0 -1.4375l-3.1875 0zm7.0078125 -5.265625l-1.796875 0l0 11.375l1.40625 0l0 -4.546875l-0.109375 -4.578125l1.921875 5.953125l0.828125 0l2.109375 -6.125l-0.125 4.75l0 4.546875l1.40625 0l0 -11.375l-1.796875 0l-2.0 5.6875l-1.84375 -5.6875zm9.4453125 6.75l0 0.078125q0 1.125 0.171875 2.109375q0.171875 0.984375 0.46875 1.8125q0.296875 0.859375 0.671875 1.546875q0.390625 0.6875 0.828125 1.234375q0.421875 0.546875 0.84375 0.921875q0.4375 0.375 0.828125 0.59375l0.3125 -0.875q-0.328125 -0.265625 -0.640625 -0.625q-0.3125 -0.359375 -0.609375 -0.828125q-0.296875 -0.5 -0.5625 -1.125q-0.265625 -0.625 -0.46875 -1.34375q-0.1875 -0.71875 -0.296875 -1.5625q-0.109375 -0.859375 -0.109375 -1.84375l0 -0.109375q0 -1.015625 0.109375 -1.890625q0.125 -0.890625 0.34375 -1.625q0.21875 -0.8125 0.546875 -1.484375q0.328125 -0.6875 0.6875 -1.203125q0.234375 -0.328125 0.484375 -0.59375q0.265625 -0.265625 0.515625 -0.453125l-0.3125 -0.953125q-0.390625 0.21875 -0.828125 0.609375q-0.421875 0.375 -0.84375 0.921875q-0.421875 0.53125 -0.8125 1.234375q-0.390625 0.6875 -0.6875 1.53125q-0.296875 0.84375 -0.46875 1.828125q-0.171875 0.984375 -0.171875 2.09375zm11.5859375 -5.875l-1.453125 0l0 2.046875l-2.21875 0l0 1.109375l2.21875 0l0 4.59375q0 0.78125 0.203125 1.34375q0.21875 0.546875 0.578125 0.890625q0.359375 0.34375 0.84375 0.515625q0.484375 0.15625 1.046875 0.15625q0.34375 0 0.671875 -0.03125q0.34375 -0.03125 0.65625 -0.09375q0.296875 -0.0625 0.546875 -0.140625q0.265625 -0.078125 0.453125 -0.1875l-0.203125 -1.03125q-0.140625 0.03125 -0.34375 0.078125q-0.203125 0.046875 -0.4375 0.078125q-0.25 0.046875 -0.5 0.078125q-0.25 0.015625 -0.484375 0.015625q-0.3125 0 -0.609375 -0.078125q-0.28125 -0.078125 -0.5 -0.265625q-0.21875 -0.1875 -0.34375 -0.5q-0.125 -0.328125 -0.125 -0.828125l0 -4.59375l3.21875 0l0 -1.109375l-3.21875 0l0 -2.046875zm9.8515625 10.15625l0 -1.375l-1.578125 0l0 1.40625q0 0.671875 -0.15625 1.28125q-0.15625 0.625 -0.53125 1.171875l0.90625 0.484375q0.625 -0.546875 0.984375 -1.359375q0.375 -0.8125 0.375 -1.609375zm13.6015625 -9.796875l0 -1.234375l-8.4375 0l0 1.234375l3.515625 0l0 10.140625l1.40625 0l0 -10.140625l3.515625 0zm7.2109375 5.59375l0 -0.078125q0 -1.1875 -0.1875 -2.140625q-0.1875 -0.96875 -0.46875 -1.78125q-0.28125 -0.859375 -0.671875 -1.53125q-0.375 -0.6875 -0.8125 -1.234375q-0.421875 -0.546875 -0.859375 -0.921875q-0.4375 -0.390625 -0.828125 -0.609375l-0.3125 0.890625q0.265625 0.203125 0.53125 0.515625q0.28125 0.296875 0.53125 0.6875q0.34375 0.515625 0.65625 1.203125q0.328125 0.671875 0.546875 1.53125q0.15625 0.609375 0.28125 1.46875q0.140625 0.859375 0.140625 1.90625l0 0.109375q0 0.9375 -0.109375 1.75q-0.09375 0.8125 -0.265625 1.515625q-0.171875 0.765625 -0.453125 1.40625q-0.265625 0.640625 -0.546875 1.140625q-0.3125 0.5 -0.65625 0.875q-0.328125 0.390625 -0.65625 0.640625l0.3125 0.875q0.390625 -0.21875 0.8125 -0.59375q0.4375 -0.375 0.875 -0.921875q0.421875 -0.546875 0.796875 -1.234375q0.390625 -0.6875 0.6875 -1.546875q0.296875 -0.828125 0.46875 -1.8125q0.1875 -0.984375 0.1875 -2.109375zm7.1171875 4.546875l1.25 0l3.59375 -11.375l-1.546875 0l-2.515625 8.46875l-0.171875 0.578125l-0.15625 -0.5625l-2.5 -8.484375l-1.546875 0l3.59375 11.375zm8.2421875 -4.625l0 0.078125q0 1.125 0.171875 2.109375q0.171875 0.984375 0.46875 1.8125q0.296875 0.859375 0.671875 1.546875q0.390625 0.6875 0.828125 1.234375q0.421875 0.546875 0.84375 0.921875q0.4375 0.375 0.828125 0.59375l0.3125 -0.875q-0.328125 -0.265625 -0.640625 -0.625q-0.3125 -0.359375 -0.609375 -0.828125q-0.296875 -0.5 -0.5625 -1.125q-0.265625 -0.625 -0.46875 -1.34375q-0.1875 -0.71875 -0.296875 -1.5625q-0.109375 -0.859375 -0.109375 -1.84375l0 -0.109375q0 -1.015625 0.109375 -1.890625q0.125 -0.890625 0.34375 -1.625q0.21875 -0.8125 0.546875 -1.484375q0.328125 -0.6875 0.6875 -1.203125q0.234375 -0.328125 0.484375 -0.59375q0.265625 -0.265625 0.515625 -0.453125l-0.3125 -0.953125q-0.390625 0.21875 -0.828125 0.609375q-0.421875 0.375 -0.84375 0.921875q-0.421875 0.53125 -0.8125 1.234375q-0.390625 0.6875 -0.6875 1.53125q-0.296875 0.84375 -0.46875 1.828125q-0.171875 0.984375 -0.171875 2.09375zm15.8359375 -5.515625l0 -1.234375l-8.4375 0l0 1.234375l3.515625 0l0 10.140625l1.40625 0l0 -10.140625l3.515625 0zm5.6015625 9.796875l0 -1.375l-1.578125 0l0 1.40625q0 0.671875 -0.15625 1.28125q-0.15625 0.625 -0.53125 1.171875l0.90625 0.484375q0.625 -0.546875 0.984375 -1.359375q0.375 -0.8125 0.375 -1.609375zm10.6171875 0.34375l0 -11.375l-0.109375 0l-4.3125 1.65625l0 1.3125l2.984375 -1.125l0 9.53125l1.4375 0zm10.1953125 -4.546875l0 -0.078125q0 -1.1875 -0.1875 -2.140625q-0.1875 -0.96875 -0.46875 -1.78125q-0.28125 -0.859375 -0.671875 -1.53125q-0.375 -0.6875 -0.8125 -1.234375q-0.421875 -0.546875 -0.859375 -0.921875q-0.4375 -0.390625 -0.828125 -0.609375l-0.3125 0.890625q0.265625 0.203125 0.53125 0.515625q0.28125 0.296875 0.53125 0.6875q0.34375 0.515625 0.65625 1.203125q0.328125 0.671875 0.546875 1.53125q0.15625 0.609375 0.28125 1.46875q0.140625 0.859375 0.140625 1.90625l0 0.109375q0 0.9375 -0.109375 1.75q-0.09375 0.8125 -0.265625 1.515625q-0.171875 0.765625 -0.453125 1.40625q-0.265625 0.640625 -0.546875 1.140625q-0.3125 0.5 -0.65625 0.875q-0.328125 0.390625 -0.65625 0.640625l0.3125 0.875q0.390625 -0.21875 0.8125 -0.59375q0.4375 -0.375 0.875 -0.921875q0.421875 -0.546875 0.796875 -1.234375q0.390625 -0.6875 0.6875 -1.546875q0.296875 -0.828125 0.46875 -1.8125q0.1875 -0.984375 0.1875 -2.109375z" fill-rule="nonzero"/><path fill="#cfe2f3" d="m417.76904 171.01837l145.22833 0l0 137.88977l-145.22833 0z" fill-rule="evenodd"/><path stroke="#000000" stroke-width="1.0" stroke-linejoin="round" stroke-linecap="butt" d="m417.76904 171.01837l145.22833 0l0 137.88977l-145.22833 0z" fill-rule="evenodd"/><path fill="#000000" d="m441.73175 185.94826l-1.796875 0l0 11.375l1.40625 0l0 -4.546875l-0.109375 -4.578125l1.921875 5.953125l0.828125 0l2.109375 -6.125l-0.125 4.75l0 4.546875l1.40625 0l0 -11.375l-1.796875 0l-2.0 5.6875l-1.84375 -5.6875zm9.4453125 6.75l0 0.078125q0 1.125 0.171875 2.109375q0.171875 0.984375 0.46875 1.8125q0.296875 0.859375 0.671875 1.546875q0.390625 0.6875 0.828125 1.234375q0.421875 0.546875 0.84375 0.921875q0.4375 0.375 0.828125 0.59375l0.3125 -0.875q-0.328125 -0.265625 -0.640625 -0.625q-0.3125 -0.359375 -0.609375 -0.828125q-0.296875 -0.5 -0.5625 -1.125q-0.265625 -0.625 -0.46875 -1.34375q-0.1875 -0.71875 -0.296875 -1.5625q-0.109375 -0.859375 -0.109375 -1.84375l0 -0.109375q0 -1.015625 0.109375 -1.890625q0.125 -0.890625 0.34375 -1.625q0.21875 -0.8125 0.546875 -1.484375q0.328125 -0.6875 0.6875 -1.203125q0.234375 -0.328125 0.484375 -0.59375q0.265625 -0.265625 0.515625 -0.453125l-0.3125 -0.953125q-0.390625 0.21875 -0.828125 0.609375q-0.421875 0.375 -0.84375 0.921875q-0.421875 0.53125 -0.8125 1.234375q-0.390625 0.6875 -0.6875 1.53125q-0.296875 0.84375 -0.46875 1.828125q-0.171875 0.984375 -0.171875 2.09375zm11.5859375 -5.875l-1.453125 0l0 2.046875l-2.21875 0l0 1.109375l2.21875 0l0 4.59375q0 0.78125 0.203125 1.34375q0.21875 0.546875 0.578125 0.890625q0.359375 0.34375 0.84375 0.515625q0.484375 0.15625 1.046875 0.15625q0.34375 0 0.671875 -0.03125q0.34375 -0.03125 0.65625 -0.09375q0.296875 -0.0625 0.546875 -0.140625q0.265625 -0.078125 0.453125 -0.1875l-0.203125 -1.03125q-0.140625 0.03125 -0.34375 0.078125q-0.203125 0.046875 -0.4375 0.078125q-0.25 0.046875 -0.5 0.078125q-0.25 0.015625 -0.484375 0.015625q-0.3125 0 -0.609375 -0.078125q-0.28125 -0.078125 -0.5 -0.265625q-0.21875 -0.1875 -0.34375 -0.5q-0.125 -0.328125 -0.125 -0.828125l0 -4.59375l3.21875 0l0 -1.109375l-3.21875 0l0 -2.046875zm9.8515625 10.15625l0 -1.375l-1.578125 0l0 1.40625q0 0.671875 -0.15625 1.28125q-0.15625 0.625 -0.53125 1.171875l0.90625 0.484375q0.625 -0.546875 0.984375 -1.359375q0.375 -0.8125 0.375 -1.609375zm10.6171875 0.34375l0 -11.375l-0.109375 0l-4.3125 1.65625l0 1.3125l2.984375 -1.125l0 9.53125l1.4375 0zm10.1953125 -4.546875l0 -0.078125q0 -1.1875 -0.1875 -2.140625q-0.1875 -0.96875 -0.46875 -1.78125q-0.28125 -0.859375 -0.671875 -1.53125q-0.375 -0.6875 -0.8125 -1.234375q-0.421875 -0.546875 -0.859375 -0.921875q-0.4375 -0.390625 -0.828125 -0.609375l-0.3125 0.890625q0.265625 0.203125 0.53125 0.515625q0.28125 0.296875 0.53125 0.6875q0.34375 0.515625 0.65625 1.203125q0.328125 0.671875 0.546875 1.53125q0.15625 0.609375 0.28125 1.46875q0.140625 0.859375 0.140625 1.90625l0 0.109375q0 0.9375 -0.109375 1.75q-0.09375 0.8125 -0.265625 1.515625q-0.171875 0.765625 -0.453125 1.40625q-0.265625 0.640625 -0.546875 1.140625q-0.3125 0.5 -0.65625 0.875q-0.328125 0.390625 -0.65625 0.640625l0.3125 0.875q0.390625 -0.21875 0.8125 -0.59375q0.4375 -0.375 0.875 -0.921875q0.421875 -0.546875 0.796875 -1.234375q0.390625 -0.6875 0.6875 -1.546875q0.296875 -0.828125 0.46875 -1.8125q0.1875 -0.984375 0.1875 -2.109375zm7.1171875 4.546875l1.25 0l3.59375 -11.375l-1.546875 0l-2.515625 8.46875l-0.171875 0.578125l-0.15625 -0.5625l-2.5 -8.484375l-1.546875 0l3.59375 11.375zm8.2421875 -4.625l0 0.078125q0 1.125 0.171875 2.109375q0.171875 0.984375 0.46875 1.8125q0.296875 0.859375 0.671875 1.546875q0.390625 0.6875 0.828125 1.234375q0.421875 0.546875 0.84375 0.921875q0.4375 0.375 0.828125 0.59375l0.3125 -0.875q-0.328125 -0.265625 -0.640625 -0.625q-0.3125 -0.359375 -0.609375 -0.828125q-0.296875 -0.5 -0.5625 -1.125q-0.265625 -0.625 -0.46875 -1.34375q-0.1875 -0.71875 -0.296875 -1.5625q-0.109375 -0.859375 -0.109375 -1.84375l0 -0.109375q0 -1.015625 0.109375 -1.890625q0.125 -0.890625 0.34375 -1.625q0.21875 -0.8125 0.546875 -1.484375q0.328125 -0.6875 0.6875 -1.203125q0.234375 -0.328125 0.484375 -0.59375q0.265625 -0.265625 0.515625 -0.453125l-0.3125 -0.953125q-0.390625 0.21875 -0.828125 0.609375q-0.421875 0.375 -0.84375 0.921875q-0.421875 0.53125 -0.8125 1.234375q-0.390625 0.6875 -0.6875 1.53125q-0.296875 0.84375 -0.46875 1.828125q-0.171875 0.984375 -0.171875 2.09375zm12.8515625 4.625l0 -11.375l-0.109375 0l-4.3125 1.65625l0 1.3125l2.984375 -1.125l0 9.53125l1.4375 0zm8.5859375 -0.34375l0 -1.375l-1.578125 0l0 1.40625q0 0.671875 -0.15625 1.28125q-0.15625 0.625 -0.53125 1.171875l0.90625 0.484375q0.625 -0.546875 0.984375 -1.359375q0.375 -0.8125 0.375 -1.609375zm12.9140625 0.34375l0 -1.1875l-5.71875 0l3.0625 -3.3125q0.421875 -0.46875 0.8125 -0.9375q0.390625 -0.46875 0.6875 -0.953125q0.28125 -0.484375 0.453125 -0.984375q0.171875 -0.5 0.171875 -1.0q0 -0.6875 -0.234375 -1.265625q-0.234375 -0.578125 -0.6875 -1.0q-0.4375 -0.421875 -1.09375 -0.65625q-0.640625 -0.234375 -1.4375 -0.234375q-0.875 0 -1.5625 0.28125q-0.6875 0.28125 -1.15625 0.75q-0.46875 0.484375 -0.71875 1.125q-0.25 0.625 -0.25 1.34375l1.453125 0q0 -0.53125 0.125 -0.953125q0.140625 -0.4375 0.421875 -0.734375q0.28125 -0.296875 0.6875 -0.453125q0.421875 -0.171875 1.0 -0.171875q0.46875 0 0.828125 0.15625q0.375 0.15625 0.640625 0.4375q0.265625 0.265625 0.390625 0.640625q0.140625 0.375 0.140625 0.796875q0 0.34375 -0.09375 0.671875q-0.078125 0.3125 -0.28125 0.671875q-0.203125 0.375 -0.546875 0.8125q-0.328125 0.421875 -0.828125 0.96875l-3.71875 4.140625l0 1.046875l7.453125 0zm7.8984375 -4.546875l0 -0.078125q0 -1.1875 -0.1875 -2.140625q-0.1875 -0.96875 -0.46875 -1.78125q-0.28125 -0.859375 -0.671875 -1.53125q-0.375 -0.6875 -0.8125 -1.234375q-0.421875 -0.546875 -0.859375 -0.921875q-0.4375 -0.390625 -0.828125 -0.609375l-0.3125 0.890625q0.265625 0.203125 0.53125 0.515625q0.28125 0.296875 0.53125 0.6875q0.34375 0.515625 0.65625 1.203125q0.328125 0.671875 0.546875 1.53125q0.15625 0.609375 0.28125 1.46875q0.140625 0.859375 0.140625 1.90625l0 0.109375q0 0.9375 -0.109375 1.75q-0.09375 0.8125 -0.265625 1.515625q-0.171875 0.765625 -0.453125 1.40625q-0.265625 0.640625 -0.546875 1.140625q-0.3125 0.5 -0.65625 0.875q-0.328125 0.390625 -0.65625 0.640625l0.3125 0.875q0.390625 -0.21875 0.8125 -0.59375q0.4375 -0.375 0.875 -0.921875q0.421875 -0.546875 0.796875 -1.234375q0.390625 -0.6875 0.6875 -1.546875q0.296875 -0.828125 0.46875 -1.8125q0.1875 -0.984375 0.1875 -2.109375z" fill-rule="nonzero"/><path fill="#000000" d="m434.72394 220.21388l0 -3.3125l-1.4375 0l0 3.3125l-3.171875 0l0 1.4375l3.171875 0l0 3.53125l1.4375 0l0 -3.53125l3.1875 0l0 -1.4375l-3.1875 0zm7.0078125 -5.265625l-1.796875 0l0 11.375l1.40625 0l0 -4.546875l-0.109375 -4.578125l1.921875 5.953125l0.828125 0l2.109375 -6.125l-0.125 4.75l0 4.546875l1.40625 0l0 -11.375l-1.796875 0l-2.0 5.6875l-1.84375 -5.6875zm9.4453125 6.75l0 0.078125q0 1.125 0.171875 2.109375q0.171875 0.984375 0.46875 1.8125q0.296875 0.859375 0.671875 1.546875q0.390625 0.6875 0.828125 1.234375q0.421875 0.546875 0.84375 0.921875q0.4375 0.375 0.828125 0.59375l0.3125 -0.875q-0.328125 -0.265625 -0.640625 -0.625q-0.3125 -0.359375 -0.609375 -0.828125q-0.296875 -0.5 -0.5625 -1.125q-0.265625 -0.625 -0.46875 -1.34375q-0.1875 -0.71875 -0.296875 -1.5625q-0.109375 -0.859375 -0.109375 -1.84375l0 -0.109375q0 -1.015625 0.109375 -1.890625q0.125 -0.890625 0.34375 -1.625q0.21875 -0.8125 0.546875 -1.484375q0.328125 -0.6875 0.6875 -1.203125q0.234375 -0.328125 0.484375 -0.59375q0.265625 -0.265625 0.515625 -0.453125l-0.3125 -0.953125q-0.390625 0.21875 -0.828125 0.609375q-0.421875 0.375 -0.84375 0.921875q-0.421875 0.53125 -0.8125 1.234375q-0.390625 0.6875 -0.6875 1.53125q-0.296875 0.84375 -0.46875 1.828125q-0.171875 0.984375 -0.171875 2.09375zm11.5859375 -5.875l-1.453125 0l0 2.046875l-2.21875 0l0 1.109375l2.21875 0l0 4.59375q0 0.78125 0.203125 1.34375q0.21875 0.546875 0.578125 0.890625q0.359375 0.34375 0.84375 0.515625q0.484375 0.15625 1.046875 0.15625q0.34375 0 0.671875 -0.03125q0.34375 -0.03125 0.65625 -0.09375q0.296875 -0.0625 0.546875 -0.140625q0.265625 -0.078125 0.453125 -0.1875l-0.203125 -1.03125q-0.140625 0.03125 -0.34375 0.078125q-0.203125 0.046875 -0.4375 0.078125q-0.25 0.046875 -0.5 0.078125q-0.25 0.015625 -0.484375 0.015625q-0.3125 0 -0.609375 -0.078125q-0.28125 -0.078125 -0.5 -0.265625q-0.21875 -0.1875 -0.34375 -0.5q-0.125 -0.328125 -0.125 -0.828125l0 -4.59375l3.21875 0l0 -1.109375l-3.21875 0l0 -2.046875zm9.8515625 10.15625l0 -1.375l-1.578125 0l0 1.40625q0 0.671875 -0.15625 1.28125q-0.15625 0.625 -0.53125 1.171875l0.90625 0.484375q0.625 -0.546875 0.984375 -1.359375q0.375 -0.8125 0.375 -1.609375zm12.9140625 0.34375l0 -1.1875l-5.71875 0l3.0625 -3.3125q0.421875 -0.46875 0.8125 -0.9375q0.390625 -0.46875 0.6875 -0.953125q0.28125 -0.484375 0.453125 -0.984375q0.171875 -0.5 0.171875 -1.0q0 -0.6875 -0.234375 -1.265625q-0.234375 -0.578125 -0.6875 -1.0q-0.4375 -0.421875 -1.09375 -0.65625q-0.640625 -0.234375 -1.4375 -0.234375q-0.875 0 -1.5625 0.28125q-0.6875 0.28125 -1.15625 0.75q-0.46875 0.484375 -0.71875 1.125q-0.25 0.625 -0.25 1.34375l1.453125 0q0 -0.53125 0.125 -0.953125q0.140625 -0.4375 0.421875 -0.734375q0.28125 -0.296875 0.6875 -0.453125q0.421875 -0.171875 1.0 -0.171875q0.46875 0 0.828125 0.15625q0.375 0.15625 0.640625 0.4375q0.265625 0.265625 0.390625 0.640625q0.140625 0.375 0.140625 0.796875q0 0.34375 -0.09375 0.671875q-0.078125 0.3125 -0.28125 0.671875q-0.203125 0.375 -0.546875 0.8125q-0.328125 0.421875 -0.828125 0.96875l-3.71875 4.140625l0 1.046875l7.453125 0zm7.8984375 -4.546875l0 -0.078125q0 -1.1875 -0.1875 -2.140625q-0.1875 -0.96875 -0.46875 -1.78125q-0.28125 -0.859375 -0.671875 -1.53125q-0.375 -0.6875 -0.8125 -1.234375q-0.421875 -0.546875 -0.859375 -0.921875q-0.4375 -0.390625 -0.828125 -0.609375l-0.3125 0.890625q0.265625 0.203125 0.53125 0.515625q0.28125 0.296875 0.53125 0.6875q0.34375 0.515625 0.65625 1.203125q0.328125 0.671875 0.546875 1.53125q0.15625 0.609375 0.28125 1.46875q0.140625 0.859375 0.140625 1.90625l0 0.109375q0 0.9375 -0.109375 1.75q-0.09375 0.8125 -0.265625 1.515625q-0.171875 0.765625 -0.453125 1.40625q-0.265625 0.640625 -0.546875 1.140625q-0.3125 0.5 -0.65625 0.875q-0.328125 0.390625 -0.65625 0.640625l0.3125 0.875q0.390625 -0.21875 0.8125 -0.59375q0.4375 -0.375 0.875 -0.921875q0.421875 -0.546875 0.796875 -1.234375q0.390625 -0.6875 0.6875 -1.546875q0.296875 -0.828125 0.46875 -1.8125q0.1875 -0.984375 0.1875 -2.109375zm7.1171875 4.546875l1.25 0l3.59375 -11.375l-1.546875 0l-2.515625 8.46875l-0.171875 0.578125l-0.15625 -0.5625l-2.5 -8.484375l-1.546875 0l3.59375 11.375zm8.2421875 -4.625l0 0.078125q0 1.125 0.171875 2.109375q0.171875 0.984375 0.46875 1.8125q0.296875 0.859375 0.671875 1.546875q0.390625 0.6875 0.828125 1.234375q0.421875 0.546875 0.84375 0.921875q0.4375 0.375 0.828125 0.59375l0.3125 -0.875q-0.328125 -0.265625 -0.640625 -0.625q-0.3125 -0.359375 -0.609375 -0.828125q-0.296875 -0.5 -0.5625 -1.125q-0.265625 -0.625 -0.46875 -1.34375q-0.1875 -0.71875 -0.296875 -1.5625q-0.109375 -0.859375 -0.109375 -1.84375l0 -0.109375q0 -1.015625 0.109375 -1.890625q0.125 -0.890625 0.34375 -1.625q0.21875 -0.8125 0.546875 -1.484375q0.328125 -0.6875 0.6875 -1.203125q0.234375 -0.328125 0.484375 -0.59375q0.265625 -0.265625 0.515625 -0.453125l-0.3125 -0.953125q-0.390625 0.21875 -0.828125 0.609375q-0.421875 0.375 -0.84375 0.921875q-0.421875 0.53125 -0.8125 1.234375q-0.390625 0.6875 -0.6875 1.53125q-0.296875 0.84375 -0.46875 1.828125q-0.171875 0.984375 -0.171875 2.09375zm15.1484375 4.625l0 -1.1875l-5.71875 0l3.0625 -3.3125q0.421875 -0.46875 0.8125 -0.9375q0.390625 -0.46875 0.6875 -0.953125q0.28125 -0.484375 0.453125 -0.984375q0.171875 -0.5 0.171875 -1.0q0 -0.6875 -0.234375 -1.265625q-0.234375 -0.578125 -0.6875 -1.0q-0.4375 -0.421875 -1.09375 -0.65625q-0.640625 -0.234375 -1.4375 -0.234375q-0.875 0 -1.5625 0.28125q-0.6875 0.28125 -1.15625 0.75q-0.46875 0.484375 -0.71875 1.125q-0.25 0.625 -0.25 1.34375l1.453125 0q0 -0.53125 0.125 -0.953125q0.140625 -0.4375 0.421875 -0.734375q0.28125 -0.296875 0.6875 -0.453125q0.421875 -0.171875 1.0 -0.171875q0.46875 0 0.828125 0.15625q0.375 0.15625 0.640625 0.4375q0.265625 0.265625 0.390625 0.640625q0.140625 0.375 0.140625 0.796875q0 0.34375 -0.09375 0.671875q-0.078125 0.3125 -0.28125 0.671875q-0.203125 0.375 -0.546875 0.8125q-0.328125 0.421875 -0.828125 0.96875l-3.71875 4.140625l0 1.046875l7.453125 0zm6.2890625 -0.34375l0 -1.375l-1.578125 0l0 1.40625q0 0.671875 -0.15625 1.28125q-0.15625 0.625 -0.53125 1.171875l0.90625 0.484375q0.625 -0.546875 0.984375 -1.359375q0.375 -0.8125 0.375 -1.609375zm12.9140625 0.34375l0 -1.1875l-5.71875 0l3.0625 -3.3125q0.421875 -0.46875 0.8125 -0.9375q0.390625 -0.46875 0.6875 -0.953125q0.28125 -0.484375 0.453125 -0.984375q0.171875 -0.5 0.171875 -1.0q0 -0.6875 -0.234375 -1.265625q-0.234375 -0.578125 -0.6875 -1.0q-0.4375 -0.421875 -1.09375 -0.65625q-0.640625 -0.234375 -1.4375 -0.234375q-0.875 0 -1.5625 0.28125q-0.6875 0.28125 -1.15625 0.75q-0.46875 0.484375 -0.71875 1.125q-0.25 0.625 -0.25 1.34375l1.453125 0q0 -0.53125 0.125 -0.953125q0.140625 -0.4375 0.421875 -0.734375q0.28125 -0.296875 0.6875 -0.453125q0.421875 -0.171875 1.0 -0.171875q0.46875 0 0.828125 0.15625q0.375 0.15625 0.640625 0.4375q0.265625 0.265625 0.390625 0.640625q0.140625 0.375 0.140625 0.796875q0 0.34375 -0.09375 0.671875q-0.078125 0.3125 -0.28125 0.671875q-0.203125 0.375 -0.546875 0.8125q-0.328125 0.421875 -0.828125 0.96875l-3.71875 4.140625l0 1.046875l7.453125 0zm7.8984375 -4.546875l0 -0.078125q0 -1.1875 -0.1875 -2.140625q-0.1875 -0.96875 -0.46875 -1.78125q-0.28125 -0.859375 -0.671875 -1.53125q-0.375 -0.6875 -0.8125 -1.234375q-0.421875 -0.546875 -0.859375 -0.921875q-0.4375 -0.390625 -0.828125 -0.609375l-0.3125 0.890625q0.265625 0.203125 0.53125 0.515625q0.28125 0.296875 0.53125 0.6875q0.34375 0.515625 0.65625 1.203125q0.328125 0.671875 0.546875 1.53125q0.15625 0.609375 0.28125 1.46875q0.140625 0.859375 0.140625 1.90625l0 0.109375q0 0.9375 -0.109375 1.75q-0.09375 0.8125 -0.265625 1.515625q-0.171875 0.765625 -0.453125 1.40625q-0.265625 0.640625 -0.546875 1.140625q-0.3125 0.5 -0.65625 0.875q-0.328125 0.390625 -0.65625 0.640625l0.3125 0.875q0.390625 -0.21875 0.8125 -0.59375q0.4375 -0.375 0.875 -0.921875q0.421875 -0.546875 0.796875 -1.234375q0.390625 -0.6875 0.6875 -1.546875q0.296875 -0.828125 0.46875 -1.8125q0.1875 -0.984375 0.1875 -2.109375z" fill-rule="nonzero"/><path fill="#000000" d="m432.31592 249.21388l0 -3.3125l-1.4375 0l0 3.3125l-3.171875 0l0 1.4375l3.171875 0l0 3.53125l1.4375 0l0 -3.53125l3.1875 0l0 -1.4375l-3.1875 0zm46.335938 5.171875q0 0.453125 0.28125 0.78125q0.296875 0.3125 0.859375 0.3125q0.546875 0 0.84375 -0.3125q0.296875 -0.328125 0.296875 -0.78125q0 -0.46875 -0.296875 -0.796875q-0.28125 -0.328125 -0.84375 -0.328125q-0.578125 0 -0.859375 0.328125q-0.28125 0.328125 -0.28125 0.796875zm9.6015625 0q0 0.453125 0.28125 0.78125q0.296875 0.3125 0.859375 0.3125q0.546875 0 0.84375 -0.3125q0.296875 -0.328125 0.296875 -0.78125q0 -0.46875 -0.296875 -0.796875q-0.28125 -0.328125 -0.84375 -0.328125q-0.578125 0 -0.859375 0.328125q-0.28125 0.328125 -0.28125 0.796875zm9.6015625 0q0 0.453125 0.28125 0.78125q0.296875 0.3125 0.859375 0.3125q0.546875 0 0.84375 -0.3125q0.296875 -0.328125 0.296875 -0.78125q0 -0.46875 -0.296875 -0.796875q-0.28125 -0.328125 -0.84375 -0.328125q-0.578125 0 -0.859375 0.328125q-0.28125 0.328125 -0.28125 0.796875zm9.6015625 0q0 0.453125 0.28125 0.78125q0.296875 0.3125 0.859375 0.3125q0.546875 0 0.84375 -0.3125q0.296875 -0.328125 0.296875 -0.78125q0 -0.46875 -0.296875 -0.796875q-0.28125 -0.328125 -0.84375 -0.328125q-0.578125 0 -0.859375 0.328125q-0.28125 0.328125 -0.28125 0.796875zm9.6015625 0q0 0.453125 0.28125 0.78125q0.296875 0.3125 0.859375 0.3125q0.546875 0 0.84375 -0.3125q0.296875 -0.328125 0.296875 -0.78125q0 -0.46875 -0.296875 -0.796875q-0.28125 -0.328125 -0.84375 -0.328125q-0.578125 0 -0.859375 0.328125q-0.28125 0.328125 -0.28125 0.796875zm9.6015625 0q0 0.453125 0.28125 0.78125q0.296875 0.3125 0.859375 0.3125q0.546875 0 0.84375 -0.3125q0.296875 -0.328125 0.296875 -0.78125q0 -0.46875 -0.296875 -0.796875q-0.28125 -0.328125 -0.84375 -0.328125q-0.578125 0 -0.859375 0.328125q-0.28125 0.328125 -0.28125 0.796875zm9.6015625 0q0 0.453125 0.28125 0.78125q0.296875 0.3125 0.859375 0.3125q0.546875 0 0.84375 -0.3125q0.296875 -0.328125 0.296875 -0.78125q0 -0.46875 -0.296875 -0.796875q-0.28125 -0.328125 -0.84375 -0.328125q-0.578125 0 -0.859375 0.328125q-0.28125 0.328125 -0.28125 0.796875zm9.6015625 0q0 0.453125 0.28125 0.78125q0.296875 0.3125 0.859375 0.3125q0.546875 0 0.84375 -0.3125q0.296875 -0.328125 0.296875 -0.78125q0 -0.46875 -0.296875 -0.796875q-0.28125 -0.328125 -0.84375 -0.328125q-0.578125 0 -0.859375 0.328125q-0.28125 0.328125 -0.28125 0.796875z" fill-rule="nonzero"/><path fill="#000000" d="m434.72394 278.2139l0 -3.3125l-1.4375 0l0 3.3125l-3.171875 0l0 1.4375l3.171875 0l0 3.53125l1.4375 0l0 -3.53125l3.1875 0l0 -1.4375l-3.1875 0zm7.0078125 -5.265625l-1.796875 0l0 11.375l1.40625 0l0 -4.546875l-0.109375 -4.578125l1.921875 5.953125l0.828125 0l2.109375 -6.125l-0.125 4.75l0 4.546875l1.40625 0l0 -11.375l-1.796875 0l-2.0 5.6875l-1.84375 -5.6875zm9.4453125 6.75l0 0.078125q0 1.125 0.171875 2.109375q0.171875 0.984375 0.46875 1.8125q0.296875 0.859375 0.671875 1.546875q0.390625 0.6875 0.828125 1.234375q0.421875 0.546875 0.84375 0.921875q0.4375 0.375 0.828125 0.59375l0.3125 -0.875q-0.328125 -0.265625 -0.640625 -0.625q-0.3125 -0.359375 -0.609375 -0.828125q-0.296875 -0.5 -0.5625 -1.125q-0.265625 -0.625 -0.46875 -1.34375q-0.1875 -0.71875 -0.296875 -1.5625q-0.109375 -0.859375 -0.109375 -1.84375l0 -0.109375q0 -1.015625 0.109375 -1.890625q0.125 -0.890625 0.34375 -1.625q0.21875 -0.8125 0.546875 -1.484375q0.328125 -0.6875 0.6875 -1.203125q0.234375 -0.328125 0.484375 -0.59375q0.265625 -0.265625 0.515625 -0.453125l-0.3125 -0.953125q-0.390625 0.21875 -0.828125 0.609375q-0.421875 0.375 -0.84375 0.921875q-0.421875 0.53125 -0.8125 1.234375q-0.390625 0.6875 -0.6875 1.53125q-0.296875 0.84375 -0.46875 1.828125q-0.171875 0.984375 -0.171875 2.09375zm11.5859375 -5.875l-1.453125 0l0 2.046875l-2.21875 0l0 1.109375l2.21875 0l0 4.59375q0 0.78125 0.203125 1.34375q0.21875 0.546875 0.578125 0.890625q0.359375 0.34375 0.84375 0.515625q0.484375 0.15625 1.046875 0.15625q0.34375 0 0.671875 -0.03125q0.34375 -0.03125 0.65625 -0.09375q0.296875 -0.0625 0.546875 -0.140625q0.265625 -0.078125 0.453125 -0.1875l-0.203125 -1.03125q-0.140625 0.03125 -0.34375 0.078125q-0.203125 0.046875 -0.4375 0.078125q-0.25 0.046875 -0.5 0.078125q-0.25 0.015625 -0.484375 0.015625q-0.3125 0 -0.609375 -0.078125q-0.28125 -0.078125 -0.5 -0.265625q-0.21875 -0.1875 -0.34375 -0.5q-0.125 -0.328125 -0.125 -0.828125l0 -4.59375l3.21875 0l0 -1.109375l-3.21875 0l0 -2.046875zm9.8515625 10.15625l0 -1.375l-1.578125 0l0 1.40625q0 0.671875 -0.15625 1.28125q-0.15625 0.625 -0.53125 1.171875l0.90625 0.484375q0.625 -0.546875 0.984375 -1.359375q0.375 -0.8125 0.375 -1.609375zm13.6015625 -9.796875l0 -1.234375l-8.4375 0l0 1.234375l3.515625 0l0 10.140625l1.40625 0l0 -10.140625l3.515625 0zm7.2109375 5.59375l0 -0.078125q0 -1.1875 -0.1875 -2.140625q-0.1875 -0.96875 -0.46875 -1.78125q-0.28125 -0.859375 -0.671875 -1.53125q-0.375 -0.6875 -0.8125 -1.234375q-0.421875 -0.546875 -0.859375 -0.921875q-0.4375 -0.390625 -0.828125 -0.609375l-0.3125 0.890625q0.265625 0.203125 0.53125 0.515625q0.28125 0.296875 0.53125 0.6875q0.34375 0.515625 0.65625 1.203125q0.328125 0.671875 0.546875 1.53125q0.15625 0.609375 0.28125 1.46875q0.140625 0.859375 0.140625 1.90625l0 0.109375q0 0.9375 -0.109375 1.75q-0.09375 0.8125 -0.265625 1.515625q-0.171875 0.765625 -0.453125 1.40625q-0.265625 0.640625 -0.546875 1.140625q-0.3125 0.5 -0.65625 0.875q-0.328125 0.390625 -0.65625 0.640625l0.3125 0.875q0.390625 -0.21875 0.8125 -0.59375q0.4375 -0.375 0.875 -0.921875q0.421875 -0.546875 0.796875 -1.234375q0.390625 -0.6875 0.6875 -1.546875q0.296875 -0.828125 0.46875 -1.8125q0.1875 -0.984375 0.1875 -2.109375zm7.1171875 4.546875l1.25 0l3.59375 -11.375l-1.546875 0l-2.515625 8.46875l-0.171875 0.578125l-0.15625 -0.5625l-2.5 -8.484375l-1.546875 0l3.59375 11.375zm8.2421875 -4.625l0 0.078125q0 1.125 0.171875 2.109375q0.171875 0.984375 0.46875 1.8125q0.296875 0.859375 0.671875 1.546875q0.390625 0.6875 0.828125 1.234375q0.421875 0.546875 0.84375 0.921875q0.4375 0.375 0.828125 0.59375l0.3125 -0.875q-0.328125 -0.265625 -0.640625 -0.625q-0.3125 -0.359375 -0.609375 -0.828125q-0.296875 -0.5 -0.5625 -1.125q-0.265625 -0.625 -0.46875 -1.34375q-0.1875 -0.71875 -0.296875 -1.5625q-0.109375 -0.859375 -0.109375 -1.84375l0 -0.109375q0 -1.015625 0.109375 -1.890625q0.125 -0.890625 0.34375 -1.625q0.21875 -0.8125 0.546875 -1.484375q0.328125 -0.6875 0.6875 -1.203125q0.234375 -0.328125 0.484375 -0.59375q0.265625 -0.265625 0.515625 -0.453125l-0.3125 -0.953125q-0.390625 0.21875 -0.828125 0.609375q-0.421875 0.375 -0.84375 0.921875q-0.421875 0.53125 -0.8125 1.234375q-0.390625 0.6875 -0.6875 1.53125q-0.296875 0.84375 -0.46875 1.828125q-0.171875 0.984375 -0.171875 2.09375zm15.8359375 -5.515625l0 -1.234375l-8.4375 0l0 1.234375l3.515625 0l0 10.140625l1.40625 0l0 -10.140625l3.515625 0zm5.6015625 9.796875l0 -1.375l-1.578125 0l0 1.40625q0 0.671875 -0.15625 1.28125q-0.15625 0.625 -0.53125 1.171875l0.90625 0.484375q0.625 -0.546875 0.984375 -1.359375q0.375 -0.8125 0.375 -1.609375zm12.9140625 0.34375l0 -1.1875l-5.71875 0l3.0625 -3.3125q0.421875 -0.46875 0.8125 -0.9375q0.390625 -0.46875 0.6875 -0.953125q0.28125 -0.484375 0.453125 -0.984375q0.171875 -0.5 0.171875 -1.0q0 -0.6875 -0.234375 -1.265625q-0.234375 -0.578125 -0.6875 -1.0q-0.4375 -0.421875 -1.09375 -0.65625q-0.640625 -0.234375 -1.4375 -0.234375q-0.875 0 -1.5625 0.28125q-0.6875 0.28125 -1.15625 0.75q-0.46875 0.484375 -0.71875 1.125q-0.25 0.625 -0.25 1.34375l1.453125 0q0 -0.53125 0.125 -0.953125q0.140625 -0.4375 0.421875 -0.734375q0.28125 -0.296875 0.6875 -0.453125q0.421875 -0.171875 1.0 -0.171875q0.46875 0 0.828125 0.15625q0.375 0.15625 0.640625 0.4375q0.265625 0.265625 0.390625 0.640625q0.140625 0.375 0.140625 0.796875q0 0.34375 -0.09375 0.671875q-0.078125 0.3125 -0.28125 0.671875q-0.203125 0.375 -0.546875 0.8125q-0.328125 0.421875 -0.828125 0.96875l-3.71875 4.140625l0 1.046875l7.453125 0zm7.8984375 -4.546875l0 -0.078125q0 -1.1875 -0.1875 -2.140625q-0.1875 -0.96875 -0.46875 -1.78125q-0.28125 -0.859375 -0.671875 -1.53125q-0.375 -0.6875 -0.8125 -1.234375q-0.421875 -0.546875 -0.859375 -0.921875q-0.4375 -0.390625 -0.828125 -0.609375l-0.3125 0.890625q0.265625 0.203125 0.53125 0.515625q0.28125 0.296875 0.53125 0.6875q0.34375 0.515625 0.65625 1.203125q0.328125 0.671875 0.546875 1.53125q0.15625 0.609375 0.28125 1.46875q0.140625 0.859375 0.140625 1.90625l0 0.109375q0 0.9375 -0.109375 1.75q-0.09375 0.8125 -0.265625 1.515625q-0.171875 0.765625 -0.453125 1.40625q-0.265625 0.640625 -0.546875 1.140625q-0.3125 0.5 -0.65625 0.875q-0.328125 0.390625 -0.65625 0.640625l0.3125 0.875q0.390625 -0.21875 0.8125 -0.59375q0.4375 -0.375 0.875 -0.921875q0.421875 -0.546875 0.796875 -1.234375q0.390625 -0.6875 0.6875 -1.546875q0.296875 -0.828125 0.46875 -1.8125q0.1875 -0.984375 0.1875 -2.109375z" fill-rule="nonzero"/><path fill="#cfe2f3" d="m660.46716 171.01837l145.2284 0l0 137.88977l-145.2284 0z" fill-rule="evenodd"/><path stroke="#000000" stroke-width="1.0" stroke-linejoin="round" stroke-linecap="butt" d="m660.46716 171.01837l145.2284 0l0 137.88977l-145.2284 0z" fill-rule="evenodd"/><path fill="#000000" d="m684.42993 185.94826l-1.796875 0l0 11.375l1.40625 0l0 -4.546875l-0.109375 -4.578125l1.921875 5.953125l0.828125 0l2.109375 -6.125l-0.125 4.75l0 4.546875l1.40625 0l0 -11.375l-1.796875 0l-2.0 5.6875l-1.84375 -5.6875zm9.4453125 6.75l0 0.078125q0 1.125 0.171875 2.109375q0.171875 0.984375 0.46875 1.8125q0.296875 0.859375 0.671875 1.546875q0.390625 0.6875 0.828125 1.234375q0.421875 0.546875 0.84375 0.921875q0.4375 0.375 0.828125 0.59375l0.3125 -0.875q-0.328125 -0.265625 -0.640625 -0.625q-0.3125 -0.359375 -0.609375 -0.828125q-0.296875 -0.5 -0.5625 -1.125q-0.265625 -0.625 -0.46875 -1.34375q-0.1875 -0.71875 -0.296875 -1.5625q-0.109375 -0.859375 -0.109375 -1.84375l0 -0.109375q0 -1.015625 0.109375 -1.890625q0.125 -0.890625 0.34375 -1.625q0.21875 -0.8125 0.546875 -1.484375q0.328125 -0.6875 0.6875 -1.203125q0.234375 -0.328125 0.484375 -0.59375q0.265625 -0.265625 0.515625 -0.453125l-0.3125 -0.953125q-0.390625 0.21875 -0.828125 0.609375q-0.421875 0.375 -0.84375 0.921875q-0.421875 0.53125 -0.8125 1.234375q-0.390625 0.6875 -0.6875 1.53125q-0.296875 0.84375 -0.46875 1.828125q-0.171875 0.984375 -0.171875 2.09375zm11.5859375 -5.875l-1.453125 0l0 2.046875l-2.21875 0l0 1.109375l2.21875 0l0 4.59375q0 0.78125 0.203125 1.34375q0.21875 0.546875 0.578125 0.890625q0.359375 0.34375 0.84375 0.515625q0.484375 0.15625 1.046875 0.15625q0.34375 0 0.671875 -0.03125q0.34375 -0.03125 0.65625 -0.09375q0.296875 -0.0625 0.546875 -0.140625q0.265625 -0.078125 0.453125 -0.1875l-0.203125 -1.03125q-0.140625 0.03125 -0.34375 0.078125q-0.203125 0.046875 -0.4375 0.078125q-0.25 0.046875 -0.5 0.078125q-0.25 0.015625 -0.484375 0.015625q-0.3125 0 -0.609375 -0.078125q-0.28125 -0.078125 -0.5 -0.265625q-0.21875 -0.1875 -0.34375 -0.5q-0.125 -0.328125 -0.125 -0.828125l0 -4.59375l3.21875 0l0 -1.109375l-3.21875 0l0 -2.046875zm9.8515625 10.15625l0 -1.375l-1.578125 0l0 1.40625q0 0.671875 -0.15625 1.28125q-0.15625 0.625 -0.53125 1.171875l0.90625 0.484375q0.625 -0.546875 0.984375 -1.359375q0.375 -0.8125 0.375 -1.609375zm10.6171875 0.34375l0 -11.375l-0.109375 0l-4.3125 1.65625l0 1.3125l2.984375 -1.125l0 9.53125l1.4375 0zm10.1953125 -4.546875l0 -0.078125q0 -1.1875 -0.1875 -2.140625q-0.1875 -0.96875 -0.46875 -1.78125q-0.28125 -0.859375 -0.671875 -1.53125q-0.375 -0.6875 -0.8125 -1.234375q-0.421875 -0.546875 -0.859375 -0.921875q-0.4375 -0.390625 -0.828125 -0.609375l-0.3125 0.890625q0.265625 0.203125 0.53125 0.515625q0.28125 0.296875 0.53125 0.6875q0.34375 0.515625 0.65625 1.203125q0.328125 0.671875 0.546875 1.53125q0.15625 0.609375 0.28125 1.46875q0.140625 0.859375 0.140625 1.90625l0 0.109375q0 0.9375 -0.109375 1.75q-0.09375 0.8125 -0.265625 1.515625q-0.171875 0.765625 -0.453125 1.40625q-0.265625 0.640625 -0.546875 1.140625q-0.3125 0.5 -0.65625 0.875q-0.328125 0.390625 -0.65625 0.640625l0.3125 0.875q0.390625 -0.21875 0.8125 -0.59375q0.4375 -0.375 0.875 -0.921875q0.421875 -0.546875 0.796875 -1.234375q0.390625 -0.6875 0.6875 -1.546875q0.296875 -0.828125 0.46875 -1.8125q0.1875 -0.984375 0.1875 -2.109375zm7.1171875 4.546875l1.25 0l3.59375 -11.375l-1.546875 0l-2.515625 8.46875l-0.171875 0.578125l-0.15625 -0.5625l-2.5 -8.484375l-1.546875 0l3.59375 11.375zm8.2421875 -4.625l0 0.078125q0 1.125 0.171875 2.109375q0.171875 0.984375 0.46875 1.8125q0.296875 0.859375 0.671875 1.546875q0.390625 0.6875 0.828125 1.234375q0.421875 0.546875 0.84375 0.921875q0.4375 0.375 0.828125 0.59375l0.3125 -0.875q-0.328125 -0.265625 -0.640625 -0.625q-0.3125 -0.359375 -0.609375 -0.828125q-0.296875 -0.5 -0.5625 -1.125q-0.265625 -0.625 -0.46875 -1.34375q-0.1875 -0.71875 -0.296875 -1.5625q-0.109375 -0.859375 -0.109375 -1.84375l0 -0.109375q0 -1.015625 0.109375 -1.890625q0.125 -0.890625 0.34375 -1.625q0.21875 -0.8125 0.546875 -1.484375q0.328125 -0.6875 0.6875 -1.203125q0.234375 -0.328125 0.484375 -0.59375q0.265625 -0.265625 0.515625 -0.453125l-0.3125 -0.953125q-0.390625 0.21875 -0.828125 0.609375q-0.421875 0.375 -0.84375 0.921875q-0.421875 0.53125 -0.8125 1.234375q-0.390625 0.6875 -0.6875 1.53125q-0.296875 0.84375 -0.46875 1.828125q-0.171875 0.984375 -0.171875 2.09375zm12.8515625 4.625l0 -11.375l-0.109375 0l-4.3125 1.65625l0 1.3125l2.984375 -1.125l0 9.53125l1.4375 0zm8.5859375 -0.34375l0 -1.375l-1.578125 0l0 1.40625q0 0.671875 -0.15625 1.28125q-0.15625 0.625 -0.53125 1.171875l0.90625 0.484375q0.625 -0.546875 0.984375 -1.359375q0.375 -0.8125 0.375 -1.609375zm13.3046875 -3.078125l-1.453125 0q-0.0625 0.515625 -0.234375 0.953125q-0.171875 0.4375 -0.46875 0.765625q-0.28125 0.328125 -0.703125 0.515625q-0.421875 0.171875 -0.984375 0.171875q-0.53125 0 -0.921875 -0.171875q-0.390625 -0.171875 -0.671875 -0.46875q-0.296875 -0.28125 -0.484375 -0.65625q-0.1875 -0.390625 -0.296875 -0.828125q-0.125 -0.4375 -0.171875 -0.875q-0.046875 -0.453125 -0.046875 -0.875l0 -1.609375q0 -0.421875 0.046875 -0.859375q0.046875 -0.453125 0.171875 -0.890625q0.109375 -0.421875 0.296875 -0.796875q0.203125 -0.390625 0.484375 -0.6875q0.28125 -0.28125 0.671875 -0.453125q0.40625 -0.171875 0.921875 -0.171875q0.5625 0 0.984375 0.203125q0.421875 0.1875 0.703125 0.515625q0.296875 0.34375 0.46875 0.796875q0.171875 0.4375 0.234375 0.953125l1.453125 0q-0.09375 -0.8125 -0.390625 -1.484375q-0.296875 -0.671875 -0.78125 -1.15625q-0.484375 -0.484375 -1.15625 -0.734375q-0.671875 -0.265625 -1.515625 -0.265625q-0.71875 0 -1.296875 0.203125q-0.5625 0.1875 -1.0 0.546875q-0.453125 0.34375 -0.78125 0.828125q-0.328125 0.484375 -0.53125 1.046875q-0.21875 0.5625 -0.328125 1.1875q-0.109375 0.609375 -0.109375 1.234375l0 1.59375q0 0.625 0.109375 1.25q0.109375 0.609375 0.328125 1.171875q0.203125 0.5625 0.53125 1.046875q0.328125 0.46875 0.78125 0.828125q0.4375 0.34375 1.015625 0.546875q0.578125 0.203125 1.28125 0.203125q0.8125 0 1.484375 -0.265625q0.671875 -0.265625 1.15625 -0.734375q0.484375 -0.46875 0.78125 -1.125q0.3125 -0.671875 0.421875 -1.453125zm7.5078125 -1.125l0 -0.078125q0 -1.1875 -0.1875 -2.140625q-0.1875 -0.96875 -0.46875 -1.78125q-0.28125 -0.859375 -0.671875 -1.53125q-0.375 -0.6875 -0.8125 -1.234375q-0.421875 -0.546875 -0.859375 -0.921875q-0.4375 -0.390625 -0.828125 -0.609375l-0.3125 0.890625q0.265625 0.203125 0.53125 0.515625q0.28125 0.296875 0.53125 0.6875q0.34375 0.515625 0.65625 1.203125q0.328125 0.671875 0.546875 1.53125q0.15625 0.609375 0.28125 1.46875q0.140625 0.859375 0.140625 1.90625l0 0.109375q0 0.9375 -0.109375 1.75q-0.09375 0.8125 -0.265625 1.515625q-0.171875 0.765625 -0.453125 1.40625q-0.265625 0.640625 -0.546875 1.140625q-0.3125 0.5 -0.65625 0.875q-0.328125 0.390625 -0.65625 0.640625l0.3125 0.875q0.390625 -0.21875 0.8125 -0.59375q0.4375 -0.375 0.875 -0.921875q0.421875 -0.546875 0.796875 -1.234375q0.390625 -0.6875 0.6875 -1.546875q0.296875 -0.828125 0.46875 -1.8125q0.1875 -0.984375 0.1875 -2.109375z" fill-rule="nonzero"/><path fill="#000000" d="m677.4221 220.21388l0 -3.3125l-1.4375 0l0 3.3125l-3.171875 0l0 1.4375l3.171875 0l0 3.53125l1.4375 0l0 -3.53125l3.1875 0l0 -1.4375l-3.1875 0zm7.0078125 -5.265625l-1.796875 0l0 11.375l1.40625 0l0 -4.546875l-0.109375 -4.578125l1.921875 5.953125l0.828125 0l2.109375 -6.125l-0.125 4.75l0 4.546875l1.40625 0l0 -11.375l-1.796875 0l-2.0 5.6875l-1.84375 -5.6875zm9.4453125 6.75l0 0.078125q0 1.125 0.171875 2.109375q0.171875 0.984375 0.46875 1.8125q0.296875 0.859375 0.671875 1.546875q0.390625 0.6875 0.828125 1.234375q0.421875 0.546875 0.84375 0.921875q0.4375 0.375 0.828125 0.59375l0.3125 -0.875q-0.328125 -0.265625 -0.640625 -0.625q-0.3125 -0.359375 -0.609375 -0.828125q-0.296875 -0.5 -0.5625 -1.125q-0.265625 -0.625 -0.46875 -1.34375q-0.1875 -0.71875 -0.296875 -1.5625q-0.109375 -0.859375 -0.109375 -1.84375l0 -0.109375q0 -1.015625 0.109375 -1.890625q0.125 -0.890625 0.34375 -1.625q0.21875 -0.8125 0.546875 -1.484375q0.328125 -0.6875 0.6875 -1.203125q0.234375 -0.328125 0.484375 -0.59375q0.265625 -0.265625 0.515625 -0.453125l-0.3125 -0.953125q-0.390625 0.21875 -0.828125 0.609375q-0.421875 0.375 -0.84375 0.921875q-0.421875 0.53125 -0.8125 1.234375q-0.390625 0.6875 -0.6875 1.53125q-0.296875 0.84375 -0.46875 1.828125q-0.171875 0.984375 -0.171875 2.09375zm11.5859375 -5.875l-1.453125 0l0 2.046875l-2.21875 0l0 1.109375l2.21875 0l0 4.59375q0 0.78125 0.203125 1.34375q0.21875 0.546875 0.578125 0.890625q0.359375 0.34375 0.84375 0.515625q0.484375 0.15625 1.046875 0.15625q0.34375 0 0.671875 -0.03125q0.34375 -0.03125 0.65625 -0.09375q0.296875 -0.0625 0.546875 -0.140625q0.265625 -0.078125 0.453125 -0.1875l-0.203125 -1.03125q-0.140625 0.03125 -0.34375 0.078125q-0.203125 0.046875 -0.4375 0.078125q-0.25 0.046875 -0.5 0.078125q-0.25 0.015625 -0.484375 0.015625q-0.3125 0 -0.609375 -0.078125q-0.28125 -0.078125 -0.5 -0.265625q-0.21875 -0.1875 -0.34375 -0.5q-0.125 -0.328125 -0.125 -0.828125l0 -4.59375l3.21875 0l0 -1.109375l-3.21875 0l0 -2.046875zm9.8515625 10.15625l0 -1.375l-1.578125 0l0 1.40625q0 0.671875 -0.15625 1.28125q-0.15625 0.625 -0.53125 1.171875l0.90625 0.484375q0.625 -0.546875 0.984375 -1.359375q0.375 -0.8125 0.375 -1.609375zm12.9140625 0.34375l0 -1.1875l-5.71875 0l3.0625 -3.3125q0.421875 -0.46875 0.8125 -0.9375q0.390625 -0.46875 0.6875 -0.953125q0.28125 -0.484375 0.453125 -0.984375q0.171875 -0.5 0.171875 -1.0q0 -0.6875 -0.234375 -1.265625q-0.234375 -0.578125 -0.6875 -1.0q-0.4375 -0.421875 -1.09375 -0.65625q-0.640625 -0.234375 -1.4375 -0.234375q-0.875 0 -1.5625 0.28125q-0.6875 0.28125 -1.15625 0.75q-0.46875 0.484375 -0.71875 1.125q-0.25 0.625 -0.25 1.34375l1.453125 0q0 -0.53125 0.125 -0.953125q0.140625 -0.4375 0.421875 -0.734375q0.28125 -0.296875 0.6875 -0.453125q0.421875 -0.171875 1.0 -0.171875q0.46875 0 0.828125 0.15625q0.375 0.15625 0.640625 0.4375q0.265625 0.265625 0.390625 0.640625q0.140625 0.375 0.140625 0.796875q0 0.34375 -0.09375 0.671875q-0.078125 0.3125 -0.28125 0.671875q-0.203125 0.375 -0.546875 0.8125q-0.328125 0.421875 -0.828125 0.96875l-3.71875 4.140625l0 1.046875l7.453125 0zm7.8984375 -4.546875l0 -0.078125q0 -1.1875 -0.1875 -2.140625q-0.1875 -0.96875 -0.46875 -1.78125q-0.28125 -0.859375 -0.671875 -1.53125q-0.375 -0.6875 -0.8125 -1.234375q-0.421875 -0.546875 -0.859375 -0.921875q-0.4375 -0.390625 -0.828125 -0.609375l-0.3125 0.890625q0.265625 0.203125 0.53125 0.515625q0.28125 0.296875 0.53125 0.6875q0.34375 0.515625 0.65625 1.203125q0.328125 0.671875 0.546875 1.53125q0.15625 0.609375 0.28125 1.46875q0.140625 0.859375 0.140625 1.90625l0 0.109375q0 0.9375 -0.109375 1.75q-0.09375 0.8125 -0.265625 1.515625q-0.171875 0.765625 -0.453125 1.40625q-0.265625 0.640625 -0.546875 1.140625q-0.3125 0.5 -0.65625 0.875q-0.328125 0.390625 -0.65625 0.640625l0.3125 0.875q0.390625 -0.21875 0.8125 -0.59375q0.4375 -0.375 0.875 -0.921875q0.421875 -0.546875 0.796875 -1.234375q0.390625 -0.6875 0.6875 -1.546875q0.296875 -0.828125 0.46875 -1.8125q0.1875 -0.984375 0.1875 -2.109375zm7.1171875 4.546875l1.25 0l3.59375 -11.375l-1.546875 0l-2.515625 8.46875l-0.171875 0.578125l-0.15625 -0.5625l-2.5 -8.484375l-1.546875 0l3.59375 11.375zm8.2421875 -4.625l0 0.078125q0 1.125 0.171875 2.109375q0.171875 0.984375 0.46875 1.8125q0.296875 0.859375 0.671875 1.546875q0.390625 0.6875 0.828125 1.234375q0.421875 0.546875 0.84375 0.921875q0.4375 0.375 0.828125 0.59375l0.3125 -0.875q-0.328125 -0.265625 -0.640625 -0.625q-0.3125 -0.359375 -0.609375 -0.828125q-0.296875 -0.5 -0.5625 -1.125q-0.265625 -0.625 -0.46875 -1.34375q-0.1875 -0.71875 -0.296875 -1.5625q-0.109375 -0.859375 -0.109375 -1.84375l0 -0.109375q0 -1.015625 0.109375 -1.890625q0.125 -0.890625 0.34375 -1.625q0.21875 -0.8125 0.546875 -1.484375q0.328125 -0.6875 0.6875 -1.203125q0.234375 -0.328125 0.484375 -0.59375q0.265625 -0.265625 0.515625 -0.453125l-0.3125 -0.953125q-0.390625 0.21875 -0.828125 0.609375q-0.421875 0.375 -0.84375 0.921875q-0.421875 0.53125 -0.8125 1.234375q-0.390625 0.6875 -0.6875 1.53125q-0.296875 0.84375 -0.46875 1.828125q-0.171875 0.984375 -0.171875 2.09375zm15.1484375 4.625l0 -1.1875l-5.71875 0l3.0625 -3.3125q0.421875 -0.46875 0.8125 -0.9375q0.390625 -0.46875 0.6875 -0.953125q0.28125 -0.484375 0.453125 -0.984375q0.171875 -0.5 0.171875 -1.0q0 -0.6875 -0.234375 -1.265625q-0.234375 -0.578125 -0.6875 -1.0q-0.4375 -0.421875 -1.09375 -0.65625q-0.640625 -0.234375 -1.4375 -0.234375q-0.875 0 -1.5625 0.28125q-0.6875 0.28125 -1.15625 0.75q-0.46875 0.484375 -0.71875 1.125q-0.25 0.625 -0.25 1.34375l1.453125 0q0 -0.53125 0.125 -0.953125q0.140625 -0.4375 0.421875 -0.734375q0.28125 -0.296875 0.6875 -0.453125q0.421875 -0.171875 1.0 -0.171875q0.46875 0 0.828125 0.15625q0.375 0.15625 0.640625 0.4375q0.265625 0.265625 0.390625 0.640625q0.140625 0.375 0.140625 0.796875q0 0.34375 -0.09375 0.671875q-0.078125 0.3125 -0.28125 0.671875q-0.203125 0.375 -0.546875 0.8125q-0.328125 0.421875 -0.828125 0.96875l-3.71875 4.140625l0 1.046875l7.453125 0zm6.2890625 -0.34375l0 -1.375l-1.578125 0l0 1.40625q0 0.671875 -0.15625 1.28125q-0.15625 0.625 -0.53125 1.171875l0.90625 0.484375q0.625 -0.546875 0.984375 -1.359375q0.375 -0.8125 0.375 -1.609375zm13.3046875 -3.078125l-1.453125 0q-0.0625 0.515625 -0.234375 0.953125q-0.171875 0.4375 -0.46875 0.765625q-0.28125 0.328125 -0.703125 0.515625q-0.421875 0.171875 -0.984375 0.171875q-0.53125 0 -0.921875 -0.171875q-0.390625 -0.171875 -0.671875 -0.46875q-0.296875 -0.28125 -0.484375 -0.65625q-0.1875 -0.390625 -0.296875 -0.828125q-0.125 -0.4375 -0.171875 -0.875q-0.046875 -0.453125 -0.046875 -0.875l0 -1.609375q0 -0.421875 0.046875 -0.859375q0.046875 -0.453125 0.171875 -0.890625q0.109375 -0.421875 0.296875 -0.796875q0.203125 -0.390625 0.484375 -0.6875q0.28125 -0.28125 0.671875 -0.453125q0.40625 -0.171875 0.921875 -0.171875q0.5625 0 0.984375 0.203125q0.421875 0.1875 0.703125 0.515625q0.296875 0.34375 0.46875 0.796875q0.171875 0.4375 0.234375 0.953125l1.453125 0q-0.09375 -0.8125 -0.390625 -1.484375q-0.296875 -0.671875 -0.78125 -1.15625q-0.484375 -0.484375 -1.15625 -0.734375q-0.671875 -0.265625 -1.515625 -0.265625q-0.71875 0 -1.296875 0.203125q-0.5625 0.1875 -1.0 0.546875q-0.453125 0.34375 -0.78125 0.828125q-0.328125 0.484375 -0.53125 1.046875q-0.21875 0.5625 -0.328125 1.1875q-0.109375 0.609375 -0.109375 1.234375l0 1.59375q0 0.625 0.109375 1.25q0.109375 0.609375 0.328125 1.171875q0.203125 0.5625 0.53125 1.046875q0.328125 0.46875 0.78125 0.828125q0.4375 0.34375 1.015625 0.546875q0.578125 0.203125 1.28125 0.203125q0.8125 0 1.484375 -0.265625q0.671875 -0.265625 1.15625 -0.734375q0.484375 -0.46875 0.78125 -1.125q0.3125 -0.671875 0.421875 -1.453125zm7.5078125 -1.125l0 -0.078125q0 -1.1875 -0.1875 -2.140625q-0.1875 -0.96875 -0.46875 -1.78125q-0.28125 -0.859375 -0.671875 -1.53125q-0.375 -0.6875 -0.8125 -1.234375q-0.421875 -0.546875 -0.859375 -0.921875q-0.4375 -0.390625 -0.828125 -0.609375l-0.3125 0.890625q0.265625 0.203125 0.53125 0.515625q0.28125 0.296875 0.53125 0.6875q0.34375 0.515625 0.65625 1.203125q0.328125 0.671875 0.546875 1.53125q0.15625 0.609375 0.28125 1.46875q0.140625 0.859375 0.140625 1.90625l0 0.109375q0 0.9375 -0.109375 1.75q-0.09375 0.8125 -0.265625 1.515625q-0.171875 0.765625 -0.453125 1.40625q-0.265625 0.640625 -0.546875 1.140625q-0.3125 0.5 -0.65625 0.875q-0.328125 0.390625 -0.65625 0.640625l0.3125 0.875q0.390625 -0.21875 0.8125 -0.59375q0.4375 -0.375 0.875 -0.921875q0.421875 -0.546875 0.796875 -1.234375q0.390625 -0.6875 0.6875 -1.546875q0.296875 -0.828125 0.46875 -1.8125q0.1875 -0.984375 0.1875 -2.109375z" fill-rule="nonzero"/><path fill="#000000" d="m675.01404 249.21388l0 -3.3125l-1.4375 0l0 3.3125l-3.171875 0l0 1.4375l3.171875 0l0 3.53125l1.4375 0l0 -3.53125l3.1875 0l0 -1.4375l-3.1875 0zm46.335938 5.171875q0 0.453125 0.28125 0.78125q0.296875 0.3125 0.859375 0.3125q0.546875 0 0.84375 -0.3125q0.296875 -0.328125 0.296875 -0.78125q0 -0.46875 -0.296875 -0.796875q-0.28125 -0.328125 -0.84375 -0.328125q-0.578125 0 -0.859375 0.328125q-0.28125 0.328125 -0.28125 0.796875zm9.6015625 0q0 0.453125 0.28125 0.78125q0.296875 0.3125 0.859375 0.3125q0.546875 0 0.84375 -0.3125q0.296875 -0.328125 0.296875 -0.78125q0 -0.46875 -0.296875 -0.796875q-0.28125 -0.328125 -0.84375 -0.328125q-0.578125 0 -0.859375 0.328125q-0.28125 0.328125 -0.28125 0.796875zm9.6015625 0q0 0.453125 0.28125 0.78125q0.296875 0.3125 0.859375 0.3125q0.546875 0 0.84375 -0.3125q0.296875 -0.328125 0.296875 -0.78125q0 -0.46875 -0.296875 -0.796875q-0.28125 -0.328125 -0.84375 -0.328125q-0.578125 0 -0.859375 0.328125q-0.28125 0.328125 -0.28125 0.796875zm9.6015625 0q0 0.453125 0.28125 0.78125q0.296875 0.3125 0.859375 0.3125q0.546875 0 0.84375 -0.3125q0.296875 -0.328125 0.296875 -0.78125q0 -0.46875 -0.296875 -0.796875q-0.28125 -0.328125 -0.84375 -0.328125q-0.578125 0 -0.859375 0.328125q-0.28125 0.328125 -0.28125 0.796875zm9.6015625 0q0 0.453125 0.28125 0.78125q0.296875 0.3125 0.859375 0.3125q0.546875 0 0.84375 -0.3125q0.296875 -0.328125 0.296875 -0.78125q0 -0.46875 -0.296875 -0.796875q-0.28125 -0.328125 -0.84375 -0.328125q-0.578125 0 -0.859375 0.328125q-0.28125 0.328125 -0.28125 0.796875zm9.6015625 0q0 0.453125 0.28125 0.78125q0.296875 0.3125 0.859375 0.3125q0.546875 0 0.84375 -0.3125q0.296875 -0.328125 0.296875 -0.78125q0 -0.46875 -0.296875 -0.796875q-0.28125 -0.328125 -0.84375 -0.328125q-0.578125 0 -0.859375 0.328125q-0.28125 0.328125 -0.28125 0.796875zm9.6015625 0q0 0.453125 0.28125 0.78125q0.296875 0.3125 0.859375 0.3125q0.546875 0 0.84375 -0.3125q0.296875 -0.328125 0.296875 -0.78125q0 -0.46875 -0.296875 -0.796875q-0.28125 -0.328125 -0.84375 -0.328125q-0.578125 0 -0.859375 0.328125q-0.28125 0.328125 -0.28125 0.796875zm9.6015625 0q0 0.453125 0.28125 0.78125q0.296875 0.3125 0.859375 0.3125q0.546875 0 0.84375 -0.3125q0.296875 -0.328125 0.296875 -0.78125q0 -0.46875 -0.296875 -0.796875q-0.28125 -0.328125 -0.84375 -0.328125q-0.578125 0 -0.859375 0.328125q-0.28125 0.328125 -0.28125 0.796875z" fill-rule="nonzero"/><path fill="#000000" d="m677.4221 278.2139l0 -3.3125l-1.4375 0l0 3.3125l-3.171875 0l0 1.4375l3.171875 0l0 3.53125l1.4375 0l0 -3.53125l3.1875 0l0 -1.4375l-3.1875 0zm7.0078125 -5.265625l-1.796875 0l0 11.375l1.40625 0l0 -4.546875l-0.109375 -4.578125l1.921875 5.953125l0.828125 0l2.109375 -6.125l-0.125 4.75l0 4.546875l1.40625 0l0 -11.375l-1.796875 0l-2.0 5.6875l-1.84375 -5.6875zm9.4453125 6.75l0 0.078125q0 1.125 0.171875 2.109375q0.171875 0.984375 0.46875 1.8125q0.296875 0.859375 0.671875 1.546875q0.390625 0.6875 0.828125 1.234375q0.421875 0.546875 0.84375 0.921875q0.4375 0.375 0.828125 0.59375l0.3125 -0.875q-0.328125 -0.265625 -0.640625 -0.625q-0.3125 -0.359375 -0.609375 -0.828125q-0.296875 -0.5 -0.5625 -1.125q-0.265625 -0.625 -0.46875 -1.34375q-0.1875 -0.71875 -0.296875 -1.5625q-0.109375 -0.859375 -0.109375 -1.84375l0 -0.109375q0 -1.015625 0.109375 -1.890625q0.125 -0.890625 0.34375 -1.625q0.21875 -0.8125 0.546875 -1.484375q0.328125 -0.6875 0.6875 -1.203125q0.234375 -0.328125 0.484375 -0.59375q0.265625 -0.265625 0.515625 -0.453125l-0.3125 -0.953125q-0.390625 0.21875 -0.828125 0.609375q-0.421875 0.375 -0.84375 0.921875q-0.421875 0.53125 -0.8125 1.234375q-0.390625 0.6875 -0.6875 1.53125q-0.296875 0.84375 -0.46875 1.828125q-0.171875 0.984375 -0.171875 2.09375zm11.5859375 -5.875l-1.453125 0l0 2.046875l-2.21875 0l0 1.109375l2.21875 0l0 4.59375q0 0.78125 0.203125 1.34375q0.21875 0.546875 0.578125 0.890625q0.359375 0.34375 0.84375 0.515625q0.484375 0.15625 1.046875 0.15625q0.34375 0 0.671875 -0.03125q0.34375 -0.03125 0.65625 -0.09375q0.296875 -0.0625 0.546875 -0.140625q0.265625 -0.078125 0.453125 -0.1875l-0.203125 -1.03125q-0.140625 0.03125 -0.34375 0.078125q-0.203125 0.046875 -0.4375 0.078125q-0.25 0.046875 -0.5 0.078125q-0.25 0.015625 -0.484375 0.015625q-0.3125 0 -0.609375 -0.078125q-0.28125 -0.078125 -0.5 -0.265625q-0.21875 -0.1875 -0.34375 -0.5q-0.125 -0.328125 -0.125 -0.828125l0 -4.59375l3.21875 0l0 -1.109375l-3.21875 0l0 -2.046875zm9.8515625 10.15625l0 -1.375l-1.578125 0l0 1.40625q0 0.671875 -0.15625 1.28125q-0.15625 0.625 -0.53125 1.171875l0.90625 0.484375q0.625 -0.546875 0.984375 -1.359375q0.375 -0.8125 0.375 -1.609375zm13.6015625 -9.796875l0 -1.234375l-8.4375 0l0 1.234375l3.515625 0l0 10.140625l1.40625 0l0 -10.140625l3.515625 0zm7.2109375 5.59375l0 -0.078125q0 -1.1875 -0.1875 -2.140625q-0.1875 -0.96875 -0.46875 -1.78125q-0.28125 -0.859375 -0.671875 -1.53125q-0.375 -0.6875 -0.8125 -1.234375q-0.421875 -0.546875 -0.859375 -0.921875q-0.4375 -0.390625 -0.828125 -0.609375l-0.3125 0.890625q0.265625 0.203125 0.53125 0.515625q0.28125 0.296875 0.53125 0.6875q0.34375 0.515625 0.65625 1.203125q0.328125 0.671875 0.546875 1.53125q0.15625 0.609375 0.28125 1.46875q0.140625 0.859375 0.140625 1.90625l0 0.109375q0 0.9375 -0.109375 1.75q-0.09375 0.8125 -0.265625 1.515625q-0.171875 0.765625 -0.453125 1.40625q-0.265625 0.640625 -0.546875 1.140625q-0.3125 0.5 -0.65625 0.875q-0.328125 0.390625 -0.65625 0.640625l0.3125 0.875q0.390625 -0.21875 0.8125 -0.59375q0.4375 -0.375 0.875 -0.921875q0.421875 -0.546875 0.796875 -1.234375q0.390625 -0.6875 0.6875 -1.546875q0.296875 -0.828125 0.46875 -1.8125q0.1875 -0.984375 0.1875 -2.109375zm7.1171875 4.546875l1.25 0l3.59375 -11.375l-1.546875 0l-2.515625 8.46875l-0.171875 0.578125l-0.15625 -0.5625l-2.5 -8.484375l-1.546875 0l3.59375 11.375zm8.2421875 -4.625l0 0.078125q0 1.125 0.171875 2.109375q0.171875 0.984375 0.46875 1.8125q0.296875 0.859375 0.671875 1.546875q0.390625 0.6875 0.828125 1.234375q0.421875 0.546875 0.84375 0.921875q0.4375 0.375 0.828125 0.59375l0.3125 -0.875q-0.328125 -0.265625 -0.640625 -0.625q-0.3125 -0.359375 -0.609375 -0.828125q-0.296875 -0.5 -0.5625 -1.125q-0.265625 -0.625 -0.46875 -1.34375q-0.1875 -0.71875 -0.296875 -1.5625q-0.109375 -0.859375 -0.109375 -1.84375l0 -0.109375q0 -1.015625 0.109375 -1.890625q0.125 -0.890625 0.34375 -1.625q0.21875 -0.8125 0.546875 -1.484375q0.328125 -0.6875 0.6875 -1.203125q0.234375 -0.328125 0.484375 -0.59375q0.265625 -0.265625 0.515625 -0.453125l-0.3125 -0.953125q-0.390625 0.21875 -0.828125 0.609375q-0.421875 0.375 -0.84375 0.921875q-0.421875 0.53125 -0.8125 1.234375q-0.390625 0.6875 -0.6875 1.53125q-0.296875 0.84375 -0.46875 1.828125q-0.171875 0.984375 -0.171875 2.09375zm15.8359375 -5.515625l0 -1.234375l-8.4375 0l0 1.234375l3.515625 0l0 10.140625l1.40625 0l0 -10.140625l3.515625 0zm5.6015625 9.796875l0 -1.375l-1.578125 0l0 1.40625q0 0.671875 -0.15625 1.28125q-0.15625 0.625 -0.53125 1.171875l0.90625 0.484375q0.625 -0.546875 0.984375 -1.359375q0.375 -0.8125 0.375 -1.609375zm13.3046875 -3.078125l-1.453125 0q-0.0625 0.515625 -0.234375 0.953125q-0.171875 0.4375 -0.46875 0.765625q-0.28125 0.328125 -0.703125 0.515625q-0.421875 0.171875 -0.984375 0.171875q-0.53125 0 -0.921875 -0.171875q-0.390625 -0.171875 -0.671875 -0.46875q-0.296875 -0.28125 -0.484375 -0.65625q-0.1875 -0.390625 -0.296875 -0.828125q-0.125 -0.4375 -0.171875 -0.875q-0.046875 -0.453125 -0.046875 -0.875l0 -1.609375q0 -0.421875 0.046875 -0.859375q0.046875 -0.453125 0.171875 -0.890625q0.109375 -0.421875 0.296875 -0.796875q0.203125 -0.390625 0.484375 -0.6875q0.28125 -0.28125 0.671875 -0.453125q0.40625 -0.171875 0.921875 -0.171875q0.5625 0 0.984375 0.203125q0.421875 0.1875 0.703125 0.515625q0.296875 0.34375 0.46875 0.796875q0.171875 0.4375 0.234375 0.953125l1.453125 0q-0.09375 -0.8125 -0.390625 -1.484375q-0.296875 -0.671875 -0.78125 -1.15625q-0.484375 -0.484375 -1.15625 -0.734375q-0.671875 -0.265625 -1.515625 -0.265625q-0.71875 0 -1.296875 0.203125q-0.5625 0.1875 -1.0 0.546875q-0.453125 0.34375 -0.78125 0.828125q-0.328125 0.484375 -0.53125 1.046875q-0.21875 0.5625 -0.328125 1.1875q-0.109375 0.609375 -0.109375 1.234375l0 1.59375q0 0.625 0.109375 1.25q0.109375 0.609375 0.328125 1.171875q0.203125 0.5625 0.53125 1.046875q0.328125 0.46875 0.78125 0.828125q0.4375 0.34375 1.015625 0.546875q0.578125 0.203125 1.28125 0.203125q0.8125 0 1.484375 -0.265625q0.671875 -0.265625 1.15625 -0.734375q0.484375 -0.46875 0.78125 -1.125q0.3125 -0.671875 0.421875 -1.453125zm7.5078125 -1.125l0 -0.078125q0 -1.1875 -0.1875 -2.140625q-0.1875 -0.96875 -0.46875 -1.78125q-0.28125 -0.859375 -0.671875 -1.53125q-0.375 -0.6875 -0.8125 -1.234375q-0.421875 -0.546875 -0.859375 -0.921875q-0.4375 -0.390625 -0.828125 -0.609375l-0.3125 0.890625q0.265625 0.203125 0.53125 0.515625q0.28125 0.296875 0.53125 0.6875q0.34375 0.515625 0.65625 1.203125q0.328125 0.671875 0.546875 1.53125q0.15625 0.609375 0.28125 1.46875q0.140625 0.859375 0.140625 1.90625l0 0.109375q0 0.9375 -0.109375 1.75q-0.09375 0.8125 -0.265625 1.515625q-0.171875 0.765625 -0.453125 1.40625q-0.265625 0.640625 -0.546875 1.140625q-0.3125 0.5 -0.65625 0.875q-0.328125 0.390625 -0.65625 0.640625l0.3125 0.875q0.390625 -0.21875 0.8125 -0.59375q0.4375 -0.375 0.875 -0.921875q0.421875 -0.546875 0.796875 -1.234375q0.390625 -0.6875 0.6875 -1.546875q0.296875 -0.828125 0.46875 -1.8125q0.1875 -0.984375 0.1875 -2.109375z" fill-rule="nonzero"/><path fill="#000000" fill-opacity="0.0" d="m565.78217 226.39108l94.677124 0l0 42.015747l-94.677124 0z" fill-rule="evenodd"/><path fill="#000000" d="m596.63635 253.31108l0 -1.875l1.875 0l0 1.875l-1.875 0zm6.234375 0l0 -1.875l1.859375 0l0 1.875l-1.859375 0zm6.203125 0l0 -1.875l1.875 0l0 1.875l-1.875 0zm6.21875 0l0 -1.875l1.875 0l0 1.875l-1.875 0zm6.234375 0l0 -1.875l1.859375 0l0 1.875l-1.859375 0zm6.203125 0l0 -1.875l1.875 0l0 1.875l-1.875 0z" fill-rule="nonzero"/><path fill="#000000" fill-opacity="0.0" d="m231.4672 173.10785l584.0 0l0 30.29921l-584.0 0z" fill-rule="evenodd"/><path stroke="#ff0000" stroke-width="2.0" stroke-linejoin="round" stroke-linecap="butt" stroke-dasharray="8.0,6.0" d="m231.4672 173.10785l584.0 0l0 30.29921l-584.0 0z" fill-rule="evenodd"/><path fill="#000000" fill-opacity="0.0" d="m231.4672 210.71916l584.0 0l0 24.031494l-584.0 0z" fill-rule="evenodd"/><path stroke="#0000ff" stroke-width="2.0" stroke-linejoin="round" stroke-linecap="butt" stroke-dasharray="8.0,6.0" d="m231.4672 210.71916l584.0 0l0 24.031494l-584.0 0z" fill-rule="evenodd"/><path fill="#000000" fill-opacity="0.0" d="m851.958 168.87138l128.0315 0l0 38.771667l-128.0315 0z" fill-rule="evenodd"/><path fill="#000000" d="m863.91113 181.85638l-1.796875 0l0 11.375l1.40625 0l0 -4.546875l-0.109375 -4.578125l1.921875 5.953125l0.828125 0l2.109375 -6.125l-0.125 4.75l0 4.546875l1.40625 0l0 -11.375l-1.796875 0l-2.0 5.6875l-1.84375 -5.6875zm9.4453125 6.75l0 0.078125q0 1.125 0.171875 2.109375q0.171875 0.984375 0.46875 1.8125q0.296875 0.859375 0.671875 1.546875q0.390625 0.6875 0.828125 1.234375q0.421875 0.546875 0.84375 0.921875q0.4375 0.375 0.828125 0.59375l0.3125 -0.875q-0.328125 -0.265625 -0.640625 -0.625q-0.3125 -0.359375 -0.609375 -0.828125q-0.296875 -0.5 -0.5625 -1.125q-0.265625 -0.625 -0.46875 -1.34375q-0.1875 -0.71875 -0.296875 -1.5625q-0.109375 -0.859375 -0.109375 -1.84375l0 -0.109375q0 -1.015625 0.109375 -1.890625q0.125 -0.890625 0.34375 -1.625q0.21875 -0.8125 0.546875 -1.484375q0.328125 -0.6875 0.6875 -1.203125q0.234375 -0.328125 0.484375 -0.59375q0.265625 -0.265625 0.515625 -0.453125l-0.3125 -0.953125q-0.390625 0.21875 -0.828125 0.609375q-0.421875 0.375 -0.84375 0.921875q-0.421875 0.53125 -0.8125 1.234375q-0.390625 0.6875 -0.6875 1.53125q-0.296875 0.84375 -0.46875 1.828125q-0.171875 0.984375 -0.171875 2.09375zm11.5859375 -5.875l-1.453125 0l0 2.046875l-2.21875 0l0 1.109375l2.21875 0l0 4.59375q0 0.78125 0.203125 1.34375q0.21875 0.546875 0.578125 0.890625q0.359375 0.34375 0.84375 0.515625q0.484375 0.15625 1.046875 0.15625q0.34375 0 0.671875 -0.03125q0.34375 -0.03125 0.65625 -0.09375q0.296875 -0.0625 0.546875 -0.140625q0.265625 -0.078125 0.453125 -0.1875l-0.203125 -1.03125q-0.140625 0.03125 -0.34375 0.078125q-0.203125 0.046875 -0.4375 0.078125q-0.25 0.046875 -0.5 0.078125q-0.25 0.015625 -0.484375 0.015625q-0.3125 0 -0.609375 -0.078125q-0.28125 -0.078125 -0.5 -0.265625q-0.21875 -0.1875 -0.34375 -0.5q-0.125 -0.328125 -0.125 -0.828125l0 -4.59375l3.21875 0l0 -1.109375l-3.21875 0l0 -2.046875zm9.8515625 10.15625l0 -1.375l-1.578125 0l0 1.40625q0 0.671875 -0.15625 1.28125q-0.15625 0.625 -0.53125 1.171875l0.90625 0.484375q0.625 -0.546875 0.984375 -1.359375q0.375 -0.8125 0.375 -1.609375zm10.6171875 0.34375l0 -11.375l-0.109375 0l-4.3125 1.65625l0 1.3125l2.984375 -1.125l0 9.53125l1.4375 0zm10.1953125 -4.546875l0 -0.078125q0 -1.1875 -0.1875 -2.140625q-0.1875 -0.96875 -0.46875 -1.78125q-0.28125 -0.859375 -0.671875 -1.53125q-0.375 -0.6875 -0.8125 -1.234375q-0.421875 -0.546875 -0.859375 -0.921875q-0.4375 -0.390625 -0.828125 -0.609375l-0.3125 0.890625q0.265625 0.203125 0.53125 0.515625q0.28125 0.296875 0.53125 0.6875q0.34375 0.515625 0.65625 1.203125q0.328125 0.671875 0.546875 1.53125q0.15625 0.609375 0.28125 1.46875q0.140625 0.859375 0.140625 1.90625l0 0.109375q0 0.9375 -0.109375 1.75q-0.09375 0.8125 -0.265625 1.515625q-0.171875 0.765625 -0.453125 1.40625q-0.265625 0.640625 -0.546875 1.140625q-0.3125 0.5 -0.65625 0.875q-0.328125 0.390625 -0.65625 0.640625l0.3125 0.875q0.390625 -0.21875 0.8125 -0.59375q0.4375 -0.375 0.875 -0.921875q0.421875 -0.546875 0.796875 -1.234375q0.390625 -0.6875 0.6875 -1.546875q0.296875 -0.828125 0.46875 -1.8125q0.1875 -0.984375 0.1875 -2.109375zm7.1171875 4.546875l1.25 0l3.59375 -11.375l-1.546875 0l-2.515625 8.46875l-0.171875 0.578125l-0.15625 -0.5625l-2.5 -8.484375l-1.546875 0l3.59375 11.375zm8.2421875 -4.625l0 0.078125q0 1.125 0.171875 2.109375q0.171875 0.984375 0.46875 1.8125q0.296875 0.859375 0.671875 1.546875q0.390625 0.6875 0.828125 1.234375q0.421875 0.546875 0.84375 0.921875q0.4375 0.375 0.828125 0.59375l0.3125 -0.875q-0.328125 -0.265625 -0.640625 -0.625q-0.3125 -0.359375 -0.609375 -0.828125q-0.296875 -0.5 -0.5625 -1.125q-0.265625 -0.625 -0.46875 -1.34375q-0.1875 -0.71875 -0.296875 -1.5625q-0.109375 -0.859375 -0.109375 -1.84375l0 -0.109375q0 -1.015625 0.109375 -1.890625q0.125 -0.890625 0.34375 -1.625q0.21875 -0.8125 0.546875 -1.484375q0.328125 -0.6875 0.6875 -1.203125q0.234375 -0.328125 0.484375 -0.59375q0.265625 -0.265625 0.515625 -0.453125l-0.3125 -0.953125q-0.390625 0.21875 -0.828125 0.609375q-0.421875 0.375 -0.84375 0.921875q-0.421875 0.53125 -0.8125 1.234375q-0.390625 0.6875 -0.6875 1.53125q-0.296875 0.84375 -0.46875 1.828125q-0.171875 0.984375 -0.171875 2.09375zm12.8515625 4.625l0 -11.375l-0.109375 0l-4.3125 1.65625l0 1.3125l2.984375 -1.125l0 9.53125l1.4375 0zm10.1953125 -4.546875l0 -0.078125q0 -1.1875 -0.1875 -2.140625q-0.1875 -0.96875 -0.46875 -1.78125q-0.28125 -0.859375 -0.671875 -1.53125q-0.375 -0.6875 -0.8125 -1.234375q-0.421875 -0.546875 -0.859375 -0.921875q-0.4375 -0.390625 -0.828125 -0.609375l-0.3125 0.890625q0.265625 0.203125 0.53125 0.515625q0.28125 0.296875 0.53125 0.6875q0.34375 0.515625 0.65625 1.203125q0.328125 0.671875 0.546875 1.53125q0.15625 0.609375 0.28125 1.46875q0.140625 0.859375 0.140625 1.90625l0 0.109375q0 0.9375 -0.109375 1.75q-0.09375 0.8125 -0.265625 1.515625q-0.171875 0.765625 -0.453125 1.40625q-0.265625 0.640625 -0.546875 1.140625q-0.3125 0.5 -0.65625 0.875q-0.328125 0.390625 -0.65625 0.640625l0.3125 0.875q0.390625 -0.21875 0.8125 -0.59375q0.4375 -0.375 0.875 -0.921875q0.421875 -0.546875 0.796875 -1.234375q0.390625 -0.6875 0.6875 -1.546875q0.296875 -0.828125 0.46875 -1.8125q0.1875 -0.984375 0.1875 -2.109375z" fill-rule="nonzero"/><path fill="#000000" fill-opacity="0.0" d="m851.958 203.34908l128.0315 0l0 38.771652l-128.0315 0z" fill-rule="evenodd"/><path fill="#000000" d="m863.91113 216.33408l-1.796875 0l0 11.375l1.40625 0l0 -4.546875l-0.109375 -4.578125l1.921875 5.953125l0.828125 0l2.109375 -6.125l-0.125 4.75l0 4.546875l1.40625 0l0 -11.375l-1.796875 0l-2.0 5.6875l-1.84375 -5.6875zm9.4453125 6.75l0 0.078125q0 1.125 0.171875 2.109375q0.171875 0.984375 0.46875 1.8125q0.296875 0.859375 0.671875 1.546875q0.390625 0.6875 0.828125 1.234375q0.421875 0.546875 0.84375 0.921875q0.4375 0.375 0.828125 0.59375l0.3125 -0.875q-0.328125 -0.265625 -0.640625 -0.625q-0.3125 -0.359375 -0.609375 -0.828125q-0.296875 -0.5 -0.5625 -1.125q-0.265625 -0.625 -0.46875 -1.34375q-0.1875 -0.71875 -0.296875 -1.5625q-0.109375 -0.859375 -0.109375 -1.84375l0 -0.109375q0 -1.015625 0.109375 -1.890625q0.125 -0.890625 0.34375 -1.625q0.21875 -0.8125 0.546875 -1.484375q0.328125 -0.6875 0.6875 -1.203125q0.234375 -0.328125 0.484375 -0.59375q0.265625 -0.265625 0.515625 -0.453125l-0.3125 -0.953125q-0.390625 0.21875 -0.828125 0.609375q-0.421875 0.375 -0.84375 0.921875q-0.421875 0.53125 -0.8125 1.234375q-0.390625 0.6875 -0.6875 1.53125q-0.296875 0.84375 -0.46875 1.828125q-0.171875 0.984375 -0.171875 2.09375zm11.5859375 -5.875l-1.453125 0l0 2.046875l-2.21875 0l0 1.109375l2.21875 0l0 4.59375q0 0.78125 0.203125 1.34375q0.21875 0.546875 0.578125 0.890625q0.359375 0.34375 0.84375 0.515625q0.484375 0.15625 1.046875 0.15625q0.34375 0 0.671875 -0.03125q0.34375 -0.03125 0.65625 -0.09375q0.296875 -0.0625 0.546875 -0.140625q0.265625 -0.078125 0.453125 -0.1875l-0.203125 -1.03125q-0.140625 0.03125 -0.34375 0.078125q-0.203125 0.046875 -0.4375 0.078125q-0.25 0.046875 -0.5 0.078125q-0.25 0.015625 -0.484375 0.015625q-0.3125 0 -0.609375 -0.078125q-0.28125 -0.078125 -0.5 -0.265625q-0.21875 -0.1875 -0.34375 -0.5q-0.125 -0.328125 -0.125 -0.828125l0 -4.59375l3.21875 0l0 -1.109375l-3.21875 0l0 -2.046875zm9.8515625 10.15625l0 -1.375l-1.578125 0l0 1.40625q0 0.671875 -0.15625 1.28125q-0.15625 0.625 -0.53125 1.171875l0.90625 0.484375q0.625 -0.546875 0.984375 -1.359375q0.375 -0.8125 0.375 -1.609375zm12.9140625 0.34375l0 -1.1875l-5.71875 0l3.0625 -3.3125q0.421875 -0.46875 0.8125 -0.9375q0.390625 -0.46875 0.6875 -0.953125q0.28125 -0.484375 0.453125 -0.984375q0.171875 -0.5 0.171875 -1.0q0 -0.6875 -0.234375 -1.265625q-0.234375 -0.578125 -0.6875 -1.0q-0.4375 -0.421875 -1.09375 -0.65625q-0.640625 -0.234375 -1.4375 -0.234375q-0.875 0 -1.5625 0.28125q-0.6875 0.28125 -1.15625 0.75q-0.46875 0.484375 -0.71875 1.125q-0.25 0.625 -0.25 1.34375l1.453125 0q0 -0.53125 0.125 -0.953125q0.140625 -0.4375 0.421875 -0.734375q0.28125 -0.296875 0.6875 -0.453125q0.421875 -0.171875 1.0 -0.171875q0.46875 0 0.828125 0.15625q0.375 0.15625 0.640625 0.4375q0.265625 0.265625 0.390625 0.640625q0.140625 0.375 0.140625 0.796875q0 0.34375 -0.09375 0.671875q-0.078125 0.3125 -0.28125 0.671875q-0.203125 0.375 -0.546875 0.8125q-0.328125 0.421875 -0.828125 0.96875l-3.71875 4.140625l0 1.046875l7.453125 0zm7.8984375 -4.546875l0 -0.078125q0 -1.1875 -0.1875 -2.140625q-0.1875 -0.96875 -0.46875 -1.78125q-0.28125 -0.859375 -0.671875 -1.53125q-0.375 -0.6875 -0.8125 -1.234375q-0.421875 -0.546875 -0.859375 -0.921875q-0.4375 -0.390625 -0.828125 -0.609375l-0.3125 0.890625q0.265625 0.203125 0.53125 0.515625q0.28125 0.296875 0.53125 0.6875q0.34375 0.515625 0.65625 1.203125q0.328125 0.671875 0.546875 1.53125q0.15625 0.609375 0.28125 1.46875q0.140625 0.859375 0.140625 1.90625l0 0.109375q0 0.9375 -0.109375 1.75q-0.09375 0.8125 -0.265625 1.515625q-0.171875 0.765625 -0.453125 1.40625q-0.265625 0.640625 -0.546875 1.140625q-0.3125 0.5 -0.65625 0.875q-0.328125 0.390625 -0.65625 0.640625l0.3125 0.875q0.390625 -0.21875 0.8125 -0.59375q0.4375 -0.375 0.875 -0.921875q0.421875 -0.546875 0.796875 -1.234375q0.390625 -0.6875 0.6875 -1.546875q0.296875 -0.828125 0.46875 -1.8125q0.1875 -0.984375 0.1875 -2.109375zm7.1171875 4.546875l1.25 0l3.59375 -11.375l-1.546875 0l-2.515625 8.46875l-0.171875 0.578125l-0.15625 -0.5625l-2.5 -8.484375l-1.546875 0l3.59375 11.375zm8.2421875 -4.625l0 0.078125q0 1.125 0.171875 2.109375q0.171875 0.984375 0.46875 1.8125q0.296875 0.859375 0.671875 1.546875q0.390625 0.6875 0.828125 1.234375q0.421875 0.546875 0.84375 0.921875q0.4375 0.375 0.828125 0.59375l0.3125 -0.875q-0.328125 -0.265625 -0.640625 -0.625q-0.3125 -0.359375 -0.609375 -0.828125q-0.296875 -0.5 -0.5625 -1.125q-0.265625 -0.625 -0.46875 -1.34375q-0.1875 -0.71875 -0.296875 -1.5625q-0.109375 -0.859375 -0.109375 -1.84375l0 -0.109375q0 -1.015625 0.109375 -1.890625q0.125 -0.890625 0.34375 -1.625q0.21875 -0.8125 0.546875 -1.484375q0.328125 -0.6875 0.6875 -1.203125q0.234375 -0.328125 0.484375 -0.59375q0.265625 -0.265625 0.515625 -0.453125l-0.3125 -0.953125q-0.390625 0.21875 -0.828125 0.609375q-0.421875 0.375 -0.84375 0.921875q-0.421875 0.53125 -0.8125 1.234375q-0.390625 0.6875 -0.6875 1.53125q-0.296875 0.84375 -0.46875 1.828125q-0.171875 0.984375 -0.171875 2.09375zm15.1484375 4.625l0 -1.1875l-5.71875 0l3.0625 -3.3125q0.421875 -0.46875 0.8125 -0.9375q0.390625 -0.46875 0.6875 -0.953125q0.28125 -0.484375 0.453125 -0.984375q0.171875 -0.5 0.171875 -1.0q0 -0.6875 -0.234375 -1.265625q-0.234375 -0.578125 -0.6875 -1.0q-0.4375 -0.421875 -1.09375 -0.65625q-0.640625 -0.234375 -1.4375 -0.234375q-0.875 0 -1.5625 0.28125q-0.6875 0.28125 -1.15625 0.75q-0.46875 0.484375 -0.71875 1.125q-0.25 0.625 -0.25 1.34375l1.453125 0q0 -0.53125 0.125 -0.953125q0.140625 -0.4375 0.421875 -0.734375q0.28125 -0.296875 0.6875 -0.453125q0.421875 -0.171875 1.0 -0.171875q0.46875 0 0.828125 0.15625q0.375 0.15625 0.640625 0.4375q0.265625 0.265625 0.390625 0.640625q0.140625 0.375 0.140625 0.796875q0 0.34375 -0.09375 0.671875q-0.078125 0.3125 -0.28125 0.671875q-0.203125 0.375 -0.546875 0.8125q-0.328125 0.421875 -0.828125 0.96875l-3.71875 4.140625l0 1.046875l7.453125 0zm7.8984375 -4.546875l0 -0.078125q0 -1.1875 -0.1875 -2.140625q-0.1875 -0.96875 -0.46875 -1.78125q-0.28125 -0.859375 -0.671875 -1.53125q-0.375 -0.6875 -0.8125 -1.234375q-0.421875 -0.546875 -0.859375 -0.921875q-0.4375 -0.390625 -0.828125 -0.609375l-0.3125 0.890625q0.265625 0.203125 0.53125 0.515625q0.28125 0.296875 0.53125 0.6875q0.34375 0.515625 0.65625 1.203125q0.328125 0.671875 0.546875 1.53125q0.15625 0.609375 0.28125 1.46875q0.140625 0.859375 0.140625 1.90625l0 0.109375q0 0.9375 -0.109375 1.75q-0.09375 0.8125 -0.265625 1.515625q-0.171875 0.765625 -0.453125 1.40625q-0.265625 0.640625 -0.546875 1.140625q-0.3125 0.5 -0.65625 0.875q-0.328125 0.390625 -0.65625 0.640625l0.3125 0.875q0.390625 -0.21875 0.8125 -0.59375q0.4375 -0.375 0.875 -0.921875q0.421875 -0.546875 0.796875 -1.234375q0.390625 -0.6875 0.6875 -1.546875q0.296875 -0.828125 0.46875 -1.8125q0.1875 -0.984375 0.1875 -2.109375z" fill-rule="nonzero"/><path fill="#000000" fill-opacity="0.0" d="m851.958 260.3491l128.0315 0l0 38.771637l-128.0315 0z" fill-rule="evenodd"/><path fill="#000000" d="m863.91113 273.33408l-1.796875 0l0 11.375l1.40625 0l0 -4.546875l-0.109375 -4.578125l1.921875 5.953125l0.828125 0l2.109375 -6.125l-0.125 4.75l0 4.546875l1.40625 0l0 -11.375l-1.796875 0l-2.0 5.6875l-1.84375 -5.6875zm9.4453125 6.75l0 0.078125q0 1.125 0.171875 2.109375q0.171875 0.984375 0.46875 1.8125q0.296875 0.859375 0.671875 1.546875q0.390625 0.6875 0.828125 1.234375q0.421875 0.546875 0.84375 0.921875q0.4375 0.375 0.828125 0.59375l0.3125 -0.875q-0.328125 -0.265625 -0.640625 -0.625q-0.3125 -0.359375 -0.609375 -0.828125q-0.296875 -0.5 -0.5625 -1.125q-0.265625 -0.625 -0.46875 -1.34375q-0.1875 -0.71875 -0.296875 -1.5625q-0.109375 -0.859375 -0.109375 -1.84375l0 -0.109375q0 -1.015625 0.109375 -1.890625q0.125 -0.890625 0.34375 -1.625q0.21875 -0.8125 0.546875 -1.484375q0.328125 -0.6875 0.6875 -1.203125q0.234375 -0.328125 0.484375 -0.59375q0.265625 -0.265625 0.515625 -0.453125l-0.3125 -0.953125q-0.390625 0.21875 -0.828125 0.609375q-0.421875 0.375 -0.84375 0.921875q-0.421875 0.53125 -0.8125 1.234375q-0.390625 0.6875 -0.6875 1.53125q-0.296875 0.84375 -0.46875 1.828125q-0.171875 0.984375 -0.171875 2.09375zm11.5859375 -5.875l-1.453125 0l0 2.046875l-2.21875 0l0 1.109375l2.21875 0l0 4.59375q0 0.78125 0.203125 1.34375q0.21875 0.546875 0.578125 0.890625q0.359375 0.34375 0.84375 0.515625q0.484375 0.15625 1.046875 0.15625q0.34375 0 0.671875 -0.03125q0.34375 -0.03125 0.65625 -0.09375q0.296875 -0.0625 0.546875 -0.140625q0.265625 -0.078125 0.453125 -0.1875l-0.203125 -1.03125q-0.140625 0.03125 -0.34375 0.078125q-0.203125 0.046875 -0.4375 0.078125q-0.25 0.046875 -0.5 0.078125q-0.25 0.015625 -0.484375 0.015625q-0.3125 0 -0.609375 -0.078125q-0.28125 -0.078125 -0.5 -0.265625q-0.21875 -0.1875 -0.34375 -0.5q-0.125 -0.328125 -0.125 -0.828125l0 -4.59375l3.21875 0l0 -1.109375l-3.21875 0l0 -2.046875zm9.8515625 10.15625l0 -1.375l-1.578125 0l0 1.40625q0 0.671875 -0.15625 1.28125q-0.15625 0.625 -0.53125 1.171875l0.90625 0.484375q0.625 -0.546875 0.984375 -1.359375q0.375 -0.8125 0.375 -1.609375zm13.6015625 -9.796875l0 -1.234375l-8.4375 0l0 1.234375l3.515625 0l0 10.140625l1.40625 0l0 -10.140625l3.515625 0zm7.2109375 5.59375l0 -0.078125q0 -1.1875 -0.1875 -2.140625q-0.1875 -0.96875 -0.46875 -1.78125q-0.28125 -0.859375 -0.671875 -1.53125q-0.375 -0.6875 -0.8125 -1.234375q-0.421875 -0.546875 -0.859375 -0.921875q-0.4375 -0.390625 -0.828125 -0.609375l-0.3125 0.890625q0.265625 0.203125 0.53125 0.515625q0.28125 0.296875 0.53125 0.6875q0.34375 0.515625 0.65625 1.203125q0.328125 0.671875 0.546875 1.53125q0.15625 0.609375 0.28125 1.46875q0.140625 0.859375 0.140625 1.90625l0 0.109375q0 0.9375 -0.109375 1.75q-0.09375 0.8125 -0.265625 1.515625q-0.171875 0.765625 -0.453125 1.40625q-0.265625 0.640625 -0.546875 1.140625q-0.3125 0.5 -0.65625 0.875q-0.328125 0.390625 -0.65625 0.640625l0.3125 0.875q0.390625 -0.21875 0.8125 -0.59375q0.4375 -0.375 0.875 -0.921875q0.421875 -0.546875 0.796875 -1.234375q0.390625 -0.6875 0.6875 -1.546875q0.296875 -0.828125 0.46875 -1.8125q0.1875 -0.984375 0.1875 -2.109375zm7.1171875 4.546875l1.25 0l3.59375 -11.375l-1.546875 0l-2.515625 8.46875l-0.171875 0.578125l-0.15625 -0.5625l-2.5 -8.484375l-1.546875 0l3.59375 11.375zm8.2421875 -4.625l0 0.078125q0 1.125 0.171875 2.109375q0.171875 0.984375 0.46875 1.8125q0.296875 0.859375 0.671875 1.546875q0.390625 0.6875 0.828125 1.234375q0.421875 0.546875 0.84375 0.921875q0.4375 0.375 0.828125 0.59375l0.3125 -0.875q-0.328125 -0.265625 -0.640625 -0.625q-0.3125 -0.359375 -0.609375 -0.828125q-0.296875 -0.5 -0.5625 -1.125q-0.265625 -0.625 -0.46875 -1.34375q-0.1875 -0.71875 -0.296875 -1.5625q-0.109375 -0.859375 -0.109375 -1.84375l0 -0.109375q0 -1.015625 0.109375 -1.890625q0.125 -0.890625 0.34375 -1.625q0.21875 -0.8125 0.546875 -1.484375q0.328125 -0.6875 0.6875 -1.203125q0.234375 -0.328125 0.484375 -0.59375q0.265625 -0.265625 0.515625 -0.453125l-0.3125 -0.953125q-0.390625 0.21875 -0.828125 0.609375q-0.421875 0.375 -0.84375 0.921875q-0.421875 0.53125 -0.8125 1.234375q-0.390625 0.6875 -0.6875 1.53125q-0.296875 0.84375 -0.46875 1.828125q-0.171875 0.984375 -0.171875 2.09375zm15.8359375 -5.515625l0 -1.234375l-8.4375 0l0 1.234375l3.515625 0l0 10.140625l1.40625 0l0 -10.140625l3.515625 0zm7.2109375 5.59375l0 -0.078125q0 -1.1875 -0.1875 -2.140625q-0.1875 -0.96875 -0.46875 -1.78125q-0.28125 -0.859375 -0.671875 -1.53125q-0.375 -0.6875 -0.8125 -1.234375q-0.421875 -0.546875 -0.859375 -0.921875q-0.4375 -0.390625 -0.828125 -0.609375l-0.3125 0.890625q0.265625 0.203125 0.53125 0.515625q0.28125 0.296875 0.53125 0.6875q0.34375 0.515625 0.65625 1.203125q0.328125 0.671875 0.546875 1.53125q0.15625 0.609375 0.28125 1.46875q0.140625 0.859375 0.140625 1.90625l0 0.109375q0 0.9375 -0.109375 1.75q-0.09375 0.8125 -0.265625 1.515625q-0.171875 0.765625 -0.453125 1.40625q-0.265625 0.640625 -0.546875 1.140625q-0.3125 0.5 -0.65625 0.875q-0.328125 0.390625 -0.65625 0.640625l0.3125 0.875q0.390625 -0.21875 0.8125 -0.59375q0.4375 -0.375 0.875 -0.921875q0.421875 -0.546875 0.796875 -1.234375q0.390625 -0.6875 0.6875 -1.546875q0.296875 -0.828125 0.46875 -1.8125q0.1875 -0.984375 0.1875 -2.109375z" fill-rule="nonzero"/><path fill="#000000" fill-opacity="0.0" d="m815.46716 188.25746l36.503967 0" fill-rule="evenodd"/><path stroke="#000000" stroke-width="1.0" stroke-linejoin="round" stroke-linecap="butt" d="m815.46716 188.25746l30.503967 0" fill-rule="evenodd"/><path fill="#000000" stroke="#000000" stroke-width="1.0" stroke-linecap="butt" d="m845.9711 189.9092l4.538086 -1.6517334l-4.538086 -1.6517334z" fill-rule="evenodd"/><path fill="#000000" fill-opacity="0.0" d="m815.46716 222.73491l36.503967 0" fill-rule="evenodd"/><path stroke="#000000" stroke-width="1.0" stroke-linejoin="round" stroke-linecap="butt" d="m815.46716 222.73491l30.503967 0" fill-rule="evenodd"/><path fill="#000000" stroke="#000000" stroke-width="1.0" stroke-linecap="butt" d="m845.9711 224.38664l4.538086 -1.6517334l-4.538086 -1.6517334z" fill-rule="evenodd"/><path fill="#000000" fill-opacity="0.0" d="m815.46716 279.7349l36.503967 0" fill-rule="evenodd"/><path stroke="#000000" stroke-width="1.0" stroke-linejoin="round" stroke-linecap="butt" d="m815.46716 279.7349l30.503967 0" fill-rule="evenodd"/><path fill="#000000" stroke="#000000" stroke-width="1.0" stroke-linecap="butt" d="m845.9711 281.38663l4.538086 -1.6517334l-4.538086 -1.6517029z" fill-rule="evenodd"/><path fill="#000000" fill-opacity="0.0" d="m231.4672 267.71915l584.0 0l0 24.031525l-584.0 0z" fill-rule="evenodd"/><path stroke="#6aa84f" stroke-width="2.0" stroke-linejoin="round" stroke-linecap="butt" stroke-dasharray="8.0,6.0" d="m231.4672 267.71915l584.0 0l0 24.031525l-584.0 0z" fill-rule="evenodd"/></g></svg>