<svg xmlns="http://www.w3.org/2000/svg" width="475.61968750000005" height="250.0"><line x1="36.90890625" x2="445.61968750000005" y1="25.0" y2="25.0" stroke="#1967d2" stroke-width="1" /><line x1="36.90890625" x2="445.61968750000005" y1="75.0" y2="75.0" stroke="#1967d2" stroke-width="1" /><line x1="36.90890625" x2="445.61968750000005" y1="125.0" y2="125.0" stroke="#1967d2" stroke-width="1" /><line x1="36.90890625" x2="445.61968750000005" y1="175.0" y2="175.0" stroke="#1967d2" stroke-width="1" /><line x1="36.90890625" x2="445.61968750000005" y1="225.0" y2="225.0" stroke="#1967d2" stroke-width="1" /><line x1="119.043046875" x2="119.043046875" y1="25.0" y2="75.0" stroke="black" stroke-width="3" /><line x1="209.493515625" x2="209.493515625" y1="25.0" y2="125.0" stroke="black" stroke-width="3" /><line x1="299.943984375" x2="299.943984375" y1="25.0" y2="175.0" stroke="black" stroke-width="3" /><line x1="390.39445312500004" x2="390.39445312500004" y1="25.0" y2="225.0" stroke="black" stroke-width="3" /><rect x="10.0" y="5.0" width="53.8178125" height="40" stroke="black" fill="white" stroke-width="0" /><text x="36.90890625" y="25.0" dominant-baseline="middle" text-anchor="middle" font-size="14px" font-family="Arial">(-1, -1): </text><rect x="10.0" y="55.0" width="53.8178125" height="40" stroke="black" fill="white" stroke-width="0" /><text x="36.90890625" y="75.0" dominant-baseline="middle" text-anchor="middle" font-size="14px" font-family="Arial">(0, 0): </text><rect x="10.0" y="105.0" width="53.8178125" height="40" stroke="black" fill="white" stroke-width="0" /><text x="36.90890625" y="125.0" dominant-baseline="middle" text-anchor="middle" font-size="14px" font-family="Arial">(1, 0): </text><rect x="10.0" y="155.0" width="53.8178125" height="40" stroke="black" fill="white" stroke-width="0" /><text x="36.90890625" y="175.0" dominant-baseline="middle" text-anchor="middle" font-size="14px" font-family="Arial">(2, 0): </text><rect x="10.0" y="205.0" width="53.8178125" height="40" stroke="black" fill="white" stroke-width="0" /><text x="36.90890625" y="225.0" dominant-baseline="middle" text-anchor="middle" font-size="14px" font-family="Arial">(3, 0): </text><rect x="83.8178125" y="55.0" width="70.45046875" height="40" stroke="black" fill="white" stroke-width="1" /><text x="119.043046875" y="75.0" dominant-baseline="middle" text-anchor="middle" font-size="14px" font-family="Arial">XX^(xx-0)</text><rect x="83.8178125" y="5.0" width="70.45046875" height="40" stroke="black" fill="white" stroke-width="1" /><text x="119.043046875" y="25.0" dominant-baseline="middle" text-anchor="middle" font-size="14px" font-family="Arial">XX</text><rect x="174.26828124999997" y="105.0" width="70.45046875" height="40" stroke="black" fill="white" stroke-width="1" /><text x="209.493515625" y="125.0" dominant-baseline="middle" text-anchor="middle" font-size="14px" font-family="Arial">XX^(xx-1)</text><rect x="174.26828124999997" y="5.0" width="70.45046875" height="40" stroke="black" fill="white" stroke-width="1" /><text x="209.493515625" y="25.0" dominant-baseline="middle" text-anchor="middle" font-size="14px" font-family="Arial">XX</text><rect x="264.71875" y="155.0" width="70.45046875" height="40" stroke="black" fill="white" stroke-width="1" /><text x="299.943984375" y="175.0" dominant-baseline="middle" text-anchor="middle" font-size="14px" font-family="Arial">XX^(xx-2)</text><rect x="264.71875" y="5.0" width="70.45046875" height="40" stroke="black" fill="white" stroke-width="1" /><text x="299.943984375" y="25.0" dominant-baseline="middle" text-anchor="middle" font-size="14px" font-family="Arial">XX</text><rect x="355.16921875" y="205.0" width="70.45046875" height="40" stroke="black" fill="white" stroke-width="1" /><text x="390.39445312500004" y="225.0" dominant-baseline="middle" text-anchor="middle" font-size="14px" font-family="Arial">XX^(xx-3)</text><rect x="355.16921875" y="5.0" width="70.45046875" height="40" stroke="black" fill="white" stroke-width="1" /><text x="390.39445312500004" y="25.0" dominant-baseline="middle" text-anchor="middle" font-size="14px" font-family="Arial">XX</text></svg>