<svg xmlns="http://www.w3.org/2000/svg" width="3502.135781249998" height="850.0"><line x1="36.90890625" x2="3472.135781249998" y1="25.0" y2="25.0" stroke="#1967d2" stroke-width="1" /><line x1="36.90890625" x2="3472.135781249998" y1="75.0" y2="75.0" stroke="#1967d2" stroke-width="1" /><line x1="36.90890625" x2="3472.135781249998" y1="125.0" y2="125.0" stroke="#1967d2" stroke-width="1" /><line x1="36.90890625" x2="3472.135781249998" y1="175.0" y2="175.0" stroke="#1967d2" stroke-width="1" /><line x1="36.90890625" x2="3472.135781249998" y1="225.0" y2="225.0" stroke="#1967d2" stroke-width="1" /><line x1="36.90890625" x2="3472.135781249998" y1="275.0" y2="275.0" stroke="#1967d2" stroke-width="1" /><line x1="36.90890625" x2="3472.135781249998" y1="325.0" y2="325.0" stroke="#1967d2" stroke-width="1" /><line x1="36.90890625" x2="3472.135781249998" y1="375.0" y2="375.0" stroke="#1967d2" stroke-width="1" /><line x1="36.90890625" x2="3472.135781249998" y1="425.0" y2="425.0" stroke="#1967d2" stroke-width="1" /><line x1="36.90890625" x2="3472.135781249998" y1="475.0" y2="475.0" stroke="#1967d2" stroke-width="1" /><line x1="36.90890625" x2="3472.135781249998" y1="525.0" y2="525.0" stroke="#1967d2" stroke-width="1" /><line x1="36.90890625" x2="3472.135781249998" y1="575.0" y2="575.0" stroke="#1967d2" stroke-width="1" /><line x1="36.90890625" x2="3472.135781249998" y1="625.0" y2="625.0" stroke="#1967d2" stroke-width="1" /><line x1="36.90890625" x2="3472.135781249998" y1="675.0" y2="675.0" stroke="#1967d2" stroke-width="1" /><line x1="36.90890625" x2="3472.135781249998" y1="725.0" y2="725.0" stroke="#1967d2" stroke-width="1" /><line x1="36.90890625" x2="3472.135781249998" y1="775.0" y2="775.0" stroke="#1967d2" stroke-width="1" /><line x1="36.90890625" x2="3472.135781249998" y1="825.0" y2="825.0" stroke="#1967d2" stroke-width="1" /><line x1="242.93611328125002" x2="242.93611328125002" y1="25.0" y2="75.0" stroke="black" stroke-width="3" /><line x1="341.17271484375" x2="341.17271484375" y1="25.0" y2="125.0" stroke="black" stroke-width="3" /><line x1="439.40931640625" x2="439.40931640625" y1="25.0" y2="175.0" stroke="black" stroke-width="3" /><line x1="537.64591796875" x2="537.64591796875" y1="25.0" y2="225.0" stroke="black" stroke-width="3" /><line x1="635.8825195312501" x2="635.8825195312501" y1="25.0" y2="275.0" stroke="black" stroke-width="3" /><line x1="734.1191210937501" x2="734.1191210937501" y1="25.0" y2="325.0" stroke="black" stroke-width="3" /><line x1="832.3557226562501" x2="832.3557226562501" y1="25.0" y2="375.0" stroke="black" stroke-width="3" /><line x1="930.5923242187502" x2="930.5923242187502" y1="25.0" y2="425.0" stroke="black" stroke-width="3" /><line x1="1028.82892578125" x2="1028.82892578125" y1="25.0" y2="475.0" stroke="black" stroke-width="3" /><line x1="1127.06552734375" x2="1127.06552734375" y1="25.0" y2="525.0" stroke="black" stroke-width="3" /><line x1="1229.1951953125001" x2="1229.1951953125001" y1="25.0" y2="575.0" stroke="black" stroke-width="3" /><line x1="1335.2102734375003" x2="1335.2102734375003" y1="25.0" y2="625.0" stroke="black" stroke-width="3" /><line x1="1441.2253515625002" x2="1441.2253515625002" y1="25.0" y2="675.0" stroke="black" stroke-width="3" /><line x1="1547.2480859375003" x2="1547.2480859375003" y1="25.0" y2="725.0" stroke="black" stroke-width="3" /><line x1="1653.2708203125003" x2="1653.2708203125003" y1="25.0" y2="775.0" stroke="black" stroke-width="3" /><line x1="1759.2935546875003" x2="1759.2935546875003" y1="25.0" y2="825.0" stroke="black" stroke-width="3" /><line x1="1860.5277148437503" x2="1860.5277148437503" y1="25.0" y2="75.0" stroke="black" stroke-width="3" /><line x1="1956.9733007812504" x2="1956.9733007812504" y1="25.0" y2="125.0" stroke="black" stroke-width="3" /><line x1="2053.4188867187504" x2="2053.4188867187504" y1="25.0" y2="175.0" stroke="black" stroke-width="3" /><line x1="2149.8644726562507" x2="2149.8644726562507" y1="25.0" y2="225.0" stroke="black" stroke-width="3" /><line x1="2246.3100585937505" x2="2246.3100585937505" y1="25.0" y2="275.0" stroke="black" stroke-width="3" /><line x1="2342.7556445312503" x2="2342.7556445312503" y1="25.0" y2="325.0" stroke="black" stroke-width="3" /><line x1="2439.20123046875" x2="2439.20123046875" y1="25.0" y2="375.0" stroke="black" stroke-width="3" /><line x1="2535.64681640625" x2="2535.64681640625" y1="25.0" y2="425.0" stroke="black" stroke-width="3" /><line x1="2632.0924023437497" x2="2632.0924023437497" y1="25.0" y2="475.0" stroke="black" stroke-width="3" /><line x1="2728.5379882812495" x2="2728.5379882812495" y1="25.0" y2="525.0" stroke="black" stroke-width="3" /><line x1="2828.8766406249993" x2="2828.8766406249993" y1="25.0" y2="575.0" stroke="black" stroke-width="3" /><line x1="2933.1007031249987" x2="2933.1007031249987" y1="25.0" y2="625.0" stroke="black" stroke-width="3" /><line x1="3037.324765624999" x2="3037.324765624999" y1="25.0" y2="675.0" stroke="black" stroke-width="3" /><line x1="3141.556484374999" x2="3141.556484374999" y1="25.0" y2="725.0" stroke="black" stroke-width="3" /><line x1="3245.7882031249987" x2="3245.7882031249987" y1="25.0" y2="775.0" stroke="black" stroke-width="3" /><line x1="3350.0199218749985" x2="3350.0199218749985" y1="25.0" y2="825.0" stroke="black" stroke-width="3" /><rect x="10.0" y="5.0" width="53.8178125" height="40" stroke="black" fill="white" stroke-width="0" /><text x="36.90890625" y="25.0" dominant-baseline="middle" text-anchor="middle" font-size="14px" font-family="Arial">(-1, -1): </text><rect x="10.0" y="55.0" width="53.8178125" height="40" stroke="black" fill="white" stroke-width="0" /><text x="36.90890625" y="75.0" dominant-baseline="middle" text-anchor="middle" font-size="14px" font-family="Arial">(0, 0): </text><rect x="10.0" y="105.0" width="53.8178125" height="40" stroke="black" fill="white" stroke-width="0" /><text x="36.90890625" y="125.0" dominant-baseline="middle" text-anchor="middle" font-size="14px" font-family="Arial">(0, 1): </text><rect x="10.0" y="155.0" width="53.8178125" height="40" stroke="black" fill="white" stroke-width="0" /><text x="36.90890625" y="175.0" dominant-baseline="middle" text-anchor="middle" font-size="14px" font-family="Arial">(0, 2): </text><rect x="10.0" y="205.0" width="53.8178125" height="40" stroke="black" fill="white" stroke-width="0" /><text x="36.90890625" y="225.0" dominant-baseline="middle" text-anchor="middle" font-size="14px" font-family="Arial">(0, 3): </text><rect x="10.0" y="255.0" width="53.8178125" height="40" stroke="black" fill="white" stroke-width="0" /><text x="36.90890625" y="275.0" dominant-baseline="middle" text-anchor="middle" font-size="14px" font-family="Arial">(1, 0): </text><rect x="10.0" y="305.0" width="53.8178125" height="40" stroke="black" fill="white" stroke-width="0" /><text x="36.90890625" y="325.0" dominant-baseline="middle" text-anchor="middle" font-size="14px" font-family="Arial">(1, 1): </text><rect x="10.0" y="355.0" width="53.8178125" height="40" stroke="black" fill="white" stroke-width="0" /><text x="36.90890625" y="375.0" dominant-baseline="middle" text-anchor="middle" font-size="14px" font-family="Arial">(1, 2): </text><rect x="10.0" y="405.0" width="53.8178125" height="40" stroke="black" fill="white" stroke-width="0" /><text x="36.90890625" y="425.0" dominant-baseline="middle" text-anchor="middle" font-size="14px" font-family="Arial">(1, 3): </text><rect x="10.0" y="455.0" width="53.8178125" height="40" stroke="black" fill="white" stroke-width="0" /><text x="36.90890625" y="475.0" dominant-baseline="middle" text-anchor="middle" font-size="14px" font-family="Arial">(2, 0): </text><rect x="10.0" y="505.0" width="53.8178125" height="40" stroke="black" fill="white" stroke-width="0" /><text x="36.90890625" y="525.0" dominant-baseline="middle" text-anchor="middle" font-size="14px" font-family="Arial">(2, 1): </text><rect x="10.0" y="555.0" width="53.8178125" height="40" stroke="black" fill="white" stroke-width="0" /><text x="36.90890625" y="575.0" dominant-baseline="middle" text-anchor="middle" font-size="14px" font-family="Arial">(2, 2): </text><rect x="10.0" y="605.0" width="53.8178125" height="40" stroke="black" fill="white" stroke-width="0" /><text x="36.90890625" y="625.0" dominant-baseline="middle" text-anchor="middle" font-size="14px" font-family="Arial">(2, 3): </text><rect x="10.0" y="655.0" width="53.8178125" height="40" stroke="black" fill="white" stroke-width="0" /><text x="36.90890625" y="675.0" dominant-baseline="middle" text-anchor="middle" font-size="14px" font-family="Arial">(3, 0): </text><rect x="10.0" y="705.0" width="53.8178125" height="40" stroke="black" fill="white" stroke-width="0" /><text x="36.90890625" y="725.0" dominant-baseline="middle" text-anchor="middle" font-size="14px" font-family="Arial">(3, 1): </text><rect x="10.0" y="755.0" width="53.8178125" height="40" stroke="black" fill="white" stroke-width="0" /><text x="36.90890625" y="775.0" dominant-baseline="middle" text-anchor="middle" font-size="14px" font-family="Arial">(3, 2): </text><rect x="10.0" y="805.0" width="53.8178125" height="40" stroke="black" fill="white" stroke-width="0" /><text x="36.90890625" y="825.0" dominant-baseline="middle" text-anchor="middle" font-size="14px" font-family="Arial">(3, 3): </text><rect x="83.8178125" y="5.0" width="40" height="40" stroke="black" fill="white" stroke-width="1" /><text x="103.8178125" y="25.0" dominant-baseline="middle" text-anchor="middle" font-size="18px" font-family="Arial">X</text><rect x="143.8178125" y="5.0" width="40" height="40" stroke="black" fill="white" stroke-width="1" /><text x="163.8178125" y="25.0" dominant-baseline="middle" text-anchor="middle" font-size="18px" font-family="Arial">H</text><rect x="203.8178125" y="55.0" width="78.2366015625" height="40" stroke="black" fill="white" stroke-width="1" /><text x="242.93611328125002" y="75.0" dominant-baseline="middle" text-anchor="middle" font-size="14px" font-family="Arial">XX^(xx1-0)</text><rect x="203.8178125" y="5.0" width="78.2366015625" height="40" stroke="black" fill="white" stroke-width="1" /><text x="242.93611328125002" y="25.0" dominant-baseline="middle" text-anchor="middle" font-size="14px" font-family="Arial">XX</text><rect x="302.0544140625" y="105.0" width="78.2366015625" height="40" stroke="black" fill="white" stroke-width="1" /><text x="341.17271484375" y="125.0" dominant-baseline="middle" text-anchor="middle" font-size="14px" font-family="Arial">XX^(xx1-1)</text><rect x="302.0544140625" y="5.0" width="78.2366015625" height="40" stroke="black" fill="white" stroke-width="1" /><text x="341.17271484375" y="25.0" dominant-baseline="middle" text-anchor="middle" font-size="14px" font-family="Arial">XX</text><rect x="400.291015625" y="155.0" width="78.2366015625" height="40" stroke="black" fill="white" stroke-width="1" /><text x="439.40931640625" y="175.0" dominant-baseline="middle" text-anchor="middle" font-size="14px" font-family="Arial">XX^(xx1-2)</text><rect x="400.291015625" y="5.0" width="78.2366015625" height="40" stroke="black" fill="white" stroke-width="1" /><text x="439.40931640625" y="25.0" dominant-baseline="middle" text-anchor="middle" font-size="14px" font-family="Arial">XX</text><rect x="498.5276171875" y="205.0" width="78.2366015625" height="40" stroke="black" fill="white" stroke-width="1" /><text x="537.64591796875" y="225.0" dominant-baseline="middle" text-anchor="middle" font-size="14px" font-family="Arial">XX^(xx1-3)</text><rect x="498.5276171875" y="5.0" width="78.2366015625" height="40" stroke="black" fill="white" stroke-width="1" /><text x="537.64591796875" y="25.0" dominant-baseline="middle" text-anchor="middle" font-size="14px" font-family="Arial">XX</text><rect x="596.76421875" y="255.0" width="78.2366015625" height="40" stroke="black" fill="white" stroke-width="1" /><text x="635.8825195312501" y="275.0" dominant-baseline="middle" text-anchor="middle" font-size="14px" font-family="Arial">XX^(xx1-4)</text><rect x="596.76421875" y="5.0" width="78.2366015625" height="40" stroke="black" fill="white" stroke-width="1" /><text x="635.8825195312501" y="25.0" dominant-baseline="middle" text-anchor="middle" font-size="14px" font-family="Arial">XX</text><rect x="695.0008203125001" y="305.0" width="78.2366015625" height="40" stroke="black" fill="white" stroke-width="1" /><text x="734.1191210937501" y="325.0" dominant-baseline="middle" text-anchor="middle" font-size="14px" font-family="Arial">XX^(xx1-5)</text><rect x="695.0008203125001" y="5.0" width="78.2366015625" height="40" stroke="black" fill="white" stroke-width="1" /><text x="734.1191210937501" y="25.0" dominant-baseline="middle" text-anchor="middle" font-size="14px" font-family="Arial">XX</text><rect x="793.2374218750001" y="355.0" width="78.2366015625" height="40" stroke="black" fill="white" stroke-width="1" /><text x="832.3557226562501" y="375.0" dominant-baseline="middle" text-anchor="middle" font-size="14px" font-family="Arial">XX^(xx1-6)</text><rect x="793.2374218750001" y="5.0" width="78.2366015625" height="40" stroke="black" fill="white" stroke-width="1" /><text x="832.3557226562501" y="25.0" dominant-baseline="middle" text-anchor="middle" font-size="14px" font-family="Arial">XX</text><rect x="891.4740234375001" y="405.0" width="78.2366015625" height="40" stroke="black" fill="white" stroke-width="1" /><text x="930.5923242187502" y="425.0" dominant-baseline="middle" text-anchor="middle" font-size="14px" font-family="Arial">XX^(xx1-7)</text><rect x="891.4740234375001" y="5.0" width="78.2366015625" height="40" stroke="black" fill="white" stroke-width="1" /><text x="930.5923242187502" y="25.0" dominant-baseline="middle" text-anchor="middle" font-size="14px" font-family="Arial">XX</text><rect x="989.710625" y="455.0" width="78.2366015625" height="40" stroke="black" fill="white" stroke-width="1" /><text x="1028.82892578125" y="475.0" dominant-baseline="middle" text-anchor="middle" font-size="14px" font-family="Arial">XX^(xx1-8)</text><rect x="989.710625" y="5.0" width="78.2366015625" height="40" stroke="black" fill="white" stroke-width="1" /><text x="1028.82892578125" y="25.0" dominant-baseline="middle" text-anchor="middle" font-size="14px" font-family="Arial">XX</text><rect x="1087.9472265625002" y="505.0" width="78.2366015625" height="40" stroke="black" fill="white" stroke-width="1" /><text x="1127.06552734375" y="525.0" dominant-baseline="middle" text-anchor="middle" font-size="14px" font-family="Arial">XX^(xx1-9)</text><rect x="1087.9472265625002" y="5.0" width="78.2366015625" height="40" stroke="black" fill="white" stroke-width="1" /><text x="1127.06552734375" y="25.0" dominant-baseline="middle" text-anchor="middle" font-size="14px" font-family="Arial">XX</text><rect x="1186.1838281250002" y="555.0" width="86.02273437500001" height="40" stroke="black" fill="white" stroke-width="1" /><text x="1229.1951953125001" y="575.0" dominant-baseline="middle" text-anchor="middle" font-size="14px" font-family="Arial">XX^(xx1-10)</text><rect x="1186.1838281250002" y="5.0" width="86.02273437500001" height="40" stroke="black" fill="white" stroke-width="1" /><text x="1229.1951953125001" y="25.0" dominant-baseline="middle" text-anchor="middle" font-size="14px" font-family="Arial">XX</text><rect x="1292.2065625000002" y="605.0" width="86.007421875" height="40" stroke="black" fill="white" stroke-width="1" /><text x="1335.2102734375003" y="625.0" dominant-baseline="middle" text-anchor="middle" font-size="14px" font-family="Arial">XX^(xx1-11)</text><rect x="1292.2065625000002" y="5.0" width="86.007421875" height="40" stroke="black" fill="white" stroke-width="1" /><text x="1335.2102734375003" y="25.0" dominant-baseline="middle" text-anchor="middle" font-size="14px" font-family="Arial">XX</text><rect x="1398.2139843750003" y="655.0" width="86.02273437500001" height="40" stroke="black" fill="white" stroke-width="1" /><text x="1441.2253515625002" y="675.0" dominant-baseline="middle" text-anchor="middle" font-size="14px" font-family="Arial">XX^(xx1-12)</text><rect x="1398.2139843750003" y="5.0" width="86.02273437500001" height="40" stroke="black" fill="white" stroke-width="1" /><text x="1441.2253515625002" y="25.0" dominant-baseline="middle" text-anchor="middle" font-size="14px" font-family="Arial">XX</text><rect x="1504.2367187500004" y="705.0" width="86.02273437500001" height="40" stroke="black" fill="white" stroke-width="1" /><text x="1547.2480859375003" y="725.0" dominant-baseline="middle" text-anchor="middle" font-size="14px" font-family="Arial">XX^(xx1-13)</text><rect x="1504.2367187500004" y="5.0" width="86.02273437500001" height="40" stroke="black" fill="white" stroke-width="1" /><text x="1547.2480859375003" y="25.0" dominant-baseline="middle" text-anchor="middle" font-size="14px" font-family="Arial">XX</text><rect x="1610.2594531250004" y="755.0" width="86.02273437500001" height="40" stroke="black" fill="white" stroke-width="1" /><text x="1653.2708203125003" y="775.0" dominant-baseline="middle" text-anchor="middle" font-size="14px" font-family="Arial">XX^(xx1-14)</text><rect x="1610.2594531250004" y="5.0" width="86.02273437500001" height="40" stroke="black" fill="white" stroke-width="1" /><text x="1653.2708203125003" y="25.0" dominant-baseline="middle" text-anchor="middle" font-size="14px" font-family="Arial">XX</text><rect x="1716.2821875000004" y="805.0" width="86.02273437500001" height="40" stroke="black" fill="white" stroke-width="1" /><text x="1759.2935546875003" y="825.0" dominant-baseline="middle" text-anchor="middle" font-size="14px" font-family="Arial">XX^(xx1-15)</text><rect x="1716.2821875000004" y="5.0" width="86.02273437500001" height="40" stroke="black" fill="white" stroke-width="1" /><text x="1759.2935546875003" y="25.0" dominant-baseline="middle" text-anchor="middle" font-size="14px" font-family="Arial">XX</text><rect x="1822.3049218750004" y="55.0" width="76.4455859375" height="40" stroke="black" fill="white" stroke-width="1" /><text x="1860.5277148437503" y="75.0" dominant-baseline="middle" text-anchor="middle" font-size="14px" font-family="Arial">ZZ^(zz1-0)</text><rect x="1822.3049218750004" y="5.0" width="76.4455859375" height="40" stroke="black" fill="white" stroke-width="1" /><text x="1860.5277148437503" y="25.0" dominant-baseline="middle" text-anchor="middle" font-size="14px" font-family="Arial">ZZ</text><rect x="1918.7505078125005" y="105.0" width="76.4455859375" height="40" stroke="black" fill="white" stroke-width="1" /><text x="1956.9733007812504" y="125.0" dominant-baseline="middle" text-anchor="middle" font-size="14px" font-family="Arial">ZZ^(zz1-1)</text><rect x="1918.7505078125005" y="5.0" width="76.4455859375" height="40" stroke="black" fill="white" stroke-width="1" /><text x="1956.9733007812504" y="25.0" dominant-baseline="middle" text-anchor="middle" font-size="14px" font-family="Arial">ZZ</text><rect x="2015.1960937500005" y="155.0" width="76.4455859375" height="40" stroke="black" fill="white" stroke-width="1" /><text x="2053.4188867187504" y="175.0" dominant-baseline="middle" text-anchor="middle" font-size="14px" font-family="Arial">ZZ^(zz1-2)</text><rect x="2015.1960937500005" y="5.0" width="76.4455859375" height="40" stroke="black" fill="white" stroke-width="1" /><text x="2053.4188867187504" y="25.0" dominant-baseline="middle" text-anchor="middle" font-size="14px" font-family="Arial">ZZ</text><rect x="2111.6416796875005" y="205.0" width="76.4455859375" height="40" stroke="black" fill="white" stroke-width="1" /><text x="2149.8644726562507" y="225.0" dominant-baseline="middle" text-anchor="middle" font-size="14px" font-family="Arial">ZZ^(zz1-3)</text><rect x="2111.6416796875005" y="5.0" width="76.4455859375" height="40" stroke="black" fill="white" stroke-width="1" /><text x="2149.8644726562507" y="25.0" dominant-baseline="middle" text-anchor="middle" font-size="14px" font-family="Arial">ZZ</text><rect x="2208.0872656250003" y="255.0" width="76.4455859375" height="40" stroke="black" fill="white" stroke-width="1" /><text x="2246.3100585937505" y="275.0" dominant-baseline="middle" text-anchor="middle" font-size="14px" font-family="Arial">ZZ^(zz1-4)</text><rect x="2208.0872656250003" y="5.0" width="76.4455859375" height="40" stroke="black" fill="white" stroke-width="1" /><text x="2246.3100585937505" y="25.0" dominant-baseline="middle" text-anchor="middle" font-size="14px" font-family="Arial">ZZ</text><rect x="2304.5328515625" y="305.0" width="76.4455859375" height="40" stroke="black" fill="white" stroke-width="1" /><text x="2342.7556445312503" y="325.0" dominant-baseline="middle" text-anchor="middle" font-size="14px" font-family="Arial">ZZ^(zz1-5)</text><rect x="2304.5328515625" y="5.0" width="76.4455859375" height="40" stroke="black" fill="white" stroke-width="1" /><text x="2342.7556445312503" y="25.0" dominant-baseline="middle" text-anchor="middle" font-size="14px" font-family="Arial">ZZ</text><rect x="2400.9784375" y="355.0" width="76.4455859375" height="40" stroke="black" fill="white" stroke-width="1" /><text x="2439.20123046875" y="375.0" dominant-baseline="middle" text-anchor="middle" font-size="14px" font-family="Arial">ZZ^(zz1-6)</text><rect x="2400.9784375" y="5.0" width="76.4455859375" height="40" stroke="black" fill="white" stroke-width="1" /><text x="2439.20123046875" y="25.0" dominant-baseline="middle" text-anchor="middle" font-size="14px" font-family="Arial">ZZ</text><rect x="2497.4240234374997" y="405.0" width="76.4455859375" height="40" stroke="black" fill="white" stroke-width="1" /><text x="2535.64681640625" y="425.0" dominant-baseline="middle" text-anchor="middle" font-size="14px" font-family="Arial">ZZ^(zz1-7)</text><rect x="2497.4240234374997" y="5.0" width="76.4455859375" height="40" stroke="black" fill="white" stroke-width="1" /><text x="2535.64681640625" y="25.0" dominant-baseline="middle" text-anchor="middle" font-size="14px" font-family="Arial">ZZ</text><rect x="2593.8696093749995" y="455.0" width="76.4455859375" height="40" stroke="black" fill="white" stroke-width="1" /><text x="2632.0924023437497" y="475.0" dominant-baseline="middle" text-anchor="middle" font-size="14px" font-family="Arial">ZZ^(zz1-8)</text><rect x="2593.8696093749995" y="5.0" width="76.4455859375" height="40" stroke="black" fill="white" stroke-width="1" /><text x="2632.0924023437497" y="25.0" dominant-baseline="middle" text-anchor="middle" font-size="14px" font-family="Arial">ZZ</text><rect x="2690.3151953124993" y="505.0" width="76.4455859375" height="40" stroke="black" fill="white" stroke-width="1" /><text x="2728.5379882812495" y="525.0" dominant-baseline="middle" text-anchor="middle" font-size="14px" font-family="Arial">ZZ^(zz1-9)</text><rect x="2690.3151953124993" y="5.0" width="76.4455859375" height="40" stroke="black" fill="white" stroke-width="1" /><text x="2728.5379882812495" y="25.0" dominant-baseline="middle" text-anchor="middle" font-size="14px" font-family="Arial">ZZ</text><rect x="2786.760781249999" y="555.0" width="84.23171875" height="40" stroke="black" fill="white" stroke-width="1" /><text x="2828.8766406249993" y="575.0" dominant-baseline="middle" text-anchor="middle" font-size="14px" font-family="Arial">ZZ^(zz1-10)</text><rect x="2786.760781249999" y="5.0" width="84.23171875" height="40" stroke="black" fill="white" stroke-width="1" /><text x="2828.8766406249993" y="25.0" dominant-baseline="middle" text-anchor="middle" font-size="14px" font-family="Arial">ZZ</text><rect x="2890.992499999999" y="605.0" width="84.21640625" height="40" stroke="black" fill="white" stroke-width="1" /><text x="2933.1007031249987" y="625.0" dominant-baseline="middle" text-anchor="middle" font-size="14px" font-family="Arial">ZZ^(zz1-11)</text><rect x="2890.992499999999" y="5.0" width="84.21640625" height="40" stroke="black" fill="white" stroke-width="1" /><text x="2933.1007031249987" y="25.0" dominant-baseline="middle" text-anchor="middle" font-size="14px" font-family="Arial">ZZ</text><rect x="2995.208906249999" y="655.0" width="84.23171875" height="40" stroke="black" fill="white" stroke-width="1" /><text x="3037.324765624999" y="675.0" dominant-baseline="middle" text-anchor="middle" font-size="14px" font-family="Arial">ZZ^(zz1-12)</text><rect x="2995.208906249999" y="5.0" width="84.23171875" height="40" stroke="black" fill="white" stroke-width="1" /><text x="3037.324765624999" y="25.0" dominant-baseline="middle" text-anchor="middle" font-size="14px" font-family="Arial">ZZ</text><rect x="3099.440624999999" y="705.0" width="84.23171875" height="40" stroke="black" fill="white" stroke-width="1" /><text x="3141.556484374999" y="725.0" dominant-baseline="middle" text-anchor="middle" font-size="14px" font-family="Arial">ZZ^(zz1-13)</text><rect x="3099.440624999999" y="5.0" width="84.23171875" height="40" stroke="black" fill="white" stroke-width="1" /><text x="3141.556484374999" y="25.0" dominant-baseline="middle" text-anchor="middle" font-size="14px" font-family="Arial">ZZ</text><rect x="3203.6723437499986" y="755.0" width="84.23171875" height="40" stroke="black" fill="white" stroke-width="1" /><text x="3245.7882031249987" y="775.0" dominant-baseline="middle" text-anchor="middle" font-size="14px" font-family="Arial">ZZ^(zz1-14)</text><rect x="3203.6723437499986" y="5.0" width="84.23171875" height="40" stroke="black" fill="white" stroke-width="1" /><text x="3245.7882031249987" y="25.0" dominant-baseline="middle" text-anchor="middle" font-size="14px" font-family="Arial">ZZ</text><rect x="3307.9040624999984" y="805.0" width="84.23171875" height="40" stroke="black" fill="white" stroke-width="1" /><text x="3350.0199218749985" y="825.0" dominant-baseline="middle" text-anchor="middle" font-size="14px" font-family="Arial">ZZ^(zz1-15)</text><rect x="3307.9040624999984" y="5.0" width="84.23171875" height="40" stroke="black" fill="white" stroke-width="1" /><text x="3350.0199218749985" y="25.0" dominant-baseline="middle" text-anchor="middle" font-size="14px" font-family="Arial">ZZ</text><rect x="3412.135781249998" y="5.0" width="40" height="40" stroke="black" fill="white" stroke-width="1" /><text x="3432.135781249998" y="25.0" dominant-baseline="middle" text-anchor="middle" font-size="18px" font-family="Arial">H</text></svg>