<svg version="1.1" viewBox="0.0 0.0 899.0656167979002 320.9685039370079" fill="none" stroke="none" stroke-linecap="square" stroke-miterlimit="10" xmlns:xlink="http://www.w3.org/1999/xlink" xmlns="http://www.w3.org/2000/svg"><clipPath id="p.0"><path d="m0 0l899.0656 0l0 320.9685l-899.0656 0l0 -320.9685z" clip-rule="nonzero"/></clipPath><g clip-path="url(#p.0)"><path fill="#000000" fill-opacity="0.0" d="m0 0l899.0656 0l0 320.9685l-899.0656 0z" fill-rule="evenodd"/><path fill="#cfe2f3" d="m255.77428 68.47507l124.88188 0l0 161.13385l-124.88188 0z" fill-rule="evenodd"/><path stroke="#000000" stroke-width="1.0" stroke-linejoin="round" stroke-linecap="butt" d="m255.77428 68.47507l124.88188 0l0 161.13385l-124.88188 0z" fill-rule="evenodd"/><path fill="#000000" d="m307.88522 139.5745l8.953125 0l-0.171875 0.578125q-1.375 0.03125 -1.96875 0.265625q-0.578125 0.21875 -1.0 0.796875q-0.40625 0.578125 -0.859375 2.140625l-2.171875 7.5q-0.578125 2.0 -0.6875 2.625q-0.1875 1.0 -0.1875 1.859375q0 1.890625 1.40625 3.203125q1.40625 1.296875 3.765625 1.296875q1.546875 0 2.765625 -0.578125q1.21875 -0.59375 2.078125 -1.640625q0.875 -1.0625 1.59375 -2.859375q0.71875 -1.8125 1.265625 -3.65625l1.875 -6.46875q0.703125 -2.421875 0.703125 -3.15625q0 -0.515625 -0.484375 -0.875q-0.46875 -0.375 -1.921875 -0.453125l0.171875 -0.578125l6.734375 0l-0.171875 0.578125q-1.1875 0 -1.71875 0.234375q-0.515625 0.21875 -0.90625 0.8125q-0.390625 0.578125 -0.875 2.265625l-2.296875 7.859375q-1.109375 3.828125 -2.09375 5.65625q-0.984375 1.8125 -2.859375 3.046875q-1.859375 1.21875 -4.625 1.21875q-3.1875 0 -5.140625 -1.796875q-1.953125 -1.8125 -1.953125 -4.140625q0 -0.921875 0.171875 -1.96875q0.125 -0.6875 0.609375 -2.375l2.09375 -7.203125q0.4375 -1.5625 0.4375 -2.296875q0 -0.578125 -0.453125 -0.890625q-0.4375 -0.328125 -2.234375 -0.421875l0.15625 -0.578125z" fill-rule="nonzero"/><path fill="#000000" d="m333.1196 163.59012l-0.1875 0.6875l-1.515625 0l-1.140625 4.546875q-0.765625 3.015625 -1.53125 4.65625q-1.09375 2.328125 -2.359375 3.203125q-0.953125 0.6875 -1.921875 0.6875q-0.625 0 -1.0625 -0.375q-0.3125 -0.265625 -0.3125 -0.6875q0 -0.328125 0.265625 -0.578125q0.265625 -0.234375 0.640625 -0.234375q0.28125 0 0.484375 0.171875q0.1875 0.171875 0.1875 0.40625q0 0.234375 -0.21875 0.421875q-0.171875 0.15625 -0.171875 0.21875q0 0.09375 0.078125 0.15625q0.09375 0.0625 0.296875 0.0625q0.4375 0 0.9375 -0.28125q0.5 -0.28125 0.890625 -0.84375q0.375 -0.546875 0.71875 -1.59375q0.140625 -0.4375 0.78125 -2.890625l1.8125 -7.046875l-1.8125 0l0.140625 -0.6875q0.875 0 1.21875 -0.125q0.34375 -0.125 0.625 -0.453125q0.28125 -0.34375 0.75 -1.265625q0.609375 -1.25 1.171875 -1.9375q0.765625 -0.921875 1.609375 -1.390625q0.859375 -0.46875 1.609375 -0.46875q0.796875 0 1.265625 0.40625q0.484375 0.40625 0.484375 0.875q0 0.359375 -0.25 0.609375q-0.234375 0.25 -0.609375 0.25q-0.3125 0 -0.515625 -0.1875q-0.203125 -0.1875 -0.203125 -0.453125q0 -0.15625 0.125 -0.40625q0.140625 -0.25 0.140625 -0.328125q0 -0.140625 -0.09375 -0.21875q-0.140625 -0.109375 -0.390625 -0.109375q-0.65625 0 -1.1875 0.421875q-0.6875 0.546875 -1.25 1.734375q-0.28125 0.609375 -1.03125 3.046875l1.53125 0z" fill-rule="nonzero"/><path fill="#000000" fill-opacity="0.0" d="m0 68.47507l98.173225 0l0 43.307083l-98.173225 0z" fill-rule="evenodd"/><path fill="#000000" d="m63.227913 83.84319l0 21.859375l-0.96875 0l0 -21.859375l0.96875 0zm2.8203125 8.8125q0 -2.71875 0.8125 -4.671875q0.828125 -1.96875 2.1875 -2.921875q1.046875 -0.765625 2.171875 -0.765625q1.828125 0 3.28125 1.859375q1.8125 2.3125 1.8125 6.265625q0 2.765625 -0.796875 4.703125q-0.796875 1.921875 -2.03125 2.796875q-1.234375 0.875 -2.375 0.875q-2.28125 0 -3.796875 -2.6875q-1.265625 -2.265625 -1.265625 -5.453125zm2.296875 0.296875q0 3.28125 0.796875 5.359375q0.671875 1.75 2.0 1.75q0.625 0 1.296875 -0.5625q0.6875 -0.578125 1.046875 -1.921875q0.53125 -2.015625 0.53125 -5.671875q0 -2.71875 -0.5625 -4.546875q-0.421875 -1.34375 -1.078125 -1.90625q-0.484375 -0.390625 -1.171875 -0.390625q-0.796875 0 -1.40625 0.71875q-0.84375 0.96875 -1.15625 3.0625q-0.296875 2.078125 -0.296875 4.109375z" fill-rule="nonzero"/><path fill="#000000" d="m83.360725 91.98382l0 -0.1875l-5.0625 -10.21875l0.75 -0.375l5.34375 10.6875l-5.34375 10.6875l-0.75 -0.375l5.0625 -10.21875z" fill-rule="nonzero"/><path fill="#000000" fill-opacity="0.0" d="m0 186.30183l100.69292 0l0 43.307083l-100.69292 0z" fill-rule="evenodd"/><path fill="#000000" d="m65.747604 201.66997l0 21.859375l-0.96875 0l0 -21.859375l0.96875 0zm4.7578125 2.34375l3.875 -1.890625l0.375 0l0 13.421875q0 1.328125 0.109375 1.65625q0.125 0.328125 0.46875 0.515625q0.359375 0.171875 1.4375 0.1875l0 0.4375l-5.984375 0l0 -0.4375q1.125 -0.015625 1.453125 -0.1875q0.328125 -0.171875 0.453125 -0.453125q0.140625 -0.296875 0.140625 -1.71875l0 -8.578125q0 -1.734375 -0.125 -2.234375q-0.078125 -0.375 -0.296875 -0.546875q-0.21875 -0.171875 -0.515625 -0.171875q-0.4375 0 -1.21875 0.359375l-0.171875 -0.359375z" fill-rule="nonzero"/><path fill="#000000" d="m85.88042 209.8106l0 -0.1875l-5.0625 -10.21875l0.75 -0.375l5.34375 10.6875l-5.34375 10.6875l-0.75 -0.375l5.0625 -10.21875z" fill-rule="nonzero"/><path fill="#cfe2f3" d="m125.75853 68.47507l52.34645 0l0 43.307083l-52.34645 0z" fill-rule="evenodd"/><path stroke="#000000" stroke-width="1.0" stroke-linejoin="round" stroke-linecap="butt" d="m125.75853 68.47507l52.34645 0l0 43.307083l-52.34645 0z" fill-rule="evenodd"/><path fill="#000000" d="m149.18762 89.871735l7.328125 0l1.171875 -3.9375q0.328125 -1.140625 0.328125 -1.78125q0 -0.296875 -0.15625 -0.515625q-0.140625 -0.21875 -0.453125 -0.3125q-0.296875 -0.109375 -1.1875 -0.109375l0.109375 -0.4375l6.40625 0l-0.140625 0.4375q-0.8125 -0.015625 -1.203125 0.15625q-0.5625 0.25 -0.84375 0.640625q-0.375 0.546875 -0.78125 1.921875l-2.796875 9.609375q-0.359375 1.1875 -0.359375 1.703125q0 0.453125 0.3125 0.6875q0.3125 0.21875 1.484375 0.296875l-0.125 0.4375l-6.1875 0l0.15625 -0.4375q0.921875 -0.015625 1.21875 -0.15625q0.46875 -0.21875 0.6875 -0.546875q0.296875 -0.453125 0.75 -1.984375l1.421875 -4.875l-7.359375 0l-1.453125 4.875q-0.328125 1.171875 -0.328125 1.703125q0 0.453125 0.296875 0.6875q0.3125 0.21875 1.484375 0.296875l-0.09375 0.4375l-6.25 0l0.15625 -0.4375q0.9375 -0.015625 1.234375 -0.15625q0.46875 -0.21875 0.6875 -0.546875q0.3125 -0.484375 0.75 -1.984375l2.8125 -9.609375q0.34375 -1.171875 0.34375 -1.78125q0 -0.296875 -0.15625 -0.515625q-0.140625 -0.21875 -0.453125 -0.3125q-0.296875 -0.109375 -1.203125 -0.109375l0.140625 -0.4375l6.265625 0l-0.125 0.4375q-0.78125 -0.015625 -1.15625 0.15625q-0.5625 0.234375 -0.8125 0.625q-0.359375 0.515625 -0.78125 1.9375l-1.140625 3.9375z" fill-rule="nonzero"/><path fill="#cfe2f3" d="m125.75853 186.30183l52.34645 0l0 43.307083l-52.34645 0z" fill-rule="evenodd"/><path stroke="#000000" stroke-width="1.0" stroke-linejoin="round" stroke-linecap="butt" d="m125.75853 186.30183l52.34645 0l0 43.307083l-52.34645 0z" fill-rule="evenodd"/><path fill="#000000" d="m149.18762 207.6985l7.328125 0l1.171875 -3.9375q0.328125 -1.140625 0.328125 -1.78125q0 -0.296875 -0.15625 -0.515625q-0.140625 -0.21875 -0.453125 -0.3125q-0.296875 -0.109375 -1.1875 -0.109375l0.109375 -0.4375l6.40625 0l-0.140625 0.4375q-0.8125 -0.015625 -1.203125 0.15625q-0.5625 0.25 -0.84375 0.640625q-0.375 0.546875 -0.78125 1.921875l-2.796875 9.609375q-0.359375 1.1875 -0.359375 1.703125q0 0.453125 0.3125 0.6875q0.3125 0.21875 1.484375 0.296875l-0.125 0.4375l-6.1875 0l0.15625 -0.4375q0.921875 -0.015625 1.21875 -0.15625q0.46875 -0.21875 0.6875 -0.546875q0.296875 -0.453125 0.75 -1.984375l1.421875 -4.875l-7.359375 0l-1.453125 4.875q-0.328125 1.171875 -0.328125 1.703125q0 0.453125 0.296875 0.6875q0.3125 0.21875 1.484375 0.296875l-0.09375 0.4375l-6.25 0l0.15625 -0.4375q0.9375 -0.015625 1.234375 -0.15625q0.46875 -0.21875 0.6875 -0.546875q0.3125 -0.484375 0.75 -1.984375l2.8125 -9.609375q0.34375 -1.171875 0.34375 -1.78125q0 -0.296875 -0.15625 -0.515625q-0.140625 -0.21875 -0.453125 -0.3125q-0.296875 -0.109375 -1.203125 -0.109375l0.140625 -0.4375l6.265625 0l-0.125 0.4375q-0.78125 -0.015625 -1.15625 0.15625q-0.5625 0.234375 -0.8125 0.625q-0.359375 0.515625 -0.78125 1.9375l-1.140625 3.9375z" fill-rule="nonzero"/><path fill="#000000" fill-opacity="0.0" d="m98.173225 90.12861l27.590553 0" fill-rule="evenodd"/><path stroke="#000000" stroke-width="1.0" stroke-linejoin="round" stroke-linecap="butt" d="m98.173225 90.12861l27.590553 0" fill-rule="evenodd"/><path fill="#000000" fill-opacity="0.0" d="m178.10498 90.12861l76.66142 0.50393677" fill-rule="evenodd"/><path stroke="#000000" stroke-width="1.0" stroke-linejoin="round" stroke-linecap="butt" d="m178.10498 90.12861l76.66142 0.50393677" fill-rule="evenodd"/><path fill="#000000" fill-opacity="0.0" d="m100.69292 207.95538l25.070862 0" fill-rule="evenodd"/><path stroke="#000000" stroke-width="1.0" stroke-linejoin="round" stroke-linecap="butt" d="m100.69292 207.95538l25.070862 0" fill-rule="evenodd"/><path fill="#000000" fill-opacity="0.0" d="m178.10498 207.70341l77.6693 -0.25196838" fill-rule="evenodd"/><path stroke="#000000" stroke-width="1.0" stroke-linejoin="round" stroke-linecap="butt" d="m178.10498 207.70341l77.6693 -0.25196838" fill-rule="evenodd"/><path fill="#cfe2f3" d="m434.7953 68.727036l52.346436 0l0 43.307083l-52.346436 0z" fill-rule="evenodd"/><path stroke="#000000" stroke-width="1.0" stroke-linejoin="round" stroke-linecap="butt" d="m434.7953 68.727036l52.346436 0l0 43.307083l-52.346436 0z" fill-rule="evenodd"/><path fill="#000000" d="m458.22437 90.1237l7.328125 0l1.171875 -3.9375q0.328125 -1.140625 0.328125 -1.78125q0 -0.296875 -0.15625 -0.515625q-0.140625 -0.21875 -0.453125 -0.3125q-0.296875 -0.109375 -1.1875 -0.109375l0.109375 -0.4375l6.40625 0l-0.140625 0.4375q-0.8125 -0.015625 -1.203125 0.15625q-0.5625 0.25 -0.84375 0.640625q-0.375 0.546875 -0.78125 1.921875l-2.796875 9.609375q-0.359375 1.1875 -0.359375 1.703125q0 0.453125 0.3125 0.6875q0.3125 0.21875 1.484375 0.296875l-0.125 0.4375l-6.1875 0l0.15625 -0.4375q0.921875 -0.015625 1.21875 -0.15625q0.46875 -0.21875 0.6875 -0.546875q0.296875 -0.453125 0.75 -1.984375l1.421875 -4.875l-7.359375 0l-1.453125 4.875q-0.328125 1.171875 -0.328125 1.703125q0 0.453125 0.296875 0.6875q0.3125 0.21875 1.484375 0.296875l-0.09375 0.4375l-6.25 0l0.15625 -0.4375q0.9375 -0.015625 1.234375 -0.15625q0.46875 -0.21875 0.6875 -0.546875q0.3125 -0.484375 0.75 -1.984375l2.8125 -9.609375q0.34375 -1.171875 0.34375 -1.78125q0 -0.296875 -0.15625 -0.515625q-0.140625 -0.21875 -0.453125 -0.3125q-0.296875 -0.109375 -1.203125 -0.109375l0.140625 -0.4375l6.265625 0l-0.125 0.4375q-0.78125 -0.015625 -1.15625 0.15625q-0.5625 0.234375 -0.8125 0.625q-0.359375 0.515625 -0.78125 1.9375l-1.140625 3.9375z" fill-rule="nonzero"/><path fill="#000000" fill-opacity="0.0" d="m381.6614 90.632545l53.13388 -0.25196838" fill-rule="evenodd"/><path stroke="#000000" stroke-width="1.0" stroke-linejoin="round" stroke-linecap="butt" d="m381.6614 90.632545l53.13388 -0.25196838" fill-rule="evenodd"/><path fill="#000000" fill-opacity="0.0" d="m487.14172 90.38058l45.57483 0.25196838" fill-rule="evenodd"/><path stroke="#000000" stroke-width="1.0" stroke-linejoin="round" stroke-linecap="butt" d="m487.14172 90.38058l45.57483 0.25196838" fill-rule="evenodd"/><path fill="#000000" fill-opacity="0.0" d="m381.6509 205.4252l294.04727 1.0078735" fill-rule="evenodd"/><path stroke="#000000" stroke-width="1.0" stroke-linejoin="round" stroke-linecap="butt" d="m381.6509 205.4252l294.04727 1.0078735" fill-rule="evenodd"/><path fill="#cfe2f3" d="m532.71655 68.47507l109.73224 0l0 43.307083l-109.73224 0z" fill-rule="evenodd"/><path stroke="#000000" stroke-width="1.0" stroke-linejoin="round" stroke-linecap="butt" d="m532.71655 68.47507l109.73224 0l0 43.307083l-109.73224 0z" fill-rule="evenodd"/><path fill="#000000" d="m553.6491 82.777985l1.46875 12.796875l9.21875 -12.796875l3.875 0l0 0.4375q-1.265625 0.078125 -1.484375 0.15625q-0.390625 0.15625 -0.71875 0.609375q-0.3125 0.453125 -0.6875 1.765625l-2.9375 10.078125q-0.265625 0.875 -0.265625 1.375q0 0.453125 0.3125 0.6875q0.453125 0.34375 1.40625 0.34375l0.28125 0l-0.09375 0.4375l-6.703125 0l0.125 -0.4375l0.3125 0q0.890625 0 1.359375 -0.25q0.359375 -0.1875 0.640625 -0.703125q0.296875 -0.53125 0.8125 -2.328125l2.625 -9.203125l-9.265625 12.921875l-0.46875 0l-1.484375 -12.921875l-2.84375 9.828125q-0.359375 1.25 -0.359375 1.6875q0 0.4375 0.3125 0.671875q0.3125 0.21875 1.53125 0.296875l-0.125 0.4375l-5.234375 0l0.125 -0.4375l0.3125 0q1.171875 0 1.6875 -0.578125q0.375 -0.421875 0.78125 -1.828125l3.453125 -11.859375q-0.390625 -0.390625 -0.75 -0.53125q-0.34375 -0.140625 -1.28125 -0.21875l0.109375 -0.4375l3.953125 0zm15.2421875 11.46875q-0.078125 0.59375 -0.078125 0.96875q0 1.046875 0.734375 1.78125q0.734375 0.734375 1.796875 0.734375q0.84375 0 1.625 -0.34375q0.78125 -0.34375 2.3125 -1.53125l0.25 0.34375q-2.78125 2.75 -5.296875 2.75q-1.71875 0 -2.59375 -1.078125q-0.859375 -1.078125 -0.859375 -2.375q0 -1.75 1.078125 -3.578125q1.078125 -1.828125 2.703125 -2.84375q1.640625 -1.015625 3.359375 -1.015625q1.234375 0 1.828125 0.515625q0.609375 0.5 0.609375 1.1875q0 0.96875 -0.78125 1.859375q-1.015625 1.15625 -3.0 1.875q-1.3125 0.484375 -3.6875 0.75zm0.078125 -0.578125q1.734375 -0.1875 2.828125 -0.671875q1.4375 -0.640625 2.15625 -1.53125q0.734375 -0.90625 0.734375 -1.71875q0 -0.484375 -0.3125 -0.78125q-0.3125 -0.3125 -0.890625 -0.3125q-1.1875 0 -2.53125 1.265625q-1.34375 1.265625 -1.984375 3.75zm18.980469 -5.609375l-2.28125 7.953125l-0.265625 1.0625q-0.03125 0.15625 -0.03125 0.25q0 0.1875 0.109375 0.328125q0.09375 0.109375 0.234375 0.109375q0.15625 0 0.40625 -0.1875q0.453125 -0.34375 1.21875 -1.40625l0.390625 0.28125q-0.796875 1.21875 -1.65625 1.859375q-0.859375 0.640625 -1.578125 0.640625q-0.515625 0 -0.765625 -0.25q-0.25 -0.25 -0.25 -0.734375q0 -0.578125 0.265625 -1.515625l0.234375 -0.875q-1.53125 2.0 -2.8125 2.796875q-0.9375 0.578125 -1.828125 0.578125q-0.84375 0 -1.46875 -0.703125q-0.625 -0.71875 -0.625 -1.953125q0 -1.875 1.109375 -3.9375q1.125 -2.0625 2.859375 -3.3125q1.34375 -0.984375 2.53125 -0.984375q0.71875 0 1.1875 0.375q0.484375 0.375 0.734375 1.25l0.421875 -1.34375l1.859375 -0.28125zm-4.171875 0.609375q-0.75 0 -1.59375 0.703125q-1.203125 1.0 -2.140625 2.953125q-0.921875 1.953125 -0.921875 3.546875q0 0.796875 0.390625 1.265625q0.40625 0.453125 0.921875 0.453125q1.28125 0 2.78125 -1.890625q2.0 -2.5 2.0 -5.140625q0 -1.0 -0.390625 -1.4375q-0.375 -0.453125 -1.046875 -0.453125zm13.609375 -0.609375l-0.703125 3.59375l-0.4375 0q-0.0625 -1.5625 -0.671875 -2.28125q-0.609375 -0.71875 -1.515625 -0.71875q-0.71875 0 -1.15625 0.40625q-0.421875 0.390625 -0.421875 0.953125q0 0.390625 0.171875 0.75q0.171875 0.34375 0.75 0.984375q1.515625 1.65625 1.953125 2.5q0.453125 0.84375 0.453125 1.59375q0 1.21875 -1.015625 2.171875q-1.015625 0.9375 -2.5625 0.9375q-0.84375 0 -1.9375 -0.40625q-0.390625 -0.140625 -0.59375 -0.140625q-0.53125 0 -0.796875 0.546875l-0.4375 0l0.71875 -3.796875l0.421875 0q0.078125 1.78125 0.734375 2.515625q0.671875 0.734375 1.84375 0.734375q0.890625 0 1.40625 -0.484375q0.515625 -0.5 0.515625 -1.234375q0 -0.46875 -0.1875 -0.859375q-0.328125 -0.703125 -1.375 -1.9375q-1.046875 -1.25 -1.34375 -1.875q-0.296875 -0.625 -0.296875 -1.25q0 -1.125 0.828125 -1.90625q0.828125 -0.796875 2.125 -0.796875q0.375 0 0.671875 0.0625q0.171875 0.03125 0.765625 0.265625q0.609375 0.21875 0.8125 0.21875q0.5 0 0.84375 -0.546875l0.4375 0zm11.933594 0.28125l-2.03125 6.984375q-0.46875 1.5625 -0.46875 1.96875q0 0.21875 0.078125 0.3125q0.078125 0.09375 0.203125 0.09375q0.203125 0 0.4375 -0.171875q0.25 -0.1875 1.21875 -1.453125l0.359375 0.265625q-0.9375 1.46875 -1.90625 2.15625q-0.640625 0.453125 -1.234375 0.453125q-0.46875 0 -0.734375 -0.265625q-0.25 -0.25 -0.25 -0.65625q0 -0.40625 0.15625 -1.0625q0.1875 -0.859375 1.0625 -3.765625q-1.984375 3.265625 -3.328125 4.515625q-1.34375 1.234375 -2.484375 1.234375q-0.546875 0 -0.921875 -0.375q-0.375 -0.375 -0.375 -0.953125q0 -0.875 0.515625 -2.6875l1.015625 -3.625q0.375 -1.296875 0.375 -1.625q0 -0.140625 -0.09375 -0.234375q-0.09375 -0.09375 -0.21875 -0.09375q-0.25 0 -0.5 0.171875q-0.234375 0.171875 -1.109375 1.296875l-0.359375 -0.25q0.875 -1.359375 1.859375 -2.015625q0.75 -0.5 1.390625 -0.5q0.4375 0 0.703125 0.28125q0.28125 0.265625 0.28125 0.703125q0 0.640625 -0.46875 2.265625l-1.109375 3.78125q-0.453125 1.546875 -0.453125 1.953125q0 0.234375 0.140625 0.375q0.15625 0.125 0.40625 0.125q0.375 0 1.0 -0.390625q0.625 -0.390625 1.65625 -1.71875q1.046875 -1.328125 1.71875 -2.484375q0.671875 -1.171875 1.4375 -3.71875l0.25 -0.890625l1.78125 0zm1.953125 0.375l4.046875 -0.65625l-1.6875 5.703125q2.046875 -3.515625 3.734375 -4.90625q0.9375 -0.796875 1.546875 -0.796875q0.375 0 0.59375 0.234375q0.234375 0.21875 0.234375 0.65625q0 0.78125 -0.40625 1.484375q-0.28125 0.515625 -0.796875 0.515625q-0.28125 0 -0.46875 -0.171875q-0.1875 -0.171875 -0.234375 -0.53125q-0.03125 -0.234375 -0.109375 -0.296875q-0.09375 -0.09375 -0.21875 -0.09375q-0.203125 0 -0.375 0.09375q-0.3125 0.15625 -0.9375 0.90625q-0.96875 1.15625 -2.109375 2.984375q-0.484375 0.765625 -0.84375 1.75q-0.484375 1.328125 -0.5625 1.59375l-0.375 1.484375l-1.78125 0l2.15625 -7.28125q0.375 -1.265625 0.375 -1.796875q0 -0.21875 -0.171875 -0.359375q-0.234375 -0.1875 -0.625 -0.1875q-0.234375 0 -0.890625 0.109375l-0.09375 -0.4375zm10.058594 5.53125q-0.078125 0.59375 -0.078125 0.96875q0 1.046875 0.734375 1.78125q0.734375 0.734375 1.796875 0.734375q0.84375 0 1.625 -0.34375q0.78125 -0.34375 2.3125 -1.53125l0.25 0.34375q-2.78125 2.75 -5.296875 2.75q-1.71875 0 -2.59375 -1.078125q-0.859375 -1.078125 -0.859375 -2.375q0 -1.75 1.078125 -3.578125q1.078125 -1.828125 2.703125 -2.84375q1.640625 -1.015625 3.359375 -1.015625q1.234375 0 1.828125 0.515625q0.609375 0.5 0.609375 1.1875q0 0.96875 -0.78125 1.859375q-1.015625 1.15625 -3.0 1.875q-1.3125 0.484375 -3.6875 0.75zm0.078125 -0.578125q1.734375 -0.1875 2.828125 -0.671875q1.4375 -0.640625 2.15625 -1.53125q0.734375 -0.90625 0.734375 -1.71875q0 -0.484375 -0.3125 -0.78125q-0.3125 -0.3125 -0.890625 -0.3125q-1.1875 0 -2.53125 1.265625q-1.34375 1.265625 -1.984375 3.75z" fill-rule="nonzero"/><path fill="#000000" fill-opacity="0.0" d="m642.4488 90.12861l36.252014 0.50393677" fill-rule="evenodd"/><path stroke="#000000" stroke-width="1.0" stroke-linejoin="round" stroke-linecap="butt" d="m642.4488 90.12861l36.252014 0.50393677" fill-rule="evenodd"/><path fill="#000000" fill-opacity="0.0" d="m151.27821 253.88452l124.88188 0l0 43.307068l-124.88188 0z" fill-rule="evenodd"/><path fill="#000000" d="m165.62196 272.42453l-4.03125 0l0 -0.5625l4.03125 0l0 -5.25l1.59375 0.28125q0.75 0.46875 -0.375 0.65625l0 4.3125l1.875 0l1.21875 -1.21875l1.5 1.125q0.5625 0.46875 0 0.65625l-4.59375 0l0 3.46875q3.9375 0.84375 3.9375 3.0q0 0.46875 -0.5625 0.46875q-0.375 0 -0.75 -0.75q-1.03125 -1.59375 -2.625 -2.4375l0 11.34375q-1.21875 1.125 -1.21875 0.09375l0 -10.96875q-1.96875 3.46875 -4.21875 5.4375q-0.46875 0 -0.1875 -0.375q3.84375 -4.96875 4.40625 -9.0l0 -0.28125zm6.9375 -3.75l1.40625 0.65625l6.0 0l0.5625 -0.75l1.3125 0.9375q0.5625 0.46875 -0.375 0.65625l0 15.84375q-1.21875 1.125 -1.21875 0.09375l0 -1.21875l-6.46875 0l0 1.78125q-1.21875 1.125 -1.21875 0.09375l0 -18.09375zm7.6875 1.21875l-6.46875 0l0 4.59375l6.46875 0l0 -4.59375zm0 5.15625l-6.46875 0l0 4.125l6.46875 0l0 -4.125zm-6.46875 4.6875l0 4.59375l6.46875 0l0 -4.59375l-6.46875 0zm33.09375 -3.375q0.5625 0.46875 0 0.65625l-10.5 0l0 10.3125q-1.125 1.125 -1.40625 0.09375l0 -10.40625l-9.5625 0l0 -0.5625l9.5625 0l0 -6.75l-7.6875 0l0 -0.5625l14.15625 0l1.40625 -1.40625l1.78125 1.3125q0.5625 0.46875 0 0.65625l-8.25 0l0 6.75l7.3125 0l1.40625 -1.40625l1.78125 1.3125z" fill-rule="nonzero"/><path fill="#000000" d="m218.96571 266.33078l2.4375 1.125l-0.9375 0.46875q-0.1875 1.21875 -0.46875 2.90625l7.21875 0l1.40625 -1.40625l1.96875 1.96875l-9.75 0q1.96875 3.46875 4.875 4.96875q2.90625 1.5 5.34375 1.6875l0 0.375q-1.78125 0.28125 -1.96875 1.21875q-3.84375 -1.40625 -5.859375 -3.703125q-2.015625 -2.296875 -2.859375 -4.546875l-0.46875 0q-0.9375 2.8125 -2.25 4.5q1.6875 0.65625 2.765625 1.3125q1.078125 0.65625 1.078125 1.359375q0 0.703125 -0.375 1.171875q-0.375 0.46875 -1.171875 -0.84375q-0.796875 -1.3125 -2.578125 -2.625q-2.90625 2.625 -7.96875 3.84375l-0.1875 -0.375q3.65625 -1.03125 6.0 -3.046875q2.34375 -2.015625 3.28125 -5.296875l-5.625 0q-1.21875 0 -2.25 0.28125l-0.84375 -0.84375l8.8125 0q0.375 -2.71875 0.375 -4.5zm-5.71875 14.90625q0 1.6875 -0.328125 2.953125q-0.328125 1.265625 -1.03125 1.59375q-0.703125 0.328125 -1.453125 0q-0.75 -0.328125 0.375 -1.21875q1.125 -0.890625 2.0625 -3.421875l0.375 0.09375zm4.78125 -1.3125l0.1875 -0.28125q1.78125 0.75 2.671875 1.359375q0.890625 0.609375 0.84375 1.265625q-0.046875 0.65625 -0.515625 1.21875q-0.46875 0.5625 -0.9375 -0.609375q-0.46875 -1.171875 -2.25 -2.953125zm7.59375 1.125l0.28125 -0.1875q2.25 1.21875 3.09375 2.015625q0.84375 0.796875 0.703125 1.546875q-0.140625 0.75 -0.65625 1.21875q-0.515625 0.46875 -1.03125 -1.03125q-0.515625 -1.5 -2.390625 -3.5625zm-10.21875 4.6875q0 -3.84375 -0.09375 -5.90625l2.15625 1.125l-0.75 0.65625l0 3.65625q-0.1875 1.21875 1.125 1.125l4.96875 0q1.125 0 1.3125 -0.9375q0.1875 -0.9375 0.1875 -2.90625l0.46875 0q0.09375 1.6875 0.28125 2.625q0.1875 0.9375 1.125 1.125q-0.75 1.3125 -2.625 1.21875l-5.625 0q-2.625 0.1875 -2.53125 -1.78125z" fill-rule="nonzero"/><path fill="#000000" d="m241.13759 269.25266l0 21.859375l-0.96875 0l0 -21.859375l0.96875 0zm2.9140625 10.40625l6.0625 0l0 1.765625l-6.0625 0l0 -1.765625z" fill-rule="nonzero"/><path fill="#000000" d="m257.2626 277.39328l0 -0.1875l-5.0625153 -10.21875l0.75 -0.375l5.3437653 10.6875l-5.3437653 10.6875l-0.75 -0.375l5.0625153 -10.21875z" fill-rule="nonzero"/><path fill="#000000" fill-opacity="0.0" d="m213.71916 253.88452l2.0787354 -41.795288" fill-rule="evenodd"/><path stroke="#000000" stroke-width="1.0" stroke-linejoin="round" stroke-linecap="butt" d="m213.71916 253.88452l1.7807007 -35.80269" fill-rule="evenodd"/><path fill="#000000" stroke="#000000" stroke-width="1.0" stroke-linecap="butt" d="m217.14955 218.16388l-1.4242706 -4.6145477l-1.8751221 4.4504547z" fill-rule="evenodd"/><path fill="#000000" fill-opacity="0.0" d="m106.74278 59.90315l0 0c0 -7.2479744 5.8756485 -13.123623 13.123619 -13.123623l372.5244 0c3.4806213 0 6.8186646 1.3826637 9.279816 3.8438225c2.4611511 2.461155 3.843811 5.799202 3.843811 9.2798l0 52.492916c0 7.247978 -5.875641 13.123619 -13.123627 13.123619l-372.5244 0l0 0c-7.2479706 0 -13.123619 -5.875641 -13.123619 -13.123619z" fill-rule="evenodd"/><path stroke="#000000" stroke-width="1.0" stroke-linejoin="round" stroke-linecap="butt" stroke-dasharray="4.0,3.0" d="m106.74278 59.90315l0 0c0 -7.2479744 5.8756485 -13.123623 13.123619 -13.123623l372.5244 0c3.4806213 0 6.8186646 1.3826637 9.279816 3.8438225c2.4611511 2.461155 3.843811 5.799202 3.843811 9.2798l0 52.492916c0 7.247978 -5.875641 13.123619 -13.123627 13.123619l-372.5244 0l0 0c-7.2479706 0 -13.123619 -5.875641 -13.123619 -13.123619z" fill-rule="evenodd"/><path fill="#000000" fill-opacity="0.0" d="m120.85302 6.9396324l384.6614 0l0 37.259842l-384.6614 0z" fill-rule="evenodd"/><path fill="#000000" d="m187.86505 26.57838l3.9375 0l0.96875 -0.953125l1.1875 0.890625q0.4375 0.359375 0 0.515625l-6.09375 0l0 6.3125l5.265625 0l1.125 -1.125l1.40625 1.046875q0.4375 0.375 0 0.515625l-16.78125 0l0 -0.4375l3.640625 0l0 -8.90625l1.265625 0.21875q0.59375 0.375 -0.296875 0.515625l0 8.171875l3.40625 0l0 -12.328125l-7.71875 0l0 -0.4375l13.21875 0l1.109375 -1.125l1.40625 1.046875q0.453125 0.375 0 0.515625l-7.046875 0l0 5.5625z" fill-rule="nonzero"/><path fill="#000000" d="m201.80255 31.89088q0.0625 -2.046875 0.0625 -4.1875q0 -2.15625 -0.0625 -4.046875q-1.3125 1.3125 -3.421875 2.625l-0.15625 -0.21875q2.34375 -1.828125 3.828125 -4.015625q1.5 -2.1875 2.0 -3.484375l1.46875 1.015625l-0.734375 0.28125l-0.65625 0.875l4.234375 0l0.71875 -0.796875l1.25 1.234375q-0.65625 0.15625 -1.25 0.734375q-0.578125 0.578125 -2.1875 2.328125l3.578125 0l0.71875 -0.71875l1.03125 1.015625l-0.65625 0.4375q0 4.4375 0.0625 5.75l-1.078125 0.515625l0 -6.5625l-7.65625 0l0 6.703125l-1.09375 0.515625zm4.65625 -7.65625l1.96875 -3.0625l-4.4375 0q-1.171875 1.390625 -2.265625 2.5625l1.09375 0.5l3.640625 0zm0.734375 3.140625q-0.140625 4.4375 -2.375 5.96875q-2.21875 1.53125 -6.515625 2.40625l0 -0.28125q4.65625 -1.390625 6.046875 -2.84375q1.390625 -1.46875 1.5625 -3.421875q0.1875 -1.96875 0.1875 -3.28125l1.671875 0.875l-0.578125 0.578125zm0.296875 4.515625l0.0625 -0.296875q2.1875 0.515625 3.609375 1.0q1.421875 0.46875 1.96875 1.09375q0.546875 0.609375 0.28125 1.21875q-0.25 0.625 -1.484375 -0.578125q-1.234375 -1.203125 -4.4375 -2.4375z" fill-rule="nonzero"/><path fill="#000000" d="m220.0213 33.51588l-0.09375 0.34375l-5.078125 0l0.125 -0.34375q0.765625 -0.015625 1.015625 -0.125q0.390625 -0.15625 0.578125 -0.421875q0.3125 -0.4375 0.625 -1.53125l2.15625 -7.453125q0.265625 -0.921875 0.265625 -1.40625q0 -0.234375 -0.125 -0.390625q-0.109375 -0.171875 -0.359375 -0.25q-0.234375 -0.09375 -0.9375 -0.09375l0.109375 -0.34375l4.78125 0l-0.109375 0.34375q-0.578125 -0.015625 -0.859375 0.125q-0.40625 0.1875 -0.625 0.53125q-0.21875 0.328125 -0.546875 1.484375l-2.140625 7.453125q-0.296875 1.03125 -0.296875 1.3125q0 0.21875 0.109375 0.390625q0.125 0.15625 0.375 0.25q0.25 0.078125 1.03125 0.125z" fill-rule="nonzero"/><path fill="#000000" d="m238.10117 19.39088q2.453125 0.296875 2.453125 1.546875q0 0.59375 -0.375 0.59375q-0.359375 0 -0.515625 -0.4375q-0.375 -0.890625 -1.625 -1.484375q-0.234375 -0.15625 0.0625 -0.21875zm-7.046875 15.953125q4.90625 -2.15625 6.53125 -4.53125q-1.484375 -3.109375 -1.5625 -7.9375l-8.609375 0l0 -0.453125l8.609375 0l0 -4.078125l1.34375 0.375q0.515625 0.21875 -0.375 0.4375l0 3.265625l4.453125 0l1.109375 -1.109375l1.421875 1.046875q0.4375 0.359375 0 0.515625l-6.984375 0q0 4.15625 1.265625 7.046875q1.484375 -1.859375 2.59375 -5.125l1.265625 0.828125q0.671875 0.65625 -0.453125 0.515625q-1.328125 2.75 -2.890625 4.671875q2.0 2.59375 3.640625 2.59375q0.375 0 0.515625 -0.4375l0.515625 -1.78125q0.296875 -0.453125 0.375 0l-0.296875 2.296875q0.078125 0.453125 0.453125 0.828125q0.0625 0.21875 -0.15625 0.359375q-0.21875 0.15625 -0.734375 0.15625q-0.59375 0 -1.78125 -0.515625q-1.5625 -0.671875 -3.203125 -2.75q-2.59375 2.8125 -6.890625 4.078125q-0.53125 0 -0.15625 -0.296875zm-2.21875 -2.078125q-0.296875 1.703125 -0.75 0.8125l-0.8125 -1.40625l8.3125 -2.375q0.515625 0 0.21875 0.375l-6.96875 2.59375zm1.109375 -4.75l3.265625 0l0 -3.046875l-3.265625 0l0 3.046875zm0 0.4375l0 1.125q-0.96875 0.890625 -0.96875 0.0625l0 -5.78125l1.1875 0.671875l2.828125 0l0.4375 -0.59375l1.046875 0.734375q0.4375 0.375 -0.296875 0.515625l0 3.9375q-0.96875 0.890625 -0.96875 0.078125l0 -0.75l-3.265625 0zm25.453125 -2.375l3.9375 0l0.96875 -0.953125l1.1875 0.890625q0.4375 0.359375 0 0.515625l-6.09375 0l0 6.3125l5.265625 0l1.125 -1.125l1.40625 1.046875q0.4375 0.375 0 0.515625l-16.78125 0l0 -0.4375l3.640625 0l0 -8.90625l1.265625 0.21875q0.59375 0.375 -0.296875 0.515625l0 8.171875l3.40625 0l0 -12.328125l-7.71875 0l0 -0.4375l13.21875 0l1.109375 -1.125l1.40625 1.046875q0.453125 0.375 0 0.515625l-7.046875 0l0 5.5625z" fill-rule="nonzero"/><path fill="#000000" d="m269.33554 31.89088q0.0625 -2.046875 0.0625 -4.1875q0 -2.15625 -0.0625 -4.046875q-1.3125 1.3125 -3.421875 2.625l-0.15625 -0.21875q2.34375 -1.828125 3.828125 -4.015625q1.5 -2.1875 2.0 -3.484375l1.46875 1.015625l-0.734375 0.28125l-0.65625 0.875l4.234375 0l0.71875 -0.796875l1.25 1.234375q-0.65625 0.15625 -1.25 0.734375q-0.578125 0.578125 -2.1875 2.328125l3.578125 0l0.71875 -0.71875l1.03125 1.015625l-0.65625 0.4375q0 4.4375 0.0625 5.75l-1.078125 0.515625l0 -6.5625l-7.65625 0l0 6.703125l-1.09375 0.515625zm4.65625 -7.65625l1.96875 -3.0625l-4.4375 0q-1.171875 1.390625 -2.265625 2.5625l1.09375 0.5l3.640625 0zm0.734375 3.140625q-0.140625 4.4375 -2.375 5.96875q-2.21875 1.53125 -6.515625 2.40625l0 -0.28125q4.65625 -1.390625 6.046875 -2.84375q1.390625 -1.46875 1.5625 -3.421875q0.1875 -1.96875 0.1875 -3.28125l1.671875 0.875l-0.578125 0.578125zm0.296875 4.515625l0.0625 -0.296875q2.1875 0.515625 3.609375 1.0q1.421875 0.46875 1.96875 1.09375q0.546875 0.609375 0.28125 1.21875q-0.25 0.625 -1.484375 -0.578125q-1.234375 -1.203125 -4.4375 -2.4375z" fill-rule="nonzero"/><path fill="#000000" d="m292.60117 21.500256l4.171875 0l-0.09375 0.34375q-0.890625 0.125 -1.546875 0.53125q-0.65625 0.40625 -1.796875 1.625l-3.203125 3.265625l0.90625 3.3125q0.125 0.46875 0.46875 1.46875q0.21875 0.640625 0.4375 0.90625q0.21875 0.265625 0.546875 0.40625q0.328125 0.140625 1.015625 0.15625l-0.109375 0.34375l-4.84375 0l0.09375 -0.34375q0.75 -0.015625 1.078125 -0.28125q0.25 -0.171875 0.25 -0.46875q0 -0.25 -0.234375 -1.125l-0.875 -3.09375l-2.890625 2.921875q-0.84375 0.859375 -1.015625 1.140625q-0.09375 0.15625 -0.09375 0.3125q0 0.265625 0.265625 0.453125q0.140625 0.0625 0.78125 0.140625l-0.09375 0.34375l-4.109375 0l0.109375 -0.34375q0.765625 -0.0625 1.265625 -0.34375q0.71875 -0.4375 1.984375 -1.703125l3.578125 -3.609375l-0.984375 -3.5625q-0.4375 -1.640625 -0.78125 -2.015625q-0.328125 -0.375 -1.15625 -0.4375l0.09375 -0.34375l4.421875 0l-0.109375 0.34375q-0.609375 0 -0.828125 0.078125q-0.21875 0.078125 -0.328125 0.234375q-0.109375 0.15625 -0.109375 0.359375q0 0.21875 0.21875 1.015625l0.828125 3.046875l1.953125 -1.921875q1.140625 -1.15625 1.5625 -1.859375q0.15625 -0.25 0.15625 -0.4375q0 -0.203125 -0.171875 -0.328125q-0.234375 -0.15625 -0.921875 -0.1875l0.109375 -0.34375z" fill-rule="nonzero"/><path fill="#000000" d="m296.9659 33.10963q-0.53125 -0.296875 -0.40625 -0.890625q0.0625 -0.296875 0.34375 -0.59375q0.359375 -0.296875 0.875 -0.296875q0.59375 0 0.796875 0.453125q0.265625 0.515625 0.15625 1.03125q-0.21875 1.046875 -1.0 1.9375q-0.78125 0.890625 -1.984375 1.34375l-0.21875 -0.375q0.765625 -0.453125 1.3125 -0.96875q0.46875 -0.4375 0.578125 -0.96875q0.078125 -0.375 -0.453125 -0.671875z" fill-rule="nonzero"/><path fill="#000000" d="m320.62997 31.187756q-2.078125 2.59375 -4.96875 4.234375q-0.375 0 -0.15625 -0.296875q3.125 -2.375 4.53125 -4.6875q-1.859375 -2.59375 -2.515625 -7.265625l-2.15625 0l0 11.578125q-0.96875 0.890625 -0.96875 0.078125l0 -3.5625l-4.96875 1.546875q-0.21875 1.046875 -0.671875 0.296875l-0.59375 -0.890625l2.0 -0.4375l0 -11.4375l-1.921875 0l0 -0.4375l8.984375 0l1.109375 -1.109375l1.40625 1.03125q0.453125 0.375 0 0.515625l-4.375 0l0 2.375l6.90625 0l0.59375 -0.59375l1.40625 1.046875q0.21875 0.4375 -0.75 0.296875q-0.59375 3.78125 -2.375 6.96875q1.78125 1.78125 4.15625 2.90625q-0.65625 0.21875 -1.328125 0.8125q-1.703125 -1.046875 -3.34375 -2.96875zm-2.75 -8.015625q0.96875 4.453125 2.609375 6.53125q1.40625 -2.671875 2.0 -6.53125l-4.609375 0zm-6.75 4.59375l0 3.71875l3.265625 -0.75l0 -2.96875l-3.265625 0zm3.265625 -0.4375l0 -3.125l-3.265625 0l0 3.125l3.265625 0zm0 -6.984375l-3.265625 0l0 3.421875l3.265625 0l0 -3.421875zm22.265625 7.28125q-0.59375 3.859375 -2.96875 5.78125q-1.625 1.34375 -3.859375 2.09375q-0.4375 0.140625 -0.21875 -0.296875q2.96875 -1.421875 4.296875 -3.125q1.421875 -1.859375 1.71875 -4.453125l-4.015625 0l0 -0.453125l4.078125 0q0.078125 -1.25 0.078125 -2.375l0 -1.921875l-3.34375 0l0 -0.453125l3.34375 0l0 -3.265625l0.890625 0.15625q1.484375 0.21875 0.078125 0.734375l0 2.375l2.890625 0l0.59375 -0.65625l0.890625 0.734375q0.671875 0.453125 -0.375 0.59375l0 4.078125l0.671875 0l1.109375 -1.109375l1.421875 1.046875q0.4375 0.359375 0 0.515625l-6.46875 0q0.671875 2.21875 2.234375 3.9375q1.703125 1.78125 3.9375 2.671875q-0.75 0.375 -1.1875 1.03125q-2.15625 -1.40625 -3.71875 -3.484375q-1.265625 -1.9375 -1.703125 -4.15625l-0.375 0zm-10.015625 1.78125l0 -0.296875l1.859375 0l3.328125 -5.796875q0.296875 -0.21875 0.296875 0.15625l-2.59375 5.265625q-0.375 0.75 -0.140625 1.9375q0.140625 0.953125 0.21875 1.625q0.140625 1.34375 -0.59375 1.40625q-0.8125 0 -0.75 -1.328125q0.078125 -0.59375 0.15625 -1.40625q0.078125 -0.96875 -0.515625 -1.265625l-1.265625 -0.296875zm10.09375 -4.015625q0 1.125 -0.078125 1.78125l3.125 0l0 -4.296875l-3.046875 0l0 2.515625zm-8.828125 -4.59375q-0.234375 -0.21875 0.140625 -0.21875q1.265625 0.359375 1.9375 1.03125q0.59375 0.8125 0.4375 1.484375q-0.515625 0.890625 -1.03125 0q-0.15625 -0.515625 -0.375 -1.109375q-0.375 -0.59375 -1.109375 -1.1875zm33.765625 4.234375l1.1875 0.8125q0.4375 0.375 0 0.515625l-7.5 0l0 7.125q0 0.890625 -0.515625 1.34375q-0.453125 0.375 -0.8125 0.4375q-0.53125 0.078125 -0.53125 -0.4375q0 -0.375 -0.65625 -0.515625l-1.046875 -0.234375q-0.375 -0.140625 0 -0.296875l1.859375 0q0.734375 0 0.734375 -0.734375l0 -6.6875l-7.9375 0l0 -0.4375l7.9375 0l0 -4.90625l-6.234375 0l0 -0.4375l10.921875 0l0.890625 -0.890625l1.1875 0.8125q0.4375 0.375 0 0.515625l-5.796875 0l0 4.90625l5.421875 0l0.890625 -0.890625z" fill-rule="nonzero"/><path fill="#000000" d="m367.81747 26.17213l0 5.484375q0 1.171875 0.25 1.46875q0.34375 0.40625 0.90625 0.40625l0.75 0l0 0.328125l-4.96875 0l0 -0.328125l0.359375 0q0.375 0 0.671875 -0.171875q0.296875 -0.1875 0.40625 -0.5q0.125 -0.3125 0.125 -1.203125l0 -5.484375l-1.625 0l0 -0.65625l1.625 0l0 -0.546875q0 -1.25 0.390625 -2.109375q0.40625 -0.875 1.234375 -1.40625q0.828125 -0.53125 1.859375 -0.53125q0.953125 0 1.75 0.625q0.53125 0.40625 0.53125 0.921875q0 0.265625 -0.234375 0.515625q-0.234375 0.234375 -0.515625 0.234375q-0.203125 0 -0.4375 -0.140625q-0.234375 -0.15625 -0.578125 -0.65625q-0.328125 -0.5 -0.609375 -0.671875q-0.28125 -0.171875 -0.640625 -0.171875q-0.40625 0 -0.703125 0.234375q-0.296875 0.21875 -0.421875 0.6875q-0.125 0.46875 -0.125 2.40625l0 0.609375l2.15625 0l0 0.65625l-2.15625 0zm8.165802 11.34375l0 0.328125q-1.375 -0.6875 -2.296875 -1.609375q-1.3125 -1.328125 -2.03125 -3.125q-0.703125 -1.796875 -0.703125 -3.71875q0 -2.828125 1.390625 -5.15625q1.390625 -2.328125 3.640625 -3.328125l0 0.375q-1.125 0.625 -1.84375 1.703125q-0.71875 1.078125 -1.078125 2.734375q-0.359375 1.640625 -0.359375 3.4375q0 1.9375 0.3125 3.53125q0.234375 1.265625 0.5625 2.015625q0.34375 0.765625 0.90625 1.46875q0.578125 0.703125 1.5 1.34375zm0.665802 -12.0l3.921875 0l0 0.34375q-0.375 0 -0.53125 0.125q-0.140625 0.125 -0.140625 0.328125q0 0.21875 0.3125 0.671875q0.109375 0.15625 0.3125 0.46875l0.578125 0.9375l0.6875 -0.9375q0.65625 -0.90625 0.65625 -1.140625q0 -0.203125 -0.15625 -0.328125q-0.15625 -0.125 -0.5 -0.125l0 -0.34375l2.828125 0l0 0.34375q-0.453125 0.015625 -0.78125 0.234375q-0.4375 0.3125 -1.21875 1.359375l-1.140625 1.515625l2.078125 2.984375q0.765625 1.109375 1.09375 1.328125q0.328125 0.21875 0.84375 0.25l0 0.328125l-3.921875 0l0 -0.328125q0.40625 0 0.625 -0.1875q0.171875 -0.125 0.171875 -0.328125q0 -0.21875 -0.578125 -1.0625l-1.21875 -1.78125l-1.34375 1.78125q-0.609375 0.828125 -0.609375 0.984375q0 0.21875 0.203125 0.40625q0.203125 0.171875 0.609375 0.1875l0 0.328125l-2.71875 0l0 -0.328125q0.328125 -0.046875 0.578125 -0.234375q0.34375 -0.25 1.15625 -1.34375l1.75 -2.328125l-1.578125 -2.28125q-0.671875 -0.984375 -1.046875 -1.234375q-0.375 -0.25 -0.921875 -0.25l0 -0.34375zm9.5 -4.234375l0 -0.375q1.375 0.6875 2.296875 1.609375q1.3125 1.328125 2.015625 3.125q0.71875 1.78125 0.71875 3.734375q0 2.8125 -1.390625 5.140625q-1.390625 2.328125 -3.640625 3.328125l0 -0.328125q1.125 -0.625 1.84375 -1.703125q0.71875 -1.0625 1.0625 -2.71875q0.359375 -1.65625 0.359375 -3.453125q0 -1.9375 -0.296875 -3.546875q-0.234375 -1.25 -0.578125 -2.0q-0.328125 -0.765625 -0.90625 -1.46875q-0.5625 -0.703125 -1.484375 -1.34375z" fill-rule="nonzero"/><path fill="#000000" d="m404.03363 28.812756q-0.4375 -1.265625 -1.703125 -2.453125q-0.21875 -0.296875 0.15625 -0.21875q2.59375 1.109375 2.59375 2.671875q0 0.671875 -0.515625 0.671875q-0.296875 0 -0.53125 -0.671875zm-3.703125 -2.15625q2.078125 -3.265625 3.046875 -8.234375l1.40625 0.4375q1.03125 0.296875 -0.296875 0.671875l-1.265625 3.046875l4.828125 0l0.4375 -0.59375l1.046875 0.734375q0.4375 0.375 -0.296875 0.53125l0 5.78125q0 3.5625 -1.046875 4.828125q-0.59375 0.75 -1.703125 1.1875q-1.03125 0.453125 -1.03125 -0.140625q0 -0.59375 -0.375 -0.671875l-1.34375 -0.375q-0.359375 -0.21875 0.078125 -0.296875l1.78125 0.140625q0.75 0.078125 1.484375 -0.359375q1.1875 -0.828125 1.1875 -4.453125l0 -5.875l-5.265625 0q-1.109375 2.375 -2.375 3.796875q-0.375 0.21875 -0.296875 -0.15625zm-0.453125 6.453125q-0.953125 0.90625 -0.953125 0.078125l0 -1.109375l-4.3125 0l0 1.78125q-0.96875 0.890625 -0.96875 0.078125l0 -11.953125l1.125 0.59375l1.03125 0l0.75 -4.15625l1.109375 0.296875q1.328125 0.296875 -0.21875 0.890625l-1.1875 2.96875l2.4375 0l0.453125 -0.59375l1.03125 0.734375q0.453125 0.375 -0.296875 0.53125l0 9.859375zm-0.953125 -10.09375l-4.3125 0l0 3.859375l4.3125 0l0 -3.859375zm-4.3125 4.3125l0 4.296875l4.3125 0l0 -4.296875l-4.3125 0zm22.78125 0.59375q1.78125 -3.34375 2.15625 -7.796875l1.046875 0.375q1.109375 0.4375 -0.078125 0.671875q-0.21875 1.25 -0.59375 2.375l2.8125 0l0 -4.75l1.265625 0.21875q0.59375 0.375 -0.296875 0.515625l0 4.015625l2.59375 0l0.96875 -0.96875l1.1875 0.890625q0.453125 0.375 0 0.515625l-4.75 0l0 4.375l2.15625 0l0.96875 -0.953125l1.1875 0.890625q0.4375 0.359375 0 0.515625l-4.3125 0l0 5.125l2.890625 0l1.125 -1.125l1.40625 1.046875q0.4375 0.375 0 0.515625l-11.875 0l0 -0.4375l5.484375 0l0 -5.125l-3.703125 0l0 -0.453125l3.703125 0l0 -4.375l-2.96875 0q-0.515625 1.859375 -2.078125 4.15625q-0.359375 0.21875 -0.296875 -0.21875zm-0.734375 -3.421875q-0.59375 -1.1875 -1.484375 -1.625l0 11.953125q-0.96875 0.890625 -0.96875 0.078125l0 -16.046875l1.265625 0.234375q0.59375 0.359375 -0.296875 0.515625l0 2.96875q2.75 0.890625 2.75 2.0q0 0.59375 -0.59375 0.59375q-0.453125 0 -0.671875 -0.671875zm-3.484375 -0.8125q0.0625 0.375 0.0625 1.40625q0 2.671875 -1.1875 2.671875q-0.296875 0 -0.515625 -0.296875q-0.140625 -0.4375 0.078125 -0.8125q1.03125 -1.109375 1.265625 -2.96875q0.140625 -0.4375 0.296875 0z" fill-rule="nonzero"/><path fill="#000000" d="m430.73676 35.094006q2.625 -4.21875 2.484375 -9.984375q0 -3.640625 -0.078125 -5.09375l1.03125 0.65625q4.359375 -0.375 6.90625 -0.90625q2.5625 -0.546875 3.359375 -1.0625l1.234375 1.234375q-2.328125 0.21875 -4.84375 0.515625q-2.515625 0.28125 -6.65625 0.578125l0 4.8125q0.21875 5.53125 -3.28125 9.40625l-0.15625 -0.15625zm9.109375 -11.875q0 -1.171875 -0.0625 -2.265625l1.53125 0.65625l-0.515625 0.4375l0 1.171875l3.5 0l0.9375 -0.875l1.25 1.3125l-5.6875 0l0 2.046875l2.984375 0l0.515625 -0.734375l1.15625 0.875l-0.578125 0.515625q0 3.703125 0.078125 5.015625l-1.015625 0.515625l0 -5.75l-7.0 0l0 5.609375l-1.03125 0.4375q0.078125 -2.1875 0.078125 -3.890625q0 -1.71875 -0.078125 -3.1875l1.03125 0.59375l2.90625 0l0 -2.046875l-3.0625 0q-0.796875 0 -1.59375 0.21875l-0.65625 -0.65625l5.3125 0zm-6.328125 12.25q1.671875 -0.59375 3.234375 -1.578125q1.5625 -0.984375 2.21875 -2.25q0.65625 -1.28125 0.734375 -2.546875q0.078125 -1.28125 0.078125 -2.234375l1.59375 0.8125l-0.578125 0.5q-0.140625 3.359375 -1.78125 4.96875q-1.640625 1.59375 -5.4375 2.546875l-0.0625 -0.21875zm6.984375 -3.71875q3.28125 0.875 4.375 1.34375q1.09375 0.46875 1.203125 1.046875q0.109375 0.59375 -0.078125 1.0625q-0.171875 0.484375 -0.765625 -0.140625q-0.578125 -0.625 -1.59375 -1.3125q-1.015625 -0.6875 -3.203125 -1.71875l0.0625 -0.28125z" fill-rule="nonzero"/><path fill="#000000" fill-opacity="0.0" d="m682.7402 58.90026l185.29132 0l0 62.456696l-185.29132 0z" fill-rule="evenodd"/><path fill="#000000" d="m692.5214 79.22651q0 -2.359375 0.484375 -3.796875q0.484375 -1.453125 1.4375 -2.234375q0.96875 -0.78125 2.421875 -0.78125q1.078125 0 1.890625 0.4375q0.8125 0.421875 1.328125 1.25q0.53125 0.8125 0.828125 1.984375q0.3125 1.15625 0.3125 3.140625q0 2.359375 -0.484375 3.8125q-0.484375 1.4375 -1.453125 2.234375q-0.953125 0.78125 -2.421875 0.78125q-1.921875 0 -3.03125 -1.390625q-1.3125 -1.671875 -1.3125 -5.4375zm1.671875 0q0 3.296875 0.765625 4.390625q0.78125 1.078125 1.90625 1.078125q1.140625 0 1.90625 -1.09375q0.765625 -1.09375 0.765625 -4.375q0 -3.296875 -0.765625 -4.375q-0.765625 -1.078125 -1.921875 -1.078125q-1.125 0 -1.796875 0.953125q-0.859375 1.21875 -0.859375 4.5z" fill-rule="nonzero"/><path fill="#000000" d="m705.9752 77.13276l1.703125 0l0 1.640625l-1.703125 0l0 -1.640625zm0 6.828125l1.703125 0l0 1.640625l-1.703125 0l0 -1.640625z" fill-rule="nonzero"/><path fill="#000000" d="m713.24084 85.82026l0 -8.40625l-1.453125 0l0 -1.265625l1.453125 0l0 -1.03125q0 -0.96875 0.171875 -1.453125q0.234375 -0.640625 0.828125 -1.03125q0.59375 -0.390625 1.671875 -0.390625q0.6875 0 1.53125 0.15625l-0.25 1.4375q-0.5 -0.09375 -0.953125 -0.09375q-0.75 0 -1.0625 0.328125q-0.3125 0.3125 -0.3125 1.1875l0 0.890625l1.890625 0l0 1.265625l-1.890625 0l0 8.40625l-1.625 0zm7.9177246 3.921875q-1.359375 -1.703125 -2.296875 -4.0q-0.9375 -2.296875 -0.9375 -4.765625q0 -2.15625 0.703125 -4.140625q0.828125 -2.3125 2.53125 -4.59375l1.171875 0q-1.09375 1.890625 -1.453125 2.703125q-0.546875 1.25 -0.875 2.625q-0.390625 1.703125 -0.390625 3.421875q0 4.375 2.71875 8.75l-1.171875 0zm1.9938965 -3.921875l3.53125 -5.03125l-3.265625 -4.640625l2.046875 0l1.484375 2.265625q0.421875 0.640625 0.671875 1.078125q0.40625 -0.59375 0.734375 -1.0625l1.640625 -2.28125l1.953125 0l-3.34375 4.546875l3.59375 5.125l-2.015625 0l-1.984375 -3.0l-0.515625 -0.8125l-2.546875 3.8125l-1.984375 0zm11.5 3.921875l-1.1875 0q2.734375 -4.375 2.734375 -8.75q0 -1.71875 -0.390625 -3.390625q-0.3125 -1.375 -0.875 -2.625q-0.359375 -0.828125 -1.46875 -2.734375l1.1875 0q1.703125 2.28125 2.53125 4.59375q0.6875 1.984375 0.6875 4.140625q0 2.46875 -0.9375 4.765625q-0.9375 2.296875 -2.28125 4.0z" fill-rule="nonzero"/><path fill="#000000" d="m739.66205 85.97651q2.90625 -1.265625 3.9375 -5.203125l1.640625 0.4375q0.296875 0.296875 -0.234375 0.375l-0.515625 1.34375q1.40625 1.625 3.046875 2.140625l0 -5.046875l-7.28125 0l0 -1.40625l16.03125 0l0 1.40625l-7.265625 0l0 1.71875l5.34375 0l0 1.40625l-5.34375 0l0 2.375l7.34375 0l-0.375 1.40625l-5.9375 0q-4.0 0 -6.15625 -2.75q-1.484375 2.3125 -3.34375 3.203125l-0.890625 -1.40625zm12.46875 -12.328125l0 -1.40625l-7.9375 0l0 1.40625l7.9375 0zm1.484375 3.78125l-10.90625 0l0 -6.375l10.90625 0l0 6.375zm-1.484375 -1.1875l0 -1.40625l-7.9375 0l0 1.40625l7.9375 0zm18.40625 8.6875l1.484375 0q0.296875 0 0.296875 -0.296875l0 -2.0l-4.515625 0l0 4.59375l-1.484375 0l0 -4.59375l-4.234375 0l0 3.640625l-1.484375 0l0 -5.0625l5.71875 0l0 -1.1875l-1.9375 0l-1.921875 0l0 -4.078125l9.046875 0l0 4.078125l-3.703125 0l0 1.1875l6.0 0l0 4.09375q0 1.03125 -1.03125 1.03125l-1.9375 0l-0.296875 -1.40625zm-7.421875 -11.28125q-0.65625 -1.109375 -1.625 -1.859375l1.1875 -0.96875q1.1875 0.75 1.859375 2.015625l-1.125 0.8125l2.90625 0l0 -3.265625l1.40625 0q0.59375 0.078125 0.078125 0.4375l0 2.828125l2.8125 0l-1.1875 -0.75l1.484375 -2.296875l1.34375 0.8125q0.515625 0.375 -0.15625 0.375l-1.265625 1.859375l4.15625 0l0 3.484375l-1.484375 0l0 -2.296875l-13.0625 0l0 2.59375l-1.484375 0l0 -3.78125l4.15625 0zm6.90625 3.484375l-6.078125 0l0 1.703125l6.078125 0l0 -1.703125zm10.390625 -1.703125l0 -4.671875l11.28125 0l0 4.671875l-11.28125 0zm-2.515625 2.078125l0 -1.1875l16.390625 0l0 1.1875l-16.390625 0zm8.828125 5.484375l0 0.828125l5.421875 0l0 1.1875l-5.421875 0l0 0.890625l7.796875 0l0 1.1875l-16.859375 0l0 -1.1875l7.796875 0l0 -0.890625l-5.484375 0l0 -1.1875l5.484375 0l0 -0.828125l-2.515625 0l-2.53125 0l0 -4.59375l11.28125 0l0 4.59375l-4.96875 0zm3.703125 -2.734375l0 -0.96875l-3.703125 0l0 0.96875l3.703125 0zm-3.703125 1.84375l3.703125 0l0 -0.953125l-3.703125 0l0 0.953125zm-5.046875 -9.5l8.75 0l0 -0.953125l-8.75 0l0 0.953125zm0 1.9375l8.75 0l0 -1.046875l-8.75 0l0 1.046875zm0 5.71875l3.78125 0l0 -0.96875l-3.78125 0l0 0.96875zm0 1.84375l3.78125 0l0 -0.953125l-3.78125 0l0 0.953125zm25.609375 -3.40625q1.546875 0.734375 3.703125 2.96875l-1.1875 1.328125q-2.21875 -2.21875 -3.40625 -3.03125l0 3.40625q0 1.046875 -1.046875 1.046875l-2.375 0l-0.21875 -1.421875l1.859375 0q0.296875 0 0.296875 -0.296875l0 -7.421875l-1.421875 0l-0.359375 0.671875l-1.484375 -0.515625l1.1875 -2.75l-6.234375 0l0 -1.40625l16.921875 0l0 1.40625l-9.0625 0l-0.515625 1.40625l2.453125 0l0 5.640625l0.890625 -1.03125zm3.859375 -4.234375l1.40625 0q0.59375 0.078125 0.078125 0.453125l0 12.25l-1.484375 0l0 -0.671875l-12.109375 0l0 0.8125l-1.484375 0l0 -12.84375l1.421875 0q0.59375 0.078125 0.0625 0.453125l0 10.15625l12.109375 0l0 -10.609375zm-0.671875 1.1875q0.296875 0.375 -0.296875 0.296875q-1.046875 1.1875 -2.453125 2.296875l-1.03125 -1.109375q1.328125 -0.96875 2.59375 -2.515625l1.1875 1.03125zm-9.875 0q1.703125 0.890625 2.890625 1.859375l-0.8125 1.40625q-1.265625 -0.96875 -2.8125 -1.859375l0.734375 -1.40625zm3.9375 4.453125q-1.046875 0.96875 -3.71875 2.453125q-0.140625 0.515625 -0.4375 0.21875l-0.890625 -1.484375q1.78125 -0.59375 4.296875 -2.453125l0.75 1.265625zm23.828125 1.640625q1.03125 -2.015625 1.25 -6.09375l-2.515625 0q0.21875 4.078125 1.265625 6.09375zm2.734375 -6.09375q-0.140625 4.609375 -1.78125 7.421875q1.1875 1.484375 3.34375 2.59375l-0.96875 1.640625q-2.375 -1.5625 -3.328125 -2.96875q-1.71875 1.9375 -5.28125 3.34375l-0.734375 -1.484375q3.859375 -1.5625 5.125 -3.203125q-1.265625 -2.4375 -1.421875 -4.890625q-0.4375 1.109375 -0.890625 1.703125l-1.25 -0.96875q2.21875 -3.265625 2.671875 -8.078125l1.546875 0.359375q0.453125 0.296875 -0.21875 0.453125q-0.21875 1.328125 -0.59375 2.671875l5.046875 0l0 1.40625l-1.265625 0zm-6.890625 -3.5625q-0.453125 1.109375 -1.046875 1.859375l-1.1875 -0.671875q0.59375 -0.96875 1.109375 -2.21875l1.34375 0.65625q0.296875 0.296875 -0.21875 0.375zm-4.75 10.46875q1.03125 0.296875 1.84375 0.671875q0.59375 -0.671875 0.96875 -2.015625l-2.15625 0q-0.296875 0.671875 -0.65625 1.34375zm-1.046875 1.859375l-1.1875 -0.671875q0.75 -1.109375 1.484375 -2.53125l-2.8125 0l0 -1.1875l3.265625 0q0.4375 -0.953125 0.65625 -1.625l1.421875 0.375q0.296875 0.296875 -0.234375 0.359375l-0.4375 0.890625l4.234375 0l0 1.1875l-1.125 0q-0.359375 1.484375 -1.109375 2.53125q0.671875 0.296875 1.40625 0.734375l-0.65625 1.1875q-0.828125 -0.515625 -1.484375 -0.8125q-1.9375 1.9375 -5.203125 2.375l-0.515625 -1.328125q2.890625 -0.296875 4.453125 -1.640625q-0.8125 -0.375 -1.640625 -0.671875l-0.515625 0.828125zm1.484375 -13.953125l1.1875 0q0.59375 0.0625 0.078125 0.4375l0 3.1875l3.78125 0l0 1.1875l-3.109375 0q0.8125 0.96875 2.515625 1.859375l-0.8125 1.265625q-1.265625 -0.75 -2.375 -2.078125l0 1.78125l-1.265625 0l0 -1.40625q-1.1875 1.484375 -3.265625 2.671875l-0.96875 -1.1875q2.3125 -1.1875 3.796875 -2.90625l-3.421875 0l0 -1.1875l3.859375 0l0 -3.625zm-2.078125 3.40625q-0.515625 -1.109375 -1.328125 -1.921875l1.1875 -0.75q0.890625 0.890625 1.328125 1.859375l-1.1875 0.8125z" fill-rule="nonzero"/><path fill="#000000" d="m698.6933 107.82026l-1.640625 0l0 -10.453125q-0.59375 0.5625 -1.5625 1.140625q-0.953125 0.5625 -1.71875 0.84375l0 -1.59375q1.375 -0.640625 2.40625 -1.5625q1.03125 -0.921875 1.453125 -1.78125l1.0625 0l0 13.40625z" fill-rule="nonzero"/><path fill="#000000" d="m705.9752 99.13276l1.703125 0l0 1.640625l-1.703125 0l0 -1.640625zm0 6.828125l1.703125 0l0 1.640625l-1.703125 0l0 -1.640625z" fill-rule="nonzero"/><path fill="#000000" d="m713.24084 107.82026l0 -8.40625l-1.453125 0l0 -1.265625l1.453125 0l0 -1.03125q0 -0.96875 0.171875 -1.453125q0.234375 -0.640625 0.828125 -1.03125q0.59375 -0.390625 1.671875 -0.390625q0.6875 0 1.53125 0.15625l-0.25 1.4375q-0.5 -0.09375 -0.953125 -0.09375q-0.75 0 -1.0625 0.328125q-0.3125 0.3125 -0.3125 1.1875l0 0.890625l1.890625 0l0 1.265625l-1.890625 0l0 8.40625l-1.625 0zm7.9177246 3.921875q-1.359375 -1.703125 -2.296875 -4.0q-0.9375 -2.296875 -0.9375 -4.765625q0 -2.15625 0.703125 -4.140625q0.828125 -2.3125 2.53125 -4.59375l1.171875 0q-1.09375 1.890625 -1.453125 2.703125q-0.546875 1.25 -0.875 2.625q-0.390625 1.703125 -0.390625 3.421875q0 4.375 2.71875 8.75l-1.171875 0zm1.9938965 -3.921875l3.53125 -5.03125l-3.265625 -4.640625l2.046875 0l1.484375 2.265625q0.421875 0.640625 0.671875 1.078125q0.40625 -0.59375 0.734375 -1.0625l1.640625 -2.28125l1.953125 0l-3.34375 4.546875l3.59375 5.125l-2.015625 0l-1.984375 -3.0l-0.515625 -0.8125l-2.546875 3.8125l-1.984375 0zm11.5 3.921875l-1.1875 0q2.734375 -4.375 2.734375 -8.75q0 -1.71875 -0.390625 -3.390625q-0.3125 -1.375 -0.875 -2.625q-0.359375 -0.828125 -1.46875 -2.734375l1.1875 0q1.703125 2.28125 2.53125 4.59375q0.6875 1.984375 0.6875 4.140625q0 2.46875 -0.9375 4.765625q-0.9375 2.296875 -2.28125 4.0z" fill-rule="nonzero"/><path fill="#000000" d="m739.66205 107.97651q2.90625 -1.265625 3.9375 -5.203125l1.640625 0.4375q0.296875 0.296875 -0.234375 0.375l-0.515625 1.34375q1.40625 1.625 3.046875 2.140625l0 -5.046875l-7.28125 0l0 -1.40625l16.03125 0l0 1.40625l-7.265625 0l0 1.71875l5.34375 0l0 1.40625l-5.34375 0l0 2.375l7.34375 0l-0.375 1.40625l-5.9375 0q-4.0 0 -6.15625 -2.75q-1.484375 2.3125 -3.34375 3.203125l-0.890625 -1.40625zm12.46875 -12.328125l0 -1.40625l-7.9375 0l0 1.40625l7.9375 0zm1.484375 3.78125l-10.90625 0l0 -6.375l10.90625 0l0 6.375zm-1.484375 -1.1875l0 -1.40625l-7.9375 0l0 1.40625l7.9375 0zm17.59375 2.078125q0.96875 -2.0 1.640625 -4.15625l1.703125 0.59375q0.59375 0.296875 -0.15625 0.453125q-0.59375 1.84375 -1.546875 3.78125l-1.640625 -0.671875zm-3.40625 2.75l-7.28125 0l0 -1.40625l7.28125 0l0 -6.609375l-6.390625 0l0 -1.40625l14.171875 0l0 1.40625l-6.296875 0l0 6.609375l7.34375 0l0 1.40625l-7.34375 0l0 6.015625l-1.484375 0l0 -6.015625zm-4.09375 -6.828125q1.5625 2.078125 2.015625 3.703125l-1.640625 0.75q-0.8125 -2.296875 -1.859375 -3.71875l1.484375 -0.734375zm19.75 0.890625q1.5625 -1.484375 2.59375 -4.609375l1.40625 0.375q0.296875 0.296875 -0.21875 0.375l-0.296875 0.671875l2.15625 0l0.375 -0.375l0.953125 0.96875l-0.296875 0.21875l-1.40625 2.15625l2.15625 0l0 6.078125l-2.53125 0l0 0.96875l3.265625 0l0 1.1875l-3.328125 0l0 0.296875q2.0 0.8125 3.40625 1.859375l-0.890625 1.484375q-1.328125 -1.125 -2.890625 -2.15625q-0.671875 1.859375 -4.078125 2.53125l-0.53125 -1.5625q3.265625 -0.234375 3.640625 -2.453125l-3.1875 0l0 -1.1875l3.34375 0l0 -0.96875l-1.265625 0l-1.1875 0l0 -5.046875l-0.515625 0.515625l-0.375 -0.59375q-0.453125 0.828125 -1.109375 1.640625l0 9.875l-1.484375 0l0 -8.171875q-0.234375 0.375 -1.71875 1.484375l-0.734375 -1.40625q2.375 -1.78125 4.078125 -4.671875l0.671875 0.515625zm0.375 -3.34375q-1.34375 2.234375 -3.796875 4.015625l-0.953125 -1.265625q2.734375 -2.078125 3.78125 -4.015625l1.109375 0.890625q0.375 0.453125 -0.140625 0.375zm8.078125 14.1875l0.828125 0q0.296875 0 0.296875 -0.3125l0 -8.15625l-1.5625 0l0 -1.40625l4.53125 0l0 1.40625l-1.484375 0l0 8.828125q0 1.046875 -0.96875 1.046875l-1.40625 0l-0.234375 -1.40625zm-0.359375 -13.140625l0 -1.421875l3.859375 0l0 1.421875l-3.859375 0zm-1.9375 4.515625l0 -1.25l-1.265625 0l0 1.25l1.265625 0zm-2.515625 0l0 -1.25l-1.1875 0l0 1.25l1.1875 0zm0 2.453125l0 -1.265625l-1.1875 0l0 1.265625l1.1875 0zm2.515625 0l0 -1.265625l-1.265625 0l0 1.265625l1.265625 0zm-3.109375 -6.671875q-0.453125 0.890625 -1.046875 1.78125l2.0 0l1.125 -1.78125l-2.078125 0zm22.265625 5.5625q1.546875 0.734375 3.703125 2.96875l-1.1875 1.328125q-2.21875 -2.21875 -3.40625 -3.03125l0 3.40625q0 1.046875 -1.046875 1.046875l-2.375 0l-0.21875 -1.421875l1.859375 0q0.296875 0 0.296875 -0.296875l0 -7.421875l-1.421875 0l-0.359375 0.671875l-1.484375 -0.515625l1.1875 -2.75l-6.234375 0l0 -1.40625l16.921875 0l0 1.40625l-9.0625 0l-0.515625 1.40625l2.453125 0l0 5.640625l0.890625 -1.03125zm3.859375 -4.234375l1.40625 0q0.59375 0.078125 0.078125 0.453125l0 12.25l-1.484375 0l0 -0.671875l-12.109375 0l0 0.8125l-1.484375 0l0 -12.84375l1.421875 0q0.59375 0.078125 0.0625 0.453125l0 10.15625l12.109375 0l0 -10.609375zm-0.671875 1.1875q0.296875 0.375 -0.296875 0.296875q-1.046875 1.1875 -2.453125 2.296875l-1.03125 -1.109375q1.328125 -0.96875 2.59375 -2.515625l1.1875 1.03125zm-9.875 0q1.703125 0.890625 2.890625 1.859375l-0.8125 1.40625q-1.265625 -0.96875 -2.8125 -1.859375l0.734375 -1.40625zm3.9375 4.453125q-1.046875 0.96875 -3.71875 2.453125q-0.140625 0.515625 -0.4375 0.21875l-0.890625 -1.484375q1.78125 -0.59375 4.296875 -2.453125l0.75 1.265625zm23.828125 1.640625q1.03125 -2.015625 1.25 -6.09375l-2.515625 0q0.21875 4.078125 1.265625 6.09375zm2.734375 -6.09375q-0.140625 4.609375 -1.78125 7.421875q1.1875 1.484375 3.34375 2.59375l-0.96875 1.640625q-2.375 -1.5625 -3.328125 -2.96875q-1.71875 1.9375 -5.28125 3.34375l-0.734375 -1.484375q3.859375 -1.5625 5.125 -3.203125q-1.265625 -2.4375 -1.421875 -4.890625q-0.4375 1.109375 -0.890625 1.703125l-1.25 -0.96875q2.21875 -3.265625 2.671875 -8.078125l1.546875 0.359375q0.453125 0.296875 -0.21875 0.453125q-0.21875 1.328125 -0.59375 2.671875l5.046875 0l0 1.40625l-1.265625 0zm-6.890625 -3.5625q-0.453125 1.109375 -1.046875 1.859375l-1.1875 -0.671875q0.59375 -0.96875 1.109375 -2.21875l1.34375 0.65625q0.296875 0.296875 -0.21875 0.375zm-4.75 10.46875q1.03125 0.296875 1.84375 0.671875q0.59375 -0.671875 0.96875 -2.015625l-2.15625 0q-0.296875 0.671875 -0.65625 1.34375zm-1.046875 1.859375l-1.1875 -0.671875q0.75 -1.109375 1.484375 -2.53125l-2.8125 0l0 -1.1875l3.265625 0q0.4375 -0.953125 0.65625 -1.625l1.421875 0.375q0.296875 0.296875 -0.234375 0.359375l-0.4375 0.890625l4.234375 0l0 1.1875l-1.125 0q-0.359375 1.484375 -1.109375 2.53125q0.671875 0.296875 1.40625 0.734375l-0.65625 1.1875q-0.828125 -0.515625 -1.484375 -0.8125q-1.9375 1.9375 -5.203125 2.375l-0.515625 -1.328125q2.890625 -0.296875 4.453125 -1.640625q-0.8125 -0.375 -1.640625 -0.671875l-0.515625 0.828125zm1.484375 -13.953125l1.1875 0q0.59375 0.0625 0.078125 0.4375l0 3.1875l3.78125 0l0 1.1875l-3.109375 0q0.8125 0.96875 2.515625 1.859375l-0.8125 1.265625q-1.265625 -0.75 -2.375 -2.078125l0 1.78125l-1.265625 0l0 -1.40625q-1.1875 1.484375 -3.265625 2.671875l-0.96875 -1.1875q2.3125 -1.1875 3.796875 -2.90625l-3.421875 0l0 -1.1875l3.859375 0l0 -3.625zm-2.078125 3.40625q-0.515625 -1.109375 -1.328125 -1.921875l1.1875 -0.75q0.890625 0.890625 1.328125 1.859375l-1.1875 0.8125z" fill-rule="nonzero"/><path fill="#000000" fill-opacity="0.0" d="m256.15485 68.47507l27.590546 0l0 43.307083l-27.590546 0z" fill-rule="evenodd"/><path fill="#000000" d="m265.66727 87.051315l3.921875 0l0 0.34375q-0.375 0 -0.53125 0.125q-0.140625 0.125 -0.140625 0.328125q0 0.21875 0.3125 0.671875q0.109375 0.15625 0.3125 0.46875l0.578125 0.9375l0.6875 -0.9375q0.65625 -0.90625 0.65625 -1.140625q0 -0.203125 -0.15625 -0.328125q-0.15625 -0.125 -0.5 -0.125l0 -0.34375l2.828125 0l0 0.34375q-0.453125 0.015625 -0.78125 0.234375q-0.4375 0.3125 -1.21875 1.359375l-1.140625 1.515625l2.078125 2.984375q0.765625 1.109375 1.09375 1.328125q0.328125 0.21875 0.84375 0.25l0 0.328125l-3.921875 0l0 -0.328125q0.40625 0 0.625 -0.1875q0.171875 -0.125 0.171875 -0.328125q0 -0.21875 -0.578125 -1.0625l-1.21875 -1.78125l-1.34375 1.78125q-0.609375 0.828125 -0.609375 0.984375q0 0.21875 0.203125 0.40625q0.203125 0.171875 0.609375 0.1875l0 0.328125l-2.71875 0l0 -0.328125q0.328125 -0.046875 0.578125 -0.234375q0.34375 -0.25 1.15625 -1.34375l1.75 -2.328125l-1.578125 -2.28125q-0.671875 -0.984375 -1.046875 -1.234375q-0.375 -0.25 -0.921875 -0.25l0 -0.34375z" fill-rule="nonzero"/><path fill="#000000" fill-opacity="0.0" d="m255.77165 184.27559l27.59056 0l0 43.307083l-27.59056 0z" fill-rule="evenodd"/><path fill="#000000" d="m265.14346 202.85184l3.890625 0l0 0.34375l-0.1875 0q-0.421875 0 -0.625 0.171875q-0.203125 0.171875 -0.203125 0.4375q0 0.359375 0.296875 0.984375l2.03125 4.203125l1.875 -4.609375q0.15625 -0.359375 0.15625 -0.734375q0 -0.15625 -0.0625 -0.234375q-0.078125 -0.109375 -0.234375 -0.15625q-0.15625 -0.0625 -0.546875 -0.0625l0 -0.34375l2.71875 0l0 0.34375q-0.34375 0.03125 -0.53125 0.140625q-0.171875 0.109375 -0.390625 0.40625q-0.078125 0.125 -0.3125 0.703125l-3.390625 8.328125q-0.5 1.203125 -1.296875 1.828125q-0.796875 0.625 -1.53125 0.625q-0.53125 0 -0.890625 -0.3125q-0.34375 -0.3125 -0.34375 -0.71875q0 -0.375 0.25 -0.609375q0.25 -0.234375 0.6875 -0.234375q0.3125 0 0.828125 0.203125q0.359375 0.140625 0.453125 0.140625q0.28125 0 0.59375 -0.28125q0.328125 -0.28125 0.65625 -1.09375l0.59375 -1.453125l-3.0 -6.296875q-0.140625 -0.28125 -0.4375 -0.703125q-0.234375 -0.3125 -0.375 -0.421875q-0.203125 -0.140625 -0.671875 -0.25l0 -0.34375z" fill-rule="nonzero"/><path fill="#000000" fill-opacity="0.0" d="m353.0656 68.47507l27.590546 0l0 43.307083l-27.590546 0z" fill-rule="evenodd"/><path fill="#000000" d="m362.57803 87.051315l3.921875 0l0 0.34375q-0.375 0 -0.53125 0.125q-0.140625 0.125 -0.140625 0.328125q0 0.21875 0.3125 0.671875q0.109375 0.15625 0.3125 0.46875l0.578125 0.9375l0.6875 -0.9375q0.65625 -0.90625 0.65625 -1.140625q0 -0.203125 -0.15625 -0.328125q-0.15625 -0.125 -0.5 -0.125l0 -0.34375l2.828125 0l0 0.34375q-0.453125 0.015625 -0.78125 0.234375q-0.4375 0.3125 -1.21875 1.359375l-1.140625 1.515625l2.078125 2.984375q0.765625 1.109375 1.09375 1.328125q0.328125 0.21875 0.84375 0.25l0 0.328125l-3.921875 0l0 -0.328125q0.40625 0 0.625 -0.1875q0.171875 -0.125 0.171875 -0.328125q0 -0.21875 -0.578125 -1.0625l-1.21875 -1.78125l-1.34375 1.78125q-0.609375 0.828125 -0.609375 0.984375q0 0.21875 0.203125 0.40625q0.203125 0.171875 0.609375 0.1875l0 0.328125l-2.71875 0l0 -0.328125q0.328125 -0.046875 0.578125 -0.234375q0.34375 -0.25 1.15625 -1.34375l1.75 -2.328125l-1.578125 -2.28125q-0.671875 -0.984375 -1.046875 -1.234375q-0.375 -0.25 -0.921875 -0.25l0 -0.34375z" fill-rule="nonzero"/><path fill="#000000" fill-opacity="0.0" d="m285.95538 184.27559l93.10239 0l0 43.307083l-93.10239 0z" fill-rule="evenodd"/><path fill="#000000" d="m323.37286 202.85184l3.890625 0l0 0.34375l-0.1875 0q-0.421875 0 -0.625 0.171875q-0.203125 0.171875 -0.203125 0.4375q0 0.359375 0.296875 0.984375l2.03125 4.203125l1.875 -4.609375q0.15625 -0.359375 0.15625 -0.734375q0 -0.15625 -0.0625 -0.234375q-0.078125 -0.109375 -0.234375 -0.15625q-0.15625 -0.0625 -0.546875 -0.0625l0 -0.34375l2.71875 0l0 0.34375q-0.34375 0.03125 -0.53125 0.140625q-0.171875 0.109375 -0.390625 0.40625q-0.078125 0.125 -0.3125 0.703125l-3.390625 8.328125q-0.5 1.203125 -1.296875 1.828125q-0.796875 0.625 -1.53125 0.625q-0.53125 0 -0.890625 -0.3125q-0.34375 -0.3125 -0.34375 -0.71875q0 -0.375 0.25 -0.609375q0.25 -0.234375 0.6875 -0.234375q0.3125 0 0.828125 0.203125q0.359375 0.140625 0.453125 0.140625q0.28125 0 0.59375 -0.28125q0.328125 -0.28125 0.65625 -1.09375l0.59375 -1.453125l-3.0 -6.296875q-0.140625 -0.28125 -0.4375 -0.703125q-0.234375 -0.3125 -0.375 -0.421875q-0.203125 -0.140625 -0.671875 -0.25l0 -0.34375z" fill-rule="nonzero"/><path fill="#000000" d="m337.56036 204.58621l0 2.75l-0.515625 0l0 -2.75l-2.75 0l0 -0.515625l2.75 0l0 -2.75l0.515625 0l0 2.75l2.75 0l0 0.515625l-2.75 0zm-0.21875 3.421875q1.484375 0 2.59375 -1.125q1.046875 -1.03125 1.046875 -2.515625q0 -1.484375 -1.046875 -2.53125q-1.109375 -1.109375 -2.59375 -1.109375q-1.484375 0 -2.59375 1.109375q-1.046875 1.046875 -1.046875 2.53125q0 1.484375 1.046875 2.515625q1.109375 1.125 2.59375 1.125zm3.046875 -0.828125q-1.34375 1.34375 -3.046875 1.34375q-1.703125 0 -2.96875 -1.265625q-1.1875 -1.1875 -1.1875 -2.890625q0 -1.703125 1.109375 -2.828125q1.34375 -1.328125 3.046875 -1.328125q1.703125 0 2.96875 1.265625q1.1875 1.1875 1.1875 2.890625q0 1.703125 -1.109375 2.8125z" fill-rule="nonzero"/><path fill="#000000" d="m345.93536 203.50809l0 5.484375q0 1.171875 0.25 1.46875q0.34375 0.40625 0.90625 0.40625l0.75 0l0 0.328125l-4.96875 0l0 -0.328125l0.359375 0q0.375 0 0.671875 -0.171875q0.296875 -0.1875 0.40625 -0.5q0.125 -0.3125 0.125 -1.203125l0 -5.484375l-1.625 0l0 -0.65625l1.625 0l0 -0.546875q0 -1.25 0.390625 -2.109375q0.40625 -0.875 1.234375 -1.40625q0.828125 -0.53125 1.859375 -0.53125q0.953125 0 1.75 0.625q0.53125 0.40625 0.53125 0.921875q0 0.265625 -0.234375 0.515625q-0.234375 0.234375 -0.515625 0.234375q-0.203125 0 -0.4375 -0.140625q-0.234375 -0.15625 -0.578125 -0.65625q-0.328125 -0.5 -0.609375 -0.671875q-0.28125 -0.171875 -0.640625 -0.171875q-0.40625 0 -0.703125 0.234375q-0.296875 0.21875 -0.421875 0.6875q-0.125 0.46875 -0.125 2.40625l0 0.609375l2.15625 0l0 0.65625l-2.15625 0zm8.165802 11.34375l0 0.328125q-1.375 -0.6875 -2.296875 -1.609375q-1.3125 -1.328125 -2.03125 -3.125q-0.703125 -1.796875 -0.703125 -3.71875q0 -2.828125 1.390625 -5.15625q1.390625 -2.328125 3.640625 -3.328125l0 0.375q-1.125 0.625 -1.84375 1.703125q-0.71875 1.078125 -1.078125 2.734375q-0.359375 1.640625 -0.359375 3.4375q0 1.9375 0.3125 3.53125q0.234375 1.265625 0.5625 2.015625q0.34375 0.765625 0.90625 1.46875q0.578125 0.703125 1.5 1.34375zm0.665802 -12.0l3.921875 0l0 0.34375q-0.375 0 -0.53125 0.125q-0.140625 0.125 -0.140625 0.328125q0 0.21875 0.3125 0.671875q0.109375 0.15625 0.3125 0.46875l0.578125 0.9375l0.6875 -0.9375q0.65625 -0.90625 0.65625 -1.140625q0 -0.203125 -0.15625 -0.328125q-0.15625 -0.125 -0.5 -0.125l0 -0.34375l2.828125 0l0 0.34375q-0.453125 0.015625 -0.78125 0.234375q-0.4375 0.3125 -1.21875 1.359375l-1.140625 1.515625l2.078125 2.984375q0.765625 1.109375 1.09375 1.328125q0.328125 0.21875 0.84375 0.25l0 0.328125l-3.921875 0l0 -0.328125q0.40625 0 0.625 -0.1875q0.171875 -0.125 0.171875 -0.328125q0 -0.21875 -0.578125 -1.0625l-1.21875 -1.78125l-1.34375 1.78125q-0.609375 0.828125 -0.609375 0.984375q0 0.21875 0.203125 0.40625q0.203125 0.171875 0.609375 0.1875l0 0.328125l-2.71875 0l0 -0.328125q0.328125 -0.046875 0.578125 -0.234375q0.34375 -0.25 1.15625 -1.34375l1.75 -2.328125l-1.578125 -2.28125q-0.671875 -0.984375 -1.046875 -1.234375q-0.375 -0.25 -0.921875 -0.25l0 -0.34375zm9.5 -4.234375l0 -0.375q1.375 0.6875 2.296875 1.609375q1.3125 1.328125 2.015625 3.125q0.71875 1.78125 0.71875 3.734375q0 2.8125 -1.390625 5.140625q-1.390625 2.328125 -3.640625 3.328125l0 -0.328125q1.125 -0.625 1.84375 -1.703125q0.71875 -1.0625 1.0625 -2.71875q0.359375 -1.65625 0.359375 -3.453125q0 -1.9375 -0.296875 -3.546875q-0.234375 -1.25 -0.578125 -2.0q-0.328125 -0.765625 -0.90625 -1.46875q-0.5625 -0.703125 -1.484375 -1.34375z" fill-rule="nonzero"/></g></svg>