<svg version="1.1" viewBox="0.0 0.0 619.6876640419947 230.1784776902887" fill="none" stroke="none" stroke-linecap="square" stroke-miterlimit="10" xmlns:xlink="http://www.w3.org/1999/xlink" xmlns="http://www.w3.org/2000/svg"><clipPath id="p.0"><path d="m0 0l619.6877 0l0 230.17848l-619.6877 0l0 -230.17848z" clip-rule="nonzero"/></clipPath><g clip-path="url(#p.0)"><path fill="#ffffff" d="m0 0l619.6877 0l0 230.17848l-619.6877 0z" fill-rule="evenodd"/><path fill="#cfe2f3" d="m211.84908 13.580052l124.88188 0l0 161.13387l-124.88188 0z" fill-rule="evenodd"/><path stroke="#000000" stroke-width="1.0" stroke-linejoin="round" stroke-linecap="butt" d="m211.84908 13.580052l124.88188 0l0 161.13387l-124.88188 0z" fill-rule="evenodd"/><path fill="#000000" d="m263.96002 84.67948l8.953125 0l-0.171875 0.578125q-1.375 0.03125 -1.96875 0.265625q-0.578125 0.21875 -1.0 0.796875q-0.40625 0.578125 -0.859375 2.140625l-2.171875 7.5q-0.578125 2.0 -0.6875 2.625q-0.1875 1.0 -0.1875 1.859375q0 1.890625 1.40625 3.203125q1.40625 1.296875 3.765625 1.296875q1.546875 0 2.765625 -0.578125q1.21875 -0.59375 2.078125 -1.640625q0.875 -1.0625 1.59375 -2.859375q0.71875 -1.8125 1.265625 -3.65625l1.875 -6.46875q0.703125 -2.421875 0.703125 -3.15625q0 -0.515625 -0.484375 -0.875q-0.46875 -0.375 -1.921875 -0.453125l0.171875 -0.578125l6.734375 0l-0.171875 0.578125q-1.1875 0 -1.71875 0.234375q-0.515625 0.21875 -0.90625 0.8125q-0.390625 0.578125 -0.875 2.265625l-2.296875 7.859375q-1.109375 3.828125 -2.09375 5.65625q-0.984375 1.8125 -2.859375 3.046875q-1.859375 1.21875 -4.625 1.21875q-3.1875 0 -5.140625 -1.796875q-1.953125 -1.8125 -1.953125 -4.140625q0 -0.921875 0.171875 -1.96875q0.125 -0.6875 0.609375 -2.375l2.09375 -7.203125q0.4375 -1.5625 0.4375 -2.296875q0 -0.578125 -0.453125 -0.890625q-0.4375 -0.328125 -2.234375 -0.421875l0.15625 -0.578125z" fill-rule="nonzero"/><path fill="#000000" d="m289.1944 108.69511l-0.1875 0.6875l-1.515625 0l-1.140625 4.546875q-0.765625 3.015625 -1.53125 4.65625q-1.09375 2.328125 -2.359375 3.203125q-0.953125 0.6875 -1.921875 0.6875q-0.625 0 -1.0625 -0.375q-0.3125 -0.265625 -0.3125 -0.6875q0 -0.328125 0.265625 -0.578125q0.265625 -0.234375 0.640625 -0.234375q0.28125 0 0.484375 0.171875q0.1875 0.171875 0.1875 0.40625q0 0.234375 -0.21875 0.421875q-0.171875 0.15625 -0.171875 0.21875q0 0.09375 0.078125 0.15625q0.09375 0.0625 0.296875 0.0625q0.4375 0 0.9375 -0.28125q0.5 -0.28125 0.890625 -0.84375q0.375 -0.546875 0.71875 -1.59375q0.140625 -0.4375 0.78125 -2.890625l1.8125 -7.046875l-1.8125 0l0.140625 -0.6875q0.875 0 1.21875 -0.125q0.34375 -0.125 0.625 -0.453125q0.28125 -0.34375 0.75 -1.265625q0.609375 -1.25 1.171875 -1.9375q0.765625 -0.921875 1.609375 -1.390625q0.859375 -0.46875 1.609375 -0.46875q0.796875 0 1.265625 0.40625q0.484375 0.40625 0.484375 0.875q0 0.359375 -0.25 0.609375q-0.234375 0.25 -0.609375 0.25q-0.3125 0 -0.515625 -0.1875q-0.203125 -0.1875 -0.203125 -0.453125q0 -0.15625 0.125 -0.40625q0.140625 -0.25 0.140625 -0.328125q0 -0.140625 -0.09375 -0.21875q-0.140625 -0.109375 -0.390625 -0.109375q-0.65625 0 -1.1875 0.421875q-0.6875 0.546875 -1.25 1.734375q-0.28125 0.609375 -1.03125 3.046875l1.53125 0z" fill-rule="nonzero"/><path fill="#000000" fill-opacity="0.0" d="m8.673228 13.580052l45.574802 0l0 43.307087l-45.574802 0z" fill-rule="evenodd"/><path fill="#000000" d="m23.406738 28.94818l0 21.859373l-0.96875 0l0 -21.859373l0.96875 0zm2.8203125 8.812498q0 -2.71875 0.8125 -4.671875q0.828125 -1.9687481 2.1875 -2.921873q1.046875 -0.765625 2.171875 -0.765625q1.828125 0 3.28125 1.859375q1.8125 2.312498 1.8125 6.265623q0 2.765625 -0.796875 4.703125q-0.796875 1.921875 -2.03125 2.796875q-1.234375 0.875 -2.375 0.875q-2.28125 0 -3.796875 -2.6875q-1.265625 -2.265625 -1.265625 -5.453125zm2.296875 0.296875q0 3.28125 0.796875 5.359375q0.671875 1.75 2.0 1.75q0.625 0 1.296875 -0.5625q0.6875 -0.578125 1.046875 -1.921875q0.53125 -2.015625 0.53125 -5.671875q0 -2.71875 -0.5625 -4.546875q-0.421875 -1.3437481 -1.078125 -1.9062481q-0.484375 -0.390625 -1.171875 -0.390625q-0.796875 0 -1.40625 0.71875q-0.84375 0.96875 -1.15625 3.062498q-0.296875 2.078125 -0.296875 4.109375z" fill-rule="nonzero"/><path fill="#000000" d="m44.60205 39.041927l-5.515625 11.328125l-1.234375 -0.59375l5.234375 -10.734375l-5.234375 -10.718748l1.234375 -0.609375l5.515625 11.328123z" fill-rule="nonzero"/><path fill="#000000" fill-opacity="0.0" d="m3.6338582 131.40683l53.133858 0l0 43.307083l-53.133858 0z" fill-rule="evenodd"/><path fill="#000000" d="m25.926422 146.77495l0 21.859375l-0.96875 0l0 -21.859375l0.96875 0zm4.7578125 2.34375l3.875 -1.890625l0.375 0l0 13.421875q0 1.328125 0.109375 1.65625q0.125 0.328125 0.46875 0.515625q0.359375 0.171875 1.4375 0.1875l0 0.4375l-5.984375 0l0 -0.4375q1.125 -0.015625 1.453125 -0.1875q0.328125 -0.171875 0.453125 -0.453125q0.140625 -0.296875 0.140625 -1.71875l0 -8.578125q0 -1.734375 -0.125 -2.234375q-0.078125 -0.375 -0.296875 -0.546875q-0.21875 -0.171875 -0.515625 -0.171875q-0.4375 0 -1.21875 0.359375l-0.171875 -0.359375z" fill-rule="nonzero"/><path fill="#000000" d="m47.121735 156.8687l-5.515625 11.328125l-1.234375 -0.59375l5.234375 -10.734375l-5.234375 -10.71875l1.234375 -0.609375l5.515625 11.328125z" fill-rule="nonzero"/><path fill="#cfe2f3" d="m81.833336 13.580052l52.34646 0l0 43.307087l-52.34646 0z" fill-rule="evenodd"/><path stroke="#000000" stroke-width="1.0" stroke-linejoin="round" stroke-linecap="butt" d="m81.833336 13.580052l52.34646 0l0 43.307087l-52.34646 0z" fill-rule="evenodd"/><path fill="#000000" d="m105.26242 34.97672l7.328125 0l1.171875 -3.937498q0.328125 -1.140625 0.328125 -1.78125q0 -0.296875 -0.15625 -0.515625q-0.140625 -0.21875 -0.453125 -0.3125q-0.296875 -0.109375 -1.1875 -0.109375l0.109375 -0.4375l6.40625 0l-0.140625 0.4375q-0.8125 -0.015625 -1.203125 0.15625q-0.5625 0.25 -0.84375 0.640625q-0.375 0.546875 -0.78125 1.921875l-2.796875 9.609373q-0.359375 1.1875 -0.359375 1.703125q0 0.453125 0.3125 0.6875q0.3125 0.21875 1.484375 0.296875l-0.125 0.4375l-6.1875 0l0.15625 -0.4375q0.921875 -0.015625 1.21875 -0.15625q0.46875 -0.21875 0.6875 -0.546875q0.296875 -0.453125 0.75 -1.984375l1.421875 -4.875l-7.359375 0l-1.453125 4.875q-0.328125 1.171875 -0.328125 1.703125q0 0.453125 0.296875 0.6875q0.3125 0.21875 1.484375 0.296875l-0.09375 0.4375l-6.25 0l0.15625 -0.4375q0.9375 -0.015625 1.234375 -0.15625q0.46875 -0.21875 0.6875 -0.546875q0.3125 -0.484375 0.75 -1.984375l2.8125 -9.609373q0.34375 -1.171875 0.34375 -1.78125q0 -0.296875 -0.15625 -0.515625q-0.140625 -0.21875 -0.453125 -0.3125q-0.296875 -0.109375 -1.203125 -0.109375l0.140625 -0.4375l6.265625 0l-0.125 0.4375q-0.78125 -0.015625 -1.15625 0.15625q-0.5625 0.234375 -0.8125 0.625q-0.359375 0.515625 -0.78125 1.9375l-1.140625 3.937498z" fill-rule="nonzero"/><path fill="#cfe2f3" d="m81.833336 131.40683l52.34646 0l0 43.307083l-52.34646 0z" fill-rule="evenodd"/><path stroke="#000000" stroke-width="1.0" stroke-linejoin="round" stroke-linecap="butt" d="m81.833336 131.40683l52.34646 0l0 43.307083l-52.34646 0z" fill-rule="evenodd"/><path fill="#000000" d="m105.26242 152.8035l7.328125 0l1.171875 -3.9375q0.328125 -1.140625 0.328125 -1.78125q0 -0.296875 -0.15625 -0.515625q-0.140625 -0.21875 -0.453125 -0.3125q-0.296875 -0.109375 -1.1875 -0.109375l0.109375 -0.4375l6.40625 0l-0.140625 0.4375q-0.8125 -0.015625 -1.203125 0.15625q-0.5625 0.25 -0.84375 0.640625q-0.375 0.546875 -0.78125 1.921875l-2.796875 9.609375q-0.359375 1.1875 -0.359375 1.703125q0 0.453125 0.3125 0.6875q0.3125 0.21875 1.484375 0.296875l-0.125 0.4375l-6.1875 0l0.15625 -0.4375q0.921875 -0.015625 1.21875 -0.15625q0.46875 -0.21875 0.6875 -0.546875q0.296875 -0.453125 0.75 -1.984375l1.421875 -4.875l-7.359375 0l-1.453125 4.875q-0.328125 1.171875 -0.328125 1.703125q0 0.453125 0.296875 0.6875q0.3125 0.21875 1.484375 0.296875l-0.09375 0.4375l-6.25 0l0.15625 -0.4375q0.9375 -0.015625 1.234375 -0.15625q0.46875 -0.21875 0.6875 -0.546875q0.3125 -0.484375 0.75 -1.984375l2.8125 -9.609375q0.34375 -1.171875 0.34375 -1.78125q0 -0.296875 -0.15625 -0.515625q-0.140625 -0.21875 -0.453125 -0.3125q-0.296875 -0.109375 -1.203125 -0.109375l0.140625 -0.4375l6.265625 0l-0.125 0.4375q-0.78125 -0.015625 -1.15625 0.15625q-0.5625 0.234375 -0.8125 0.625q-0.359375 0.515625 -0.78125 1.9375l-1.140625 3.9375z" fill-rule="nonzero"/><path fill="#000000" fill-opacity="0.0" d="m54.24803 35.233597l27.590553 0" fill-rule="evenodd"/><path stroke="#000000" stroke-width="1.0" stroke-linejoin="round" stroke-linecap="butt" d="m54.24803 35.233597l27.590553 0" fill-rule="evenodd"/><path fill="#000000" fill-opacity="0.0" d="m134.1798 35.233597l76.66141 0.50393677" fill-rule="evenodd"/><path stroke="#000000" stroke-width="1.0" stroke-linejoin="round" stroke-linecap="butt" d="m134.1798 35.233597l76.66141 0.50393677" fill-rule="evenodd"/><path fill="#000000" fill-opacity="0.0" d="m56.767715 153.06036l25.07087 0" fill-rule="evenodd"/><path stroke="#000000" stroke-width="1.0" stroke-linejoin="round" stroke-linecap="butt" d="m56.767715 153.06036l25.07087 0" fill-rule="evenodd"/><path fill="#000000" fill-opacity="0.0" d="m134.1798 152.8084l77.66928 -0.25196838" fill-rule="evenodd"/><path stroke="#000000" stroke-width="1.0" stroke-linejoin="round" stroke-linecap="butt" d="m134.1798 152.8084l77.66928 -0.25196838" fill-rule="evenodd"/><path fill="#cfe2f3" d="m390.8701 13.832021l52.346436 0l0 43.307087l-52.346436 0z" fill-rule="evenodd"/><path stroke="#000000" stroke-width="1.0" stroke-linejoin="round" stroke-linecap="butt" d="m390.8701 13.832021l52.346436 0l0 43.307087l-52.346436 0z" fill-rule="evenodd"/><path fill="#000000" d="m414.29916 35.228687l7.328125 0l1.171875 -3.937498q0.328125 -1.140625 0.328125 -1.78125q0 -0.296875 -0.15625 -0.515625q-0.140625 -0.21875 -0.453125 -0.3125q-0.296875 -0.109375 -1.1875 -0.109375l0.109375 -0.4375l6.40625 0l-0.140625 0.4375q-0.8125 -0.015625 -1.203125 0.15625q-0.5625 0.25 -0.84375 0.640625q-0.375 0.546875 -0.78125 1.921875l-2.796875 9.609373q-0.359375 1.1875 -0.359375 1.703125q0 0.453125 0.3125 0.6875q0.3125 0.21875 1.484375 0.296875l-0.125 0.4375l-6.1875 0l0.15625 -0.4375q0.921875 -0.015625 1.21875 -0.15625q0.46875 -0.21875 0.6875 -0.546875q0.296875 -0.453125 0.75 -1.984375l1.421875 -4.875l-7.359375 0l-1.453125 4.875q-0.328125 1.171875 -0.328125 1.703125q0 0.453125 0.296875 0.6875q0.3125 0.21875 1.484375 0.296875l-0.09375 0.4375l-6.25 0l0.15625 -0.4375q0.9375 -0.015625 1.234375 -0.15625q0.46875 -0.21875 0.6875 -0.546875q0.3125 -0.484375 0.75 -1.984375l2.8125 -9.609373q0.34375 -1.171875 0.34375 -1.78125q0 -0.296875 -0.15625 -0.515625q-0.140625 -0.21875 -0.453125 -0.3125q-0.296875 -0.109375 -1.203125 -0.109375l0.140625 -0.4375l6.265625 0l-0.125 0.4375q-0.78125 -0.015625 -1.15625 0.15625q-0.5625 0.234375 -0.8125 0.625q-0.359375 0.515625 -0.78125 1.9375l-1.140625 3.937498z" fill-rule="nonzero"/><path fill="#000000" fill-opacity="0.0" d="m337.7362 35.737534l53.13388 -0.25196838" fill-rule="evenodd"/><path stroke="#000000" stroke-width="1.0" stroke-linejoin="round" stroke-linecap="butt" d="m337.7362 35.737534l53.13388 -0.25196838" fill-rule="evenodd"/><path fill="#000000" fill-opacity="0.0" d="m443.21652 35.485565l45.57483 0.25196838" fill-rule="evenodd"/><path stroke="#000000" stroke-width="1.0" stroke-linejoin="round" stroke-linecap="butt" d="m443.21652 35.485565l45.57483 0.25196838" fill-rule="evenodd"/><path fill="#000000" fill-opacity="0.0" d="m337.7257 150.53018l279.87402 0.25196838" fill-rule="evenodd"/><path stroke="#000000" stroke-width="1.0" stroke-linejoin="round" stroke-linecap="butt" d="m337.7257 150.53018l279.87402 0.25196838" fill-rule="evenodd"/><path fill="#cfe2f3" d="m488.79135 13.580052l109.73227 0l0 43.307087l-109.73227 0z" fill-rule="evenodd"/><path stroke="#000000" stroke-width="1.0" stroke-linejoin="round" stroke-linecap="butt" d="m488.79135 13.580052l109.73227 0l0 43.307087l-109.73227 0z" fill-rule="evenodd"/><path fill="#000000" d="m509.72388 27.88297l1.46875 12.796873l9.21875 -12.796873l3.875 0l0 0.4375q-1.265625 0.078125 -1.484375 0.15625q-0.390625 0.15625 -0.71875 0.609375q-0.3125 0.453125 -0.6875 1.765625l-2.9375 10.078123q-0.265625 0.875 -0.265625 1.375q0 0.453125 0.3125 0.6875q0.453125 0.34375 1.40625 0.34375l0.28125 0l-0.09375 0.4375l-6.703125 0l0.125 -0.4375l0.3125 0q0.890625 0 1.359375 -0.25q0.359375 -0.1875 0.640625 -0.703125q0.296875 -0.53125 0.8125 -2.328125l2.625 -9.203123l-9.265625 12.921873l-0.46875 0l-1.484375 -12.921873l-2.84375 9.828123q-0.359375 1.25 -0.359375 1.6875q0 0.4375 0.3125 0.671875q0.3125 0.21875 1.53125 0.296875l-0.125 0.4375l-5.234375 0l0.125 -0.4375l0.3125 0q1.171875 0 1.6875 -0.578125q0.375 -0.421875 0.78125 -1.828125l3.453125 -11.859373q-0.390625 -0.390625 -0.75 -0.53125q-0.34375 -0.140625 -1.28125 -0.21875l0.109375 -0.4375l3.953125 0zm15.2421875 11.468748q-0.078125 0.59375 -0.078125 0.96875q0 1.046875 0.734375 1.78125q0.734375 0.734375 1.796875 0.734375q0.84375 0 1.625 -0.34375q0.78125 -0.34375 2.3125 -1.53125l0.25 0.34375q-2.78125 2.75 -5.296875 2.75q-1.71875 0 -2.59375 -1.078125q-0.859375 -1.078125 -0.859375 -2.375q0 -1.75 1.078125 -3.578125q1.078125 -1.828125 2.703125 -2.84375q1.640625 -1.015625 3.359375 -1.015625q1.234375 0 1.828125 0.515625q0.609375 0.5 0.609375 1.1875q0 0.96875 -0.78125 1.859375q-1.015625 1.15625 -3.0 1.875q-1.3125 0.484375 -3.6875 0.75zm0.078125 -0.578125q1.734375 -0.1875 2.828125 -0.671875q1.4375 -0.640625 2.15625 -1.53125q0.734375 -0.90625 0.734375 -1.71875q0 -0.484375 -0.3125 -0.78125q-0.3125 -0.3125 -0.890625 -0.3125q-1.1875 0 -2.53125 1.265625q-1.34375 1.265625 -1.984375 3.75zm18.980469 -5.609375l-2.28125 7.953125l-0.265625 1.0625q-0.03125 0.15625 -0.03125 0.25q0 0.1875 0.109375 0.328125q0.09375 0.109375 0.234375 0.109375q0.15625 0 0.40625 -0.1875q0.453125 -0.34375 1.21875 -1.40625l0.390625 0.28125q-0.796875 1.21875 -1.65625 1.859375q-0.859375 0.640625 -1.578125 0.640625q-0.515625 0 -0.765625 -0.25q-0.25 -0.25 -0.25 -0.734375q0 -0.578125 0.265625 -1.515625l0.234375 -0.875q-1.53125 2.0 -2.8125 2.796875q-0.9375 0.578125 -1.828125 0.578125q-0.84375 0 -1.46875 -0.703125q-0.625 -0.71875 -0.625 -1.953125q0 -1.875 1.109375 -3.9375q1.125 -2.0625 2.859375 -3.3125q1.34375 -0.984375 2.53125 -0.984375q0.71875 0 1.1875 0.375q0.484375 0.375 0.734375 1.25l0.421875 -1.34375l1.859375 -0.28125zm-4.171875 0.609375q-0.75 0 -1.59375 0.703125q-1.203125 1.0 -2.140625 2.953125q-0.921875 1.953125 -0.921875 3.546875q0 0.796875 0.390625 1.265625q0.40625 0.453125 0.921875 0.453125q1.28125 0 2.78125 -1.890625q2.0 -2.5 2.0 -5.140625q0 -1.0 -0.390625 -1.4375q-0.375 -0.453125 -1.046875 -0.453125zm13.609375 -0.609375l-0.703125 3.59375l-0.4375 0q-0.0625 -1.5625 -0.671875 -2.28125q-0.609375 -0.71875 -1.515625 -0.71875q-0.71875 0 -1.15625 0.40625q-0.421875 0.390625 -0.421875 0.953125q0 0.390625 0.171875 0.75q0.171875 0.34375 0.75 0.984375q1.515625 1.65625 1.953125 2.5q0.453125 0.84375 0.453125 1.59375q0 1.21875 -1.015625 2.171875q-1.015625 0.9375 -2.5625 0.9375q-0.84375 0 -1.9375 -0.40625q-0.390625 -0.140625 -0.59375 -0.140625q-0.53125 0 -0.796875 0.546875l-0.4375 0l0.71875 -3.796875l0.421875 0q0.078125 1.78125 0.734375 2.515625q0.671875 0.734375 1.84375 0.734375q0.890625 0 1.40625 -0.484375q0.515625 -0.5 0.515625 -1.234375q0 -0.46875 -0.1875 -0.859375q-0.328125 -0.703125 -1.375 -1.9375q-1.046875 -1.25 -1.34375 -1.875q-0.296875 -0.625 -0.296875 -1.25q0 -1.125 0.828125 -1.90625q0.828125 -0.796875 2.125 -0.796875q0.375 0 0.671875 0.0625q0.171875 0.03125 0.765625 0.265625q0.609375 0.21875 0.8125 0.21875q0.5 0 0.84375 -0.546875l0.4375 0zm11.933594 0.28125l-2.03125 6.984375q-0.46875 1.5625 -0.46875 1.96875q0 0.21875 0.078125 0.3125q0.078125 0.09375 0.203125 0.09375q0.203125 0 0.4375 -0.171875q0.25 -0.1875 1.21875 -1.453125l0.359375 0.265625q-0.9375 1.46875 -1.90625 2.15625q-0.640625 0.453125 -1.234375 0.453125q-0.46875 0 -0.734375 -0.265625q-0.25 -0.25 -0.25 -0.65625q0 -0.40625 0.15625 -1.0625q0.1875 -0.859375 1.0625 -3.765625q-1.984375 3.265625 -3.328125 4.515625q-1.34375 1.234375 -2.484375 1.234375q-0.546875 0 -0.921875 -0.375q-0.375 -0.375 -0.375 -0.953125q0 -0.875 0.515625 -2.6875l1.015625 -3.625q0.375 -1.296875 0.375 -1.625q0 -0.140625 -0.09375 -0.234375q-0.09375 -0.09375 -0.21875 -0.09375q-0.25 0 -0.5 0.171875q-0.234375 0.171875 -1.109375 1.296875l-0.359375 -0.25q0.875 -1.359375 1.859375 -2.015625q0.75 -0.5 1.390625 -0.5q0.4375 0 0.703125 0.28125q0.28125 0.265625 0.28125 0.703125q0 0.640625 -0.46875 2.265625l-1.109375 3.78125q-0.453125 1.546875 -0.453125 1.953125q0 0.234375 0.140625 0.375q0.15625 0.125 0.40625 0.125q0.375 0 1.0 -0.390625q0.625 -0.390625 1.65625 -1.71875q1.046875 -1.328125 1.71875 -2.484375q0.671875 -1.171875 1.4375 -3.71875l0.25 -0.890625l1.78125 0zm1.953125 0.375l4.046875 -0.65625l-1.6875 5.703125q2.046875 -3.515625 3.734375 -4.90625q0.9375 -0.796875 1.546875 -0.796875q0.375 0 0.59375 0.234375q0.234375 0.21875 0.234375 0.65625q0 0.78125 -0.40625 1.484375q-0.28125 0.515625 -0.796875 0.515625q-0.28125 0 -0.46875 -0.171875q-0.1875 -0.171875 -0.234375 -0.53125q-0.03125 -0.234375 -0.109375 -0.296875q-0.09375 -0.09375 -0.21875 -0.09375q-0.203125 0 -0.375 0.09375q-0.3125 0.15625 -0.9375 0.90625q-0.96875 1.15625 -2.109375 2.984375q-0.484375 0.765625 -0.84375 1.75q-0.484375 1.328125 -0.5625 1.59375l-0.375 1.484375l-1.78125 0l2.15625 -7.28125q0.375 -1.265625 0.375 -1.796875q0 -0.21875 -0.171875 -0.359375q-0.234375 -0.1875 -0.625 -0.1875q-0.234375 0 -0.890625 0.109375l-0.09375 -0.4375zm10.058594 5.53125q-0.078125 0.59375 -0.078125 0.96875q0 1.046875 0.734375 1.78125q0.734375 0.734375 1.796875 0.734375q0.84375 0 1.625 -0.34375q0.78125 -0.34375 2.3125 -1.53125l0.25 0.34375q-2.78125 2.75 -5.296875 2.75q-1.71875 0 -2.59375 -1.078125q-0.859375 -1.078125 -0.859375 -2.375q0 -1.75 1.078125 -3.578125q1.078125 -1.828125 2.703125 -2.84375q1.640625 -1.015625 3.359375 -1.015625q1.234375 0 1.828125 0.515625q0.609375 0.5 0.609375 1.1875q0 0.96875 -0.78125 1.859375q-1.015625 1.15625 -3.0 1.875q-1.3125 0.484375 -3.6875 0.75zm0.078125 -0.578125q1.734375 -0.1875 2.828125 -0.671875q1.4375 -0.640625 2.15625 -1.53125q0.734375 -0.90625 0.734375 -1.71875q0 -0.484375 -0.3125 -0.78125q-0.3125 -0.3125 -0.890625 -0.3125q-1.1875 0 -2.53125 1.265625q-1.34375 1.265625 -1.984375 3.75z" fill-rule="nonzero"/><path fill="#000000" fill-opacity="0.0" d="m598.5236 35.233597l16.251953 -0.12598419" fill-rule="evenodd"/><path stroke="#000000" stroke-width="1.0" stroke-linejoin="round" stroke-linecap="butt" d="m598.5236 35.233597l16.251953 -0.12598419" fill-rule="evenodd"/><path fill="#000000" fill-opacity="0.0" d="m212.22966 13.580052l27.590546 0l0 43.307087l-27.590546 0z" fill-rule="evenodd"/><path fill="#000000" d="m221.74208 32.1563l3.921875 0l0 0.34375q-0.375 0 -0.53125 0.125q-0.140625 0.125 -0.140625 0.328125q0 0.21875 0.3125 0.671875q0.109375 0.15625 0.3125 0.46875l0.578125 0.9375l0.6875 -0.9375q0.65625 -0.90625 0.65625 -1.140625q0 -0.203125 -0.15625 -0.328125q-0.15625 -0.125 -0.5 -0.125l0 -0.34375l2.828125 0l0 0.34375q-0.453125 0.015625 -0.78125 0.234375q-0.4375 0.3125 -1.21875 1.359375l-1.140625 1.515625l2.078125 2.984375q0.765625 1.109375 1.09375 1.328125q0.328125 0.21875 0.84375 0.25l0 0.328125l-3.921875 0l0 -0.328125q0.40625 0 0.625 -0.1875q0.171875 -0.125 0.171875 -0.328125q0 -0.21875 -0.578125 -1.0625l-1.21875 -1.78125l-1.34375 1.78125q-0.609375 0.828125 -0.609375 0.984375q0 0.21875 0.203125 0.40625q0.203125 0.171875 0.609375 0.1875l0 0.328125l-2.71875 0l0 -0.328125q0.328125 -0.046875 0.578125 -0.234375q0.34375 -0.25 1.15625 -1.34375l1.75 -2.328125l-1.578125 -2.28125q-0.671875 -0.984375 -1.046875 -1.234375q-0.375 -0.25 -0.921875 -0.25l0 -0.34375z" fill-rule="nonzero"/><path fill="#000000" fill-opacity="0.0" d="m211.84645 129.38058l27.59056 0l0 43.307083l-27.59056 0z" fill-rule="evenodd"/><path fill="#000000" d="m221.21826 147.95683l3.890625 0l0 0.34375l-0.1875 0q-0.421875 0 -0.625 0.171875q-0.203125 0.171875 -0.203125 0.4375q0 0.359375 0.296875 0.984375l2.03125 4.203125l1.875 -4.609375q0.15625 -0.359375 0.15625 -0.734375q0 -0.15625 -0.0625 -0.234375q-0.078125 -0.109375 -0.234375 -0.15625q-0.15625 -0.0625 -0.546875 -0.0625l0 -0.34375l2.71875 0l0 0.34375q-0.34375 0.03125 -0.53125 0.140625q-0.171875 0.109375 -0.390625 0.40625q-0.078125 0.125 -0.3125 0.703125l-3.390625 8.328125q-0.5 1.203125 -1.296875 1.828125q-0.796875 0.625 -1.53125 0.625q-0.53125 0 -0.890625 -0.3125q-0.34375 -0.3125 -0.34375 -0.71875q0 -0.375 0.25 -0.609375q0.25 -0.234375 0.6875 -0.234375q0.3125 0 0.828125 0.203125q0.359375 0.140625 0.453125 0.140625q0.28125 0 0.59375 -0.28125q0.328125 -0.28125 0.65625 -1.09375l0.59375 -1.453125l-3.0 -6.296875q-0.140625 -0.28125 -0.4375 -0.703125q-0.234375 -0.3125 -0.375 -0.421875q-0.203125 -0.140625 -0.671875 -0.25l0 -0.34375z" fill-rule="nonzero"/><path fill="#000000" fill-opacity="0.0" d="m309.1404 13.580052l27.590546 0l0 43.307087l-27.590546 0z" fill-rule="evenodd"/><path fill="#000000" d="m318.65283 32.1563l3.921875 0l0 0.34375q-0.375 0 -0.53125 0.125q-0.140625 0.125 -0.140625 0.328125q0 0.21875 0.3125 0.671875q0.109375 0.15625 0.3125 0.46875l0.578125 0.9375l0.6875 -0.9375q0.65625 -0.90625 0.65625 -1.140625q0 -0.203125 -0.15625 -0.328125q-0.15625 -0.125 -0.5 -0.125l0 -0.34375l2.828125 0l0 0.34375q-0.453125 0.015625 -0.78125 0.234375q-0.4375 0.3125 -1.21875 1.359375l-1.140625 1.515625l2.078125 2.984375q0.765625 1.109375 1.09375 1.328125q0.328125 0.21875 0.84375 0.25l0 0.328125l-3.921875 0l0 -0.328125q0.40625 0 0.625 -0.1875q0.171875 -0.125 0.171875 -0.328125q0 -0.21875 -0.578125 -1.0625l-1.21875 -1.78125l-1.34375 1.78125q-0.609375 0.828125 -0.609375 0.984375q0 0.21875 0.203125 0.40625q0.203125 0.171875 0.609375 0.1875l0 0.328125l-2.71875 0l0 -0.328125q0.328125 -0.046875 0.578125 -0.234375q0.34375 -0.25 1.15625 -1.34375l1.75 -2.328125l-1.578125 -2.28125q-0.671875 -0.984375 -1.046875 -1.234375q-0.375 -0.25 -0.921875 -0.25l0 -0.34375z" fill-rule="nonzero"/><path fill="#000000" fill-opacity="0.0" d="m242.0302 129.38058l93.10237 0l0 43.307083l-93.10237 0z" fill-rule="evenodd"/><path fill="#000000" d="m279.44766 147.95683l3.890625 0l0 0.34375l-0.1875 0q-0.421875 0 -0.625 0.171875q-0.203125 0.171875 -0.203125 0.4375q0 0.359375 0.296875 0.984375l2.03125 4.203125l1.875 -4.609375q0.15625 -0.359375 0.15625 -0.734375q0 -0.15625 -0.0625 -0.234375q-0.078125 -0.109375 -0.234375 -0.15625q-0.15625 -0.0625 -0.546875 -0.0625l0 -0.34375l2.71875 0l0 0.34375q-0.34375 0.03125 -0.53125 0.140625q-0.171875 0.109375 -0.390625 0.40625q-0.078125 0.125 -0.3125 0.703125l-3.390625 8.328125q-0.5 1.203125 -1.296875 1.828125q-0.796875 0.625 -1.53125 0.625q-0.53125 0 -0.890625 -0.3125q-0.34375 -0.3125 -0.34375 -0.71875q0 -0.375 0.25 -0.609375q0.25 -0.234375 0.6875 -0.234375q0.3125 0 0.828125 0.203125q0.359375 0.140625 0.453125 0.140625q0.28125 0 0.59375 -0.28125q0.328125 -0.28125 0.65625 -1.09375l0.59375 -1.453125l-3.0 -6.296875q-0.140625 -0.28125 -0.4375 -0.703125q-0.234375 -0.3125 -0.375 -0.421875q-0.203125 -0.140625 -0.671875 -0.25l0 -0.34375z" fill-rule="nonzero"/><path fill="#000000" d="m293.63516 149.69121l0 2.75l-0.515625 0l0 -2.75l-2.75 0l0 -0.515625l2.75 0l0 -2.75l0.515625 0l0 2.75l2.75 0l0 0.515625l-2.75 0zm-0.21875 3.421875q1.484375 0 2.59375 -1.125q1.046875 -1.03125 1.046875 -2.515625q0 -1.484375 -1.046875 -2.53125q-1.109375 -1.109375 -2.59375 -1.109375q-1.484375 0 -2.59375 1.109375q-1.046875 1.046875 -1.046875 2.53125q0 1.484375 1.046875 2.515625q1.109375 1.125 2.59375 1.125zm3.046875 -0.828125q-1.34375 1.34375 -3.046875 1.34375q-1.703125 0 -2.96875 -1.265625q-1.1875 -1.1875 -1.1875 -2.890625q0 -1.703125 1.109375 -2.828125q1.34375 -1.328125 3.046875 -1.328125q1.703125 0 2.96875 1.265625q1.1875 1.1875 1.1875 2.890625q0 1.703125 -1.109375 2.8125z" fill-rule="nonzero"/><path fill="#000000" d="m302.01016 148.61308l0 5.484375q0 1.171875 0.25 1.46875q0.34375 0.40625 0.90625 0.40625l0.75 0l0 0.328125l-4.96875 0l0 -0.328125l0.359375 0q0.375 0 0.671875 -0.171875q0.296875 -0.1875 0.40625 -0.5q0.125 -0.3125 0.125 -1.203125l0 -5.484375l-1.625 0l0 -0.65625l1.625 0l0 -0.546875q0 -1.25 0.390625 -2.109375q0.40625 -0.875 1.234375 -1.40625q0.828125 -0.53125 1.859375 -0.53125q0.953125 0 1.75 0.625q0.53125 0.40625 0.53125 0.921875q0 0.265625 -0.234375 0.515625q-0.234375 0.234375 -0.515625 0.234375q-0.203125 0 -0.4375 -0.140625q-0.234375 -0.15625 -0.578125 -0.65625q-0.328125 -0.5 -0.609375 -0.671875q-0.28125 -0.171875 -0.640625 -0.171875q-0.40625 0 -0.703125 0.234375q-0.296875 0.21875 -0.421875 0.6875q-0.125 0.46875 -0.125 2.40625l0 0.609375l2.15625 0l0 0.65625l-2.15625 0zm8.165802 11.34375l0 0.328125q-1.375 -0.6875 -2.296875 -1.609375q-1.3125 -1.328125 -2.03125 -3.125q-0.703125 -1.796875 -0.703125 -3.71875q0 -2.828125 1.390625 -5.15625q1.390625 -2.328125 3.640625 -3.328125l0 0.375q-1.125 0.625 -1.84375 1.703125q-0.71875 1.078125 -1.078125 2.734375q-0.359375 1.640625 -0.359375 3.4375q0 1.9375 0.3125 3.53125q0.234375 1.265625 0.5625 2.015625q0.34375 0.765625 0.90625 1.46875q0.578125 0.703125 1.5 1.34375zm0.665802 -12.0l3.921875 0l0 0.34375q-0.375 0 -0.53125 0.125q-0.140625 0.125 -0.140625 0.328125q0 0.21875 0.3125 0.671875q0.109375 0.15625 0.3125 0.46875l0.578125 0.9375l0.6875 -0.9375q0.65625 -0.90625 0.65625 -1.140625q0 -0.203125 -0.15625 -0.328125q-0.15625 -0.125 -0.5 -0.125l0 -0.34375l2.828125 0l0 0.34375q-0.453125 0.015625 -0.78125 0.234375q-0.4375 0.3125 -1.21875 1.359375l-1.140625 1.515625l2.078125 2.984375q0.765625 1.109375 1.09375 1.328125q0.328125 0.21875 0.84375 0.25l0 0.328125l-3.921875 0l0 -0.328125q0.40625 0 0.625 -0.1875q0.171875 -0.125 0.171875 -0.328125q0 -0.21875 -0.578125 -1.0625l-1.21875 -1.78125l-1.34375 1.78125q-0.609375 0.828125 -0.609375 0.984375q0 0.21875 0.203125 0.40625q0.203125 0.171875 0.609375 0.1875l0 0.328125l-2.71875 0l0 -0.328125q0.328125 -0.046875 0.578125 -0.234375q0.34375 -0.25 1.15625 -1.34375l1.75 -2.328125l-1.578125 -2.28125q-0.671875 -0.984375 -1.046875 -1.234375q-0.375 -0.25 -0.921875 -0.25l0 -0.34375zm9.5 -4.234375l0 -0.375q1.375 0.6875 2.296875 1.609375q1.3125 1.328125 2.015625 3.125q0.71875 1.78125 0.71875 3.734375q0 2.8125 -1.390625 5.140625q-1.390625 2.328125 -3.640625 3.328125l0 -0.328125q1.125 -0.625 1.84375 -1.703125q0.71875 -1.0625 1.0625 -2.71875q0.359375 -1.65625 0.359375 -3.453125q0 -1.9375 -0.296875 -3.546875q-0.234375 -1.25 -0.578125 -2.0q-0.328125 -0.765625 -0.90625 -1.46875q-0.5625 -0.703125 -1.484375 -1.34375z" fill-rule="nonzero"/><path fill="#000000" fill-opacity="0.0" d="m62.42651 185.979l-0.40945053 -179.65355" fill-rule="evenodd"/><path stroke="#000000" stroke-width="1.0" stroke-linejoin="round" stroke-linecap="butt" stroke-dasharray="4.0,3.0" d="m62.42651 185.979l-0.40945053 -179.65355" fill-rule="evenodd"/><path fill="#000000" fill-opacity="0.0" d="m45.576115 188.03412l33.29134 0l0 38.771652l-33.29134 0z" fill-rule="evenodd"/><path fill="#000000" d="m58.701115 211.1285l0.203125 1.25q-0.59375 0.125 -1.0625 0.125q-0.765625 0 -1.1875 -0.234375q-0.421875 -0.25 -0.59375 -0.640625q-0.171875 -0.40625 -0.171875 -1.671875l0 -4.765625l-1.03125 0l0 -1.09375l1.03125 0l0 -2.0625l1.40625 -0.84375l0 2.90625l1.40625 0l0 1.09375l-1.40625 0l0 4.84375q0 0.609375 0.0625 0.78125q0.078125 0.171875 0.25 0.28125q0.171875 0.09375 0.484375 0.09375q0.234375 0 0.609375 -0.0625zm0.9921875 -4.390625q0 -2.03125 0.40625 -3.265625q0.421875 -1.234375 1.25 -1.90625q0.828125 -0.671875 2.078125 -0.671875q0.9218788 0 1.6093788 0.375q0.703125 0.359375 1.15625 1.0625q0.453125 0.703125 0.703125 1.703125q0.265625 1.0 0.265625 2.703125q0 2.015625 -0.421875 3.265625q-0.40625 1.234375 -1.234375 1.921875q-0.828125 0.671875 -2.0781288 0.671875q-1.65625 0 -2.609375 -1.203125q-1.125 -1.421875 -1.125 -4.65625zm1.4375 0q0 2.828125 0.65625 3.765625q0.671875 0.921875 1.640625 0.921875q0.9687538 0 1.6250038 -0.9375q0.65625 -0.9375 0.65625 -3.75q0 -2.828125 -0.65625 -3.75q-0.65625 -0.9375 -1.6406288 -0.9375q-0.96875 0 -1.546875 0.828125q-0.734375 1.046875 -0.734375 3.859375z" fill-rule="nonzero"/><path fill="#000000" fill-opacity="0.0" d="m169.29527 188.03412l33.291336 0l0 38.771652l-33.291336 0z" fill-rule="evenodd"/><path fill="#000000" d="m182.42027 211.1285l0.203125 1.25q-0.59375 0.125 -1.0625 0.125q-0.765625 0 -1.1875 -0.234375q-0.421875 -0.25 -0.59375 -0.640625q-0.171875 -0.40625 -0.171875 -1.671875l0 -4.765625l-1.03125 0l0 -1.09375l1.03125 0l0 -2.0625l1.40625 -0.84375l0 2.90625l1.40625 0l0 1.09375l-1.40625 0l0 4.84375q0 0.609375 0.0625 0.78125q0.078125 0.171875 0.25 0.28125q0.171875 0.09375 0.484375 0.09375q0.234375 0 0.609375 -0.0625zm6.2890625 1.265625l-1.40625 0l0 -8.96875q-0.515625 0.484375 -1.34375 0.96875q-0.8125 0.484375 -1.46875 0.734375l0 -1.359375q1.171875 -0.5625 2.046875 -1.34375q0.890625 -0.796875 1.265625 -1.53125l0.90625 0l0 11.5z" fill-rule="nonzero"/><path fill="#000000" fill-opacity="0.0" d="m185.98819 185.979l-0.40945435 -179.65355" fill-rule="evenodd"/><path stroke="#000000" stroke-width="1.0" stroke-linejoin="round" stroke-linecap="butt" stroke-dasharray="4.0,3.0" d="m185.98819 185.979l-0.40945435 -179.65355" fill-rule="evenodd"/><path fill="#000000" fill-opacity="0.0" d="m364.00525 185.979l-0.40945435 -179.65355" fill-rule="evenodd"/><path stroke="#000000" stroke-width="1.0" stroke-linejoin="round" stroke-linecap="butt" stroke-dasharray="4.0,3.0" d="m364.00525 185.979l-0.40945435 -179.65355" fill-rule="evenodd"/><path fill="#000000" fill-opacity="0.0" d="m347.15616 185.979l33.29135 0l0 38.771652l-33.29135 0z" fill-rule="evenodd"/><path fill="#000000" d="m360.28116 209.07338l0.203125 1.25q-0.59375 0.125 -1.0625 0.125q-0.765625 0 -1.1875 -0.234375q-0.421875 -0.25 -0.59375 -0.640625q-0.171875 -0.40625 -0.171875 -1.671875l0 -4.765625l-1.03125 0l0 -1.09375l1.03125 0l0 -2.0625l1.40625 -0.84375l0 2.90625l1.40625 0l0 1.09375l-1.40625 0l0 4.84375q0 0.609375 0.0625 0.78125q0.078125 0.171875 0.25 0.28125q0.171875 0.09375 0.484375 0.09375q0.234375 0 0.609375 -0.0625zm8.3828125 -0.09375l0 1.359375l-7.578125 0q-0.015625 -0.515625 0.171875 -0.984375q0.28125 -0.765625 0.921875 -1.515625q0.640625 -0.75 1.84375 -1.734375q1.859375 -1.53125 2.515625 -2.421875q0.65625 -0.90625 0.65625 -1.703125q0 -0.828125 -0.59375 -1.40625q-0.59375 -0.578125 -1.5625 -0.578125q-1.015625 0 -1.625 0.609375q-0.609375 0.609375 -0.609375 1.6875l-1.453125 -0.140625q0.15625 -1.625 1.125 -2.46875q0.96875 -0.84375 2.59375 -0.84375q1.65625 0 2.609375 0.921875q0.96875 0.90625 0.96875 2.25q0 0.6875 -0.28125 1.359375q-0.28125 0.65625 -0.9375 1.390625q-0.65625 0.734375 -2.171875 2.015625q-1.265625 1.0625 -1.625 1.453125q-0.359375 0.375 -0.59375 0.75l5.625 0z" fill-rule="nonzero"/><path fill="#000000" fill-opacity="0.0" d="m460.72046 185.979l33.29135 0l0 38.771652l-33.29135 0z" fill-rule="evenodd"/><path fill="#000000" d="m473.84546 209.07338l0.203125 1.25q-0.59375 0.125 -1.0625 0.125q-0.765625 0 -1.1875 -0.234375q-0.421875 -0.25 -0.59375 -0.640625q-0.171875 -0.40625 -0.171875 -1.671875l0 -4.765625l-1.03125 0l0 -1.09375l1.03125 0l0 -2.0625l1.40625 -0.84375l0 2.90625l1.40625 0l0 1.09375l-1.40625 0l0 4.84375q0 0.609375 0.0625 0.78125q0.078125 0.171875 0.25 0.28125q0.171875 0.09375 0.484375 0.09375q0.234375 0 0.609375 -0.0625zm0.9921875 -1.765625l1.40625 -0.1875q0.25 1.203125 0.828125 1.734375q0.578125 0.515625 1.421875 0.515625q0.984375 0 1.671875 -0.6875q0.6875 -0.6875 0.6875 -1.703125q0 -0.96875 -0.640625 -1.59375q-0.625 -0.625 -1.609375 -0.625q-0.390625 0 -0.984375 0.15625l0.15625 -1.234375q0.140625 0.015625 0.21875 0.015625q0.90625 0 1.625 -0.46875q0.71875 -0.46875 0.71875 -1.453125q0 -0.765625 -0.53125 -1.265625q-0.515625 -0.515625 -1.34375 -0.515625q-0.828125 0 -1.375 0.515625q-0.546875 0.515625 -0.703125 1.546875l-1.40625 -0.25q0.265625 -1.421875 1.171875 -2.1875q0.921875 -0.78125 2.28125 -0.78125q0.9375 0 1.71875 0.40625q0.796875 0.390625 1.203125 1.09375q0.421875 0.6875 0.421875 1.46875q0 0.75 -0.40625 1.359375q-0.390625 0.609375 -1.171875 0.96875q1.015625 0.234375 1.578125 0.96875q0.5625 0.734375 0.5625 1.84375q0 1.5 -1.09375 2.546875q-1.09375 1.046875 -2.765625 1.046875q-1.5 0 -2.5 -0.890625q-1.0 -0.90625 -1.140625 -2.34375z" fill-rule="nonzero"/><path fill="#000000" fill-opacity="0.0" d="m477.56955 188.03412l-0.40945435 -179.65353" fill-rule="evenodd"/><path stroke="#000000" stroke-width="1.0" stroke-linejoin="round" stroke-linecap="butt" stroke-dasharray="4.0,3.0" d="m477.56955 188.03412l-0.40945435 -179.65353" fill-rule="evenodd"/></g></svg>