<svg version="1.1" viewBox="0.0 0.0 809.498687664042 276.2834645669291" fill="none" stroke="none" stroke-linecap="square" stroke-miterlimit="10" xmlns:xlink="http://www.w3.org/1999/xlink" xmlns="http://www.w3.org/2000/svg"><clipPath id="p.0"><path d="m0 0l809.49866 0l0 276.28348l-809.49866 0l0 -276.28348z" clip-rule="nonzero"/></clipPath><g clip-path="url(#p.0)"><path fill="#ffffff" d="m0 0l809.49866 0l0 276.28348l-809.49866 0z" fill-rule="evenodd"/><path fill="#cfe2f3" d="m208.21523 61.535435l124.88188 0l0 161.13387l-124.88188 0z" fill-rule="evenodd"/><path stroke="#000000" stroke-width="1.0" stroke-linejoin="round" stroke-linecap="butt" d="m208.21523 61.535435l124.88188 0l0 161.13387l-124.88188 0z" fill-rule="evenodd"/><path fill="#000000" d="m260.32617 132.63486l8.953125 0l-0.171875 0.578125q-1.375 0.03125 -1.96875 0.265625q-0.578125 0.21875 -1.0 0.796875q-0.40625 0.578125 -0.859375 2.140625l-2.171875 7.5q-0.578125 2.0 -0.6875 2.625q-0.1875 1.0 -0.1875 1.859375q0 1.890625 1.40625 3.203125q1.40625 1.296875 3.765625 1.296875q1.546875 0 2.765625 -0.578125q1.21875 -0.59375 2.0780945 -1.640625q0.875 -1.0625 1.59375 -2.859375q0.71875 -1.8125 1.265625 -3.65625l1.875 -6.46875q0.703125 -2.421875 0.703125 -3.15625q0 -0.515625 -0.484375 -0.875q-0.46875 -0.375 -1.921875 -0.453125l0.171875 -0.578125l6.734375 0l-0.171875 0.578125q-1.1875 0 -1.71875 0.234375q-0.515625 0.21875 -0.90625 0.8125q-0.390625 0.578125 -0.875 2.265625l-2.296875 7.859375q-1.109375 3.828125 -2.09375 5.65625q-0.984375 1.8125 -2.8593445 3.046875q-1.859375 1.21875 -4.625 1.21875q-3.1875 0 -5.140625 -1.796875q-1.953125 -1.8125 -1.953125 -4.140625q0 -0.921875 0.171875 -1.96875q0.125 -0.6875 0.609375 -2.375l2.09375 -7.203125q0.4375 -1.5625 0.4375 -2.296875q0 -0.578125 -0.453125 -0.890625q-0.4375 -0.328125 -2.234375 -0.421875l0.15625 -0.578125z" fill-rule="nonzero"/><path fill="#000000" d="m285.56052 156.65048l-0.1875 0.6875l-1.515625 0l-1.140625 4.546875q-0.765625 3.015625 -1.53125 4.65625q-1.09375 2.328125 -2.359375 3.203125q-0.953125 0.6875 -1.921875 0.6875q-0.625 0 -1.0625 -0.375q-0.3125 -0.265625 -0.3125 -0.6875q0 -0.328125 0.265625 -0.578125q0.265625 -0.234375 0.640625 -0.234375q0.28125 0 0.484375 0.171875q0.1875 0.171875 0.1875 0.40625q0 0.234375 -0.21875 0.421875q-0.171875 0.15625 -0.171875 0.21875q0 0.09375 0.078125 0.15625q0.09375 0.0625 0.296875 0.0625q0.4375 0 0.9375 -0.28125q0.5 -0.28125 0.890625 -0.84375q0.375 -0.546875 0.71875 -1.59375q0.140625 -0.4375 0.78125 -2.890625l1.8125 -7.046875l-1.8125 0l0.140625 -0.6875q0.875 0 1.21875 -0.125q0.34375 -0.125 0.625 -0.453125q0.28125 -0.34375 0.75 -1.265625q0.609375 -1.25 1.171875 -1.9375q0.765625 -0.921875 1.609375 -1.390625q0.859375 -0.46875 1.609375 -0.46875q0.796875 0 1.265625 0.40625q0.484375 0.40625 0.484375 0.875q0 0.359375 -0.25 0.609375q-0.234375 0.25 -0.609375 0.25q-0.3125 0 -0.515625 -0.1875q-0.203125 -0.1875 -0.203125 -0.453125q0 -0.15625 0.125 -0.40625q0.140625 -0.25 0.140625 -0.328125q0 -0.140625 -0.09375 -0.21875q-0.140625 -0.109375 -0.390625 -0.109375q-0.65625 0 -1.1875 0.421875q-0.6875 0.546875 -1.25 1.734375q-0.28125 0.609375 -1.03125 3.046875l1.53125 0z" fill-rule="nonzero"/><path fill="#000000" fill-opacity="0.0" d="m5.03937 61.535435l45.574802 0l0 43.307087l-45.574802 0z" fill-rule="evenodd"/><path fill="#000000" d="m19.772879 76.90356l0 21.859375l-0.96875 0l0 -21.859375l0.96875 0zm2.8203125 8.8125q0 -2.71875 0.8125 -4.671875q0.828125 -1.96875 2.1875 -2.921875q1.046875 -0.765625 2.171875 -0.765625q1.828125 0 3.28125 1.859375q1.8125019 2.3125 1.8125019 6.265625q0 2.765625 -0.796875 4.703125q-0.7968769 1.921875 -2.031252 2.796875q-1.234375 0.875 -2.375 0.875q-2.28125 0 -3.796875 -2.6875q-1.265625 -2.265625 -1.265625 -5.453125zm2.296875 0.296875q0 3.28125 0.796875 5.359375q0.671875 1.75 2.0 1.75q0.625 0 1.296875 -0.5625q0.6875 -0.578125 1.046875 -1.921875q0.53125 -2.015625 0.53125 -5.671875q0 -2.71875 -0.5625 -4.546875q-0.421875 -1.34375 -1.078125 -1.90625q-0.484375 -0.390625 -1.171875 -0.390625q-0.796875 0 -1.40625 0.71875q-0.84375 0.96875 -1.15625 3.0625q-0.296875 2.078125 -0.296875 4.109375z" fill-rule="nonzero"/><path fill="#000000" d="m40.968193 86.99731l-5.515625 11.328125l-1.234375 -0.59375l5.234375 -10.734375l-5.234375 -10.71875l1.234375 -0.609375l5.515625 11.328125z" fill-rule="nonzero"/><path fill="#000000" fill-opacity="0.0" d="m0 179.3622l53.133858 0l0 43.3071l-53.133858 0z" fill-rule="evenodd"/><path fill="#000000" d="m22.292564 194.73033l0 21.859375l-0.96875 0l0 -21.859375l0.96875 0zm4.7578125 2.34375l3.875 -1.890625l0.375 0l0 13.421875q0 1.328125 0.109375 1.65625q0.125 0.328125 0.46875 0.515625q0.359375 0.171875 1.4375 0.1875l0 0.4375l-5.984375 0l0 -0.4375q1.125 -0.015625 1.453125 -0.1875q0.328125 -0.171875 0.453125 -0.453125q0.140625 -0.296875 0.140625 -1.71875l0 -8.578125q0 -1.734375 -0.125 -2.234375q-0.078125 -0.375 -0.296875 -0.546875q-0.21875 -0.171875 -0.515625 -0.171875q-0.4375 0 -1.21875 0.359375l-0.171875 -0.359375z" fill-rule="nonzero"/><path fill="#000000" d="m43.487877 204.82408l-5.515625 11.328125l-1.234375 -0.59375l5.234375 -10.734375l-5.234375 -10.71875l1.234375 -0.609375l5.515625 11.328125z" fill-rule="nonzero"/><path fill="#cfe2f3" d="m78.19948 61.535435l52.34645 0l0 43.307087l-52.34645 0z" fill-rule="evenodd"/><path stroke="#000000" stroke-width="1.0" stroke-linejoin="round" stroke-linecap="butt" d="m78.19948 61.535435l52.34645 0l0 43.307087l-52.34645 0z" fill-rule="evenodd"/><path fill="#000000" d="m101.62856 82.9321l7.328125 0l1.171875 -3.9375q0.328125 -1.140625 0.328125 -1.78125q0 -0.296875 -0.15625 -0.515625q-0.140625 -0.21875 -0.453125 -0.3125q-0.296875 -0.109375 -1.1875 -0.109375l0.109375 -0.4375l6.40625 0l-0.140625 0.4375q-0.8125 -0.015625 -1.203125 0.15625q-0.5625 0.25 -0.84375 0.640625q-0.375 0.546875 -0.78125 1.921875l-2.796875 9.609375q-0.359375 1.1875 -0.359375 1.703125q0 0.453125 0.3125 0.6875q0.3125 0.21875 1.484375 0.296875l-0.125 0.4375l-6.1875 0l0.15625 -0.4375q0.921875 -0.015625 1.21875 -0.15625q0.46875 -0.21875 0.6875 -0.546875q0.296875 -0.453125 0.75 -1.984375l1.421875 -4.875l-7.359375 0l-1.453125 4.875q-0.328125 1.171875 -0.328125 1.703125q0 0.453125 0.296875 0.6875q0.3125 0.21875 1.484375 0.296875l-0.09375 0.4375l-6.25 0l0.15625 -0.4375q0.9375 -0.015625 1.234375 -0.15625q0.46875 -0.21875 0.6875 -0.546875q0.3125 -0.484375 0.75 -1.984375l2.8125 -9.609375q0.34375 -1.171875 0.34375 -1.78125q0 -0.296875 -0.15625 -0.515625q-0.140625 -0.21875 -0.453125 -0.3125q-0.296875 -0.109375 -1.203125 -0.109375l0.140625 -0.4375l6.265625 0l-0.125 0.4375q-0.78125 -0.015625 -1.15625 0.15625q-0.5625 0.234375 -0.8125 0.625q-0.359375 0.515625 -0.78125 1.9375l-1.140625 3.9375z" fill-rule="nonzero"/><path fill="#cfe2f3" d="m78.19948 179.3622l52.34645 0l0 43.3071l-52.34645 0z" fill-rule="evenodd"/><path stroke="#000000" stroke-width="1.0" stroke-linejoin="round" stroke-linecap="butt" d="m78.19948 179.3622l52.34645 0l0 43.3071l-52.34645 0z" fill-rule="evenodd"/><path fill="#000000" d="m101.62856 200.75887l7.328125 0l1.171875 -3.9375q0.328125 -1.140625 0.328125 -1.78125q0 -0.296875 -0.15625 -0.515625q-0.140625 -0.21875 -0.453125 -0.3125q-0.296875 -0.109375 -1.1875 -0.109375l0.109375 -0.4375l6.40625 0l-0.140625 0.4375q-0.8125 -0.015625 -1.203125 0.15625q-0.5625 0.25 -0.84375 0.640625q-0.375 0.546875 -0.78125 1.921875l-2.796875 9.609375q-0.359375 1.1875 -0.359375 1.703125q0 0.453125 0.3125 0.6875q0.3125 0.21875 1.484375 0.296875l-0.125 0.4375l-6.1875 0l0.15625 -0.4375q0.921875 -0.015625 1.21875 -0.15625q0.46875 -0.21875 0.6875 -0.546875q0.296875 -0.453125 0.75 -1.984375l1.421875 -4.875l-7.359375 0l-1.453125 4.875q-0.328125 1.171875 -0.328125 1.703125q0 0.453125 0.296875 0.6875q0.3125 0.21875 1.484375 0.296875l-0.09375 0.4375l-6.25 0l0.15625 -0.4375q0.9375 -0.015625 1.234375 -0.15625q0.46875 -0.21875 0.6875 -0.546875q0.3125 -0.484375 0.75 -1.984375l2.8125 -9.609375q0.34375 -1.171875 0.34375 -1.78125q0 -0.296875 -0.15625 -0.515625q-0.140625 -0.21875 -0.453125 -0.3125q-0.296875 -0.109375 -1.203125 -0.109375l0.140625 -0.4375l6.265625 0l-0.125 0.4375q-0.78125 -0.015625 -1.15625 0.15625q-0.5625 0.234375 -0.8125 0.625q-0.359375 0.515625 -0.78125 1.9375l-1.140625 3.9375z" fill-rule="nonzero"/><path fill="#000000" fill-opacity="0.0" d="m50.614174 83.18898l27.590553 0" fill-rule="evenodd"/><path stroke="#000000" stroke-width="1.0" stroke-linejoin="round" stroke-linecap="butt" d="m50.614174 83.18898l27.590553 0" fill-rule="evenodd"/><path fill="#000000" fill-opacity="0.0" d="m130.54593 83.18898l76.66142 0.50393677" fill-rule="evenodd"/><path stroke="#000000" stroke-width="1.0" stroke-linejoin="round" stroke-linecap="butt" d="m130.54593 83.18898l76.66142 0.50393677" fill-rule="evenodd"/><path fill="#000000" fill-opacity="0.0" d="m53.133858 201.01575l25.07087 0" fill-rule="evenodd"/><path stroke="#000000" stroke-width="1.0" stroke-linejoin="round" stroke-linecap="butt" d="m53.133858 201.01575l25.07087 0" fill-rule="evenodd"/><path fill="#000000" fill-opacity="0.0" d="m130.54593 200.76378l77.6693 -0.25196838" fill-rule="evenodd"/><path stroke="#000000" stroke-width="1.0" stroke-linejoin="round" stroke-linecap="butt" d="m130.54593 200.76378l77.6693 -0.25196838" fill-rule="evenodd"/><path fill="#cfe2f3" d="m387.2362 61.787403l52.346466 0l0 43.307087l-52.346466 0z" fill-rule="evenodd"/><path stroke="#000000" stroke-width="1.0" stroke-linejoin="round" stroke-linecap="butt" d="m387.2362 61.787403l52.346466 0l0 43.307087l-52.346466 0z" fill-rule="evenodd"/><path fill="#000000" d="m410.6653 83.18407l7.328125 0l1.171875 -3.9375q0.328125 -1.140625 0.328125 -1.78125q0 -0.296875 -0.15625 -0.515625q-0.140625 -0.21875 -0.453125 -0.3125q-0.296875 -0.109375 -1.1875 -0.109375l0.109375 -0.4375l6.40625 0l-0.140625 0.4375q-0.8125 -0.015625 -1.203125 0.15625q-0.5625 0.25 -0.84375 0.640625q-0.375 0.546875 -0.78125 1.921875l-2.796875 9.609375q-0.359375 1.1875 -0.359375 1.703125q0 0.453125 0.3125 0.6875q0.3125 0.21875 1.484375 0.296875l-0.125 0.4375l-6.1875 0l0.15625 -0.4375q0.921875 -0.015625 1.21875 -0.15625q0.46875 -0.21875 0.6875 -0.546875q0.296875 -0.453125 0.75 -1.984375l1.421875 -4.875l-7.359375 0l-1.453125 4.875q-0.328125 1.171875 -0.328125 1.703125q0 0.453125 0.296875 0.6875q0.3125 0.21875 1.484375 0.296875l-0.09375 0.4375l-6.25 0l0.15625 -0.4375q0.9375 -0.015625 1.234375 -0.15625q0.46875 -0.21875 0.6875 -0.546875q0.3125 -0.484375 0.75 -1.984375l2.8125 -9.609375q0.34375 -1.171875 0.34375 -1.78125q0 -0.296875 -0.15625 -0.515625q-0.140625 -0.21875 -0.453125 -0.3125q-0.296875 -0.109375 -1.203125 -0.109375l0.140625 -0.4375l6.265625 0l-0.125 0.4375q-0.78125 -0.015625 -1.15625 0.15625q-0.5625 0.234375 -0.8125 0.625q-0.359375 0.515625 -0.78125 1.9375l-1.140625 3.9375z" fill-rule="nonzero"/><path fill="#000000" fill-opacity="0.0" d="m334.10236 83.69292l53.13385 -0.25196838" fill-rule="evenodd"/><path stroke="#000000" stroke-width="1.0" stroke-linejoin="round" stroke-linecap="butt" d="m334.10236 83.69292l53.13385 -0.25196838" fill-rule="evenodd"/><path fill="#000000" fill-opacity="0.0" d="m439.58267 83.44095l45.5748 0.25196838" fill-rule="evenodd"/><path stroke="#000000" stroke-width="1.0" stroke-linejoin="round" stroke-linecap="butt" d="m439.58267 83.44095l45.5748 0.25196838" fill-rule="evenodd"/><path fill="#000000" fill-opacity="0.0" d="m334.09186 198.48557l294.04724 1.0078735" fill-rule="evenodd"/><path stroke="#000000" stroke-width="1.0" stroke-linejoin="round" stroke-linecap="butt" d="m334.09186 198.48557l294.04724 1.0078735" fill-rule="evenodd"/><path fill="#cfe2f3" d="m485.15747 61.535435l109.7323 0l0 43.307087l-109.7323 0z" fill-rule="evenodd"/><path stroke="#000000" stroke-width="1.0" stroke-linejoin="round" stroke-linecap="butt" d="m485.15747 61.535435l109.7323 0l0 43.307087l-109.7323 0z" fill-rule="evenodd"/><path fill="#000000" d="m506.09003 75.83835l1.46875 12.796875l9.21875 -12.796875l3.875 0l0 0.4375q-1.265625 0.078125 -1.484375 0.15625q-0.390625 0.15625 -0.71875 0.609375q-0.3125 0.453125 -0.6875 1.765625l-2.9375 10.078125q-0.265625 0.875 -0.265625 1.375q0 0.453125 0.3125 0.6875q0.453125 0.34375 1.40625 0.34375l0.28125 0l-0.09375 0.4375l-6.703125 0l0.125 -0.4375l0.3125 0q0.890625 0 1.359375 -0.25q0.359375 -0.1875 0.640625 -0.703125q0.296875 -0.53125 0.8125 -2.328125l2.625 -9.203125l-9.265625 12.921875l-0.46875 0l-1.484375 -12.921875l-2.84375 9.828125q-0.359375 1.25 -0.359375 1.6875q0 0.4375 0.3125 0.671875q0.3125 0.21875 1.53125 0.296875l-0.125 0.4375l-5.234375 0l0.125 -0.4375l0.3125 0q1.171875 0 1.6875 -0.578125q0.375 -0.421875 0.78125 -1.828125l3.453125 -11.859375q-0.390625 -0.390625 -0.75 -0.53125q-0.34375 -0.140625 -1.28125 -0.21875l0.109375 -0.4375l3.953125 0zm15.2421875 11.46875q-0.078125 0.59375 -0.078125 0.96875q0 1.046875 0.734375 1.78125q0.734375 0.734375 1.796875 0.734375q0.84375 0 1.625 -0.34375q0.78125 -0.34375 2.3125 -1.53125l0.25 0.34375q-2.78125 2.75 -5.296875 2.75q-1.71875 0 -2.59375 -1.078125q-0.859375 -1.078125 -0.859375 -2.375q0 -1.75 1.078125 -3.578125q1.078125 -1.828125 2.703125 -2.84375q1.640625 -1.015625 3.359375 -1.015625q1.234375 0 1.828125 0.515625q0.609375 0.5 0.609375 1.1875q0 0.96875 -0.78125 1.859375q-1.015625 1.15625 -3.0 1.875q-1.3125 0.484375 -3.6875 0.75zm0.078125 -0.578125q1.734375 -0.1875 2.828125 -0.671875q1.4375 -0.640625 2.15625 -1.53125q0.734375 -0.90625 0.734375 -1.71875q0 -0.484375 -0.3125 -0.78125q-0.3125 -0.3125 -0.890625 -0.3125q-1.1875 0 -2.53125 1.265625q-1.34375 1.265625 -1.984375 3.75zm18.980469 -5.609375l-2.28125 7.953125l-0.265625 1.0625q-0.03125 0.15625 -0.03125 0.25q0 0.1875 0.109375 0.328125q0.09375 0.109375 0.234375 0.109375q0.15625 0 0.40625 -0.1875q0.453125 -0.34375 1.21875 -1.40625l0.390625 0.28125q-0.796875 1.21875 -1.65625 1.859375q-0.859375 0.640625 -1.578125 0.640625q-0.515625 0 -0.765625 -0.25q-0.25 -0.25 -0.25 -0.734375q0 -0.578125 0.265625 -1.515625l0.234375 -0.875q-1.53125 2.0 -2.8125 2.796875q-0.9375 0.578125 -1.828125 0.578125q-0.84375 0 -1.46875 -0.703125q-0.625 -0.71875 -0.625 -1.953125q0 -1.875 1.109375 -3.9375q1.125 -2.0625 2.859375 -3.3125q1.34375 -0.984375 2.53125 -0.984375q0.71875 0 1.1875 0.375q0.484375 0.375 0.734375 1.25l0.421875 -1.34375l1.859375 -0.28125zm-4.171875 0.609375q-0.75 0 -1.59375 0.703125q-1.203125 1.0 -2.140625 2.953125q-0.921875 1.953125 -0.921875 3.546875q0 0.796875 0.390625 1.265625q0.40625 0.453125 0.921875 0.453125q1.28125 0 2.78125 -1.890625q2.0 -2.5 2.0 -5.140625q0 -1.0 -0.390625 -1.4375q-0.375 -0.453125 -1.046875 -0.453125zm13.609375 -0.609375l-0.703125 3.59375l-0.4375 0q-0.0625 -1.5625 -0.671875 -2.28125q-0.609375 -0.71875 -1.515625 -0.71875q-0.71875 0 -1.15625 0.40625q-0.421875 0.390625 -0.421875 0.953125q0 0.390625 0.171875 0.75q0.171875 0.34375 0.75 0.984375q1.515625 1.65625 1.953125 2.5q0.453125 0.84375 0.453125 1.59375q0 1.21875 -1.015625 2.171875q-1.015625 0.9375 -2.5625 0.9375q-0.84375 0 -1.9375 -0.40625q-0.390625 -0.140625 -0.59375 -0.140625q-0.53125 0 -0.796875 0.546875l-0.4375 0l0.71875 -3.796875l0.421875 0q0.078125 1.78125 0.734375 2.515625q0.671875 0.734375 1.84375 0.734375q0.890625 0 1.40625 -0.484375q0.515625 -0.5 0.515625 -1.234375q0 -0.46875 -0.1875 -0.859375q-0.328125 -0.703125 -1.375 -1.9375q-1.046875 -1.25 -1.34375 -1.875q-0.296875 -0.625 -0.296875 -1.25q0 -1.125 0.828125 -1.90625q0.828125 -0.796875 2.125 -0.796875q0.375 0 0.671875 0.0625q0.171875 0.03125 0.765625 0.265625q0.609375 0.21875 0.8125 0.21875q0.5 0 0.84375 -0.546875l0.4375 0zm11.933594 0.28125l-2.03125 6.984375q-0.46875 1.5625 -0.46875 1.96875q0 0.21875 0.078125 0.3125q0.078125 0.09375 0.203125 0.09375q0.203125 0 0.4375 -0.171875q0.25 -0.1875 1.21875 -1.453125l0.359375 0.265625q-0.9375 1.46875 -1.90625 2.15625q-0.640625 0.453125 -1.234375 0.453125q-0.46875 0 -0.734375 -0.265625q-0.25 -0.25 -0.25 -0.65625q0 -0.40625 0.15625 -1.0625q0.1875 -0.859375 1.0625 -3.765625q-1.984375 3.265625 -3.328125 4.515625q-1.34375 1.234375 -2.484375 1.234375q-0.546875 0 -0.921875 -0.375q-0.375 -0.375 -0.375 -0.953125q0 -0.875 0.515625 -2.6875l1.015625 -3.625q0.375 -1.296875 0.375 -1.625q0 -0.140625 -0.09375 -0.234375q-0.09375 -0.09375 -0.21875 -0.09375q-0.25 0 -0.5 0.171875q-0.234375 0.171875 -1.109375 1.296875l-0.359375 -0.25q0.875 -1.359375 1.859375 -2.015625q0.75 -0.5 1.390625 -0.5q0.4375 0 0.703125 0.28125q0.28125 0.265625 0.28125 0.703125q0 0.640625 -0.46875 2.265625l-1.109375 3.78125q-0.453125 1.546875 -0.453125 1.953125q0 0.234375 0.140625 0.375q0.15625 0.125 0.40625 0.125q0.375 0 1.0 -0.390625q0.625 -0.390625 1.65625 -1.71875q1.046875 -1.328125 1.71875 -2.484375q0.671875 -1.171875 1.4375 -3.71875l0.25 -0.890625l1.78125 0zm1.953125 0.375l4.046875 -0.65625l-1.6875 5.703125q2.046875 -3.515625 3.734375 -4.90625q0.9375 -0.796875 1.546875 -0.796875q0.375 0 0.59375 0.234375q0.234375 0.21875 0.234375 0.65625q0 0.78125 -0.40625 1.484375q-0.28125 0.515625 -0.796875 0.515625q-0.28125 0 -0.46875 -0.171875q-0.1875 -0.171875 -0.234375 -0.53125q-0.03125 -0.234375 -0.109375 -0.296875q-0.09375 -0.09375 -0.21875 -0.09375q-0.203125 0 -0.375 0.09375q-0.3125 0.15625 -0.9375 0.90625q-0.96875 1.15625 -2.109375 2.984375q-0.484375 0.765625 -0.84375 1.75q-0.484375 1.328125 -0.5625 1.59375l-0.375 1.484375l-1.78125 0l2.15625 -7.28125q0.375 -1.265625 0.375 -1.796875q0 -0.21875 -0.171875 -0.359375q-0.234375 -0.1875 -0.625 -0.1875q-0.234375 0 -0.890625 0.109375l-0.09375 -0.4375zm10.058594 5.53125q-0.078125 0.59375 -0.078125 0.96875q0 1.046875 0.734375 1.78125q0.734375 0.734375 1.796875 0.734375q0.84375 0 1.625 -0.34375q0.78125 -0.34375 2.3125 -1.53125l0.25 0.34375q-2.78125 2.75 -5.296875 2.75q-1.71875 0 -2.59375 -1.078125q-0.859375 -1.078125 -0.859375 -2.375q0 -1.75 1.078125 -3.578125q1.078125 -1.828125 2.703125 -2.84375q1.640625 -1.015625 3.359375 -1.015625q1.234375 0 1.828125 0.515625q0.609375 0.5 0.609375 1.1875q0 0.96875 -0.78125 1.859375q-1.015625 1.15625 -3.0 1.875q-1.3125 0.484375 -3.6875 0.75zm0.078125 -0.578125q1.734375 -0.1875 2.828125 -0.671875q1.4375 -0.640625 2.15625 -1.53125q0.734375 -0.90625 0.734375 -1.71875q0 -0.484375 -0.3125 -0.78125q-0.3125 -0.3125 -0.890625 -0.3125q-1.1875 0 -2.53125 1.265625q-1.34375 1.265625 -1.984375 3.75z" fill-rule="nonzero"/><path fill="#000000" fill-opacity="0.0" d="m594.8898 83.18898l16.188965 0.09448242" fill-rule="evenodd"/><path stroke="#000000" stroke-width="1.0" stroke-linejoin="round" stroke-linecap="butt" d="m594.8898 83.18898l16.188965 0.09448242" fill-rule="evenodd"/><path fill="#000000" fill-opacity="0.0" d="m68.249344 58.821762l0 0c0 -6.6014557 5.3515396 -11.952995 11.952995 -11.952995l360.75543 0c3.1701355 0 6.2104187 1.2593307 8.452057 3.5009499c2.2416077 2.241623 3.500946 5.2819138 3.500946 8.452045l0 47.810547c0 6.6014557 -5.351532 11.952995 -11.953003 11.952995l-360.75543 0l0 0c-6.6014557 0 -11.952995 -5.3515396 -11.952995 -11.952995z" fill-rule="evenodd"/><path stroke="#000000" stroke-width="1.0" stroke-linejoin="round" stroke-linecap="butt" stroke-dasharray="4.0,3.0" d="m68.249344 58.821762l0 0c0 -6.6014557 5.3515396 -11.952995 11.952995 -11.952995l360.75543 0c3.1701355 0 6.2104187 1.2593307 8.452057 3.5009499c2.2416077 2.241623 3.500946 5.2819138 3.500946 8.452045l0 47.810547c0 6.6014557 -5.351532 11.952995 -11.953003 11.952995l-360.75543 0l0 0c-6.6014557 0 -11.952995 -5.3515396 -11.952995 -11.952995z" fill-rule="evenodd"/><path fill="#000000" fill-opacity="0.0" d="m74.115486 9.608924l384.66144 0l0 37.259842l-384.66144 0z" fill-rule="evenodd"/><path fill="#000000" d="m125.19335 35.247673l0 -0.734375l4.5468674 0l0 -3.812502l-4.5468674 0l0 -0.75l4.5468674 0l0 -4.53125l0.71875 0l0 4.53125l4.5625 0l0 0.75l-4.5625 0l0 3.812502l4.5625 0l0 0.734375l-9.828117 0zm15.926567 0.9375l0 0.34375l-5.28125 0l0 -0.34375l0.4375 0q0.765625 0 1.109375 -0.4375q0.21875 -0.296875 0.21875 -1.40625l0 -7.984377q0 -0.9375 -0.125 -1.234375q-0.09375 -0.234375 -0.375 -0.390625q-0.390625 -0.21875 -0.828125 -0.21875l-0.4375 0l0 -0.34375l5.28125 0l0 0.34375l-0.4375 0q-0.75 0 -1.109375 0.453125q-0.21875 0.28125 -0.21875 1.390625l0 7.984377q0 0.9375 0.109375 1.234375q0.09375 0.234375 0.390625 0.390625q0.390625 0.21875 0.828125 0.21875l0.4375 0zm9.7986145 -8.250002q1.890625 0 3.03125 1.4375q0.984375 1.234375 0.984375 2.828127q0 1.125 -0.546875 2.28125q-0.53125 1.140625 -1.484375 1.71875q-0.9375 0.578125 -2.09375 0.578125q-1.890625 0 -3.0 -1.5q-0.9375 -1.265625 -0.9375 -2.84375q0 -1.1406269 0.5625 -2.265627q0.578125 -1.140625 1.5 -1.6875q0.9375 -0.546875 1.984375 -0.546875zm-0.296875 0.59375q-0.46875 0 -0.96875 0.296875q-0.484375 0.28125 -0.78125 1.0q-0.296875 0.71875 -0.296875 1.84375q0 1.8281269 0.71875 3.156252q0.71875 1.3125 1.90625 1.3125q0.890625 0 1.453125 -0.71875q0.578125 -0.734375 0.578125 -2.515625q0 -2.218752 -0.953125 -3.500002q-0.640625 -0.875 -1.65625 -0.875zm7.984375 -0.59375l0 1.875q1.046875 -1.875 2.140625 -1.875q0.5 0 0.828125 0.3125q0.328125 0.296875 0.328125 0.703125q0 0.359375 -0.234375 0.609375q-0.234375 0.234375 -0.5625 0.234375q-0.328125 0 -0.71875 -0.3125q-0.390625 -0.3125 -0.578125 -0.3125q-0.171875 0 -0.359375 0.1875q-0.40625 0.359375 -0.84375 1.21875l0 4.000002q0 0.703125 0.171875 1.046875q0.109375 0.25 0.40625 0.421875q0.3125 0.15625 0.875 0.15625l0 0.328125l-4.28125 0l0 -0.328125q0.640625 0 0.953125 -0.203125q0.234375 -0.140625 0.3125 -0.46875q0.046875 -0.140625 0.046875 -0.875l0 -3.234377q0 -1.453125 -0.0625 -1.734375q-0.046875 -0.28125 -0.21875 -0.40625q-0.15625 -0.125 -0.390625 -0.125q-0.28125 0 -0.640625 0.140625l-0.078125 -0.328125l2.515625 -1.03125l0.390625 0zm7.9079895 7.312502l0 -0.734375l4.546875 0l0 -3.812502l-4.546875 0l0 -0.75l4.546875 0l0 -4.53125l0.71875 0l0 4.53125l4.5625 0l0 0.75l-4.5625 0l0 3.812502l4.5625 0l0 0.734375l-9.828125 0zm17.78595 -5.562502l2.65625 3.953127q1.109375 1.640625 1.640625 2.078125q0.53125 0.4375 1.34375 0.46875l0 0.34375l-5.296875 0l0 -0.34375q0.53125 0 0.78125 -0.109375q0.1875 -0.078125 0.3125 -0.234375q0.125 -0.171875 0.125 -0.34375q0 -0.21875 -0.078125 -0.421875q-0.0625 -0.15625 -0.5 -0.8125l-2.09375 -3.156252l-2.59375 3.312502q-0.40625 0.53125 -0.5 0.703125q-0.078125 0.171875 -0.078125 0.375q0 0.28125 0.25 0.484375q0.25 0.1875 0.9375 0.203125l0 0.34375l-4.375 0l0 -0.34375q0.453125 -0.03125 0.796875 -0.1875q0.5625 -0.234375 1.0625 -0.625q0.515625 -0.40625 1.171875 -1.234375l2.921875 -3.687502l-2.4375 -3.5625q-0.984375 -1.453125 -1.6875 -1.890625q-0.6875 -0.453125 -1.59375 -0.484375l0 -0.34375l5.71875 0l0 0.34375q-0.734375 0.03125 -1.0 0.25q-0.265625 0.203125 -0.265625 0.453125q0 0.328125 0.4375 0.984375l1.890625 2.828125l2.203125 -2.78125q0.375 -0.484375 0.453125 -0.65625q0.09375 -0.1875 0.09375 -0.390625q0 -0.1875 -0.109375 -0.328125q-0.125 -0.1875 -0.34375 -0.265625q-0.203125 -0.078125 -0.859375 -0.09375l0 -0.34375l4.375 0l0 0.34375q-0.515625 0.03125 -0.84375 0.171875q-0.484375 0.203125 -0.90625 0.5625q-0.40625 0.34375 -1.15625 1.3125l-2.453125 3.125zm17.012009 5.906252q-0.625 0.640625 -1.203125 0.921875q-0.578125 0.265625 -1.25 0.265625q-1.375 0 -2.390625 -1.140625q-1.015625 -1.140625 -1.015625 -2.9375q0 -1.7968769 1.125 -3.281252q1.125 -1.484375 2.90625 -1.484375q1.09375 0 1.828125 0.703125l0 -1.546875q0 -1.4375 -0.078125 -1.765625q-0.0625 -0.328125 -0.21875 -0.4375q-0.140625 -0.125 -0.359375 -0.125q-0.234375 0 -0.625 0.15625l-0.125 -0.328125l2.484375 -1.015625l0.421875 0l0 9.640627q0 1.46875 0.0625 1.796875q0.0625 0.328125 0.21875 0.453125q0.15625 0.125 0.359375 0.125q0.234375 0 0.65625 -0.15625l0.09375 0.3125l-2.484375 1.03125l-0.40625 0l0 -1.1875zm0 -0.640625l0 -4.296877q-0.0625 -0.625 -0.34375 -1.125q-0.265625 -0.515625 -0.71875 -0.765625q-0.453125 -0.265625 -0.875 -0.265625q-0.796875 0 -1.4375 0.71875q-0.828125 0.9375 -0.828125 2.765625q0 1.8437519 0.796875 2.828127q0.8125 0.96875 1.796875 0.96875q0.828125 0 1.609375 -0.828125zm4.828125 -3.625002q0 1.8593769 0.90625 2.921877q0.90625 1.046875 2.140625 1.046875q0.8125 0 1.421875 -0.4375q0.609375 -0.453125 1.015625 -1.546875l0.28125 0.171875q-0.1875 1.25 -1.109375 2.28125q-0.921875 1.015625 -2.296875 1.015625q-1.515625 0 -2.59375 -1.171875q-1.0625 -1.171875 -1.0625 -3.140625q0 -2.140627 1.09375 -3.328127q1.109375 -1.203125 2.765625 -1.203125q1.40625 0 2.296875 0.921875q0.90625 0.921875 0.90625 2.46875l-5.765625 0zm0 -0.53125l3.859375 0q-0.046875 -0.796875 -0.1875 -1.125q-0.234375 -0.515625 -0.6875 -0.796875q-0.4375 -0.296875 -0.9375 -0.296875q-0.75 0 -1.34375 0.59375q-0.59375 0.578125 -0.703125 1.625zm6.280533 -1.78125l2.5625 -1.03125l0.34375 0l0 1.9375q0.65625 -1.09375 1.296875 -1.53125q0.65625 -0.453125 1.375 -0.453125q1.265625 0 2.09375 0.984375q1.03125 1.203125 1.03125 3.140627q0 2.15625 -1.234375 3.5625q-1.015625 1.15625 -2.578125 1.15625q-0.671875 0 -1.15625 -0.1875q-0.359375 -0.140625 -0.828125 -0.546875l0 2.546875q0 0.859375 0.109375 1.078125q0.109375 0.234375 0.359375 0.375q0.265625 0.140625 0.953125 0.140625l0 0.328125l-4.375 0l0 -0.328125l0.21875 0q0.515625 0 0.859375 -0.1875q0.171875 -0.109375 0.265625 -0.328125q0.109375 -0.21875 0.109375 -1.140625l0 -7.890627q0 -0.8125 -0.078125 -1.015625q-0.078125 -0.21875 -0.234375 -0.328125q-0.15625 -0.109375 -0.4375 -0.109375q-0.21875 0 -0.546875 0.125l-0.109375 -0.296875zm2.90625 1.453125l0 3.109377q0 1.015625 0.09375 1.328125q0.125 0.53125 0.609375 0.9375q0.5 0.390625 1.265625 0.390625q0.90625 0 1.46875 -0.703125q0.734375 -0.9375 0.734375 -2.609375q0 -1.9218769 -0.828125 -2.953127q-0.59375 -0.703125 -1.390625 -0.703125q-0.4375 0 -0.859375 0.21875q-0.328125 0.15625 -1.09375 0.984375zm8.421875 0.859375q0 1.8593769 0.90625 2.921877q0.90625 1.046875 2.140625 1.046875q0.8125 0 1.421875 -0.4375q0.609375 -0.453125 1.015625 -1.546875l0.28125 0.171875q-0.1875 1.25 -1.109375 2.28125q-0.921875 1.015625 -2.296875 1.015625q-1.515625 0 -2.59375 -1.171875q-1.0625 -1.171875 -1.0625 -3.140625q0 -2.140627 1.09375 -3.328127q1.109375 -1.203125 2.765625 -1.203125q1.40625 0 2.296875 0.921875q0.90625 0.921875 0.90625 2.46875l-5.765625 0zm0 -0.53125l3.859375 0q-0.046875 -0.796875 -0.1875 -1.125q-0.234375 -0.515625 -0.6875 -0.796875q-0.4375 -0.296875 -0.9375 -0.296875q-0.75 0 -1.34375 0.59375q-0.59375 0.578125 -0.703125 1.625zm9.311783 -1.09375q1.46875 -1.765625 2.796875 -1.765625q0.6875 0 1.171875 0.34375q0.5 0.34375 0.78125 1.125q0.203125 0.546875 0.203125 1.671875l0 3.562502q0 0.796875 0.125 1.078125q0.109375 0.234375 0.328125 0.359375q0.21875 0.125 0.828125 0.125l0 0.328125l-4.125 0l0 -0.328125l0.171875 0q0.578125 0 0.8125 -0.171875q0.234375 -0.1875 0.328125 -0.53125q0.03125 -0.140625 0.03125 -0.859375l0 -3.406252q0 -1.140625 -0.296875 -1.65625q-0.296875 -0.515625 -1.0 -0.515625q-1.078125 0 -2.15625 1.1875l0 4.390627q0 0.859375 0.09375 1.046875q0.140625 0.265625 0.359375 0.390625q0.21875 0.125 0.90625 0.125l0 0.328125l-4.125 0l0 -0.328125l0.171875 0q0.640625 0 0.859375 -0.3125q0.234375 -0.328125 0.234375 -1.25l0 -3.093752q0 -1.5 -0.078125 -1.828125q-0.0625 -0.328125 -0.203125 -0.4375q-0.140625 -0.125 -0.375 -0.125q-0.265625 0 -0.609375 0.140625l-0.140625 -0.328125l2.515625 -1.03125l0.390625 0l0 1.765625zm12.796875 5.890627q-0.625 0.640625 -1.203125 0.921875q-0.578125 0.265625 -1.25 0.265625q-1.375 0 -2.390625 -1.140625q-1.015625 -1.140625 -1.015625 -2.9375q0 -1.7968769 1.125 -3.281252q1.125 -1.484375 2.90625 -1.484375q1.09375 0 1.828125 0.703125l0 -1.546875q0 -1.4375 -0.078125 -1.765625q-0.0625 -0.328125 -0.21875 -0.4375q-0.140625 -0.125 -0.359375 -0.125q-0.234375 0 -0.625 0.15625l-0.125 -0.328125l2.484375 -1.015625l0.421875 0l0 9.640627q0 1.46875 0.0625 1.796875q0.0625 0.328125 0.21875 0.453125q0.15625 0.125 0.359375 0.125q0.234375 0 0.65625 -0.15625l0.09375 0.3125l-2.484375 1.03125l-0.40625 0l0 -1.1875zm0 -0.640625l0 -4.296877q-0.0625 -0.625 -0.34375 -1.125q-0.265625 -0.515625 -0.71875 -0.765625q-0.453125 -0.265625 -0.875 -0.265625q-0.796875 0 -1.4375 0.71875q-0.828125 0.9375 -0.828125 2.765625q0 1.8437519 0.796875 2.828127q0.8125 0.96875 1.796875 0.96875q0.828125 0 1.609375 -0.828125zm5.546875 -11.375002q0.390625 0 0.65625 0.265625q0.265625 0.265625 0.265625 0.65625q0 0.375 -0.265625 0.65625q-0.265625 0.265625 -0.65625 0.265625q-0.375 0 -0.65625 -0.265625q-0.265625 -0.28125 -0.265625 -0.65625q0 -0.390625 0.265625 -0.65625q0.265625 -0.265625 0.65625 -0.265625zm0.765625 4.359375l0 6.703127q0 0.78125 0.109375 1.046875q0.109375 0.265625 0.328125 0.390625q0.234375 0.125 0.828125 0.125l0 0.328125l-4.0625 0l0 -0.328125q0.609375 0 0.8125 -0.109375q0.21875 -0.125 0.34375 -0.390625q0.125 -0.28125 0.125 -1.0625l0 -3.203127q0 -1.359375 -0.078125 -1.765625q-0.078125 -0.296875 -0.21875 -0.40625q-0.125 -0.109375 -0.359375 -0.109375q-0.265625 0 -0.625 0.140625l-0.125 -0.328125l2.515625 -1.03125l0.40625 0zm4.730194 1.765625q1.46875 -1.765625 2.796875 -1.765625q0.6875 0 1.171875 0.34375q0.5 0.34375 0.78125 1.125q0.203125 0.546875 0.203125 1.671875l0 3.562502q0 0.796875 0.125 1.078125q0.109375 0.234375 0.328125 0.359375q0.21875 0.125 0.828125 0.125l0 0.328125l-4.125 0l0 -0.328125l0.171875 0q0.578125 0 0.8125 -0.171875q0.234375 -0.1875 0.328125 -0.53125q0.03125 -0.140625 0.03125 -0.859375l0 -3.406252q0 -1.140625 -0.296875 -1.65625q-0.296875 -0.515625 -1.0 -0.515625q-1.078125 0 -2.15625 1.1875l0 4.390627q0 0.859375 0.09375 1.046875q0.140625 0.265625 0.359375 0.390625q0.21875 0.125 0.90625 0.125l0 0.328125l-4.1250153 0l0 -0.328125l0.171875 0q0.640625 0 0.859375 -0.3125q0.234375 -0.328125 0.234375 -1.25l0 -3.093752q0 -1.5 -0.078125 -1.828125q-0.0625 -0.328125 -0.203125 -0.4375q-0.140625 -0.125 -0.375 -0.125q-0.265625 0 -0.609375 0.140625l-0.140625 -0.328125l2.5156403 -1.03125l0.390625 0l0 1.765625zm9.125 3.781252q-0.765625 -0.375 -1.171875 -1.03125q-0.40625 -0.6718769 -0.40625 -1.4843769q0 -1.25 0.921875 -2.140625q0.9375 -0.890625 2.40625 -0.890625q1.1875 0 2.0625 0.59375l1.765625 0q0.390625 0 0.453125 0.015625q0.0625 0.015625 0.09375 0.078125q0.046875 0.078125 0.046875 0.296875q0 0.234375 -0.03125 0.328125q-0.03125 0.046875 -0.109375 0.078125q-0.0625 0.015625 -0.453125 0.015625l-1.078125 0q0.5 0.65625 0.5 1.671875q0 1.1718769 -0.890625 2.000002q-0.890625 0.828125 -2.390625 0.828125q-0.625 0 -1.265625 -0.1875q-0.40625 0.359375 -0.546875 0.625q-0.140625 0.25 -0.140625 0.421875q0 0.15625 0.140625 0.3125q0.15625 0.140625 0.59375 0.203125q0.265625 0.03125 1.28125 0.0625q1.875 0.046875 2.421875 0.125q0.859375 0.125 1.359375 0.640625q0.5 0.5 0.5 1.25q0 1.03125 -0.953125 1.9375q-1.421875 1.328125 -3.71875 1.328125q-1.75 0 -2.96875 -0.796875q-0.671875 -0.453125 -0.671875 -0.953125q0 -0.21875 0.09375 -0.4375q0.15625 -0.328125 0.640625 -0.9375q0.0625 -0.078125 0.921875 -0.984375q-0.46875 -0.28125 -0.671875 -0.5q-0.1875 -0.21875 -0.1875 -0.5q0 -0.328125 0.25 -0.75q0.265625 -0.4375 1.203125 -1.21875zm1.59375 -5.109377q-0.6875 0 -1.140625 0.546875q-0.453125 0.53125 -0.453125 1.640625q0 1.4375 0.625 2.234377q0.46875 0.59375 1.203125 0.59375q0.6875 0 1.125 -0.515625q0.453125 -0.515625 0.453125 -1.6250019q0 -1.453125 -0.625 -2.265625q-0.46875 -0.609375 -1.1875 -0.609375zm-1.6875 8.156252q-0.421875 0.46875 -0.640625 0.859375q-0.21875 0.40625 -0.21875 0.75q0 0.4375 0.53125 0.765625q0.90625 0.5625 2.625 0.5625q1.640625 0 2.421875 -0.578125q0.78125 -0.578125 0.78125 -1.234375q0 -0.484375 -0.46875 -0.671875q-0.46875 -0.203125 -1.875 -0.25q-2.046875 -0.046875 -3.15625 -0.203125zm15.9453125 -8.593752q1.890625 0 3.03125 1.4375q0.984375 1.234375 0.984375 2.828127q0 1.125 -0.546875 2.28125q-0.53125 1.140625 -1.484375 1.71875q-0.9375 0.578125 -2.09375 0.578125q-1.890625 0 -3.0 -1.5q-0.9375 -1.265625 -0.9375 -2.84375q0 -1.1406269 0.5625 -2.265627q0.578125 -1.140625 1.5 -1.6875q0.9375 -0.546875 1.984375 -0.546875zm-0.296875 0.59375q-0.46875 0 -0.96875 0.296875q-0.484375 0.28125 -0.78125 1.0q-0.296875 0.71875 -0.296875 1.84375q0 1.8281269 0.71875 3.156252q0.71875 1.3125 1.90625 1.3125q0.890625 0 1.453125 -0.71875q0.578125 -0.734375 0.578125 -2.515625q0 -2.218752 -0.953125 -3.500002q-0.640625 -0.875 -1.65625 -0.875zm7.96875 1.171875q1.46875 -1.765625 2.796875 -1.765625q0.6875 0 1.171875 0.34375q0.5 0.34375 0.78125 1.125q0.203125 0.546875 0.203125 1.671875l0 3.562502q0 0.796875 0.125 1.078125q0.109375 0.234375 0.328125 0.359375q0.21875 0.125 0.828125 0.125l0 0.328125l-4.125 0l0 -0.328125l0.171875 0q0.578125 0 0.8125 -0.171875q0.234375 -0.1875 0.328125 -0.53125q0.03125 -0.140625 0.03125 -0.859375l0 -3.406252q0 -1.140625 -0.296875 -1.65625q-0.296875 -0.515625 -1.0 -0.515625q-1.078125 0 -2.15625 1.1875l0 4.390627q0 0.859375 0.09375 1.046875q0.140625 0.265625 0.359375 0.390625q0.21875 0.125 0.90625 0.125l0 0.328125l-4.125 0l0 -0.328125l0.171875 0q0.640625 0 0.859375 -0.3125q0.234375 -0.328125 0.234375 -1.25l0 -3.093752q0 -1.5 -0.078125 -1.828125q-0.0625 -0.328125 -0.203125 -0.4375q-0.140625 -0.125 -0.375 -0.125q-0.265625 0 -0.609375 0.140625l-0.140625 -0.328125l2.515625 -1.03125l0.390625 0l0 1.765625zm14.8203125 -0.859375l0 5.484377q0 1.171875 0.25 1.46875q0.34375 0.40625 0.90625 0.40625l0.75 0l0 0.328125l-4.96875 0l0 -0.328125l0.359375 0q0.375 0 0.671875 -0.171875q0.296875 -0.1875 0.40625 -0.5q0.125 -0.3125 0.125 -1.203125l0 -5.484377l-1.625 0l0 -0.65625l1.625 0l0 -0.546875q0 -1.25 0.390625 -2.109375q0.40625 -0.875 1.234375 -1.40625q0.828125 -0.53125 1.859375 -0.53125q0.953125 0 1.75 0.625q0.53125 0.40625 0.53125 0.921875q0 0.265625 -0.234375 0.515625q-0.234375 0.234375 -0.515625 0.234375q-0.203125 0 -0.4375 -0.140625q-0.234375 -0.15625 -0.578125 -0.65625q-0.328125 -0.5 -0.609375 -0.671875q-0.28125 -0.171875 -0.640625 -0.171875q-0.40625 0 -0.703125 0.234375q-0.296875 0.21875 -0.421875 0.6875q-0.125 0.46875 -0.125 2.40625l0 0.609375l2.15625 0l0 0.65625l-2.15625 0zm8.165802 11.343752l0 0.328125q-1.375 -0.6875 -2.296875 -1.609375q-1.3125 -1.328125 -2.03125 -3.125q-0.703125 -1.796875 -0.703125 -3.71875q0 -2.828127 1.390625 -5.156252q1.390625 -2.328125 3.640625 -3.328125l0 0.375q-1.125 0.625 -1.84375 1.703125q-0.71875 1.078125 -1.078125 2.734375q-0.359375 1.640625 -0.359375 3.4375q0 1.9375019 0.3125 3.531252q0.234375 1.265625 0.5625 2.015625q0.34375 0.765625 0.90625 1.46875q0.578125 0.703125 1.5 1.34375zm0.665802 -12.000002l3.921875 0l0 0.34375q-0.375 0 -0.53125 0.125q-0.140625 0.125 -0.140625 0.328125q0 0.21875 0.3125 0.671875q0.109375 0.15625 0.3125 0.46875l0.578125 0.9375l0.6875 -0.9375q0.65625 -0.90625 0.65625 -1.140625q0 -0.203125 -0.15625 -0.328125q-0.15625 -0.125 -0.5 -0.125l0 -0.34375l2.828125 0l0 0.34375q-0.453125 0.015625 -0.78125 0.234375q-0.4375 0.3125 -1.21875 1.359375l-1.140625 1.515625l2.078125 2.984377q0.765625 1.109375 1.09375 1.328125q0.328125 0.21875 0.84375 0.25l0 0.328125l-3.921875 0l0 -0.328125q0.40625 0 0.625 -0.1875q0.171875 -0.125 0.171875 -0.328125q0 -0.21875 -0.578125 -1.0625l-1.21875 -1.78125l-1.34375 1.78125q-0.609375 0.828125 -0.609375 0.984375q0 0.21875 0.203125 0.40625q0.203125 0.171875 0.609375 0.1875l0 0.328125l-2.71875 0l0 -0.328125q0.328125 -0.046875 0.578125 -0.234375q0.34375 -0.25 1.15625 -1.34375l1.75 -2.328125l-1.578125 -2.281252q-0.671875 -0.984375 -1.046875 -1.234375q-0.375 -0.25 -0.921875 -0.25l0 -0.34375zm9.5 -4.234375l0 -0.375q1.375 0.6875 2.296875 1.609375q1.3125 1.328125 2.015625 3.125q0.71875 1.78125 0.71875 3.734377q0 2.8125 -1.390625 5.140625q-1.390625 2.328125 -3.640625 3.328125l0 -0.328125q1.125 -0.625 1.84375 -1.703125q0.71875 -1.0625 1.0625 -2.71875q0.359375 -1.65625 0.359375 -3.453125q0 -1.9375019 -0.296875 -3.546877q-0.234375 -1.25 -0.578125 -2.0q-0.328125 -0.765625 -0.90625 -1.46875q-0.5625 -0.703125 -1.484375 -1.34375zm7.962677 4.65625l0 -0.421875q0.9375 -0.5625 1.265625 -1.03125q0.25 -0.359375 0.25 -0.84375q0 -0.28125 -0.109375 -0.40625q-0.109375 -0.140625 -0.234375 -0.140625q-0.09375 0 -0.265625 0.0625q-0.234375 0.078125 -0.390625 0.078125q-0.359375 0 -0.640625 -0.265625q-0.28125 -0.28125 -0.28125 -0.6875q0 -0.453125 0.28125 -0.703125q0.375 -0.359375 0.90625 -0.359375q0.609375 0 1.09375 0.515625q0.484375 0.515625 0.484375 1.28125q0 1.078125 -0.8125 1.96875q-0.53125 0.578125 -1.546875 0.953125zm8.979584 -0.671875l0 2.84375l-0.296875 0q-0.34375 -1.34375 -0.890625 -1.8125q-0.53125 -0.484375 -1.375 -0.484375q-0.640625 0 -1.03125 0.34375q-0.390625 0.328125 -0.390625 0.734375q0 0.515625 0.296875 0.875q0.28125 0.375 1.140625 0.796875l1.328125 0.640625q1.859375 0.9062519 1.859375 2.375002q0 1.140625 -0.875 1.84375q-0.859375 0.6875 -1.921875 0.6875q-0.765625 0 -1.75 -0.265625q-0.296875 -0.09375 -0.484375 -0.09375q-0.21875 0 -0.328125 0.234375l-0.296875 0l0 -2.96875l0.296875 0q0.25 1.265625 0.96875 1.921875q0.71875 0.640625 1.609375 0.640625q0.640625 0 1.03125 -0.359375q0.390625 -0.375 0.390625 -0.90625q0 -0.625 -0.4375 -1.046875q-0.4375 -0.4375 -1.765625 -1.09375q-1.3125 -0.65625 -1.71875 -1.1718769q-0.421875 -0.53125 -0.421875 -1.3125q0 -1.03125 0.703125 -1.71875q0.71875 -0.703125 1.828125 -0.703125q0.5 0 1.203125 0.21875q0.453125 0.125 0.609375 0.125q0.15625 0 0.234375 -0.0625q0.078125 -0.0625 0.1875 -0.28125l0.296875 0zm11.268097 7.390627q-1.28125 1.0 -1.609375 1.15625q-0.5 0.21875 -1.046875 0.21875q-0.875 0 -1.4375 -0.59375q-0.546875 -0.59375 -0.546875 -1.5625q0 -0.609375 0.265625 -1.046875q0.375 -0.625 1.296875 -1.171875q0.921875 -0.5468769 3.078125 -1.3281269l0 -0.328125q0 -1.25 -0.40625 -1.703125q-0.390625 -0.46875 -1.140625 -0.46875q-0.578125 0 -0.921875 0.3125q-0.34375 0.296875 -0.34375 0.703125l0.015625 0.53125q0 0.421875 -0.21875 0.65625q-0.203125 0.21875 -0.546875 0.21875q-0.34375 0 -0.5625 -0.234375q-0.203125 -0.234375 -0.203125 -0.65625q0 -0.78125 0.796875 -1.4375q0.8125 -0.65625 2.25 -0.65625q1.109375 0 1.828125 0.375q0.53125 0.28125 0.796875 0.890625q0.15625 0.390625 0.15625 1.59375l0 2.843752q0 1.1875 0.046875 1.453125q0.046875 0.265625 0.140625 0.359375q0.109375 0.09375 0.25 0.09375q0.140625 0 0.25 -0.0625q0.203125 -0.125 0.75 -0.671875l0 0.515625q-1.03125 1.359375 -1.953125 1.359375q-0.453125 0 -0.71875 -0.296875q-0.265625 -0.3125 -0.265625 -1.0625zm0 -0.59375l0 -3.171877q-1.375 0.5468769 -1.78125 0.7656269q-0.71875 0.40625 -1.03125 0.84375q-0.296875 0.4375 -0.296875 0.953125q0 0.65625 0.390625 1.09375q0.390625 0.421875 0.890625 0.421875q0.703125 0 1.828125 -0.90625zm5.9680176 -9.296877l0 2.75l1.953125 0l0 0.640625l-1.953125 0l0 5.406252q0 0.8125 0.234375 1.09375q0.234375 0.28125 0.59375 0.28125q0.3125 0 0.59375 -0.1875q0.28125 -0.1875 0.4375 -0.546875l0.34375 0q-0.3125 0.890625 -0.90625 1.34375q-0.578125 0.453125 -1.1875 0.453125q-0.421875 0 -0.828125 -0.234375q-0.390625 -0.234375 -0.59375 -0.65625q-0.1875 -0.4375 -0.1875 -1.34375l0 -5.609377l-1.3125 0l0 -0.296875q0.5 -0.203125 1.015625 -0.6875q0.53125 -0.484375 0.9375 -1.125q0.203125 -0.359375 0.578125 -1.28125l0.28125 0zm5.1832886 0l0 2.75l1.953125 0l0 0.640625l-1.953125 0l0 5.406252q0 0.8125 0.234375 1.09375q0.234375 0.28125 0.59375 0.28125q0.3125 0 0.59375 -0.1875q0.28125 -0.1875 0.4375 -0.546875l0.34375 0q-0.3125 0.890625 -0.90625 1.34375q-0.578125 0.453125 -1.1875 0.453125q-0.421875 0 -0.828125 -0.234375q-0.390625 -0.234375 -0.59375 -0.65625q-0.1875 -0.4375 -0.1875 -1.34375l0 -5.609377l-1.3125 0l0 -0.296875q0.5 -0.203125 1.015625 -0.6875q0.53125 -0.484375 0.9375 -1.125q0.203125 -0.359375 0.578125 -1.28125l0.28125 0zm5.214569 2.5l0 1.875q1.046875 -1.875 2.140625 -1.875q0.5 0 0.828125 0.3125q0.328125 0.296875 0.328125 0.703125q0 0.359375 -0.234375 0.609375q-0.234375 0.234375 -0.5625 0.234375q-0.328125 0 -0.71875 -0.3125q-0.390625 -0.3125 -0.578125 -0.3125q-0.171875 0 -0.359375 0.1875q-0.40625 0.359375 -0.84375 1.21875l0 4.000002q0 0.703125 0.171875 1.046875q0.109375 0.25 0.40625 0.421875q0.3125 0.15625 0.875 0.15625l0 0.328125l-4.28125 0l0 -0.328125q0.640625 0 0.953125 -0.203125q0.234375 -0.140625 0.3125 -0.46875q0.046875 -0.140625 0.046875 -0.875l0 -3.234377q0 -1.453125 -0.0625 -1.734375q-0.046875 -0.28125 -0.21875 -0.40625q-0.15625 -0.125 -0.390625 -0.125q-0.28125 0 -0.640625 0.140625l-0.078125 -0.328125l2.515625 -1.03125l0.390625 0zm5.884552 -4.359375q0.390625 0 0.65625 0.265625q0.265625 0.265625 0.265625 0.65625q0 0.375 -0.265625 0.65625q-0.265625 0.265625 -0.65625 0.265625q-0.375 0 -0.65625 -0.265625q-0.265625 -0.28125 -0.265625 -0.65625q0 -0.390625 0.265625 -0.65625q0.265625 -0.265625 0.65625 -0.265625zm0.765625 4.359375l0 6.703127q0 0.78125 0.109375 1.046875q0.109375 0.265625 0.328125 0.390625q0.234375 0.125 0.828125 0.125l0 0.328125l-4.0625 0l0 -0.328125q0.609375 0 0.8125 -0.109375q0.21875 -0.125 0.34375 -0.390625q0.125 -0.28125 0.125 -1.0625l0 -3.203127q0 -1.359375 -0.078125 -1.765625q-0.078125 -0.296875 -0.21875 -0.40625q-0.125 -0.109375 -0.359375 -0.109375q-0.265625 0 -0.625 0.140625l-0.125 -0.328125l2.515625 -1.03125l0.40625 0zm4.5895386 1.6875q1.203125 -1.6875 2.609375 -1.6875q1.28125 0 2.234375 1.109375q0.96875 1.09375 0.96875 3.000002q0 2.21875 -1.484375 3.578125q-1.265625 1.15625 -2.828125 1.15625q-0.71875 0 -1.46875 -0.25q-0.75 -0.265625 -1.546875 -0.796875l0 -8.656252q0 -1.421875 -0.0625 -1.75q-0.0625 -0.328125 -0.21875 -0.4375q-0.140625 -0.125 -0.359375 -0.125q-0.25 0 -0.640625 0.15625l-0.125 -0.328125l2.5 -1.015625l0.421875 0l0 6.046875zm0 0.578125l0 5.000002q0.453125 0.453125 0.953125 0.6875q0.5 0.234375 1.015625 0.234375q0.828125 0 1.546875 -0.90625q0.71875 -0.921875 0.71875 -2.65625q0 -1.6093769 -0.71875 -2.468752q-0.71875 -0.859375 -1.625 -0.859375q-0.484375 0 -0.96875 0.25q-0.359375 0.171875 -0.921875 0.71875zm14.34375 -2.015625l0 5.062502q0 1.4375 0.0625 1.765625q0.078125 0.328125 0.21875 0.453125q0.15625 0.125 0.359375 0.125q0.28125 0 0.640625 -0.15625l0.125 0.3125l-2.484375 1.03125l-0.421875 0l0 -1.765625q-1.078125 1.171875 -1.640625 1.46875q-0.5625 0.296875 -1.1875 0.296875q-0.703125 0 -1.21875 -0.40625q-0.515625 -0.40625 -0.71875 -1.03125q-0.1875 -0.640625 -0.1875 -1.8125l0 -3.718752q0 -0.59375 -0.140625 -0.8125q-0.125 -0.234375 -0.375 -0.359375q-0.25 -0.125 -0.90625 -0.109375l0 -0.34375l2.921875 0l0 5.578127q0 1.171875 0.40625 1.546875q0.40625 0.359375 0.984375 0.359375q0.390625 0 0.890625 -0.25q0.5 -0.25 1.171875 -0.9375l0 -4.734377q0 -0.703125 -0.265625 -0.953125q-0.25 -0.25 -1.0625 -0.265625l0 -0.34375l2.828125 0zm4.4375 -2.75l0 2.75l1.953125 0l0 0.640625l-1.953125 0l0 5.406252q0 0.8125 0.234375 1.09375q0.234375 0.28125 0.59375 0.28125q0.3125 0 0.59375 -0.1875q0.28125 -0.1875 0.4375 -0.546875l0.34375 0q-0.3125 0.890625 -0.90625 1.34375q-0.578125 0.453125 -1.1875 0.453125q-0.421875 0 -0.828125 -0.234375q-0.390625 -0.234375 -0.59375 -0.65625q-0.1875 -0.4375 -0.1875 -1.34375l0 -5.609377l-1.3125 0l0 -0.296875q0.5 -0.203125 1.015625 -0.6875q0.53125 -0.484375 0.9375 -1.125q0.203125 -0.359375 0.578125 -1.28125l0.28125 0zm4.1677246 5.890625q0 1.8593769 0.90625 2.921877q0.90625 1.046875 2.140625 1.046875q0.8125 0 1.421875 -0.4375q0.609375 -0.453125 1.015625 -1.546875l0.28125 0.171875q-0.1875 1.25 -1.109375 2.28125q-0.921875 1.015625 -2.296875 1.015625q-1.515625 0 -2.59375 -1.171875q-1.0625 -1.171875 -1.0625 -3.140625q0 -2.140627 1.09375 -3.328127q1.109375 -1.203125 2.765625 -1.203125q1.40625 0 2.296875 0.921875q0.90625 0.921875 0.90625 2.46875l-5.765625 0zm0 -0.53125l3.859375 0q-0.046875 -0.796875 -0.1875 -1.125q-0.234375 -0.515625 -0.6875 -0.796875q-0.4375 -0.296875 -0.9375 -0.296875q-0.75 0 -1.34375 0.59375q-0.59375 0.578125 -0.703125 1.625z" fill-rule="nonzero"/><path fill="#000000" fill-opacity="0.0" d="m632.49603 52.33858l170.83466 0l0 62.45669l-170.83466 0z" fill-rule="evenodd"/><path fill="#000000" d="m642.2773 72.66483q0 -2.359375 0.484375 -3.796875q0.484375 -1.453125 1.4375 -2.234375q0.96875 -0.78125 2.421875 -0.78125q1.078125 0 1.890625 0.4375q0.8125 0.421875 1.328125 1.25q0.53125 0.8125 0.828125 1.984375q0.3125 1.15625 0.3125 3.140625q0 2.359375 -0.484375 3.8125q-0.484375 1.4375 -1.453125 2.234375q-0.953125 0.78125 -2.421875 0.78125q-1.921875 0 -3.03125 -1.390625q-1.3125 -1.671875 -1.3125 -5.4375zm1.671875 0q0 3.296875 0.765625 4.390625q0.78125 1.078125 1.90625 1.078125q1.140625 0 1.90625 -1.09375q0.765625 -1.09375 0.765625 -4.375q0 -3.296875 -0.765625 -4.375q-0.765625 -1.078125 -1.921875 -1.078125q-1.125 0 -1.796875 0.953125q-0.859375 1.21875 -0.859375 4.5zm9.610107 -1.21875l0 -1.859375l1.859375 0l0 1.859375l-1.859375 0zm0 7.8125l0 -1.875l1.859375 0l0 1.875l-1.859375 0zm10.304138 0l0 -8.40625l-1.453125 0l0 -1.265625l1.453125 0l0 -1.03125q0 -0.96875 0.171875 -1.453125q0.234375 -0.640625 0.828125 -1.03125q0.59375 -0.390625 1.671875 -0.390625q0.6875 0 1.53125 0.15625l-0.25 1.4375q-0.5 -0.09375 -0.953125 -0.09375q-0.75 0 -1.0625 0.328125q-0.3125 0.3125 -0.3125 1.1875l0 0.890625l1.890625 0l0 1.265625l-1.890625 0l0 8.40625l-1.625 0zm7.9176636 3.921875q-1.359375 -1.703125 -2.296875 -4.0q-0.9375 -2.296875 -0.9375 -4.765625q0 -2.15625 0.703125 -4.140625q0.828125 -2.3125 2.53125 -4.59375l1.171875 0q-1.09375 1.890625 -1.453125 2.703125q-0.546875 1.25 -0.875 2.625q-0.390625 1.703125 -0.390625 3.421875q0 4.375 2.71875 8.75l-1.171875 0zm1.9938965 -3.921875l3.53125 -5.03125l-3.265625 -4.640625l2.046875 0l1.484375 2.265625q0.421875 0.640625 0.671875 1.078125q0.40625 -0.59375 0.734375 -1.0625l1.640625 -2.28125l1.953125 0l-3.34375 4.546875l3.59375 5.125l-2.015625 0l-1.984375 -3.0l-0.515625 -0.8125l-2.546875 3.8125l-1.984375 0zm11.5 3.921875l-1.1875 0q2.734375 -4.375 2.734375 -8.75q0 -1.71875 -0.390625 -3.390625q-0.3125 -1.375 -0.875 -2.625q-0.359375 -0.828125 -1.46875 -2.734375l1.1875 0q1.703125 2.28125 2.53125 4.59375q0.6875 1.984375 0.6875 4.140625q0 2.46875 -0.9375 4.765625q-0.9375 2.296875 -2.28125 4.0zm10.317871 -15.390625l0 -1.890625l1.640625 0l0 1.890625l-1.640625 0zm0 11.46875l0 -9.671875l1.640625 0l0 9.671875l-1.640625 0zm3.4885864 -2.890625l1.625 -0.25q0.125 0.96875 0.75 1.5q0.625 0.515625 1.75 0.515625q1.125 0 1.671875 -0.453125q0.546875 -0.46875 0.546875 -1.09375q0 -0.546875 -0.484375 -0.875q-0.328125 -0.21875 -1.671875 -0.546875q-1.8125 -0.46875 -2.515625 -0.796875q-0.6875 -0.328125 -1.046875 -0.90625q-0.359375 -0.59375 -0.359375 -1.3125q0 -0.640625 0.296875 -1.1875q0.296875 -0.5625 0.8125 -0.921875q0.375 -0.28125 1.03125 -0.46875q0.671875 -0.203125 1.421875 -0.203125q1.140625 0 2.0 0.328125q0.859375 0.328125 1.265625 0.890625q0.421875 0.5625 0.578125 1.5l-1.609375 0.21875q-0.109375 -0.75 -0.640625 -1.171875q-0.515625 -0.421875 -1.46875 -0.421875q-1.140625 0 -1.625 0.375q-0.46875 0.375 -0.46875 0.875q0 0.3125 0.1875 0.578125q0.203125 0.265625 0.640625 0.4375q0.234375 0.09375 1.4375 0.421875q1.75 0.453125 2.4375 0.75q0.6875 0.296875 1.078125 0.859375q0.390625 0.5625 0.390625 1.40625q0 0.828125 -0.484375 1.546875q-0.46875 0.71875 -1.375 1.125q-0.90625 0.390625 -2.046875 0.390625q-1.875 0 -2.875 -0.78125q-0.984375 -0.78125 -1.25 -2.328125zm21.480164 -0.65625l1.609375 0.21875q-0.265625 1.65625 -1.359375 2.609375q-1.078125 0.9375 -2.671875 0.9375q-1.984375 0 -3.1875 -1.296875q-1.203125 -1.296875 -1.203125 -3.71875q0 -1.578125 0.515625 -2.75q0.515625 -1.171875 1.578125 -1.75q1.0625 -0.59375 2.3125 -0.59375q1.578125 0 2.578125 0.796875q1.0 0.796875 1.28125 2.265625l-1.59375 0.234375q-0.234375 -0.96875 -0.8125 -1.453125q-0.578125 -0.5 -1.390625 -0.5q-1.234375 0 -2.015625 0.890625q-0.78125 0.890625 -0.78125 2.8125q0 1.953125 0.75 2.84375q0.75 0.875 1.953125 0.875q0.96875 0 1.609375 -0.59375q0.65625 -0.59375 0.828125 -1.828125zm2.40625 -1.296875q0 -2.6875 1.484375 -3.96875q1.25 -1.078125 3.046875 -1.078125q2.0 0 3.265625 1.3125q1.265625 1.296875 1.265625 3.609375q0 1.859375 -0.5625 2.9375q-0.5625 1.0625 -1.640625 1.65625q-1.0625 0.59375 -2.328125 0.59375q-2.03125 0 -3.28125 -1.296875q-1.25 -1.3125 -1.25 -3.765625zm1.6875 0q0 1.859375 0.796875 2.796875q0.8125 0.921875 2.046875 0.921875q1.21875 0 2.03125 -0.921875q0.8125 -0.9375 0.8125 -2.84375q0 -1.796875 -0.8125 -2.71875q-0.8125 -0.921875 -2.03125 -0.921875q-1.234375 0 -2.046875 0.921875q-0.796875 0.90625 -0.796875 2.765625zm9.297607 4.84375l0 -9.671875l1.46875 0l0 1.375q1.0625 -1.59375 3.078125 -1.59375q0.875 0 1.609375 0.3125q0.734375 0.3125 1.09375 0.828125q0.375 0.5 0.515625 1.203125q0.09375 0.453125 0.09375 1.59375l0 5.953125l-1.640625 0l0 -5.890625q0 -1.0 -0.203125 -1.484375q-0.1875 -0.5 -0.671875 -0.796875q-0.484375 -0.296875 -1.140625 -0.296875q-1.046875 0 -1.8125 0.671875q-0.75 0.65625 -0.75 2.515625l0 5.28125l-1.640625 0zm9.719482 -2.890625l1.625 -0.25q0.125 0.96875 0.75 1.5q0.625 0.515625 1.75 0.515625q1.125 0 1.671875 -0.453125q0.546875 -0.46875 0.546875 -1.09375q0 -0.546875 -0.484375 -0.875q-0.328125 -0.21875 -1.671875 -0.546875q-1.8125 -0.46875 -2.515625 -0.796875q-0.6875 -0.328125 -1.046875 -0.90625q-0.359375 -0.59375 -0.359375 -1.3125q0 -0.640625 0.296875 -1.1875q0.296875 -0.5625 0.8125 -0.921875q0.375 -0.28125 1.03125 -0.46875q0.671875 -0.203125 1.421875 -0.203125q1.140625 0 2.0 0.328125q0.859375 0.328125 1.265625 0.890625q0.421875 0.5625 0.578125 1.5l-1.609375 0.21875q-0.109375 -0.75 -0.640625 -1.171875q-0.515625 -0.421875 -1.46875 -0.421875q-1.140625 0 -1.625 0.375q-0.46875 0.375 -0.46875 0.875q0 0.3125 0.1875 0.578125q0.203125 0.265625 0.640625 0.4375q0.234375 0.09375 1.4375 0.421875q1.75 0.453125 2.4375 0.75q0.6875 0.296875 1.078125 0.859375q0.390625 0.5625 0.390625 1.40625q0 0.828125 -0.484375 1.546875q-0.46875 0.71875 -1.375 1.125q-0.90625 0.390625 -2.046875 0.390625q-1.875 0 -2.875 -0.78125q-0.984375 -0.78125 -1.25 -2.328125zm13.5625 1.421875l0.234375 1.453125q-0.6875 0.140625 -1.234375 0.140625q-0.890625 0 -1.390625 -0.28125q-0.484375 -0.28125 -0.6875 -0.734375q-0.203125 -0.46875 -0.203125 -1.9375l0 -5.578125l-1.203125 0l0 -1.265625l1.203125 0l0 -2.390625l1.625 -0.984375l0 3.375l1.65625 0l0 1.265625l-1.65625 0l0 5.671875q0 0.6875 0.078125 0.890625q0.09375 0.203125 0.28125 0.328125q0.203125 0.109375 0.578125 0.109375q0.265625 0 0.71875 -0.0625zm7.9176636 0.28125q-0.921875 0.765625 -1.765625 1.09375q-0.828125 0.3125 -1.796875 0.3125q-1.59375 0 -2.453125 -0.78125q-0.859375 -0.78125 -0.859375 -1.984375q0 -0.71875 0.328125 -1.296875q0.328125 -0.59375 0.84375 -0.9375q0.53125 -0.359375 1.1875 -0.546875q0.46875 -0.125 1.453125 -0.25q1.984375 -0.234375 2.921875 -0.5625q0.015625 -0.34375 0.015625 -0.421875q0 -1.0 -0.46875 -1.421875q-0.625 -0.546875 -1.875 -0.546875q-1.15625 0 -1.703125 0.40625q-0.546875 0.40625 -0.8125 1.421875l-1.609375 -0.21875q0.21875 -1.015625 0.71875 -1.640625q0.5 -0.640625 1.453125 -0.984375q0.953125 -0.34375 2.1875 -0.34375q1.25 0 2.015625 0.296875q0.78125 0.28125 1.140625 0.734375q0.375 0.4375 0.515625 1.109375q0.078125 0.421875 0.078125 1.515625l0 2.1875q0 2.28125 0.109375 2.890625q0.109375 0.59375 0.40625 1.15625l-1.703125 0q-0.265625 -0.515625 -0.328125 -1.1875zm-0.140625 -3.671875q-0.890625 0.375 -2.671875 0.625q-1.015625 0.140625 -1.4375 0.328125q-0.421875 0.1875 -0.65625 0.53125q-0.21875 0.34375 -0.21875 0.78125q0 0.65625 0.5 1.09375q0.5 0.4375 1.453125 0.4375q0.9375 0 1.671875 -0.40625q0.75 -0.421875 1.09375 -1.140625q0.265625 -0.5625 0.265625 -1.640625l0 -0.609375zm4.2038574 4.859375l0 -9.671875l1.46875 0l0 1.375q1.0625 -1.59375 3.078125 -1.59375q0.875 0 1.609375 0.3125q0.734375 0.3125 1.09375 0.828125q0.375 0.5 0.515625 1.203125q0.09375 0.453125 0.09375 1.59375l0 5.953125l-1.640625 0l0 -5.890625q0 -1.0 -0.203125 -1.484375q-0.1875 -0.5 -0.671875 -0.796875q-0.484375 -0.296875 -1.140625 -0.296875q-1.046875 0 -1.8125 0.671875q-0.75 0.65625 -0.75 2.515625l0 5.28125l-1.640625 0zm13.953796 -1.46875l0.234375 1.453125q-0.6875 0.140625 -1.234375 0.140625q-0.890625 0 -1.390625 -0.28125q-0.484375 -0.28125 -0.6875 -0.734375q-0.203125 -0.46875 -0.203125 -1.9375l0 -5.578125l-1.203125 0l0 -1.265625l1.203125 0l0 -2.390625l1.625 -0.984375l0 3.375l1.65625 0l0 1.265625l-1.65625 0l0 5.671875q0 0.6875 0.078125 0.890625q0.09375 0.203125 0.28125 0.328125q0.203125 0.109375 0.578125 0.109375q0.265625 0 0.71875 -0.0625z" fill-rule="nonzero"/><path fill="#000000" d="m648.44916 101.25858l-1.640625 0l0 -10.453125q-0.59375 0.5625 -1.5625 1.140625q-0.953125 0.5625 -1.71875 0.84375l0 -1.59375q1.375 -0.640625 2.40625 -1.5625q1.03125 -0.921875 1.453125 -1.78125l1.0625 0l0 13.40625zm5.1101074 -7.8125l0 -1.859375l1.859375 0l0 1.859375l-1.859375 0zm0 7.8125l0 -1.875l1.859375 0l0 1.875l-1.859375 0zm10.304138 0l0 -8.40625l-1.453125 0l0 -1.265625l1.453125 0l0 -1.03125q0 -0.96875 0.171875 -1.453125q0.234375 -0.640625 0.828125 -1.03125q0.59375 -0.390625 1.671875 -0.390625q0.6875 0 1.53125 0.15625l-0.25 1.4375q-0.5 -0.09375 -0.953125 -0.09375q-0.75 0 -1.0625 0.328125q-0.3125 0.3125 -0.3125 1.1875l0 0.890625l1.890625 0l0 1.265625l-1.890625 0l0 8.40625l-1.625 0zm7.9176636 3.921875q-1.359375 -1.703125 -2.296875 -4.0q-0.9375 -2.296875 -0.9375 -4.765625q0 -2.15625 0.703125 -4.140625q0.828125 -2.3125 2.53125 -4.59375l1.171875 0q-1.09375 1.890625 -1.453125 2.703125q-0.546875 1.25 -0.875 2.625q-0.390625 1.703125 -0.390625 3.421875q0 4.375 2.71875 8.75l-1.171875 0zm1.9938965 -3.921875l3.53125 -5.03125l-3.265625 -4.640625l2.046875 0l1.484375 2.265625q0.421875 0.640625 0.671875 1.078125q0.40625 -0.59375 0.734375 -1.0625l1.640625 -2.28125l1.953125 0l-3.34375 4.546875l3.59375 5.125l-2.015625 0l-1.984375 -3.0l-0.515625 -0.8125l-2.546875 3.8125l-1.984375 0zm11.5 3.921875l-1.1875 0q2.734375 -4.375 2.734375 -8.75q0 -1.71875 -0.390625 -3.390625q-0.3125 -1.375 -0.875 -2.625q-0.359375 -0.828125 -1.46875 -2.734375l1.1875 0q1.703125 2.28125 2.53125 4.59375q0.6875 1.984375 0.6875 4.140625q0 2.46875 -0.9375 4.765625q-0.9375 2.296875 -2.28125 4.0zm10.317871 -15.390625l0 -1.890625l1.640625 0l0 1.890625l-1.640625 0zm0 11.46875l0 -9.671875l1.640625 0l0 9.671875l-1.640625 0zm3.4885864 -2.890625l1.625 -0.25q0.125 0.96875 0.75 1.5q0.625 0.515625 1.75 0.515625q1.125 0 1.671875 -0.453125q0.546875 -0.46875 0.546875 -1.09375q0 -0.546875 -0.484375 -0.875q-0.328125 -0.21875 -1.671875 -0.546875q-1.8125 -0.46875 -2.515625 -0.796875q-0.6875 -0.328125 -1.046875 -0.90625q-0.359375 -0.59375 -0.359375 -1.3125q0 -0.640625 0.296875 -1.1875q0.296875 -0.5625 0.8125 -0.921875q0.375 -0.28125 1.03125 -0.46875q0.671875 -0.203125 1.421875 -0.203125q1.140625 0 2.0 0.328125q0.859375 0.328125 1.265625 0.890625q0.421875 0.5625 0.578125 1.5l-1.609375 0.21875q-0.109375 -0.75 -0.640625 -1.171875q-0.515625 -0.421875 -1.46875 -0.421875q-1.140625 0 -1.625 0.375q-0.46875 0.375 -0.46875 0.875q0 0.3125 0.1875 0.578125q0.203125 0.265625 0.640625 0.4375q0.234375 0.09375 1.4375 0.421875q1.75 0.453125 2.4375 0.75q0.6875 0.296875 1.078125 0.859375q0.390625 0.5625 0.390625 1.40625q0 0.828125 -0.484375 1.546875q-0.46875 0.71875 -1.375 1.125q-0.90625 0.390625 -2.046875 0.390625q-1.875 0 -2.875 -0.78125q-0.984375 -0.78125 -1.25 -2.328125zm16.667664 2.890625l-1.515625 0l0 -13.359375l1.640625 0l0 4.765625q1.046875 -1.296875 2.65625 -1.296875q0.890625 0 1.6875 0.359375q0.796875 0.359375 1.3125 1.015625q0.515625 0.640625 0.796875 1.5625q0.296875 0.921875 0.296875 1.96875q0 2.484375 -1.234375 3.84375q-1.21875 1.359375 -2.953125 1.359375q-1.703125 0 -2.6875 -1.4375l0 1.21875zm-0.015625 -4.90625q0 1.734375 0.484375 2.515625q0.765625 1.265625 2.09375 1.265625q1.078125 0 1.859375 -0.9375q0.78125 -0.9375 0.78125 -2.78125q0 -1.890625 -0.75 -2.796875q-0.75 -0.90625 -1.828125 -0.90625q-1.0625 0 -1.859375 0.9375q-0.78125 0.9375 -0.78125 2.703125zm15.203857 3.71875q-0.921875 0.765625 -1.765625 1.09375q-0.828125 0.3125 -1.796875 0.3125q-1.59375 0 -2.453125 -0.78125q-0.859375 -0.78125 -0.859375 -1.984375q0 -0.71875 0.328125 -1.296875q0.328125 -0.59375 0.84375 -0.9375q0.53125 -0.359375 1.1875 -0.546875q0.46875 -0.125 1.453125 -0.25q1.984375 -0.234375 2.921875 -0.5625q0.015625 -0.34375 0.015625 -0.421875q0 -1.0 -0.46875 -1.421875q-0.625 -0.546875 -1.875 -0.546875q-1.15625 0 -1.703125 0.40625q-0.546875 0.40625 -0.8125 1.421875l-1.609375 -0.21875q0.21875 -1.015625 0.71875 -1.640625q0.5 -0.640625 1.453125 -0.984375q0.953125 -0.34375 2.1875 -0.34375q1.25 0 2.015625 0.296875q0.78125 0.28125 1.140625 0.734375q0.375 0.4375 0.515625 1.109375q0.078125 0.421875 0.078125 1.515625l0 2.1875q0 2.28125 0.109375 2.890625q0.109375 0.59375 0.40625 1.15625l-1.703125 0q-0.265625 -0.515625 -0.328125 -1.1875zm-0.140625 -3.671875q-0.890625 0.375 -2.671875 0.625q-1.015625 0.140625 -1.4375 0.328125q-0.421875 0.1875 -0.65625 0.53125q-0.21875 0.34375 -0.21875 0.78125q0 0.65625 0.5 1.09375q0.5 0.4375 1.453125 0.4375q0.9375 0 1.671875 -0.40625q0.75 -0.421875 1.09375 -1.140625q0.265625 -0.5625 0.265625 -1.640625l0 -0.609375zm4.1569824 4.859375l0 -13.359375l1.640625 0l0 13.359375l-1.640625 0zm10.50415 -1.1875q-0.921875 0.765625 -1.765625 1.09375q-0.828125 0.3125 -1.796875 0.3125q-1.59375 0 -2.453125 -0.78125q-0.859375 -0.78125 -0.859375 -1.984375q0 -0.71875 0.328125 -1.296875q0.328125 -0.59375 0.84375 -0.9375q0.53125 -0.359375 1.1875 -0.546875q0.46875 -0.125 1.453125 -0.25q1.984375 -0.234375 2.921875 -0.5625q0.015625 -0.34375 0.015625 -0.421875q0 -1.0 -0.46875 -1.421875q-0.625 -0.546875 -1.875 -0.546875q-1.15625 0 -1.703125 0.40625q-0.546875 0.40625 -0.8125 1.421875l-1.609375 -0.21875q0.21875 -1.015625 0.71875 -1.640625q0.5 -0.640625 1.453125 -0.984375q0.953125 -0.34375 2.1875 -0.34375q1.25 0 2.015625 0.296875q0.78125 0.28125 1.140625 0.734375q0.375 0.4375 0.515625 1.109375q0.078125 0.421875 0.078125 1.515625l0 2.1875q0 2.28125 0.109375 2.890625q0.109375 0.59375 0.40625 1.15625l-1.703125 0q-0.265625 -0.515625 -0.328125 -1.1875zm-0.140625 -3.671875q-0.890625 0.375 -2.671875 0.625q-1.015625 0.140625 -1.4375 0.328125q-0.421875 0.1875 -0.65625 0.53125q-0.21875 0.34375 -0.21875 0.78125q0 0.65625 0.5 1.09375q0.5 0.4375 1.453125 0.4375q0.9375 0 1.671875 -0.40625q0.75 -0.421875 1.09375 -1.140625q0.265625 -0.5625 0.265625 -1.640625l0 -0.609375zm4.2038574 4.859375l0 -9.671875l1.46875 0l0 1.375q1.0625 -1.59375 3.078125 -1.59375q0.875 0 1.609375 0.3125q0.734375 0.3125 1.09375 0.828125q0.375 0.5 0.515625 1.203125q0.09375 0.453125 0.09375 1.59375l0 5.953125l-1.640625 0l0 -5.890625q0 -1.0 -0.203125 -1.484375q-0.1875 -0.5 -0.671875 -0.796875q-0.484375 -0.296875 -1.140625 -0.296875q-1.046875 0 -1.8125 0.671875q-0.75 0.65625 -0.75 2.515625l0 5.28125l-1.640625 0zm16.688232 -3.546875l1.609375 0.21875q-0.265625 1.65625 -1.359375 2.609375q-1.078125 0.9375 -2.671875 0.9375q-1.984375 0 -3.1875 -1.296875q-1.203125 -1.296875 -1.203125 -3.71875q0 -1.578125 0.515625 -2.75q0.515625 -1.171875 1.578125 -1.75q1.0625 -0.59375 2.3125 -0.59375q1.578125 0 2.578125 0.796875q1.0 0.796875 1.28125 2.265625l-1.59375 0.234375q-0.234375 -0.96875 -0.8125 -1.453125q-0.578125 -0.5 -1.390625 -0.5q-1.234375 0 -2.015625 0.890625q-0.78125 0.890625 -0.78125 2.8125q0 1.953125 0.75 2.84375q0.75 0.875 1.953125 0.875q0.96875 0 1.609375 -0.59375q0.65625 -0.59375 0.828125 -1.828125zm9.640625 0.4375l1.6875 0.203125q-0.40625 1.484375 -1.484375 2.3125q-1.078125 0.8125 -2.765625 0.8125q-2.125 0 -3.375 -1.296875q-1.234375 -1.3125 -1.234375 -3.671875q0 -2.453125 1.25 -3.796875q1.265625 -1.34375 3.265625 -1.34375q1.9375 0 3.15625 1.328125q1.234375 1.3125 1.234375 3.703125q0 0.15625 0 0.4375l-7.21875 0q0.09375 1.59375 0.90625 2.453125q0.8125 0.84375 2.015625 0.84375q0.90625 0 1.546875 -0.46875q0.640625 -0.484375 1.015625 -1.515625zm-5.390625 -2.65625l5.40625 0q-0.109375 -1.21875 -0.625 -1.828125q-0.78125 -0.953125 -2.03125 -0.953125q-1.125 0 -1.90625 0.765625q-0.765625 0.75 -0.84375 2.015625zm15.406982 5.765625l0 -1.21875q-0.90625 1.4375 -2.703125 1.4375q-1.15625 0 -2.125 -0.640625q-0.96875 -0.640625 -1.5 -1.78125q-0.53125 -1.140625 -0.53125 -2.625q0 -1.453125 0.484375 -2.625q0.484375 -1.1875 1.4375 -1.8125q0.96875 -0.625 2.171875 -0.625q0.875 0 1.546875 0.375q0.6875 0.359375 1.109375 0.953125l0 -4.796875l1.640625 0l0 13.359375l-1.53125 0zm-5.171875 -4.828125q0 1.859375 0.78125 2.78125q0.78125 0.921875 1.84375 0.921875q1.078125 0 1.828125 -0.875q0.75 -0.890625 0.75 -2.6875q0 -1.984375 -0.765625 -2.90625q-0.765625 -0.9375 -1.890625 -0.9375q-1.078125 0 -1.8125 0.890625q-0.734375 0.890625 -0.734375 2.8125z" fill-rule="nonzero"/><path fill="#000000" fill-opacity="0.0" d="m208.5958 61.535435l27.59056 0l0 43.307087l-27.59056 0z" fill-rule="evenodd"/><path fill="#000000" d="m218.10823 80.11168l3.921875 0l0 0.34375q-0.375 0 -0.53125 0.125q-0.140625 0.125 -0.140625 0.328125q0 0.21875 0.3125 0.671875q0.109375 0.15625 0.3125 0.46875l0.578125 0.9375l0.6875 -0.9375q0.65625 -0.90625 0.65625 -1.140625q0 -0.203125 -0.15625 -0.328125q-0.15625 -0.125 -0.5 -0.125l0 -0.34375l2.828125 0l0 0.34375q-0.453125 0.015625 -0.78125 0.234375q-0.4375 0.3125 -1.21875 1.359375l-1.140625 1.515625l2.078125 2.984375q0.765625 1.109375 1.09375 1.328125q0.328125 0.21875 0.84375 0.25l0 0.328125l-3.921875 0l0 -0.328125q0.40625 0 0.625 -0.1875q0.171875 -0.125 0.171875 -0.328125q0 -0.21875 -0.578125 -1.0625l-1.21875 -1.78125l-1.34375 1.78125q-0.609375 0.828125 -0.609375 0.984375q0 0.21875 0.203125 0.40625q0.203125 0.171875 0.609375 0.1875l0 0.328125l-2.71875 0l0 -0.328125q0.328125 -0.046875 0.578125 -0.234375q0.34375 -0.25 1.15625 -1.34375l1.75 -2.328125l-1.578125 -2.28125q-0.671875 -0.984375 -1.046875 -1.234375q-0.375 -0.25 -0.921875 -0.25l0 -0.34375z" fill-rule="nonzero"/><path fill="#000000" fill-opacity="0.0" d="m208.2126 177.33595l27.590546 0l0 43.3071l-27.590546 0z" fill-rule="evenodd"/><path fill="#000000" d="m217.5844 195.9122l3.890625 0l0 0.34375l-0.1875 0q-0.421875 0 -0.625 0.171875q-0.203125 0.171875 -0.203125 0.4375q0 0.359375 0.296875 0.984375l2.03125 4.203125l1.875 -4.609375q0.15625 -0.359375 0.15625 -0.734375q0 -0.15625 -0.0625 -0.234375q-0.078125 -0.109375 -0.234375 -0.15625q-0.15625 -0.0625 -0.546875 -0.0625l0 -0.34375l2.71875 0l0 0.34375q-0.34375 0.03125 -0.53125 0.140625q-0.171875 0.109375 -0.390625 0.40625q-0.078125 0.125 -0.3125 0.703125l-3.390625 8.328125q-0.5 1.203125 -1.296875 1.828125q-0.796875 0.625 -1.53125 0.625q-0.53125 0 -0.890625 -0.3125q-0.34375 -0.3125 -0.34375 -0.71875q0 -0.375 0.25 -0.609375q0.25 -0.234375 0.6875 -0.234375q0.3125 0 0.828125 0.203125q0.359375 0.140625 0.453125 0.140625q0.28125 0 0.59375 -0.28125q0.328125 -0.28125 0.65625 -1.09375l0.59375 -1.453125l-3.0 -6.296875q-0.140625 -0.28125 -0.4375 -0.703125q-0.234375 -0.3125 -0.375 -0.421875q-0.203125 -0.140625 -0.671875 -0.25l0 -0.34375z" fill-rule="nonzero"/><path fill="#000000" fill-opacity="0.0" d="m305.50656 61.535435l27.590546 0l0 43.307087l-27.590546 0z" fill-rule="evenodd"/><path fill="#000000" d="m315.01898 80.11168l3.921875 0l0 0.34375q-0.375 0 -0.53125 0.125q-0.140625 0.125 -0.140625 0.328125q0 0.21875 0.3125 0.671875q0.109375 0.15625 0.3125 0.46875l0.578125 0.9375l0.6875 -0.9375q0.65625 -0.90625 0.65625 -1.140625q0 -0.203125 -0.15625 -0.328125q-0.15625 -0.125 -0.5 -0.125l0 -0.34375l2.828125 0l0 0.34375q-0.453125 0.015625 -0.78125 0.234375q-0.4375 0.3125 -1.21875 1.359375l-1.140625 1.515625l2.078125 2.984375q0.765625 1.109375 1.09375 1.328125q0.328125 0.21875 0.84375 0.25l0 0.328125l-3.921875 0l0 -0.328125q0.40625 0 0.625 -0.1875q0.171875 -0.125 0.171875 -0.328125q0 -0.21875 -0.578125 -1.0625l-1.21875 -1.78125l-1.34375 1.78125q-0.609375 0.828125 -0.609375 0.984375q0 0.21875 0.203125 0.40625q0.203125 0.171875 0.609375 0.1875l0 0.328125l-2.71875 0l0 -0.328125q0.328125 -0.046875 0.578125 -0.234375q0.34375 -0.25 1.15625 -1.34375l1.75 -2.328125l-1.578125 -2.28125q-0.671875 -0.984375 -1.046875 -1.234375q-0.375 -0.25 -0.921875 -0.25l0 -0.34375z" fill-rule="nonzero"/><path fill="#000000" fill-opacity="0.0" d="m238.39635 177.33595l93.10237 0l0 43.3071l-93.10237 0z" fill-rule="evenodd"/><path fill="#000000" d="m275.8138 195.9122l3.890625 0l0 0.34375l-0.1875 0q-0.421875 0 -0.625 0.171875q-0.203125 0.171875 -0.203125 0.4375q0 0.359375 0.296875 0.984375l2.03125 4.203125l1.875 -4.609375q0.15625 -0.359375 0.15625 -0.734375q0 -0.15625 -0.0625 -0.234375q-0.078125 -0.109375 -0.234375 -0.15625q-0.15625 -0.0625 -0.546875 -0.0625l0 -0.34375l2.71875 0l0 0.34375q-0.34375 0.03125 -0.53125 0.140625q-0.171875 0.109375 -0.390625 0.40625q-0.078125 0.125 -0.3125 0.703125l-3.390625 8.328125q-0.5 1.203125 -1.296875 1.828125q-0.796875 0.625 -1.53125 0.625q-0.53125 0 -0.890625 -0.3125q-0.34375 -0.3125 -0.34375 -0.71875q0 -0.375 0.25 -0.609375q0.25 -0.234375 0.6875 -0.234375q0.3125 0 0.828125 0.203125q0.359375 0.140625 0.453125 0.140625q0.28125 0 0.59375 -0.28125q0.328125 -0.28125 0.65625 -1.09375l0.59375 -1.453125l-3.0 -6.296875q-0.140625 -0.28125 -0.4375 -0.703125q-0.234375 -0.3125 -0.375 -0.421875q-0.203125 -0.140625 -0.671875 -0.25l0 -0.34375z" fill-rule="nonzero"/><path fill="#000000" d="m290.0013 197.64658l0 2.75l-0.515625 0l0 -2.75l-2.75 0l0 -0.515625l2.75 0l0 -2.75l0.515625 0l0 2.75l2.75 0l0 0.515625l-2.75 0zm-0.21875 3.421875q1.484375 0 2.59375 -1.125q1.046875 -1.03125 1.046875 -2.515625q0 -1.484375 -1.046875 -2.53125q-1.109375 -1.109375 -2.59375 -1.109375q-1.484375 0 -2.59375 1.109375q-1.046875 1.046875 -1.046875 2.53125q0 1.484375 1.046875 2.515625q1.109375 1.125 2.59375 1.125zm3.046875 -0.828125q-1.34375 1.34375 -3.046875 1.34375q-1.703125 0 -2.96875 -1.265625q-1.1875 -1.1875 -1.1875 -2.890625q0 -1.703125 1.109375 -2.828125q1.34375 -1.328125 3.046875 -1.328125q1.703125 0 2.96875 1.265625q1.1875 1.1875 1.1875 2.890625q0 1.703125 -1.109375 2.8125z" fill-rule="nonzero"/><path fill="#000000" d="m298.3763 196.56845l0 5.484375q0 1.171875 0.25 1.46875q0.34375 0.40625 0.90625 0.40625l0.75 0l0 0.328125l-4.96875 0l0 -0.328125l0.359375 0q0.375 0 0.671875 -0.171875q0.296875 -0.1875 0.40625 -0.5q0.125 -0.3125 0.125 -1.203125l0 -5.484375l-1.625 0l0 -0.65625l1.625 0l0 -0.546875q0 -1.25 0.390625 -2.109375q0.40625 -0.875 1.234375 -1.40625q0.828125 -0.53125 1.859375 -0.53125q0.953125 0 1.75 0.625q0.53125 0.40625 0.53125 0.921875q0 0.265625 -0.234375 0.515625q-0.234375 0.234375 -0.515625 0.234375q-0.203125 0 -0.4375 -0.140625q-0.234375 -0.15625 -0.578125 -0.65625q-0.328125 -0.5 -0.609375 -0.671875q-0.28125 -0.171875 -0.640625 -0.171875q-0.40625 0 -0.703125 0.234375q-0.296875 0.21875 -0.421875 0.6875q-0.125 0.46875 -0.125 2.40625l0 0.609375l2.15625 0l0 0.65625l-2.15625 0zm8.165802 11.34375l0 0.328125q-1.375 -0.6875 -2.296875 -1.609375q-1.3125 -1.328125 -2.03125 -3.125q-0.703125 -1.796875 -0.703125 -3.71875q0 -2.828125 1.390625 -5.15625q1.390625 -2.328125 3.640625 -3.328125l0 0.375q-1.125 0.625 -1.84375 1.703125q-0.71875 1.078125 -1.078125 2.734375q-0.359375 1.640625 -0.359375 3.4375q0 1.9375 0.3125 3.53125q0.234375 1.265625 0.5625 2.015625q0.34375 0.765625 0.90625 1.46875q0.578125 0.703125 1.5 1.34375zm0.665802 -12.0l3.921875 0l0 0.34375q-0.375 0 -0.53125 0.125q-0.140625 0.125 -0.140625 0.328125q0 0.21875 0.3125 0.671875q0.109375 0.15625 0.3125 0.46875l0.578125 0.9375l0.6875 -0.9375q0.65625 -0.90625 0.65625 -1.140625q0 -0.203125 -0.15625 -0.328125q-0.15625 -0.125 -0.5 -0.125l0 -0.34375l2.828125 0l0 0.34375q-0.453125 0.015625 -0.78125 0.234375q-0.4375 0.3125 -1.21875 1.359375l-1.140625 1.515625l2.078125 2.984375q0.765625 1.109375 1.09375 1.328125q0.328125 0.21875 0.84375 0.25l0 0.328125l-3.921875 0l0 -0.328125q0.40625 0 0.625 -0.1875q0.171875 -0.125 0.171875 -0.328125q0 -0.21875 -0.578125 -1.0625l-1.21875 -1.78125l-1.34375 1.78125q-0.609375 0.828125 -0.609375 0.984375q0 0.21875 0.203125 0.40625q0.203125 0.171875 0.609375 0.1875l0 0.328125l-2.71875 0l0 -0.328125q0.328125 -0.046875 0.578125 -0.234375q0.34375 -0.25 1.15625 -1.34375l1.75 -2.328125l-1.578125 -2.28125q-0.671875 -0.984375 -1.046875 -1.234375q-0.375 -0.25 -0.921875 -0.25l0 -0.34375zm9.5 -4.234375l0 -0.375q1.375 0.6875 2.296875 1.609375q1.3125 1.328125 2.015625 3.125q0.71875 1.78125 0.71875 3.734375q0 2.8125 -1.390625 5.140625q-1.390625 2.328125 -3.640625 3.328125l0 -0.328125q1.125 -0.625 1.84375 -1.703125q0.71875 -1.0625 1.0625 -2.71875q0.359375 -1.65625 0.359375 -3.453125q0 -1.9375 -0.296875 -3.546875q-0.234375 -1.25 -0.578125 -2.0q-0.328125 -0.765625 -0.90625 -1.46875q-0.5625 -0.703125 -1.484375 -1.34375z" fill-rule="nonzero"/><path fill="#000000" fill-opacity="0.0" d="m630.2953 101.8189c-3.9573364 0 -7.165344 -3.2080383 -7.165344 -7.1653595l0 -4.2992096c0 -3.9573135 -3.2080688 -7.165352 -7.1654053 -7.165352l0 0c3.9573364 0 7.1654053 -3.2080383 7.1654053 -7.1653595l0 -4.2992096l0 0c0 -3.9573212 3.2080078 -7.1653595 7.165344 -7.1653595z" fill-rule="evenodd"/><path fill="#000000" fill-opacity="0.0" d="m630.2953 101.8189c-3.9573364 0 -7.165344 -3.2080383 -7.165344 -7.1653595l0 -4.2992096c0 -3.9573135 -3.2080688 -7.165352 -7.1654053 -7.165352l0 0c3.9573364 0 7.1654053 -3.2080383 7.1654053 -7.1653595l0 -4.2992096l0 0c0 -3.9573212 3.2080078 -7.1653595 7.165344 -7.1653595" fill-rule="evenodd"/><path stroke="#000000" stroke-width="1.0" stroke-linejoin="round" stroke-linecap="butt" d="m630.2953 101.8189c-3.9573364 0 -7.165344 -3.2080383 -7.165344 -7.1653595l0 -4.2992096c0 -3.9573135 -3.2080688 -7.165352 -7.1654053 -7.165352l0 0c3.9573364 0 7.1654053 -3.2080383 7.1654053 -7.1653595l0 -4.2992096l0 0c0 -3.9573212 3.2080078 -7.1653595 7.165344 -7.1653595" fill-rule="evenodd"/><path fill="#000000" fill-opacity="0.0" d="m58.792652 233.93439l-0.40945053 -179.65355" fill-rule="evenodd"/><path stroke="#000000" stroke-width="1.0" stroke-linejoin="round" stroke-linecap="butt" stroke-dasharray="4.0,3.0" d="m58.792652 233.93439l-0.40945053 -179.65355" fill-rule="evenodd"/><path fill="#000000" fill-opacity="0.0" d="m41.942257 235.9895l33.29134 0l0 38.771667l-33.29134 0z" fill-rule="evenodd"/><path fill="#000000" d="m55.067257 259.08386l0.203125 1.25q-0.59375 0.125 -1.0625 0.125q-0.765625 0 -1.1875 -0.234375q-0.421875 -0.25 -0.59375 -0.640625q-0.171875 -0.40625 -0.171875 -1.671875l0 -4.7656097l-1.03125 0l0 -1.09375l1.03125 0l0 -2.0625l1.40625 -0.84375l0 2.90625l1.40625 0l0 1.09375l-1.40625 0l0 4.8437347q0 0.609375 0.0625 0.78125q0.078125 0.171875 0.25 0.28125q0.171875 0.09375 0.484375 0.09375q0.234375 0 0.609375 -0.0625zm0.9921875 -4.3906097q0 -2.03125 0.40625 -3.265625q0.421875 -1.234375 1.25 -1.90625q0.828125 -0.671875 2.078125 -0.671875q0.921875 0 1.609375 0.375q0.703125 0.359375 1.15625 1.0625q0.453125 0.703125 0.703125 1.703125q0.265625 1.0 0.265625 2.703125q0 2.0156097 -0.421875 3.2656097q-0.40625 1.234375 -1.234375 1.921875q-0.828125 0.671875 -2.078125 0.671875q-1.65625 0 -2.609375 -1.203125q-1.125 -1.421875 -1.125 -4.6562347zm1.4375 0q0 2.8281097 0.65625 3.7656097q0.671875 0.921875 1.640625 0.921875q0.96875 0 1.625 -0.9375q0.65625 -0.9375 0.65625 -3.7499847q0 -2.828125 -0.65625 -3.75q-0.65625 -0.9375 -1.640625 -0.9375q-0.96875 0 -1.546875 0.828125q-0.734375 1.046875 -0.734375 3.859375z" fill-rule="nonzero"/><path fill="#000000" fill-opacity="0.0" d="m165.66142 235.9895l33.291336 0l0 38.771667l-33.291336 0z" fill-rule="evenodd"/><path fill="#000000" d="m178.78642 259.08386l0.203125 1.25q-0.59375 0.125 -1.0625 0.125q-0.765625 0 -1.1875 -0.234375q-0.421875 -0.25 -0.59375 -0.640625q-0.171875 -0.40625 -0.171875 -1.671875l0 -4.7656097l-1.03125 0l0 -1.09375l1.03125 0l0 -2.0625l1.40625 -0.84375l0 2.90625l1.40625 0l0 1.09375l-1.40625 0l0 4.8437347q0 0.609375 0.0625 0.78125q0.078125 0.171875 0.25 0.28125q0.171875 0.09375 0.484375 0.09375q0.234375 0 0.609375 -0.0625zm6.2890625 1.265625l-1.40625 0l0 -8.968735q-0.515625 0.484375 -1.34375 0.96875q-0.8125 0.484375 -1.46875 0.734375l0 -1.359375q1.171875 -0.5625 2.046875 -1.34375q0.890625 -0.796875 1.265625 -1.53125l0.90625 0l0 11.499985z" fill-rule="nonzero"/><path fill="#000000" fill-opacity="0.0" d="m182.35432 233.93439l-0.4094391 -179.65355" fill-rule="evenodd"/><path stroke="#000000" stroke-width="1.0" stroke-linejoin="round" stroke-linecap="butt" stroke-dasharray="4.0,3.0" d="m182.35432 233.93439l-0.4094391 -179.65355" fill-rule="evenodd"/><path fill="#000000" fill-opacity="0.0" d="m360.3714 233.93439l-0.40945435 -179.65355" fill-rule="evenodd"/><path stroke="#000000" stroke-width="1.0" stroke-linejoin="round" stroke-linecap="butt" stroke-dasharray="4.0,3.0" d="m360.3714 233.93439l-0.40945435 -179.65355" fill-rule="evenodd"/><path fill="#000000" fill-opacity="0.0" d="m343.5223 233.93439l33.29135 0l0 38.771637l-33.29135 0z" fill-rule="evenodd"/><path fill="#000000" d="m356.6473 257.02875l0.203125 1.25q-0.59375 0.125 -1.0625 0.125q-0.765625 0 -1.1875 -0.234375q-0.421875 -0.25 -0.59375 -0.640625q-0.171875 -0.40625 -0.171875 -1.6718597l0 -4.765625l-1.03125 0l0 -1.09375l1.03125 0l0 -2.0625l1.40625 -0.84375l0 2.90625l1.40625 0l0 1.09375l-1.40625 0l0 4.84375q0 0.60935974 0.0625 0.78123474q0.078125 0.171875 0.25 0.28125q0.171875 0.09375 0.484375 0.09375q0.234375 0 0.609375 -0.0625zm8.3828125 -0.09375l0 1.359375l-7.578125 0q-0.015625 -0.515625 0.171875 -0.984375q0.28125 -0.765625 0.921875 -1.5156097q0.640625 -0.75 1.84375 -1.734375q1.859375 -1.53125 2.515625 -2.421875q0.65625 -0.90625 0.65625 -1.703125q0 -0.828125 -0.59375 -1.40625q-0.59375 -0.578125 -1.5625 -0.578125q-1.015625 0 -1.625 0.609375q-0.609375 0.609375 -0.609375 1.6875l-1.453125 -0.140625q0.15625 -1.625 1.125 -2.46875q0.96875 -0.84375 2.59375 -0.84375q1.65625 0 2.609375 0.921875q0.96875 0.90625 0.96875 2.25q0 0.6875 -0.28125 1.359375q-0.28125 0.65625 -0.9375 1.390625q-0.65625 0.734375 -2.171875 2.015625q-1.265625 1.0625 -1.625 1.4531097q-0.359375 0.375 -0.59375 0.75l5.625 0z" fill-rule="nonzero"/><path fill="#000000" fill-opacity="0.0" d="m457.0866 233.93439l33.29135 0l0 38.771637l-33.29135 0z" fill-rule="evenodd"/><path fill="#000000" d="m470.2116 257.02875l0.203125 1.25q-0.59375 0.125 -1.0625 0.125q-0.765625 0 -1.1875 -0.234375q-0.421875 -0.25 -0.59375 -0.640625q-0.171875 -0.40625 -0.171875 -1.6718597l0 -4.765625l-1.03125 0l0 -1.09375l1.03125 0l0 -2.0625l1.40625 -0.84375l0 2.90625l1.40625 0l0 1.09375l-1.40625 0l0 4.84375q0 0.60935974 0.0625 0.78123474q0.078125 0.171875 0.25 0.28125q0.171875 0.09375 0.484375 0.09375q0.234375 0 0.609375 -0.0625zm0.9921875 -1.7656097l1.40625 -0.1875q0.25 1.2031097 0.828125 1.7343597q0.578125 0.515625 1.421875 0.515625q0.984375 0 1.671875 -0.6875q0.6875 -0.68748474 0.6875 -1.7031097q0 -0.96875 -0.640625 -1.59375q-0.625 -0.625 -1.609375 -0.625q-0.390625 0 -0.984375 0.15625l0.15625 -1.234375q0.140625 0.015625 0.21875 0.015625q0.90625 0 1.625 -0.46875q0.71875 -0.46875 0.71875 -1.453125q0 -0.765625 -0.53125 -1.265625q-0.515625 -0.515625 -1.34375 -0.515625q-0.828125 0 -1.375 0.515625q-0.546875 0.515625 -0.703125 1.546875l-1.40625 -0.25q0.265625 -1.421875 1.171875 -2.1875q0.921875 -0.78125 2.28125 -0.78125q0.9375 0 1.71875 0.40625q0.796875 0.390625 1.203125 1.09375q0.421875 0.6875 0.421875 1.46875q0 0.75 -0.40625 1.359375q-0.390625 0.609375 -1.171875 0.96875q1.015625 0.234375 1.578125 0.96875q0.5625 0.734375 0.5625 1.84375q0 1.4999847 -1.09375 2.5468597q-1.09375 1.046875 -2.765625 1.046875q-1.5 0 -2.5 -0.890625q-1.0 -0.90625 -1.140625 -2.3437347z" fill-rule="nonzero"/><path fill="#000000" fill-opacity="0.0" d="m473.9357 235.9895l-0.40945435 -179.65355" fill-rule="evenodd"/><path stroke="#000000" stroke-width="1.0" stroke-linejoin="round" stroke-linecap="butt" stroke-dasharray="4.0,3.0" d="m473.9357 235.9895l-0.40945435 -179.65355" fill-rule="evenodd"/></g></svg>