<svg version="1.1" viewBox="0.0 0.0 510.04461942257217 166.31758530183728" fill="none" stroke="none" stroke-linecap="square" stroke-miterlimit="10" xmlns:xlink="http://www.w3.org/1999/xlink" xmlns="http://www.w3.org/2000/svg"><clipPath id="p.0"><path d="m0 0l510.04462 0l0 166.31758l-510.04462 0l0 -166.31758z" clip-rule="nonzero"/></clipPath><g clip-path="url(#p.0)"><path fill="#ffffff" d="m0 0l510.04462 0l0 166.31758l-510.04462 0z" fill-rule="evenodd"/><path fill="#000000" fill-opacity="0.0" d="m8.0 112.0l488.0 0" fill-rule="evenodd"/><path stroke="#000000" stroke-width="1.0" stroke-linejoin="round" stroke-linecap="butt" d="m8.0 112.0l482.0 0" fill-rule="evenodd"/><path fill="#000000" stroke="#000000" stroke-width="1.0" stroke-linecap="butt" d="m490.0 113.65173l4.538086 -1.6517334l-4.538086 -1.6517334z" fill-rule="evenodd"/><path fill="#000000" fill-opacity="0.0" d="m400.0 116.69292l107.811035 0l0 43.307083l-107.811035 0z" fill-rule="evenodd"/><path fill="#000000" d="m459.13916 146.70166l0 2.03125l-11.34375 0q-0.03125 -0.765625 0.234375 -1.46875q0.4375 -1.15625 1.390625 -2.28125q0.953125 -1.125 2.765625 -2.609375q2.796875 -2.296875 3.78125 -3.625q0.984375 -1.34375 0.984375 -2.546875q0 -1.25 -0.90625 -2.109375q-0.890625 -0.859375 -2.328125 -0.859375q-1.515625 0 -2.4375 0.921875q-0.90625 0.90625 -0.921875 2.515625l-2.171875 -0.21875q0.21875 -2.421875 1.671875 -3.6875q1.453125 -1.28125 3.90625 -1.28125q2.46875 0 3.90625 1.375q1.453125 1.359375 1.453125 3.390625q0 1.03125 -0.421875 2.03125q-0.421875 1.0 -1.40625 2.109375q-0.96875 1.09375 -3.25 3.015625q-1.890625 1.59375 -2.4375 2.15625q-0.53125 0.5625 -0.890625 1.140625l8.421875 0z" fill-rule="nonzero"/><path fill="#000000" d="m468.37744 129.32666l1.59375 0.84375l-5.71875 9.9375l5.71875 9.9375l-1.59375 0.84375l-6.1875 -10.78125l6.1875 -10.78125z" fill-rule="nonzero"/><path fill="#000000" d="m485.73682 146.07666q-0.171875 1.421875 -0.703125 2.21875q-0.53125 0.78125 -1.296875 0.78125q-0.5625 0 -0.9375 -0.65625q-0.359375 -0.65625 -0.515625 -1.953125q-0.640625 1.296875 -1.671875 1.953125q-1.03125 0.65625 -2.46875 0.65625q-1.984375 0 -3.125 -1.546875q-1.140625 -1.546875 -1.140625 -4.265625q0 -1.859375 0.5625 -3.203125q0.578125 -1.34375 1.59375 -2.03125q1.015625 -0.703125 2.171875 -0.703125q1.203125 0 2.0625 0.953125q0.875 0.953125 1.40625 2.84375l0.75 -3.53125l2.015625 0q-1.3125 6.046875 -1.453125 6.578125l-0.40625 1.4375q0 0.03125 0.125 0.640625q0.125 0.609375 0.453125 1.015625q0.328125 0.390625 0.859375 0.390625q0.46875 0 0.78125 -0.296875q0.3125 -0.3125 0.484375 -1.28125l0.453125 0zm-4.296875 -3.84375q-0.6875 -2.328125 -1.421875 -3.265625q-0.71875 -0.953125 -1.609375 -0.953125q-1.046875 0 -1.671875 1.359375q-0.609375 1.34375 -0.609375 4.0q0 2.65625 0.546875 3.8125q0.5625 1.140625 1.59375 1.140625q0.828125 0 1.484375 -0.875q0.65625 -0.875 1.25 -3.390625l0.4375 -1.828125z" fill-rule="nonzero"/><path fill="#000000" d="m490.2798 150.88916l-1.59375 -0.84375l5.71875 -9.9375l-5.71875 -9.9375l1.59375 -0.84375l6.1875 10.78125l-6.1875 10.78125z" fill-rule="nonzero"/><path fill="#000000" fill-opacity="0.0" d="m164.18898 116.69292l107.81102 0l0 43.307083l-107.81102 0z" fill-rule="evenodd"/><path fill="#000000" d="m232.5664 129.32666l1.59375 0.84375l-5.71875 9.9375l5.71875 9.9375l-1.59375 0.84375l-6.1875 -10.78125l6.1875 -10.78125z" fill-rule="nonzero"/><path fill="#000000" d="m249.92578 146.07666q-0.171875 1.421875 -0.703125 2.21875q-0.53125 0.78125 -1.296875 0.78125q-0.5625 0 -0.9375 -0.65625q-0.359375 -0.65625 -0.515625 -1.953125q-0.640625 1.296875 -1.671875 1.953125q-1.03125 0.65625 -2.46875 0.65625q-1.984375 0 -3.125 -1.546875q-1.140625 -1.546875 -1.140625 -4.265625q0 -1.859375 0.5625 -3.203125q0.578125 -1.34375 1.59375 -2.03125q1.015625 -0.703125 2.171875 -0.703125q1.203125 0 2.0625 0.953125q0.875 0.953125 1.40625 2.84375l0.75 -3.53125l2.015625 0q-1.3125 6.046875 -1.453125 6.578125l-0.40625 1.4375q0 0.03125 0.125 0.640625q0.125 0.609375 0.453125 1.015625q0.328125 0.390625 0.859375 0.390625q0.46875 0 0.78125 -0.296875q0.3125 -0.3125 0.484375 -1.28125l0.453125 0zm-4.296875 -3.84375q-0.6875 -2.328125 -1.421875 -3.265625q-0.71875 -0.953125 -1.609375 -0.953125q-1.046875 0 -1.671875 1.359375q-0.609375 1.34375 -0.609375 4.0q0 2.65625 0.546875 3.8125q0.5625 1.140625 1.59375 1.140625q0.828125 0 1.484375 -0.875q0.65625 -0.875 1.25 -3.390625l0.4375 -1.828125z" fill-rule="nonzero"/><path fill="#000000" d="m254.46875 150.88916l-1.59375 -0.84375l5.71875 -9.9375l-5.71875 -9.9375l1.59375 -0.84375l6.1875 10.78125l-6.1875 10.78125z" fill-rule="nonzero"/><path fill="#000000" fill-opacity="0.0" d="m232.0 116.53543l0 -103.842514" fill-rule="evenodd"/><path stroke="#000000" stroke-width="1.0" stroke-linejoin="round" stroke-linecap="butt" stroke-dasharray="4.0,3.0" d="m232.0 116.53543l0 -103.842514" fill-rule="evenodd"/><path fill="#000000" fill-opacity="0.0" d="m456.0 116.69292l0 -104.0" fill-rule="evenodd"/><path stroke="#000000" stroke-width="1.0" stroke-linejoin="round" stroke-linecap="butt" stroke-dasharray="4.0,3.0" d="m456.0 116.69292l0 -104.0" fill-rule="evenodd"/><path fill="#000000" fill-opacity="0.0" d="m8.0 116.53543l0 -23.842514" fill-rule="evenodd"/><path stroke="#000000" stroke-width="1.0" stroke-linejoin="round" stroke-linecap="butt" d="m8.0 116.53543l0 -23.842514" fill-rule="evenodd"/><path fill="#000000" fill-opacity="0.0" d="m56.0 52.692913l48.0 0l0 43.307087l-48.0 0z" fill-rule="evenodd"/><path fill="#000000" d="m85.92578 82.07667q-0.171875 1.421875 -0.703125 2.21875q-0.53125 0.78125 -1.296875 0.78125q-0.5625 0 -0.9375 -0.65625q-0.359375 -0.65625 -0.515625 -1.953125q-0.640625 1.296875 -1.671875 1.953125q-1.03125 0.65625 -2.46875 0.65625q-1.984375 0 -3.125 -1.546875q-1.140625 -1.546875 -1.140625 -4.265625q0 -1.859375 0.5625 -3.203125q0.578125 -1.34375 1.59375 -2.03125q1.015625 -0.703125 2.171875 -0.703125q1.203125 0 2.0625 0.953125q0.875 0.953125 1.40625 2.84375l0.75 -3.53125l2.015625 0q-1.3125 6.046875 -1.453125 6.578125l-0.40625 1.4375q0 0.03125 0.125 0.640625q0.125 0.609375 0.453125 1.015625q0.328125 0.390625 0.859375 0.390625q0.46875 0 0.78125 -0.296875q0.3125 -0.3125 0.484375 -1.28125l0.453125 0zm-4.296875 -3.84375q-0.6875 -2.328125 -1.421875 -3.265625q-0.71875 -0.953125 -1.609375 -0.953125q-1.046875 0 -1.671875 1.359375q-0.609375 1.34375 -0.609375 4.0q0 2.65625 0.546875 3.8125q0.5625 1.140625 1.59375 1.140625q0.828125 0 1.484375 -0.875q0.65625 -0.875 1.25 -3.390625l0.4375 -1.828125z" fill-rule="nonzero"/><path fill="#000000" d="m88.0625 93.73292l0 -11.453125l1.40625 0l0 6.53125l3.328125 -3.375l1.828125 0l-3.171875 3.078125l3.484375 5.21875l-1.734375 0l-2.734375 -4.25l-1.0 0.953125l0 3.296875l-1.40625 0z" fill-rule="nonzero"/><path fill="#000000" fill-opacity="0.0" d="m80.0 116.69292l0 -24.0" fill-rule="evenodd"/><path stroke="#000000" stroke-width="1.0" stroke-linejoin="round" stroke-linecap="butt" d="m80.0 116.69292l0 -24.0" fill-rule="evenodd"/><path fill="#000000" fill-opacity="0.0" d="m8.0 100.69292l72.0 0" fill-rule="evenodd"/><path stroke="#000000" stroke-width="1.0" stroke-linejoin="round" stroke-linecap="butt" d="m12.381131 100.69292l63.237736 0" fill-rule="evenodd"/><path fill="#000000" stroke="#000000" stroke-width="1.0" stroke-linecap="butt" d="m12.381131 100.69292l1.6705389 -1.6705399l-4.5897675 1.6705399l4.5897675 1.6705322z" fill-rule="evenodd"/><path fill="#000000" stroke="#000000" stroke-width="1.0" stroke-linecap="butt" d="m75.618866 100.69292l-1.6705399 1.6705322l4.589775 -1.6705322l-4.589775 -1.6705399z" fill-rule="evenodd"/><path fill="#000000" fill-opacity="0.0" d="m384.0 100.69292l72.0 0" fill-rule="evenodd"/><path stroke="#000000" stroke-width="1.0" stroke-linejoin="round" stroke-linecap="butt" d="m388.38116 100.69292l63.23767 0" fill-rule="evenodd"/><path fill="#000000" stroke="#000000" stroke-width="1.0" stroke-linecap="butt" d="m388.38113 100.69292l1.6705322 -1.6705399l-4.589752 1.6705399l4.589752 1.6705322z" fill-rule="evenodd"/><path fill="#000000" stroke="#000000" stroke-width="1.0" stroke-linecap="butt" d="m451.61887 100.69292l-1.6705322 1.6705322l4.589752 -1.6705322l-4.589752 -1.6705399z" fill-rule="evenodd"/><path fill="#000000" fill-opacity="0.0" d="m296.0 57.385826l128.0 0l0 43.30709l-128.0 0z" fill-rule="evenodd"/><path fill="#000000" d="m368.3047 80.38645l0 1.359375l-7.578125 0q-0.015625 -0.515625 0.171875 -0.984375q0.28125 -0.765625 0.921875 -1.515625q0.640625 -0.75 1.84375 -1.734375q1.859375 -1.53125 2.515625 -2.421875q0.65625 -0.90625 0.65625 -1.703125q0 -0.828125 -0.59375 -1.40625q-0.59375 -0.578125 -1.5625 -0.578125q-1.015625 0 -1.625 0.609375q-0.609375 0.609375 -0.609375 1.6875l-1.453125 -0.140625q0.15625 -1.625 1.125 -2.46875q0.96875 -0.84375 2.59375 -0.84375q1.65625 0 2.609375 0.921875q0.96875 0.90625 0.96875 2.25q0 0.6875 -0.28125 1.359375q-0.28125 0.65625 -0.9375 1.390625q-0.65625 0.734375 -2.171875 2.015625q-1.265625 1.0625 -1.625 1.453125q-0.359375 0.375 -0.59375 0.75l5.625 0z" fill-rule="nonzero"/><path fill="#000000" d="m374.45312 68.80833l1.0625 0.5625l-3.8125 6.625l3.8125 6.625l-1.0625 0.5625l-4.125 -7.1875l4.125 -7.1875z" fill-rule="nonzero"/><path fill="#000000" d="m386.03125 79.96458q-0.109375 0.953125 -0.46875 1.484375q-0.359375 0.53125 -0.859375 0.53125q-0.390625 0 -0.640625 -0.4375q-0.234375 -0.4375 -0.34375 -1.3125q-0.421875 0.875 -1.109375 1.3125q-0.6875 0.4375 -1.640625 0.4375q-1.328125 0 -2.09375 -1.03125q-0.75 -1.046875 -0.75 -2.859375q0 -1.234375 0.375 -2.125q0.375 -0.890625 1.046875 -1.359375q0.6875 -0.46875 1.453125 -0.46875q0.8125 0 1.390625 0.640625q0.578125 0.625 0.9375 1.890625l0.484375 -2.34375l1.34375 0q-0.859375 4.03125 -0.953125 4.375l-0.28125 0.96875q0 0.015625 0.078125 0.421875q0.09375 0.40625 0.3125 0.671875q0.21875 0.265625 0.578125 0.265625q0.3125 0 0.515625 -0.203125q0.203125 -0.203125 0.3125 -0.859375l0.3125 0zm-2.875 -2.5625q-0.453125 -1.546875 -0.9375 -2.171875q-0.484375 -0.640625 -1.078125 -0.640625q-0.6875 0 -1.109375 0.90625q-0.40625 0.90625 -0.40625 2.671875q0 1.78125 0.359375 2.546875q0.375 0.75 1.0625 0.75q0.5625 0 0.984375 -0.578125q0.4375 -0.578125 0.84375 -2.265625l0.28125 -1.21875z" fill-rule="nonzero"/><path fill="#000000" d="m389.0547 83.18333l-1.0625 -0.5625l3.8125 -6.625l-3.8125 -6.625l1.0625 -0.5625l4.125 7.1875l-4.125 7.1875z" fill-rule="nonzero"/><path fill="#000000" d="m395.2578 78.30833l0 -1.421875l4.3125 0l0 1.421875l-4.3125 0z" fill-rule="nonzero"/><path fill="#000000" d="m408.96094 79.96458q-0.109375 0.953125 -0.46875 1.484375q-0.359375 0.53125 -0.859375 0.53125q-0.390625 0 -0.640625 -0.4375q-0.234375 -0.4375 -0.34375 -1.3125q-0.421875 0.875 -1.109375 1.3125q-0.6875 0.4375 -1.640625 0.4375q-1.328125 0 -2.09375 -1.03125q-0.75 -1.046875 -0.75 -2.859375q0 -1.234375 0.375 -2.125q0.375 -0.890625 1.046875 -1.359375q0.6875 -0.46875 1.453125 -0.46875q0.8125 0 1.390625 0.640625q0.578125 0.625 0.9375 1.890625l0.484375 -2.34375l1.34375 0q-0.859375 4.03125 -0.953125 4.375l-0.28125 0.96875q0 0.015625 0.078125 0.421875q0.09375 0.40625 0.3125 0.671875q0.21875 0.265625 0.578125 0.265625q0.3125 0 0.515625 -0.203125q0.203125 -0.203125 0.3125 -0.859375l0.3125 0zm-2.875 -2.5625q-0.453125 -1.546875 -0.9375 -2.171875q-0.484375 -0.640625 -1.078125 -0.640625q-0.6875 0 -1.109375 0.90625q-0.40625 0.90625 -0.40625 2.671875q0 1.78125 0.359375 2.546875q0.375 0.75 1.0625 0.75q0.5625 0 0.984375 -0.578125q0.4375 -0.578125 0.84375 -2.265625l0.28125 -1.21875z" fill-rule="nonzero"/><path fill="#000000" d="m410.375 87.74583l0 -7.625l0.9375 0l0 4.34375l2.21875 -2.25l1.21875 0l-2.125 2.0625l2.328125 3.46875l-1.15625 0l-1.8125 -2.828125l-0.671875 0.640625l0 2.1875l-0.9375 0z" fill-rule="nonzero"/><path fill="#000000" fill-opacity="0.0" d="m384.0 116.69292l0 -24.0" fill-rule="evenodd"/><path stroke="#000000" stroke-width="1.0" stroke-linejoin="round" stroke-linecap="butt" d="m384.0 116.69292l0 -24.0" fill-rule="evenodd"/><path fill="#000000" fill-opacity="0.0" d="m96.0 76.691315c17.931335 -6.6664047 67.587326 -39.9984 107.588 -39.9984c40.00067 0 110.346664 33.331997 132.416 39.9984" fill-rule="evenodd"/><path stroke="#000000" stroke-width="1.0" stroke-linejoin="round" stroke-linecap="butt" stroke-dasharray="4.0,3.0" d="m96.0 76.691315c17.931335 -6.666397 67.587326 -39.9984 107.58801 -39.9984c20.00032 0 47.586975 8.333 72.93225 17.499302c12.672607 4.583149 24.784882 9.374622 35.108337 13.436966c5.1617126 2.031166 9.876251 3.880043 13.98999 5.4294662c2.0568848 0.774704 3.963562 1.4745483 5.7008667 2.084877l0.5220642 0.18104553" fill-rule="evenodd"/><path fill="#000000" stroke="#000000" stroke-width="1.0" stroke-linecap="butt" d="m331.84152 75.32456l-2.1083374 1.0660248l4.8818665 -0.15533447l-3.839569 -3.0190048z" fill-rule="evenodd"/><path fill="#000000" fill-opacity="0.0" d="m136.0 4.6929135l96.0 0l0 42.015747l-96.0 0z" fill-rule="evenodd"/><path fill="#000000" d="m146.46875 31.612911l0 -13.359375l5.921875 0q1.78125 0 2.703125 0.359375q0.9375 0.359375 1.484375 1.28125q0.5625 0.90625 0.5625 2.015625q0 1.40625 -0.921875 2.390625q-0.921875 0.96875 -2.84375 1.234375q0.703125 0.34375 1.078125 0.671875q0.765625 0.703125 1.453125 1.765625l2.328125 3.640625l-2.21875 0l-1.765625 -2.78125q-0.78125 -1.203125 -1.28125 -1.828125q-0.5 -0.640625 -0.90625 -0.890625q-0.390625 -0.265625 -0.796875 -0.359375q-0.296875 -0.078125 -0.984375 -0.078125l-2.046875 0l0 5.9375l-1.765625 0zm1.765625 -7.453125l3.796875 0q1.21875 0 1.890625 -0.25q0.6875 -0.265625 1.046875 -0.8125q0.359375 -0.546875 0.359375 -1.1875q0 -0.953125 -0.6875 -1.5625q-0.6875 -0.609375 -2.1875 -0.609375l-4.21875 0l0 4.421875zm18.097946 4.34375l1.6875 0.203125q-0.40625 1.484375 -1.484375 2.3125q-1.078125 0.8125 -2.765625 0.8125q-2.125 0 -3.375 -1.296875q-1.234375 -1.3125 -1.234375 -3.671875q0 -2.453125 1.25 -3.796875q1.265625 -1.34375 3.265625 -1.34375q1.9375 0 3.15625 1.328125q1.234375 1.3125 1.234375 3.703125q0 0.15625 0 0.4375l-7.21875 0q0.09375 1.59375 0.90625 2.453125q0.8125 0.84375 2.015625 0.84375q0.90625 0 1.546875 -0.46875q0.640625 -0.484375 1.015625 -1.515625zm-5.390625 -2.65625l5.40625 0q-0.109375 -1.21875 -0.625 -1.828125q-0.78125 -0.953125 -2.03125 -0.953125q-1.125 0 -1.90625 0.765625q-0.765625 0.75 -0.84375 2.015625zm9.531967 5.765625l0 -8.40625l-1.453125 0l0 -1.265625l1.453125 0l0 -1.03125q0 -0.96875 0.171875 -1.453125q0.234375 -0.640625 0.828125 -1.03125q0.59375 -0.390625 1.671875 -0.390625q0.6875 0 1.53125 0.15625l-0.25 1.4375q-0.5 -0.09375 -0.953125 -0.09375q-0.75 0 -1.0625 0.328125q-0.3125 0.3125 -0.3125 1.1875l0 0.890625l1.890625 0l0 1.265625l-1.890625 0l0 8.40625l-1.625 0zm4.745804 0l0 -13.359375l1.640625 0l0 13.359375l-1.640625 0zm10.816696 -3.109375l1.6875 0.203125q-0.40625 1.484375 -1.484375 2.3125q-1.078125 0.8125 -2.765625 0.8125q-2.125 0 -3.375 -1.296875q-1.234375 -1.3125 -1.234375 -3.671875q0 -2.453125 1.25 -3.796875q1.265625 -1.34375 3.265625 -1.34375q1.9375 0 3.15625 1.328125q1.234375 1.3125 1.234375 3.703125q0 0.15625 0 0.4375l-7.21875 0q0.09375 1.59375 0.90625 2.453125q0.8125 0.84375 2.015625 0.84375q0.90625 0 1.546875 -0.46875q0.640625 -0.484375 1.015625 -1.515625zm-5.390625 -2.65625l5.40625 0q-0.109375 -1.21875 -0.625 -1.828125q-0.78125 -0.953125 -2.03125 -0.953125q-1.125 0 -1.90625 0.765625q-0.765625 0.75 -0.84375 2.015625zm15.453842 2.21875l1.609375 0.21875q-0.265625 1.65625 -1.359375 2.609375q-1.078125 0.9375 -2.671875 0.9375q-1.984375 0 -3.1875 -1.296875q-1.203125 -1.296875 -1.203125 -3.71875q0 -1.578125 0.515625 -2.75q0.515625 -1.171875 1.578125 -1.75q1.0625 -0.59375 2.3125 -0.59375q1.578125 0 2.578125 0.796875q1.0 0.796875 1.28125 2.265625l-1.59375 0.234375q-0.234375 -0.96875 -0.8125 -1.453125q-0.578125 -0.5 -1.390625 -0.5q-1.234375 0 -2.015625 0.890625q-0.78125 0.890625 -0.78125 2.8125q0 1.953125 0.75 2.84375q0.75 0.875 1.953125 0.875q0.96875 0 1.609375 -0.59375q0.65625 -0.59375 0.828125 -1.828125zm6.59375 2.078125l0.234375 1.453125q-0.6875 0.140625 -1.234375 0.140625q-0.890625 0 -1.390625 -0.28125q-0.484375 -0.28125 -0.6875 -0.734375q-0.203125 -0.46875 -0.203125 -1.9375l0 -5.578125l-1.203125 0l0 -1.265625l1.203125 0l0 -2.390625l1.625 -0.984375l0 3.375l1.65625 0l0 1.265625l-1.65625 0l0 5.671875q0 0.6875 0.078125 0.890625q0.09375 0.203125 0.28125 0.328125q0.203125 0.109375 0.578125 0.109375q0.265625 0 0.71875 -0.0625z" fill-rule="nonzero"/></g></svg>