<svg version="1.1" viewBox="0.0 0.0 579.4304461942257 363.6115485564304" fill="none" stroke="none" stroke-linecap="square" stroke-miterlimit="10" xmlns:xlink="http://www.w3.org/1999/xlink" xmlns="http://www.w3.org/2000/svg"><clipPath id="p.0"><path d="m0 0l579.4304 0l0 363.61154l-579.4304 0l0 -363.61154z" clip-rule="nonzero"/></clipPath><g clip-path="url(#p.0)"><path fill="#ffffff" d="m0 0l579.4304 0l0 363.61154l-579.4304 0z" fill-rule="evenodd"/><path fill="#000000" fill-opacity="0.0" d="m64.0 248.0l0 -232.0" fill-rule="evenodd"/><path stroke="#000000" stroke-width="1.0" stroke-linejoin="round" stroke-linecap="butt" d="m64.0 248.0l0 -224.5" fill-rule="evenodd"/><path fill="#000000" stroke="#000000" stroke-width="1.0" stroke-linecap="butt" d="m66.197685 23.5l-2.1976852 -6.0380974l-2.197689 6.0380974z" fill-rule="evenodd"/><path fill="#000000" fill-opacity="0.0" d="m64.0 248.0l488.0 0" fill-rule="evenodd"/><path stroke="#000000" stroke-width="1.0" stroke-linejoin="round" stroke-linecap="butt" d="m64.0 248.0l480.5 0" fill-rule="evenodd"/><path fill="#000000" stroke="#000000" stroke-width="1.0" stroke-linecap="butt" d="m544.5 250.1977l6.038086 -2.1976929l-6.038086 -2.1976929z" fill-rule="evenodd"/><path fill="#000000" fill-opacity="0.0" d="m0 8.0l72.0 0l0 43.307087l-72.0 0z" fill-rule="evenodd"/><path fill="#000000" d="m33.164062 45.086876l0 -22.515625l1.84375 0l0 22.515625l-1.84375 0zm7.765625 -6.625l0 6.34375l-2.09375 0l0 -16.5625q0 -1.96875 0.53125 -3.09375q0.53125 -1.125 1.828125 -1.84375q1.3125 -0.734375 2.90625 -0.734375q2.359375 0 3.5625 1.359375q1.21875 1.34375 1.21875 2.953125q0 1.5625 -0.984375 2.53125q-0.96875 0.953125 -2.234375 1.171875q2.03125 0.203125 3.140625 1.46875q1.109375 1.265625 1.109375 3.125q0 1.984375 -1.3125 3.5625q-1.296875 1.578125 -3.78125 1.578125q-2.53125 0 -3.890625 -1.859375zm1.875 -8.546875q2.15625 0 3.140625 -0.75q0.984375 -0.75 0.984375 -2.171875q0 -1.140625 -0.84375 -1.90625q-0.84375 -0.78125 -2.09375 -0.78125q-1.09375 0 -1.890625 0.578125q-0.796875 0.5625 -0.984375 1.265625q-0.1875 0.703125 -0.1875 2.46875l0 4.71875q0 2.015625 0.28125 2.96875q0.28125 0.9375 1.203125 1.703125q0.9375 0.765625 2.140625 0.765625q1.46875 0 2.3125 -1.0q0.859375 -1.0 0.859375 -2.484375q0 -1.21875 -0.640625 -2.1875q-0.625 -0.96875 -1.546875 -1.3125q-0.90625 -0.34375 -2.4375 -0.34375l-0.296875 0l0 -1.53125z" fill-rule="nonzero"/><path fill="#000000" d="m54.46875 42.19625l-1.59375 -0.84375l5.71875 -9.9375l-5.71875 -9.9375l1.59375 -0.84375l6.1875 10.78125l-6.1875 10.78125z" fill-rule="nonzero"/><path fill="#000000" fill-opacity="0.0" d="m496.0 204.69292l72.0 0l0 43.307083l-72.0 0z" fill-rule="evenodd"/><path fill="#000000" d="m528.5664 241.77979l0 -22.515625l1.84375 0l0 22.515625l-1.84375 0z" fill-rule="nonzero"/><path fill="#000000" d="m545.9258 234.07666q-0.171875 1.421875 -0.703125 2.21875q-0.53125 0.78125 -1.296875 0.78125q-0.5625 0 -0.9375 -0.65625q-0.359375 -0.65625 -0.515625 -1.953125q-0.640625 1.296875 -1.671875 1.953125q-1.03125 0.65625 -2.46875 0.65625q-1.984375 0 -3.125 -1.546875q-1.140625 -1.546875 -1.140625 -4.265625q0 -1.859375 0.5625 -3.203125q0.578125 -1.34375 1.59375 -2.03125q1.015625 -0.703125 2.171875 -0.703125q1.203125 0 2.0625 0.953125q0.875 0.953125 1.40625 2.84375l0.75 -3.53125l2.015625 0q-1.3125 6.046875 -1.453125 6.578125l-0.40625 1.4375q0 0.03125 0.125 0.640625q0.125 0.609375 0.453125 1.015625q0.328125 0.390625 0.859375 0.390625q0.46875 0 0.78125 -0.296875q0.3125 -0.3125 0.484375 -1.28125l0.453125 0zm-4.296875 -3.84375q-0.6875 -2.328125 -1.421875 -3.265625q-0.71875 -0.953125 -1.609375 -0.953125q-1.046875 0 -1.671875 1.359375q-0.609375 1.34375 -0.609375 4.0q0 2.65625 0.546875 3.8125q0.5625 1.140625 1.59375 1.140625q0.828125 0 1.484375 -0.875q0.65625 -0.875 1.25 -3.390625l0.4375 -1.828125z" fill-rule="nonzero"/><path fill="#000000" d="m550.46875 238.88916l-1.59375 -0.84375l5.71875 -9.9375l-5.71875 -9.9375l1.59375 -0.84375l6.1875 10.78125l-6.1875 10.78125z" fill-rule="nonzero"/><path fill="#000000" fill-opacity="0.0" d="m64.0 248.01575l320.0 -104.031494" fill-rule="evenodd"/><path stroke="#000000" stroke-width="1.0" stroke-linejoin="round" stroke-linecap="butt" d="m64.0 248.01575l312.86746 -101.71271" fill-rule="evenodd"/><path fill="#000000" stroke="#000000" stroke-width="1.0" stroke-linecap="butt" d="m377.5469 148.39305l5.062805 -3.9568176l-6.4217224 -0.22322083z" fill-rule="evenodd"/><path fill="#000000" fill-opacity="0.0" d="m379.37534 104.07874l162.64566 0l0 43.30709l-162.64566 0z" fill-rule="evenodd"/><path fill="#000000" d="m430.66943 134.5875q-1.171875 0.984375 -2.265625 1.40625q-1.078125 0.40625 -2.3125 0.40625q-2.046875 0 -3.15625 -1.0q-1.09375 -1.0 -1.09375 -2.5625q0 -0.921875 0.40625 -1.671875q0.421875 -0.75 1.09375 -1.203125q0.671875 -0.46875 1.515625 -0.703125q0.625 -0.15625 1.875 -0.3125q2.5625 -0.3125 3.765625 -0.734375q0.015625 -0.421875 0.015625 -0.546875q0 -1.28125 -0.609375 -1.8125q-0.796875 -0.71875 -2.390625 -0.71875q-1.5 0 -2.203125 0.53125q-0.703125 0.515625 -1.046875 1.84375l-2.0625 -0.28125q0.28125 -1.328125 0.921875 -2.140625q0.640625 -0.8125 1.859375 -1.25q1.21875 -0.453125 2.828125 -0.453125q1.59375 0 2.59375 0.375q1.0 0.375 1.46875 0.953125q0.46875 0.5625 0.65625 1.4375q0.09375 0.53125 0.09375 1.9375l0 2.8125q0 2.9375 0.140625 3.71875q0.140625 0.78125 0.53125 1.5l-2.203125 0q-0.328125 -0.65625 -0.421875 -1.53125zm-0.171875 -4.71875q-1.15625 0.46875 -3.453125 0.796875q-1.296875 0.1875 -1.84375 0.421875q-0.53125 0.234375 -0.828125 0.6875q-0.28125 0.453125 -0.28125 1.0q0 0.84375 0.625 1.40625q0.640625 0.5625 1.875 0.5625q1.21875 0 2.171875 -0.53125q0.953125 -0.53125 1.390625 -1.453125q0.34375 -0.71875 0.34375 -2.109375l0 -0.78125zm6.0195312 11.296875l0 -22.515625l1.84375 0l0 22.515625l-1.84375 0z" fill-rule="nonzero"/><path fill="#000000" d="m453.87646 133.4625q-0.171875 1.421875 -0.703125 2.21875q-0.53125 0.78125 -1.296875 0.78125q-0.5625 0 -0.9375 -0.65625q-0.359375 -0.65625 -0.515625 -1.953125q-0.640625 1.296875 -1.671875 1.953125q-1.03125 0.65625 -2.46875 0.65625q-1.984375 0 -3.125 -1.546875q-1.140625 -1.546875 -1.140625 -4.265625q0 -1.859375 0.5625 -3.203125q0.578125 -1.34375 1.59375 -2.03125q1.015625 -0.703125 2.171875 -0.703125q1.203125 0 2.0625 0.953125q0.875 0.953125 1.40625 2.84375l0.75 -3.53125l2.015625 0q-1.3125 6.046875 -1.453125 6.578125l-0.40625 1.4375q0 0.03125 0.125 0.640625q0.125 0.609375 0.453125 1.015625q0.328125 0.390625 0.859375 0.390625q0.46875 0 0.78125 -0.296875q0.3125 -0.3125 0.484375 -1.28125l0.453125 0zm-4.296875 -3.84375q-0.6875 -2.328125 -1.421875 -3.265625q-0.71875 -0.953125 -1.609375 -0.953125q-1.046875 0 -1.671875 1.359375q-0.609375 1.34375 -0.609375 4.0q0 2.65625 0.546875 3.8125q0.5625 1.140625 1.59375 1.140625q0.828125 0 1.484375 -0.875q0.65625 -0.875 1.25 -3.390625l0.4375 -1.828125z" fill-rule="nonzero"/><path fill="#000000" d="m458.41943 138.275l-1.59375 -0.84375l5.71875 -9.9375l-5.71875 -9.9375l1.59375 -0.84375l6.1875 10.78125l-6.1875 10.78125z" fill-rule="nonzero"/><path fill="#000000" d="m472.9663 133.3375l0 -4.703125l-4.671875 0l0 -1.96875l4.671875 0l0 -4.6875l1.984375 0l0 4.6875l4.6875 0l0 1.96875l-4.6875 0l0 4.703125l-1.984375 0zm18.199219 2.78125l-1.953125 0l0 -17.1875l2.109375 0l0 6.140625q1.328125 -1.6875 3.40625 -1.6875q1.140625 0 2.171875 0.46875q1.03125 0.46875 1.6875 1.3125q0.65625 0.828125 1.03125 2.015625q0.375 1.171875 0.375 2.53125q0 3.1875 -1.578125 4.9375q-1.578125 1.75 -3.796875 1.75q-2.203125 0 -3.453125 -1.84375l0 1.5625zm-0.03125 -6.3125q0 2.234375 0.609375 3.234375q1.0 1.625 2.703125 1.625q1.375 0 2.375 -1.203125q1.015625 -1.203125 1.015625 -3.578125q0 -2.4375 -0.96875 -3.59375q-0.953125 -1.171875 -2.328125 -1.171875q-1.390625 0 -2.40625 1.203125q-1.0 1.203125 -1.0 3.484375zm12.050781 11.359375l0 -22.515625l1.84375 0l0 22.515625l-1.84375 0zm7.765625 -6.625l0 6.34375l-2.09375 0l0 -16.5625q0 -1.96875 0.53125 -3.09375q0.53125 -1.125 1.828125 -1.84375q1.3125 -0.734375 2.90625 -0.734375q2.359375 0 3.5625 1.359375q1.21875 1.34375 1.21875 2.953125q0 1.5625 -0.984375 2.53125q-0.96875 0.953125 -2.234375 1.171875q2.03125 0.203125 3.140625 1.46875q1.109375 1.265625 1.109375 3.125q0 1.984375 -1.3125 3.5625q-1.296875 1.578125 -3.78125 1.578125q-2.53125 0 -3.890625 -1.859375zm1.875 -8.546875q2.15625 0 3.140625 -0.75q0.984375 -0.75 0.984375 -2.171875q0 -1.140625 -0.84375 -1.90625q-0.84375 -0.78125 -2.09375 -0.78125q-1.09375 0 -1.890625 0.578125q-0.796875 0.5625 -0.984375 1.265625q-0.1875 0.703125 -0.1875 2.46875l0 4.71875q0 2.015625 0.28125 2.96875q0.28125 0.9375 1.203125 1.703125q0.9375 0.765625 2.140625 0.765625q1.46875 0 2.3125 -1.0q0.859375 -1.0 0.859375 -2.484375q0 -1.21875 -0.640625 -2.1875q-0.625 -0.96875 -1.546875 -1.3125q-0.90625 -0.34375 -2.4375 -0.34375l-0.296875 0l0 -1.53125z" fill-rule="nonzero"/><path fill="#000000" d="m524.48975 138.275l-1.59375 -0.84375l5.71875 -9.9375l-5.71875 -9.9375l1.59375 -0.84375l6.1875 10.78125l-6.1875 10.78125z" fill-rule="nonzero"/><path fill="#000000" fill-opacity="0.0" d="m64.0 248.0l320.0 104.031494" fill-rule="evenodd"/><path stroke="#000000" stroke-width="1.0" stroke-linejoin="round" stroke-linecap="butt" d="m64.0 248.0l312.86746 101.71271" fill-rule="evenodd"/><path fill="#000000" stroke="#000000" stroke-width="1.0" stroke-linecap="butt" d="m376.188 351.80273l6.4217224 -0.22320557l-5.062805 -3.9568176z" fill-rule="evenodd"/><path fill="#000000" fill-opacity="0.0" d="m380.2257 149.84251l-0.8503723 196.31496" fill-rule="evenodd"/><path stroke="#000000" stroke-width="1.0" stroke-linejoin="round" stroke-linecap="butt" stroke-dasharray="4.0,3.0" d="m380.2257 149.84251l-0.8313904 191.93388" fill-rule="evenodd"/><path fill="#000000" stroke="#000000" stroke-width="1.0" stroke-linecap="butt" d="m379.39432 341.7764l-1.6632996 -1.6777649l1.6506348 4.5969543l1.6903992 -4.582489z" fill-rule="evenodd"/><path fill="#000000" fill-opacity="0.0" d="m371.64566 315.47244l162.64566 0l0 43.3071l-162.64566 0z" fill-rule="evenodd"/><path fill="#000000" d="m428.96323 345.9812q-1.171875 0.984375 -2.265625 1.40625q-1.078125 0.40625 -2.3125 0.40625q-2.046875 0 -3.15625 -1.0q-1.09375 -1.0 -1.09375 -2.5625q0 -0.921875 0.40625 -1.671875q0.421875 -0.75 1.09375 -1.203125q0.671875 -0.46875 1.515625 -0.703125q0.625 -0.15625 1.875 -0.3125q2.5625 -0.3125 3.765625 -0.734375q0.015625 -0.421875 0.015625 -0.546875q0 -1.28125 -0.609375 -1.8125q-0.796875 -0.71875 -2.390625 -0.71875q-1.5 0 -2.203125 0.53125q-0.703125 0.515625 -1.046875 1.84375l-2.0625 -0.28125q0.28125 -1.328125 0.921875 -2.140625q0.640625 -0.8125 1.859375 -1.25q1.21875 -0.453125 2.828125 -0.453125q1.59375 0 2.59375 0.375q1.0 0.375 1.46875 0.953125q0.46875 0.5625 0.65625 1.4375q0.09375 0.53125 0.09375 1.9375l0 2.8125q0 2.9375 0.140625 3.71875q0.140625 0.78125 0.53125 1.5l-2.203125 0q-0.328125 -0.65625 -0.421875 -1.53125zm-0.171875 -4.71875q-1.15625 0.46875 -3.453125 0.796875q-1.296875 0.1875 -1.84375 0.421875q-0.53125 0.234375 -0.828125 0.6875q-0.28125 0.453125 -0.28125 1.0q0 0.84375 0.625 1.40625q0.640625 0.5625 1.875 0.5625q1.21875 0 2.171875 -0.53125q0.953125 -0.53125 1.390625 -1.453125q0.34375 -0.71875 0.34375 -2.109375l0 -0.78125zm6.0195312 11.296875l0 -22.515625l1.84375 0l0 22.515625l-1.84375 0z" fill-rule="nonzero"/><path fill="#000000" d="m452.17026 344.8562q-0.171875 1.421875 -0.703125 2.21875q-0.53125 0.78125 -1.296875 0.78125q-0.5625 0 -0.9375 -0.65625q-0.359375 -0.65625 -0.515625 -1.953125q-0.640625 1.296875 -1.671875 1.953125q-1.03125 0.65625 -2.46875 0.65625q-1.984375 0 -3.125 -1.546875q-1.140625 -1.546875 -1.140625 -4.265625q0 -1.859375 0.5625 -3.203125q0.578125 -1.34375 1.59375 -2.03125q1.015625 -0.703125 2.171875 -0.703125q1.203125 0 2.0625 0.953125q0.875 0.953125 1.40625 2.84375l0.75 -3.53125l2.015625 0q-1.3125 6.046875 -1.453125 6.578125l-0.40625 1.4375q0 0.03125 0.125 0.640625q0.125 0.609375 0.453125 1.015625q0.328125 0.390625 0.859375 0.390625q0.46875 0 0.78125 -0.296875q0.3125 -0.3125 0.484375 -1.28125l0.453125 0zm-4.296875 -3.84375q-0.6875 -2.328125 -1.421875 -3.265625q-0.71875 -0.953125 -1.609375 -0.953125q-1.046875 0 -1.671875 1.359375q-0.609375 1.34375 -0.609375 4.0q0 2.65625 0.546875 3.8125q0.5625 1.140625 1.59375 1.140625q0.828125 0 1.484375 -0.875q0.65625 -0.875 1.25 -3.390625l0.4375 -1.828125z" fill-rule="nonzero"/><path fill="#000000" d="m456.71323 349.6687l-1.59375 -0.84375l5.71875 -9.9375l-5.71875 -9.9375l1.59375 -0.84375l6.1875 10.78125l-6.1875 10.78125z" fill-rule="nonzero"/><path fill="#000000" d="m466.0101 342.3562l0 -2.125l6.484375 0l0 2.125l-6.484375 0zm17.425781 5.15625l-1.953125 0l0 -17.1875l2.109375 0l0 6.140625q1.328125 -1.6875 3.40625 -1.6875q1.140625 0 2.171875 0.46875q1.03125 0.46875 1.6875 1.3125q0.65625 0.828125 1.03125 2.015625q0.375 1.171875 0.375 2.53125q0 3.1875 -1.578125 4.9375q-1.578125 1.75 -3.796875 1.75q-2.203125 0 -3.453125 -1.84375l0 1.5625zm-0.03125 -6.3125q0 2.234375 0.609375 3.234375q1.0 1.625 2.703125 1.625q1.375 0 2.375 -1.203125q1.015625 -1.203125 1.015625 -3.578125q0 -2.4375 -0.96875 -3.59375q-0.953125 -1.171875 -2.328125 -1.171875q-1.390625 0 -2.40625 1.203125q-1.0 1.203125 -1.0 3.484375zm12.050781 11.359375l0 -22.515625l1.84375 0l0 22.515625l-1.84375 0zm7.765625 -6.625l0 6.34375l-2.09375 0l0 -16.5625q0 -1.96875 0.53125 -3.09375q0.53125 -1.125 1.828125 -1.84375q1.3125 -0.734375 2.90625 -0.734375q2.359375 0 3.5625 1.359375q1.21875 1.34375 1.21875 2.953125q0 1.5625 -0.984375 2.53125q-0.96875 0.953125 -2.234375 1.171875q2.03125 0.203125 3.140625 1.46875q1.1093445 1.265625 1.1093445 3.125q0 1.984375 -1.3124695 3.5625q-1.296875 1.578125 -3.78125 1.578125q-2.53125 0 -3.890625 -1.859375zm1.875 -8.546875q2.15625 0 3.140625 -0.75q0.984375 -0.75 0.984375 -2.171875q0 -1.140625 -0.84375 -1.90625q-0.84375 -0.78125 -2.09375 -0.78125q-1.09375 0 -1.890625 0.578125q-0.796875 0.5625 -0.984375 1.265625q-0.1875 0.703125 -0.1875 2.46875l0 4.71875q0 2.015625 0.28125 2.96875q0.28125 0.9375 1.203125 1.703125q0.9375 0.765625 2.140625 0.765625q1.46875 0 2.3125 -1.0q0.859375 -1.0 0.859375 -2.484375q0 -1.21875 -0.640625 -2.1875q-0.625 -0.96875 -1.546875 -1.3125q-0.90625 -0.34375 -2.4375 -0.34375l-0.296875 0l0 -1.53125z" fill-rule="nonzero"/><path fill="#000000" d="m516.7601 349.6687l-1.59375 -0.84375l5.71875 -9.9375l-5.71875 -9.9375l1.59375 -0.84375l6.1875 10.78125l-6.1875 10.78125z" fill-rule="nonzero"/><path fill="#000000" fill-opacity="0.0" d="m374.1811 259.01575l88.629944 0l0 42.015747l-88.629944 0z" fill-rule="evenodd"/><path fill="#000000" d="m384.08734 279.43576q0 -3.328125 1.78125 -5.203125q1.78125 -1.890625 4.609375 -1.890625q1.84375 0 3.328125 0.890625q1.484375 0.875 2.265625 2.46875q0.78125 1.578125 0.78125 3.578125q0 2.03125 -0.828125 3.640625q-0.8125 1.59375 -2.3125 2.421875q-1.5 0.828125 -3.25 0.828125q-1.875 0 -3.359375 -0.90625q-1.484375 -0.921875 -2.25 -2.5q-0.765625 -1.578125 -0.765625 -3.328125zm1.8125 0.015625q0 2.421875 1.296875 3.8125q1.296875 1.390625 3.265625 1.390625q2.0 0 3.28125 -1.40625q1.28125 -1.40625 1.28125 -3.984375q0 -1.625 -0.546875 -2.84375q-0.546875 -1.21875 -1.609375 -1.875q-1.0625 -0.671875 -2.375 -0.671875q-1.890625 0 -3.25 1.296875q-1.34375 1.28125 -1.34375 4.28125zm13.011444 6.484375l0 -9.671875l1.46875 0l0 1.46875q0.5625 -1.03125 1.03125 -1.359375q0.484375 -0.328125 1.0625 -0.328125q0.828125 0 1.6875 0.53125l-0.5625 1.515625q-0.609375 -0.359375 -1.203125 -0.359375q-0.546875 0 -0.96875 0.328125q-0.421875 0.328125 -0.609375 0.890625q-0.28125 0.875 -0.28125 1.921875l0 5.0625l-1.625 0zm12.540802 -1.1875q-0.921875 0.765625 -1.765625 1.09375q-0.828125 0.3125 -1.796875 0.3125q-1.59375 0 -2.453125 -0.78125q-0.859375 -0.78125 -0.859375 -1.984375q0 -0.71875 0.328125 -1.296875q0.328125 -0.59375 0.84375 -0.9375q0.53125 -0.359375 1.1875 -0.546875q0.46875 -0.125 1.453125 -0.25q1.984375 -0.234375 2.921875 -0.5625q0.015625 -0.34375 0.015625 -0.421875q0 -1.0 -0.46875 -1.421875q-0.625 -0.546875 -1.875 -0.546875q-1.15625 0 -1.703125 0.40625q-0.546875 0.40625 -0.8125 1.421875l-1.609375 -0.21875q0.21875 -1.015625 0.71875 -1.640625q0.5 -0.640625 1.453125 -0.984375q0.953125 -0.34375 2.1875 -0.34375q1.25 0 2.015625 0.296875q0.78125 0.28125 1.140625 0.734375q0.375 0.4375 0.515625 1.109375q0.078125 0.421875 0.078125 1.515625l0 2.1875q0 2.28125 0.109375 2.890625q0.109375 0.59375 0.40625 1.15625l-1.703125 0q-0.265625 -0.515625 -0.328125 -1.1875zm-0.140625 -3.671875q-0.890625 0.375 -2.671875 0.625q-1.015625 0.140625 -1.4375 0.328125q-0.421875 0.1875 -0.65625 0.53125q-0.21875 0.34375 -0.21875 0.78125q0 0.65625 0.5 1.09375q0.5 0.4375 1.453125 0.4375q0.9375 0 1.671875 -0.40625q0.75 -0.421875 1.09375 -1.140625q0.265625 -0.5625 0.265625 -1.640625l0 -0.609375zm10.516327 1.3125l1.609375 0.21875q-0.265625 1.65625 -1.359375 2.609375q-1.078125 0.9375 -2.671875 0.9375q-1.984375 0 -3.1875 -1.296875q-1.203125 -1.296875 -1.203125 -3.71875q0 -1.578125 0.515625 -2.75q0.515625 -1.171875 1.578125 -1.75q1.0625 -0.59375 2.3125 -0.59375q1.578125 0 2.578125 0.796875q1.0 0.796875 1.28125 2.265625l-1.59375 0.234375q-0.234375 -0.96875 -0.8125 -1.453125q-0.578125 -0.5 -1.390625 -0.5q-1.234375 0 -2.015625 0.890625q-0.78125 0.890625 -0.78125 2.8125q0 1.953125 0.75 2.84375q0.75 0.875 1.953125 0.875q0.96875 0 1.609375 -0.59375q0.65625 -0.59375 0.828125 -1.828125zm2.96875 3.546875l0 -13.359375l1.640625 0l0 13.359375l-1.640625 0zm10.816711 -3.109375l1.6875 0.203125q-0.40625 1.484375 -1.484375 2.3125q-1.078125 0.8125 -2.765625 0.8125q-2.125 0 -3.375 -1.296875q-1.234375 -1.3125 -1.234375 -3.671875q0 -2.453125 1.25 -3.796875q1.265625 -1.34375 3.265625 -1.34375q1.9375 0 3.15625 1.328125q1.234375 1.3125 1.234375 3.703125q0 0.15625 0 0.4375l-7.21875 0q0.09375 1.59375 0.90625 2.453125q0.8125 0.84375 2.015625 0.84375q0.90625 0 1.546875 -0.46875q0.640625 -0.484375 1.015625 -1.515625zm-5.390625 -2.65625l5.40625 0q-0.109375 -1.21875 -0.625 -1.828125q-0.78125 -0.953125 -2.03125 -0.953125q-1.125 0 -1.90625 0.765625q-0.765625 0.75 -0.84375 2.015625z" fill-rule="nonzero"/></g></svg>