<svg version="1.1" viewBox="0.0 0.0 511.3937007874016 342.249343832021" fill="none" stroke="none" stroke-linecap="square" stroke-miterlimit="10" xmlns:xlink="http://www.w3.org/1999/xlink" xmlns="http://www.w3.org/2000/svg"><clipPath id="p.0"><path d="m0 0l511.3937 0l0 342.24933l-511.3937 0l0 -342.24933z" clip-rule="nonzero"/></clipPath><g clip-path="url(#p.0)"><path fill="#ffffff" d="m0 0l511.3937 0l0 342.24933l-511.3937 0z" fill-rule="evenodd"/><path fill="#000000" fill-opacity="0.0" d="m64.0 280.0l0 -260.6929" fill-rule="evenodd"/><path stroke="#000000" stroke-width="1.0" stroke-linejoin="round" stroke-linecap="butt" d="m64.0 280.0l0 -253.19292" fill-rule="evenodd"/><path fill="#000000" stroke="#000000" stroke-width="1.0" stroke-linecap="butt" d="m66.197685 26.807087l-2.1976852 -6.0380974l-2.197689 6.0380974z" fill-rule="evenodd"/><path fill="#000000" fill-opacity="0.0" d="m64.0 280.0l424.0 0" fill-rule="evenodd"/><path stroke="#000000" stroke-width="1.0" stroke-linejoin="round" stroke-linecap="butt" d="m64.0 280.0l416.5 0" fill-rule="evenodd"/><path fill="#000000" stroke="#000000" stroke-width="1.0" stroke-linecap="butt" d="m480.5 282.1977l6.038086 -2.1976929l-6.038086 -2.1976929z" fill-rule="evenodd"/><path fill="#000000" fill-opacity="0.0" d="m0 8.0l72.0 0l0 43.307087l-72.0 0z" fill-rule="evenodd"/><path fill="#000000" d="m33.164062 45.086876l0 -22.515625l1.84375 0l0 22.515625l-1.84375 0zm7.765625 -6.625l0 6.34375l-2.09375 0l0 -16.5625q0 -1.96875 0.53125 -3.09375q0.53125 -1.125 1.828125 -1.84375q1.3125 -0.734375 2.90625 -0.734375q2.359375 0 3.5625 1.359375q1.21875 1.34375 1.21875 2.953125q0 1.5625 -0.984375 2.53125q-0.96875 0.953125 -2.234375 1.171875q2.03125 0.203125 3.140625 1.46875q1.109375 1.265625 1.109375 3.125q0 1.984375 -1.3125 3.5625q-1.296875 1.578125 -3.78125 1.578125q-2.53125 0 -3.890625 -1.859375zm1.875 -8.546875q2.15625 0 3.140625 -0.75q0.984375 -0.75 0.984375 -2.171875q0 -1.140625 -0.84375 -1.90625q-0.84375 -0.78125 -2.09375 -0.78125q-1.09375 0 -1.890625 0.578125q-0.796875 0.5625 -0.984375 1.265625q-0.1875 0.703125 -0.1875 2.46875l0 4.71875q0 2.015625 0.28125 2.96875q0.28125 0.9375 1.203125 1.703125q0.9375 0.765625 2.140625 0.765625q1.46875 0 2.3125 -1.0q0.859375 -1.0 0.859375 -2.484375q0 -1.21875 -0.640625 -2.1875q-0.625 -0.96875 -1.546875 -1.3125q-0.90625 -0.34375 -2.4375 -0.34375l-0.296875 0l0 -1.53125z" fill-rule="nonzero"/><path fill="#000000" d="m54.46875 42.19625l-1.59375 -0.84375l5.71875 -9.9375l-5.71875 -9.9375l1.59375 -0.84375l6.1875 10.78125l-6.1875 10.78125z" fill-rule="nonzero"/><path fill="#000000" fill-opacity="0.0" d="m448.0 236.69292l72.0 0l0 43.307083l-72.0 0z" fill-rule="evenodd"/><path fill="#000000" d="m480.5664 273.7798l0 -22.515625l1.84375 0l0 22.515625l-1.84375 0z" fill-rule="nonzero"/><path fill="#000000" d="m497.92578 266.07666q-0.171875 1.421875 -0.703125 2.21875q-0.53125 0.78125 -1.296875 0.78125q-0.5625 0 -0.9375 -0.65625q-0.359375 -0.65625 -0.515625 -1.953125q-0.640625 1.296875 -1.671875 1.953125q-1.03125 0.65625 -2.46875 0.65625q-1.984375 0 -3.125 -1.546875q-1.140625 -1.546875 -1.140625 -4.265625q0 -1.859375 0.5625 -3.203125q0.578125 -1.34375 1.59375 -2.03125q1.015625 -0.703125 2.171875 -0.703125q1.203125 0 2.0625 0.953125q0.875 0.953125 1.40625 2.84375l0.75 -3.53125l2.015625 0q-1.3125 6.046875 -1.453125 6.578125l-0.40625 1.4375q0 0.03125 0.125 0.640625q0.125 0.609375 0.453125 1.015625q0.328125 0.390625 0.859375 0.390625q0.46875 0 0.78125 -0.296875q0.3125 -0.3125 0.484375 -1.28125l0.453125 0zm-4.296875 -3.84375q-0.6875 -2.328125 -1.421875 -3.265625q-0.71875 -0.953125 -1.609375 -0.953125q-1.046875 0 -1.671875 1.359375q-0.609375 1.34375 -0.609375 4.0q0 2.65625 0.546875 3.8125q0.5625 1.140625 1.59375 1.140625q0.828125 0 1.484375 -0.875q0.65625 -0.875 1.25 -3.390625l0.4375 -1.828125z" fill-rule="nonzero"/><path fill="#000000" d="m502.46875 270.88916l-1.59375 -0.84375l5.71875 -9.9375l-5.71875 -9.9375l1.59375 -0.84375l6.1875 10.78125l-6.1875 10.78125z" fill-rule="nonzero"/><path fill="#000000" fill-opacity="0.0" d="m64.0 278.6299l320.0 -104.031494" fill-rule="evenodd"/><path stroke="#000000" stroke-width="1.0" stroke-linejoin="round" stroke-linecap="butt" d="m64.0 278.6299l312.86746 -101.71271" fill-rule="evenodd"/><path fill="#000000" stroke="#000000" stroke-width="1.0" stroke-linecap="butt" d="m377.5469 179.00722l5.062805 -3.9568176l-6.4217224 -0.22320557z" fill-rule="evenodd"/><path fill="#000000" fill-opacity="0.0" d="m384.0 147.30708l72.0 0l0 43.307083l-72.0 0z" fill-rule="evenodd"/><path fill="#000000" d="m414.3368 184.39397l0 -22.515625l1.84375 0l0 22.515625l-1.84375 0z" fill-rule="nonzero"/><path fill="#000000" d="m434.07117 169.59709q0 0.625 -0.25 1.671875q-0.234375 1.046875 -0.8125 2.421875q-0.578125 1.359375 -1.390625 2.59375q-0.796875 1.21875 -2.125 2.15625q-1.3125 0.9375 -2.875 1.140625l-1.046875 5.140625l-2.265625 0l1.515625 -5.140625q-1.796875 -0.046875 -2.96875 -0.890625q-1.15625 -0.859375 -1.15625 -2.5625q0 -1.03125 0.71875 -3.203125q0.71875 -2.171875 0.71875 -3.03125q0 -0.625 -0.578125 -0.625q-0.46875 0 -0.84375 0.3125q-0.359375 0.3125 -0.546875 0.765625q-0.171875 0.453125 -0.328125 0.96875q-0.15625 0.5 -0.21875 0.875l-0.703125 0q0.203125 -0.71875 0.328125 -1.140625q0.140625 -0.421875 0.40625 -1.015625q0.28125 -0.59375 0.59375 -0.921875q0.328125 -0.328125 0.859375 -0.578125q0.53125 -0.25 1.203125 -0.25q0.859375 0 1.265625 0.5625q0.40625 0.5625 0.40625 1.46875q0 1.109375 -0.71875 3.25q-0.71875 2.140625 -0.71875 3.234375q0 2.09375 2.453125 2.203125l3.8125 -13.046875l0.609375 0l-2.71875 13.046875q2.140625 -0.28125 3.609375 -2.15625q1.484375 -1.875 1.484375 -4.046875q0 -0.46875 -0.125 -1.359375q-0.125 -0.90625 -0.125 -1.359375q0 -0.671875 0.34375 -1.234375q0.359375 -0.5625 1.0 -0.5625q1.1875 0 1.1875 1.3125z" fill-rule="nonzero"/><path fill="#000000" d="m438.46875 181.50334l-1.59375 -0.84375l5.71875 -9.9375l-5.71875 -9.9375l1.59375 -0.84375l6.1875 10.78125l-6.1875 10.78125z" fill-rule="nonzero"/><path fill="#000000" fill-opacity="0.0" d="m64.0 278.61417l256.0 -32.0" fill-rule="evenodd"/><path stroke="#0000ff" stroke-width="2.0" stroke-linejoin="round" stroke-linecap="butt" d="m64.0 278.61417l241.11584 -30.139465" fill-rule="evenodd"/><path fill="#0000ff" stroke="#0000ff" stroke-width="2.0" stroke-linecap="butt" d="m305.661 252.83614l11.437775 -5.859314l-12.528137 -2.863556z" fill-rule="evenodd"/><path fill="#000000" fill-opacity="0.0" d="m320.0 224.0l72.0 0l0 43.3071l-72.0 0z" fill-rule="evenodd"/><path fill="#000000" d="m352.13678 261.08688l0 -22.515625l1.84375 0l0 22.515625l-1.84375 0z" fill-rule="nonzero"/><path fill="#000000" d="m362.93365 256.30563l-1.265625 4.65625l-1.796875 0l1.234375 -4.65625q-1.765625 0 -3.203125 -1.171875q-1.421875 -1.1875 -1.421875 -3.21875q0 -1.375 0.6875 -2.828125q0.6875 -1.46875 2.015625 -2.546875q1.328125 -1.078125 2.859375 -1.078125q1.515625 0 1.8125 1.1875l-0.421875 0.390625q-0.453125 -1.03125 -1.234375 -1.03125q-1.015625 0 -1.796875 0.8125q-0.78125 0.796875 -1.171875 1.984375q-0.375 1.1875 -0.5625 2.234375q-0.171875 1.046875 -0.171875 1.828125q0 1.421875 0.78125 2.15625q0.796875 0.734375 1.984375 0.734375l1.09375 -4.03125q1.703125 -6.265625 5.015625 -6.265625q1.328125 0 2.03125 0.734375q0.703125 0.71875 0.703125 2.140625q0 3.1875 -2.140625 5.578125q-2.125 2.390625 -5.03125 2.390625zm6.484375 -7.921875q0 -1.03125 -0.484375 -1.703125q-0.484375 -0.671875 -1.390625 -0.671875q-0.640625 0 -1.125 0.28125q-0.484375 0.265625 -0.796875 0.859375q-0.3125 0.59375 -0.453125 1.03125q-0.140625 0.421875 -0.34375 1.1875l-1.71875 6.390625q2.40625 0 4.359375 -2.203125q1.953125 -2.21875 1.953125 -5.171875z" fill-rule="nonzero"/><path fill="#000000" d="m374.46875 258.19626l-1.59375 -0.84375l5.71875 -9.9375l-5.71875 -9.9375l1.59375 -0.84375l6.1875 10.78125l-6.1875 10.78125z" fill-rule="nonzero"/><path fill="#000000" fill-opacity="0.0" d="m64.0 280.0l256.0 30.614166" fill-rule="evenodd"/><path stroke="#ff0000" stroke-width="2.0" stroke-linejoin="round" stroke-linecap="butt" d="m64.0 280.0l241.10611 28.833069" fill-rule="evenodd"/><path fill="#ff0000" stroke="#ff0000" stroke-width="2.0" stroke-linecap="butt" d="m304.5842 313.19736l12.512695 -2.930359l-11.468872 -5.798218z" fill-rule="evenodd"/><path fill="#000000" fill-opacity="0.0" d="m320.0 246.61417l0 64.0" fill-rule="evenodd"/><path stroke="#000000" stroke-width="1.0" stroke-linejoin="round" stroke-linecap="butt" stroke-dasharray="4.0,3.0" d="m320.0 246.61417l0 59.618866" fill-rule="evenodd"/><path fill="#000000" stroke="#000000" stroke-width="1.0" stroke-linecap="butt" d="m320.0 306.23303l-1.6705322 -1.6705322l1.6705322 4.5897827l1.6705322 -4.5897827z" fill-rule="evenodd"/><path fill="#000000" fill-opacity="0.0" d="m320.0 294.61417l88.0 0l0 43.3071l-88.0 0z" fill-rule="evenodd"/><path fill="#000000" d="m348.42194 318.27917q0 -4.265625 2.296875 -6.6875q2.296875 -2.421875 5.9375 -2.421875q2.375 0 4.28125 1.140625q1.921875 1.125 2.921875 3.171875q1.0 2.03125 1.0 4.609375q0 2.609375 -1.0625 4.671875q-1.046875 2.0625 -2.984375 3.125q-1.9375 1.0625 -4.171875 1.0625q-2.421875 0 -4.34375 -1.171875q-1.90625 -1.171875 -2.890625 -3.203125q-0.984375 -2.03125 -0.984375 -4.296875zm2.34375 0.046875q0 3.09375 1.671875 4.890625q1.671875 1.78125 4.1875 1.78125q2.578125 0 4.234375 -1.796875q1.65625 -1.8125 1.65625 -5.125q0 -2.09375 -0.71875 -3.65625q-0.703125 -1.578125 -2.078125 -2.4375q-1.359375 -0.859375 -3.046875 -0.859375q-2.421875 0 -4.171875 1.65625q-1.734375 1.65625 -1.734375 5.546875zm17.371094 13.375l0 -22.515625l1.84375 0l0 22.515625l-1.84375 0z" fill-rule="nonzero"/><path fill="#000000" d="m378.93365 326.9198l-1.265625 4.65625l-1.796875 0l1.234375 -4.65625q-1.765625 0 -3.203125 -1.171875q-1.421875 -1.1875 -1.421875 -3.21875q0 -1.375 0.6875 -2.828125q0.6875 -1.46875 2.015625 -2.546875q1.328125 -1.078125 2.859375 -1.078125q1.515625 0 1.8125 1.1875l-0.421875 0.390625q-0.453125 -1.03125 -1.234375 -1.03125q-1.015625 0 -1.796875 0.8125q-0.78125 0.796875 -1.171875 1.984375q-0.375 1.1875 -0.5625 2.234375q-0.171875 1.046875 -0.171875 1.828125q0 1.421875 0.78125 2.15625q0.796875 0.734375 1.984375 0.734375l1.09375 -4.03125q1.703125 -6.265625 5.015625 -6.265625q1.328125 0 2.03125 0.734375q0.703125 0.71875 0.703125 2.140625q0 3.1875 -2.140625 5.578125q-2.125 2.390625 -5.03125 2.390625zm6.484375 -7.921875q0 -1.03125 -0.484375 -1.703125q-0.484375 -0.671875 -1.390625 -0.671875q-0.640625 0 -1.125 0.28125q-0.484375 0.265625 -0.796875 0.859375q-0.3125 0.59375 -0.453125 1.03125q-0.140625 0.421875 -0.34375 1.1875l-1.71875 6.390625q2.40625 0 4.359375 -2.203125q1.953125 -2.21875 1.953125 -5.171875z" fill-rule="nonzero"/><path fill="#000000" d="m390.46875 328.81042l-1.59375 -0.84375l5.71875 -9.9375l-5.71875 -9.9375l1.59375 -0.84375l6.1875 10.78125l-6.1875 10.78125z" fill-rule="nonzero"/><path fill="#000000" fill-opacity="0.0" d="m64.0 278.61417l176.0 -176.0" fill-rule="evenodd"/><path stroke="#6aa84f" stroke-width="2.0" stroke-linejoin="round" stroke-linecap="butt" d="m64.0 278.61417l165.39339 -165.39339" fill-rule="evenodd"/><path fill="#6aa84f" stroke="#6aa84f" stroke-width="2.0" stroke-linecap="butt" d="m232.5014 116.32877l5.4311523 -11.647156l-11.647156 5.43116z" fill-rule="evenodd"/><path fill="#000000" fill-opacity="0.0" d="m312.0 302.61417l-72.0 -200.0" fill-rule="evenodd"/><path stroke="#000000" stroke-width="1.0" stroke-linejoin="round" stroke-linecap="butt" stroke-dasharray="4.0,3.0" d="m312.0 302.61417l-70.51604 -195.87784" fill-rule="evenodd"/><path fill="#000000" stroke="#000000" stroke-width="1.0" stroke-linecap="butt" d="m241.48398 106.73633l2.1376343 1.0059433l-3.1264343 -3.7526093l-0.017150879 4.8842926z" fill-rule="evenodd"/><path fill="#000000" fill-opacity="0.0" d="m232.0 62.614174l88.0 0l0 43.307083l-88.0 0z" fill-rule="evenodd"/><path fill="#000000" d="m269.1563 87.9198l0 -2.015625l7.28125 -0.015625l0 6.375q-1.671875 1.328125 -3.453125 2.015625q-1.78125 0.671875 -3.65625 0.671875q-2.53125 0 -4.609375 -1.078125q-2.0625 -1.09375 -3.125 -3.140625q-1.046875 -2.0625 -1.046875 -4.59375q0 -2.5 1.046875 -4.671875q1.046875 -2.171875 3.015625 -3.21875q1.96875 -1.0625 4.53125 -1.0625q1.875 0 3.375 0.609375q1.5 0.59375 2.359375 1.671875q0.859375 1.078125 1.296875 2.8125l-2.046875 0.5625q-0.390625 -1.3125 -0.96875 -2.0625q-0.5625 -0.75 -1.640625 -1.203125q-1.0625 -0.453125 -2.359375 -0.453125q-1.5625 0 -2.703125 0.484375q-1.125 0.46875 -1.828125 1.25q-0.6875 0.765625 -1.078125 1.6875q-0.65625 1.59375 -0.65625 3.453125q0 2.296875 0.78125 3.84375q0.796875 1.546875 2.3125 2.296875q1.515625 0.75 3.203125 0.75q1.484375 0 2.890625 -0.5625q1.40625 -0.5625 2.125 -1.21875l0 -3.1875l-5.046875 0zm10.980469 11.78125l0 -22.515625l1.84375 0l0 22.515625l-1.84375 0z" fill-rule="nonzero"/><path fill="#000000" d="m290.93365 94.9198l-1.265625 4.65625l-1.796875 0l1.234375 -4.65625q-1.765625 0 -3.203125 -1.171875q-1.421875 -1.1875 -1.421875 -3.21875q0 -1.375 0.6875 -2.828125q0.6875 -1.46875 2.015625 -2.546875q1.328125 -1.078125 2.859375 -1.078125q1.515625 0 1.8125 1.1875l-0.421875 0.390625q-0.453125 -1.03125 -1.234375 -1.03125q-1.015625 0 -1.796875 0.8125q-0.78125 0.796875 -1.171875 1.984375q-0.375 1.1875 -0.5625 2.234375q-0.171875 1.046875 -0.171875 1.828125q0 1.421875 0.78125 2.15625q0.796875 0.734375 1.984375 0.734375l1.09375 -4.03125q1.703125 -6.265625 5.015625 -6.265625q1.328125 0 2.03125 0.734375q0.703125 0.71875 0.703125 2.140625q0 3.1875 -2.140625 5.578125q-2.125 2.390625 -5.03125 2.390625zm6.484375 -7.921875q0 -1.03125 -0.484375 -1.703125q-0.484375 -0.671875 -1.390625 -0.671875q-0.640625 0 -1.125 0.28125q-0.484375 0.265625 -0.796875 0.859375q-0.3125 0.59375 -0.453125 1.03125q-0.140625 0.421875 -0.34375 1.1875l-1.71875 6.390625q2.40625 0 4.359375 -2.203125q1.953125 -2.21875 1.953125 -5.171875z" fill-rule="nonzero"/><path fill="#000000" d="m302.46875 96.810425l-1.59375 -0.84375l5.71875 -9.9375l-5.71875 -9.9375l1.59375 -0.84375l6.1875 10.78125l-6.1875 10.78125z" fill-rule="nonzero"/><path fill="#000000" fill-opacity="0.0" d="m384.0 206.61417l48.0 0l0 38.771667l-48.0 0z" fill-rule="evenodd"/><path fill="#000000" d="m395.85938 231.14604q-0.96875 0 -1.640625 -0.859375q-0.65625 -0.875 -0.65625 -2.125q0 -1.125 0.328125 -2.4375q0.34375 -1.328125 0.953125 -2.578125q0.609375 -1.265625 1.625 -2.09375q1.03125 -0.828125 2.25 -0.828125q1.265625 0 1.828125 0.90625q0.5625 0.890625 0.5625 2.25q0 1.09375 -0.359375 2.40625q-0.34375 1.296875 -0.984375 2.53125q-0.625 1.21875 -1.65625 2.03125q-1.03125 0.796875 -2.25 0.796875zm3.578125 -5.90625q0.328125 -1.375 0.328125 -2.75q0 -0.53125 -0.0625 -0.890625q-0.046875 -0.359375 -0.328125 -0.6875q-0.265625 -0.328125 -0.765625 -0.328125q-1.984375 0 -3.140625 4.65625l3.96875 0zm-0.09375 0.390625l-3.96875 0q-0.46875 1.828125 -0.46875 3.25q0 1.90625 1.03125 1.90625q2.140625 0 3.40625 -5.15625z" fill-rule="nonzero"/><path fill="#000000" d="m401.528 231.17729l3.328125 -11.859375l1.125 0l-3.3125 11.859375l-1.140625 0zm12.5078125 -1.5625l0 1.359375l-7.578125 0q-0.015625 -0.515625 0.171875 -0.984375q0.28125 -0.765625 0.921875 -1.515625q0.640625 -0.75 1.84375 -1.734375q1.859375 -1.53125 2.515625 -2.421875q0.65625 -0.90625 0.65625 -1.703125q0 -0.828125 -0.59375 -1.40625q-0.59375 -0.578125 -1.5625 -0.578125q-1.015625 0 -1.625 0.609375q-0.609375 0.609375 -0.609375 1.6875l-1.453125 -0.140625q0.15625 -1.625 1.125 -2.46875q0.96875 -0.84375 2.59375 -0.84375q1.65625 0 2.609375 0.921875q0.96875 0.90625 0.96875 2.25q0 0.6875 -0.28125 1.359375q-0.28125 0.65625 -0.9375 1.390625q-0.65625 0.734375 -2.171875 2.015625q-1.265625 1.0625 -1.625 1.453125q-0.359375 0.375 -0.59375 0.75l5.625 0z" fill-rule="nonzero"/><path fill="#000000" fill-opacity="0.0" d="m368.0 182.61417c3.7098694 8.0 18.549347 32.0 22.259186 48.0c3.7098694 16.0 0 40.0 0 48.0" fill-rule="evenodd"/><path stroke="#000000" stroke-width="1.0" stroke-linejoin="round" stroke-linecap="butt" stroke-dasharray="4.0,3.0" d="m368.0 182.61417c3.7098694 8.0 18.549347 32.0 22.259186 48.0c3.7098694 16.0 0 40.0 0 48.0" fill-rule="evenodd"/><path fill="#000000" fill-opacity="0.0" d="m256.0 246.61417l48.0 0l0 38.771667l-48.0 0z" fill-rule="evenodd"/><path fill="#000000" d="m266.89062 274.3648q-0.59375 0 -0.59375 -0.859375q0 -0.625 0.375 -1.328125q0.375 -0.6875 0.796875 -1.265625q0.421875 -0.59375 0.484375 -0.84375q0.03125 -0.171875 0.03125 -1.46875q0 -3.53125 -1.078125 -3.53125q-0.46875 0 -0.671875 0.28125q-0.203125 0.28125 -0.34375 0.796875l-0.34375 -0.140625q0.046875 -0.359375 0.0625 -0.53125q0.03125 -0.1875 0.140625 -0.53125q0.109375 -0.34375 0.25 -0.53125q0.15625 -0.1875 0.4375 -0.34375q0.296875 -0.15625 0.65625 -0.15625q0.3125 0 0.53125 0.15625q0.21875 0.15625 0.34375 0.484375q0.140625 0.3125 0.21875 0.640625q0.09375 0.3125 0.125 0.8125q0.03125 0.484375 0.03125 0.84375q0.015625 0.34375 0.015625 0.875q0 0.46875 0 1.046875q0.015625 0.5625 0.015625 0.671875l0.03125 0q0.140625 -0.25 0.609375 -0.65625q0.46875 -0.40625 0.90625 -0.765625q0.4375 -0.359375 0.796875 -0.875q0.359375 -0.53125 0.359375 -0.984375q0 -0.21875 -0.109375 -0.59375q-0.09375 -0.375 -0.09375 -0.65625q0 -0.4375 0.25 -0.71875q0.25 -0.28125 0.609375 -0.28125q0.8125 0 0.8125 1.140625q0 0.640625 -0.40625 1.28125q-0.40625 0.640625 -1.0 1.171875q-0.59375 0.53125 -1.1875 1.0q-0.59375 0.453125 -1.078125 0.875q-0.46875 0.421875 -0.546875 0.734375q-0.078125 0.265625 -0.125 1.0625q-0.03125 0.8125 -0.078125 1.453125q-0.046875 0.640625 -0.359375 1.1875q-0.296875 0.546875 -0.875 0.546875z" fill-rule="nonzero"/><path fill="#000000" d="m272.93604 271.1773l3.328125 -11.859375l1.125 0l-3.3125 11.859375l-1.140625 0zm12.5078125 -1.5625l0 1.359375l-7.578125 0q-0.015625 -0.515625 0.171875 -0.984375q0.28125 -0.765625 0.921875 -1.515625q0.640625 -0.75 1.84375 -1.734375q1.859375 -1.53125 2.515625 -2.421875q0.65625 -0.90625 0.65625 -1.703125q0 -0.828125 -0.59375 -1.40625q-0.59375 -0.578125 -1.5625 -0.578125q-1.015625 0 -1.625 0.609375q-0.609375 0.609375 -0.609375 1.6875l-1.453125 -0.140625q0.15625 -1.625 1.125 -2.46875q0.96875 -0.84375 2.59375 -0.84375q1.65625 0 2.609375 0.921875q0.96875 0.90625 0.96875 2.25q0 0.6875 -0.28125 1.359375q-0.28125 0.65625 -0.9375 1.390625q-0.65625 0.734375 -2.171875 2.015625q-1.265625 1.0625 -1.625 1.453125q-0.359375 0.375 -0.59375 0.75l5.625 0z" fill-rule="nonzero"/><path fill="#000000" fill-opacity="0.0" d="m247.33333 254.61417c1.3333435 1.3333435 6.6666718 4.0 8.0 8.0c1.3333282 4.0 0 13.3333435 0 16.0" fill-rule="evenodd"/><path stroke="#000000" stroke-width="1.0" stroke-linejoin="round" stroke-linecap="butt" stroke-dasharray="4.0,3.0" d="m247.33333 254.61417c1.3333435 1.3333435 6.6666718 4.0 8.0 8.0c1.3333282 4.0 0 13.3333435 0 16.0" fill-rule="evenodd"/><path fill="#000000" fill-opacity="0.0" d="m160.0 190.61417c3.7309265 3.5584106 17.573334 13.557343 22.385605 21.350403c4.812256 7.7930756 5.406662 21.17334 6.4879913 25.408005" fill-rule="evenodd"/><path stroke="#000000" stroke-width="1.0" stroke-linejoin="round" stroke-linecap="butt" stroke-dasharray="4.0,3.0" d="m160.0 190.61417c3.7309265 3.5584106 17.573334 13.557343 22.385605 21.350403c4.812256 7.7930756 5.406662 21.17334 6.4879913 25.408005" fill-rule="evenodd"/><path fill="#000000" fill-opacity="0.0" d="m168.0 175.84251l120.0 0l0 38.771652l-120.0 0z" fill-rule="evenodd"/><path fill="#000000" d="m179.85938 200.37439q-0.96875 0 -1.640625 -0.859375q-0.65625 -0.875 -0.65625 -2.125q0 -1.125 0.328125 -2.4375q0.34375 -1.328125 0.953125 -2.578125q0.609375 -1.265625 1.625 -2.09375q1.03125 -0.828125 2.25 -0.828125q1.265625 0 1.828125 0.90625q0.5625 0.890625 0.5625 2.25q0 1.09375 -0.359375 2.40625q-0.34375 1.296875 -0.984375 2.53125q-0.625 1.21875 -1.65625 2.03125q-1.03125 0.796875 -2.25 0.796875zm3.578125 -5.90625q0.328125 -1.375 0.328125 -2.75q0 -0.53125 -0.0625 -0.890625q-0.046875 -0.359375 -0.328125 -0.6875q-0.265625 -0.328125 -0.765625 -0.328125q-1.984375 0 -3.140625 4.65625l3.96875 0zm-0.09375 0.390625l-3.96875 0q-0.46875 1.828125 -0.46875 3.25q0 1.90625 1.03125 1.90625q2.140625 0 3.40625 -5.15625z" fill-rule="nonzero"/><path fill="#000000" d="m185.52802 200.40564l3.328125 -11.859375l1.125 0l-3.3125 11.859375l-1.140625 0zm12.5078125 -1.5625l0 1.359375l-7.578125 0q-0.015625 -0.515625 0.171875 -0.984375q0.28125 -0.765625 0.921875 -1.515625q0.640625 -0.75 1.84375 -1.734375q1.859375 -1.53125 2.515625 -2.421875q0.65625 -0.90625 0.65625 -1.703125q0 -0.828125 -0.59375 -1.40625q-0.59375 -0.578125 -1.5625 -0.578125q-1.015625 0 -1.625 0.609375q-0.609375 0.609375 -0.609375 1.6875l-1.453125 -0.140625q0.15625 -1.625 1.125 -2.46875q0.96875 -0.84375 2.59375 -0.84375q1.65625 0 2.609375 0.921875q0.96875 0.90625 0.96875 2.25q0 0.6875 -0.28125 1.359375q-0.28125 0.65625 -0.9375 1.390625q-0.65625 0.734375 -2.171875 2.015625q-1.265625 1.0625 -1.625 1.453125q-0.359375 0.375 -0.59375 0.75l5.625 0zm9.296875 -0.5l0 -3.140625l-3.125 0l0 -1.3125l3.125 0l0 -3.109375l1.328125 0l0 3.109375l3.109375 0l0 1.3125l-3.109375 0l0 3.140625l-1.328125 0z" fill-rule="nonzero"/><path fill="#000000" d="m218.99677 203.59314q-0.59375 0 -0.59375 -0.859375q0 -0.625 0.375 -1.328125q0.375 -0.6875 0.796875 -1.265625q0.421875 -0.59375 0.484375 -0.84375q0.03125 -0.171875 0.03125 -1.46875q0 -3.53125 -1.078125 -3.53125q-0.46875 0 -0.671875 0.28125q-0.203125 0.28125 -0.34375 0.796875l-0.34375 -0.140625q0.046875 -0.359375 0.0625 -0.53125q0.03125 -0.1875 0.140625 -0.53125q0.109375 -0.34375 0.25 -0.53125q0.15625 -0.1875 0.4375 -0.34375q0.296875 -0.15625 0.65625 -0.15625q0.3125 0 0.53125 0.15625q0.21875 0.15625 0.34375 0.484375q0.140625 0.3125 0.21875 0.640625q0.09375 0.3125 0.125 0.8125q0.03125 0.484375 0.03125 0.84375q0.015625 0.34375 0.015625 0.875q0 0.46875 0 1.046875q0.015625 0.5625 0.015625 0.671875l0.03125 0q0.140625 -0.25 0.609375 -0.65625q0.46875 -0.40625 0.90625 -0.765625q0.4375 -0.359375 0.796875 -0.875q0.359375 -0.53125 0.359375 -0.984375q0 -0.21875 -0.109375 -0.59375q-0.09375 -0.375 -0.09375 -0.65625q0 -0.4375 0.25 -0.71875q0.25 -0.28125 0.609375 -0.28125q0.8125 0 0.8125 1.140625q0 0.640625 -0.40625 1.28125q-0.40625 0.640625 -1.0 1.171875q-0.59375 0.53125 -1.1875 1.0q-0.59375 0.453125 -1.078125 0.875q-0.46875 0.421875 -0.546875 0.734375q-0.078125 0.265625 -0.125 1.0625q-0.03125 0.8125 -0.078125 1.453125q-0.046875 0.640625 -0.359375 1.1875q-0.296875 0.546875 -0.875 0.546875z" fill-rule="nonzero"/><path fill="#000000" d="m225.04216 200.40564l3.328125 -11.859375l1.125 0l-3.3125 11.859375l-1.140625 0zm12.5078125 -1.5625l0 1.359375l-7.578125 0q-0.015625 -0.515625 0.171875 -0.984375q0.28125 -0.765625 0.921875 -1.515625q0.640625 -0.75 1.84375 -1.734375q1.859375 -1.53125 2.515625 -2.421875q0.65625 -0.90625 0.65625 -1.703125q0 -0.828125 -0.59375 -1.40625q-0.59375 -0.578125 -1.5625 -0.578125q-1.015625 0 -1.625 0.609375q-0.609375 0.609375 -0.609375 1.6875l-1.453125 -0.140625q0.15625 -1.625 1.125 -2.46875q0.96875 -0.84375 2.59375 -0.84375q1.65625 0 2.609375 0.921875q0.96875 0.90625 0.96875 2.25q0 0.6875 -0.28125 1.359375q-0.28125 0.65625 -0.9375 1.390625q-0.65625 0.734375 -2.171875 2.015625q-1.265625 1.0625 -1.625 1.453125q-0.359375 0.375 -0.59375 0.75l5.625 0z" fill-rule="nonzero"/></g></svg>