<svg version="1.1" viewBox="0.0 0.0 516.9422572178478 228.03937007874015" fill="none" stroke="none" stroke-linecap="square" stroke-miterlimit="10" xmlns:xlink="http://www.w3.org/1999/xlink" xmlns="http://www.w3.org/2000/svg"><clipPath id="p.0"><path d="m0 0l516.94226 0l0 228.03937l-516.94226 0l0 -228.03937z" clip-rule="nonzero"/></clipPath><g clip-path="url(#p.0)"><path fill="#ffffff" d="m0 0l516.94226 0l0 228.03937l-516.94226 0z" fill-rule="evenodd"/><path fill="#000000" fill-opacity="0.0" d="m72.0 216.0l0 -196.69292" fill-rule="evenodd"/><path stroke="#000000" stroke-width="1.0" stroke-linejoin="round" stroke-linecap="butt" d="m72.0 216.0l0 -189.19292" fill-rule="evenodd"/><path fill="#000000" stroke="#000000" stroke-width="1.0" stroke-linecap="butt" d="m74.197685 26.807087l-2.1976852 -6.0380974l-2.1976852 6.0380974z" fill-rule="evenodd"/><path fill="#000000" fill-opacity="0.0" d="m72.0 216.0l416.0 0" fill-rule="evenodd"/><path stroke="#000000" stroke-width="1.0" stroke-linejoin="round" stroke-linecap="butt" d="m72.0 216.0l408.5 0" fill-rule="evenodd"/><path fill="#000000" stroke="#000000" stroke-width="1.0" stroke-linecap="butt" d="m480.5 218.1977l6.038086 -2.1976929l-6.038086 -2.1976929z" fill-rule="evenodd"/><path fill="#000000" fill-opacity="0.0" d="m8.0 8.0l72.0 0l0 43.307087l-72.0 0z" fill-rule="evenodd"/><path fill="#000000" d="m41.164062 45.086876l0 -22.515625l1.84375 0l0 22.515625l-1.84375 0zm7.765625 -6.625l0 6.34375l-2.09375 0l0 -16.5625q0 -1.96875 0.53125 -3.09375q0.53125 -1.125 1.828125 -1.84375q1.3125 -0.734375 2.90625 -0.734375q2.359375 0 3.5625 1.359375q1.21875 1.34375 1.21875 2.953125q0 1.5625 -0.984375 2.53125q-0.96875 0.953125 -2.234375 1.171875q2.03125 0.203125 3.140625 1.46875q1.109375 1.265625 1.109375 3.125q0 1.984375 -1.3125 3.5625q-1.296875 1.578125 -3.78125 1.578125q-2.53125 0 -3.890625 -1.859375zm1.875 -8.546875q2.15625 0 3.140625 -0.75q0.984375 -0.75 0.984375 -2.171875q0 -1.140625 -0.84375 -1.90625q-0.84375 -0.78125 -2.09375 -0.78125q-1.09375 0 -1.890625 0.578125q-0.796875 0.5625 -0.984375 1.265625q-0.1875 0.703125 -0.1875 2.46875l0 4.71875q0 2.015625 0.28125 2.96875q0.28125 0.9375 1.203125 1.703125q0.9375 0.765625 2.140625 0.765625q1.46875 0 2.3125 -1.0q0.859375 -1.0 0.859375 -2.484375q0 -1.21875 -0.640625 -2.1875q-0.625 -0.96875 -1.546875 -1.3125q-0.90625 -0.34375 -2.4375 -0.34375l-0.296875 0l0 -1.53125z" fill-rule="nonzero"/><path fill="#000000" d="m62.46875 42.19625l-1.59375 -0.84375l5.71875 -9.9375l-5.71875 -9.9375l1.59375 -0.84375l6.1875 10.78125l-6.1875 10.78125z" fill-rule="nonzero"/><path fill="#000000" fill-opacity="0.0" d="m448.0 168.0l72.0 0l0 43.307083l-72.0 0z" fill-rule="evenodd"/><path fill="#000000" d="m480.5664 205.08688l0 -22.515625l1.84375 0l0 22.515625l-1.84375 0z" fill-rule="nonzero"/><path fill="#000000" d="m497.92578 197.38376q-0.171875 1.421875 -0.703125 2.21875q-0.53125 0.78125 -1.296875 0.78125q-0.5625 0 -0.9375 -0.65625q-0.359375 -0.65625 -0.515625 -1.953125q-0.640625 1.296875 -1.671875 1.953125q-1.03125 0.65625 -2.46875 0.65625q-1.984375 0 -3.125 -1.546875q-1.140625 -1.546875 -1.140625 -4.265625q0 -1.859375 0.5625 -3.203125q0.578125 -1.34375 1.59375 -2.03125q1.015625 -0.703125 2.171875 -0.703125q1.203125 0 2.0625 0.953125q0.875 0.953125 1.40625 2.84375l0.75 -3.53125l2.015625 0q-1.3125 6.046875 -1.453125 6.578125l-0.40625 1.4375q0 0.03125 0.125 0.640625q0.125 0.609375 0.453125 1.015625q0.328125 0.390625 0.859375 0.390625q0.46875 0 0.78125 -0.296875q0.3125 -0.3125 0.484375 -1.28125l0.453125 0zm-4.296875 -3.84375q-0.6875 -2.328125 -1.421875 -3.265625q-0.71875 -0.953125 -1.609375 -0.953125q-1.046875 0 -1.671875 1.359375q-0.609375 1.34375 -0.609375 4.0q0 2.65625 0.546875 3.8125q0.5625 1.140625 1.59375 1.140625q0.828125 0 1.484375 -0.875q0.65625 -0.875 1.25 -3.390625l0.4375 -1.828125z" fill-rule="nonzero"/><path fill="#000000" d="m502.46875 202.19626l-1.59375 -0.84375l5.71875 -9.9375l-5.71875 -9.9375l1.59375 -0.84375l6.1875 10.78125l-6.1875 10.78125z" fill-rule="nonzero"/><path fill="#000000" fill-opacity="0.0" d="m72.0 216.0l320.0 -105.41732" fill-rule="evenodd"/><path stroke="#000000" stroke-width="1.0" stroke-linejoin="round" stroke-linecap="butt" d="m72.0 216.0l312.87656 -103.07066" fill-rule="evenodd"/><path fill="#000000" stroke="#000000" stroke-width="1.0" stroke-linecap="butt" d="m385.5642 115.016685l5.0473022 -3.976593l-6.422577 -0.19809723z" fill-rule="evenodd"/><path fill="#000000" fill-opacity="0.0" d="m392.0 83.30708l72.0 0l0 43.30709l-72.0 0z" fill-rule="evenodd"/><path fill="#000000" d="m422.3368 120.39396l0 -22.515625l1.84375 0l0 22.515625l-1.84375 0z" fill-rule="nonzero"/><path fill="#000000" d="m442.07117 105.597084q0 0.625 -0.25 1.671875q-0.234375 1.046875 -0.8125 2.421875q-0.578125 1.359375 -1.390625 2.59375q-0.796875 1.21875 -2.125 2.15625q-1.3125 0.9375 -2.875 1.140625l-1.046875 5.140625l-2.265625 0l1.515625 -5.140625q-1.796875 -0.046875 -2.96875 -0.890625q-1.15625 -0.859375 -1.15625 -2.5625q0 -1.03125 0.71875 -3.203125q0.71875 -2.171875 0.71875 -3.03125q0 -0.625 -0.578125 -0.625q-0.46875 0 -0.84375 0.3125q-0.359375 0.3125 -0.546875 0.765625q-0.171875 0.453125 -0.328125 0.96875q-0.15625 0.5 -0.21875 0.875l-0.703125 0q0.203125 -0.71875 0.328125 -1.140625q0.140625 -0.421875 0.40625 -1.015625q0.28125 -0.59375 0.59375 -0.921875q0.328125 -0.328125 0.859375 -0.578125q0.53125 -0.25 1.203125 -0.25q0.859375 0 1.265625 0.5625q0.40625 0.5625 0.40625 1.46875q0 1.109375 -0.71875 3.25q-0.71875 2.140625 -0.71875 3.234375q0 2.09375 2.453125 2.203125l3.8125 -13.046875l0.609375 0l-2.71875 13.046875q2.140625 -0.28125 3.609375 -2.15625q1.484375 -1.875 1.484375 -4.046875q0 -0.46875 -0.125 -1.359375q-0.125 -0.90625 -0.125 -1.359375q0 -0.671875 0.34375 -1.234375q0.359375 -0.5625 1.0 -0.5625q1.1875 0 1.1875 1.3125z" fill-rule="nonzero"/><path fill="#000000" d="m446.46875 117.503334l-1.59375 -0.84375l5.71875 -9.9375l-5.71875 -9.9375l1.59375 -0.84375l6.1875 10.78125l-6.1875 10.78125z" fill-rule="nonzero"/><path fill="#000000" fill-opacity="0.0" d="m387.70602 147.2441l48.0 0l0 38.771652l-48.0 0z" fill-rule="evenodd"/><path fill="#000000" d="m399.5654 171.77597q-0.96875 0 -1.640625 -0.859375q-0.65625 -0.875 -0.65625 -2.125q0 -1.125 0.328125 -2.4375q0.34375 -1.328125 0.953125 -2.578125q0.609375 -1.265625 1.625 -2.09375q1.03125 -0.828125 2.25 -0.828125q1.265625 0 1.828125 0.90625q0.5625 0.890625 0.5625 2.25q0 1.09375 -0.359375 2.40625q-0.34375 1.296875 -0.984375 2.53125q-0.625 1.21875 -1.65625 2.03125q-1.03125 0.796875 -2.25 0.796875zm3.578125 -5.90625q0.328125 -1.375 0.328125 -2.75q0 -0.53125 -0.0625 -0.890625q-0.046875 -0.359375 -0.328125 -0.6875q-0.265625 -0.328125 -0.765625 -0.328125q-1.984375 0 -3.140625 4.65625l3.96875 0zm-0.09375 0.390625l-3.96875 0q-0.46875 1.828125 -0.46875 3.25q0 1.90625 1.03125 1.90625q2.140625 0 3.40625 -5.15625z" fill-rule="nonzero"/><path fill="#000000" d="m405.23404 171.80722l3.328125 -11.859375l1.125 0l-3.3125 11.859375l-1.140625 0zm12.5078125 -1.5625l0 1.359375l-7.578125 0q-0.015625 -0.515625 0.171875 -0.984375q0.28125 -0.765625 0.921875 -1.515625q0.640625 -0.75 1.84375 -1.734375q1.859375 -1.53125 2.515625 -2.421875q0.65625 -0.90625 0.65625 -1.703125q0 -0.828125 -0.59375 -1.40625q-0.59375 -0.578125 -1.5625 -0.578125q-1.015625 0 -1.625 0.609375q-0.609375 0.609375 -0.609375 1.6875l-1.453125 -0.140625q0.15625 -1.625 1.125 -2.46875q0.96875 -0.84375 2.59375 -0.84375q1.65625 0 2.609375 0.921875q0.96875 0.90625 0.96875 2.25q0 0.6875 -0.28125 1.359375q-0.28125 0.65625 -0.9375 1.390625q-0.65625 0.734375 -2.171875 2.015625q-1.265625 1.0625 -1.625 1.453125q-0.359375 0.375 -0.59375 0.75l5.625 0z" fill-rule="nonzero"/><path fill="#000000" fill-opacity="0.0" d="m365.98425 118.62992c3.7098694 8.0 18.549347 32.000008 22.259186 48.000008c3.7098694 16.0 0 40.0 0 48.0" fill-rule="evenodd"/><path stroke="#000000" stroke-width="1.0" stroke-linejoin="round" stroke-linecap="butt" stroke-dasharray="4.0,3.0" d="m365.98425 118.62992c3.7098694 8.0 18.549347 32.000008 22.259186 48.000008c3.7098694 16.0 0 40.0 0 48.0" fill-rule="evenodd"/></g></svg>